<svg width="7" height="13" viewBox="0 0 7 13" fill="none" xmlns="http://www.w3.org/2000/svg">
    <rect x="3.58984" y="9.14844" width="1.45123" height="1.79914" transform="rotate(180 3.58984 9.14844)" fill="#AA58B1"/>
    <rect x="3.58984" y="7.34961" width="1.45123" height="1.79914" transform="rotate(180 3.58984 7.34961)" fill="#AA58B1"/>
    <rect x="5.04102" y="5.5498" width="1.45123" height="1.79914" transform="rotate(180 5.04102 5.5498)" fill="#AA58B1"/>
    <rect x="3.58984" y="5.5498" width="1.45123" height="1.79914" transform="rotate(180 3.58984 5.5498)" fill="#AA58B1"/>
    <rect x="2.13867" y="7.34961" width="1.45123" height="1.79914" transform="rotate(180 2.13867 7.34961)" fill="#AA58B1"/>
    <rect x="5.04102" y="3.75" width="1.45123" height="1.79914" transform="rotate(180 5.04102 3.75)" fill="#AA58B1"/>
    <rect x="6.49219" y="3.75098" width="1.45123" height="1.79914" transform="rotate(180 6.49219 3.75098)" fill="#AA58B1"/>
    <rect x="6.49219" y="1.95117" width="1.45123" height="1.79914" transform="rotate(180 6.49219 1.95117)" fill="#AA58B1"/>
    <rect x="5.04102" y="9.14844" width="1.45123" height="1.79914" transform="rotate(180 5.04102 9.14844)" fill="#AA58B1"/>
    <rect x="5.04102" y="10.9473" width="1.45123" height="1.79914" transform="rotate(180 5.04102 10.9473)" fill="#AA58B1"/>
    <rect x="6.49219" y="10.9473" width="1.45123" height="1.79914" transform="rotate(180 6.49219 10.9473)" fill="#AA58B1"/>
    <rect x="6.49219" y="12.7461" width="1.45123" height="1.79914" transform="rotate(180 6.49219 12.7461)" fill="#AA58B1"/>
</svg>
