<svg width="13" height="8" viewBox="0 0 13 8" fill="none" xmlns="http://www.w3.org/2000/svg">
    <rect x="8.99609" y="3.59863" width="1.79914" height="1.79914" transform="rotate(90 8.99609 3.59863)" fill="#AA58B1"/>
    <rect x="7.19629" y="3.59863" width="1.79914" height="1.79914" transform="rotate(90 7.19629 3.59863)" fill="#AA58B1"/>
    <rect x="5.39746" y="1.7998" width="1.79914" height="1.79914" transform="rotate(90 5.39746 1.7998)" fill="#AA58B1"/>
    <rect x="5.39746" y="3.59863" width="1.79914" height="1.79914" transform="rotate(90 5.39746 3.59863)" fill="#AA58B1"/>
    <rect x="7.19629" y="5.39746" width="1.79914" height="1.79914" transform="rotate(90 7.19629 5.39746)" fill="#AA58B1"/>
    <rect x="3.59863" y="1.7998" width="1.79914" height="1.79914" transform="rotate(90 3.59863 1.7998)" fill="#AA58B1"/>
    <rect x="3.59863" width="1.79914" height="1.79914" transform="rotate(90 3.59863 0)" fill="#AA58B1"/>
    <rect x="1.79883" width="1.79914" height="1.79914" transform="rotate(90 1.79883 0)" fill="#AA58B1"/>
    <rect x="8.99609" y="1.7998" width="1.79914" height="1.79914" transform="rotate(90 8.99609 1.7998)" fill="#AA58B1"/>
    <rect x="10.7949" y="1.7998" width="1.79914" height="1.79914" transform="rotate(90 10.7949 1.7998)" fill="#AA58B1"/>
    <rect x="10.7949" width="1.79914" height="1.79914" transform="rotate(90 10.7949 0)" fill="#AA58B1"/>
    <rect x="12.5938" width="1.79914" height="1.79914" transform="rotate(90 12.5938 0)" fill="#AA58B1"/>
</svg>
