<svg width="9" height="9" viewBox="0 0 9 9" fill="none" xmlns="http://www.w3.org/2000/svg">
<path d="M4.92398 0.368164C3.81946 0.368164 2.77107 0.853023 2.05614 1.6948L1.53461 1.23078C1.42175 1.13194 1.26144 1.10786 1.12451 1.16968C0.987211 1.23114 0.898796 1.36772 0.898438 1.51832V3.05198C0.898438 3.1537 0.938693 3.25111 1.01058 3.32299C1.08247 3.39487 1.17987 3.43549 1.28159 3.43549H3.00682C3.1664 3.43513 3.30873 3.33629 3.36516 3.18713C3.42123 3.03833 3.37954 2.86976 3.25985 2.76444L2.62727 2.20087C3.20019 1.52479 4.04159 1.13481 4.92757 1.13518C5.68092 1.13482 6.40805 1.41194 6.97016 1.91369C7.5323 2.41508 7.89028 3.10626 7.97548 3.8546C8.06103 4.60327 7.86765 5.35697 7.43312 5.97235C6.99821 6.58733 6.35234 7.02111 5.61799 7.19078C4.88404 7.36006 4.1134 7.25368 3.45285 6.89102C2.79223 6.52872 2.28834 5.93603 2.03705 5.22578C1.96697 5.02558 1.74808 4.92027 1.54824 4.99C1.34804 5.05973 1.24237 5.27862 1.31246 5.47882C1.62587 6.36695 2.25595 7.10882 3.08158 7.56244C3.90718 8.01603 4.87076 8.14973 5.78876 7.93803C6.70673 7.72633 7.51473 7.18396 8.05852 6.41477C8.60197 5.64524 8.8435 4.70288 8.7364 3.76693C8.62964 2.83098 8.18181 1.96726 7.4784 1.34047C6.77537 0.713637 5.86607 0.367533 4.92396 0.368269L4.92398 0.368164Z" fill="white"/>
<path d="M6.36151 5.73562C6.27848 5.73562 6.19761 5.70867 6.13147 5.65871L4.59781 4.50855C4.50113 4.43631 4.44434 4.32273 4.44434 4.20197V2.66831C4.44434 2.4566 4.61614 2.28516 4.82784 2.28516C5.03955 2.28516 5.21135 2.4566 5.21135 2.66831V4.01003L6.59154 5.04517V5.04553C6.76082 5.1724 6.79497 5.41286 6.66809 5.58214C6.59585 5.67883 6.48192 5.73562 6.36151 5.73562L6.36151 5.73562Z" fill="white"/>
</svg>
