<svg width="16" height="17" viewBox="0 0 16 17" fill="none" xmlns="http://www.w3.org/2000/svg">
<path d="M1.87402 0.830078H15.874V14.8301H1.87402V0.830078Z" fill="#AA58B1"/>
<path fill-rule="evenodd" clip-rule="evenodd" d="M4.35041 6.18681C4.18138 6.08923 4.18138 5.93102 4.35041 5.83343L8.56841 3.39838C8.73744 3.3008 9.01149 3.3008 9.18052 3.39838L13.3985 5.83343C13.5676 5.93102 13.5676 6.08923 13.3985 6.18681L9.18052 8.62186C9.01149 8.71944 8.73744 8.71944 8.56841 8.62186L4.35041 6.18681ZM5.26858 6.01012L8.87446 8.0918L12.4803 6.01012L8.87446 3.92844L5.26858 6.01012Z" fill="white"/>
<path d="M4.35041 8.13756C4.18138 8.03997 4.18138 7.88176 4.35041 7.78418L5.26858 7.29883L5.8807 7.6522L5.26858 7.96087L8.87446 10.0425L12.4803 7.96087L11.8682 7.66578L12.4803 7.3124L13.3985 7.78418C13.5676 7.88176 13.5676 8.03997 13.3985 8.13756L9.18052 10.5726C9.01149 10.6702 8.73744 10.6702 8.56841 10.5726L4.35041 8.13756Z" fill="white"/>
<path d="M4.35041 10.0878C4.18138 9.99017 4.18138 9.83196 4.35041 9.73438L5.26858 9.24902L5.8807 9.6024L5.26858 9.91106L8.87446 11.9927L12.4803 9.91106L11.8682 9.61597L12.4803 9.2626L13.3985 9.73438C13.5676 9.83196 13.5676 9.99017 13.3985 10.0878L9.18052 12.5228C9.01149 12.6204 8.73744 12.6204 8.56841 12.5228L4.35041 10.0878Z" fill="white"/>
<mask id="path-5-inside-1" fill="white">
<path d="M0.144531 2.52441H14.1445V16.5244H0.144531V2.52441Z"/>
</mask>
<path d="M0.144531 2.52441V1.92441H-0.455469V2.52441H0.144531ZM14.1445 2.52441H14.7445V1.92441H14.1445V2.52441ZM14.1445 16.5244V17.1244H14.7445V16.5244H14.1445ZM0.144531 16.5244H-0.455469V17.1244H0.144531V16.5244ZM0.144531 3.12441H14.1445V1.92441H0.144531V3.12441ZM13.5445 2.52441V16.5244H14.7445V2.52441H13.5445ZM14.1445 15.9244H0.144531V17.1244H14.1445V15.9244ZM0.744531 16.5244V2.52441H-0.455469V16.5244H0.744531Z" fill="#AA58B1" mask="url(#path-5-inside-1)"/>
</svg>
