<svg width="32" height="10" viewBox="0 0 32 10" fill="none" xmlns="http://www.w3.org/2000/svg">
<path d="M23.3225 1.25648C22.9726 1.25648 22.6164 1.25648 22.2289 1.25648C22.2289 1.63143 22.2289 1.98138 22.2289 2.37507C21.7915 2.37507 21.3915 2.37507 20.9728 2.37507C20.9728 2.75002 20.9728 3.08747 20.9728 3.46242C21.3853 3.46242 21.7727 3.46242 22.1914 3.46242C22.1914 3.85611 22.1914 4.21231 22.1914 4.61226C21.7977 4.61226 21.3978 4.61226 20.9728 4.61226C20.9728 4.98095 20.9728 5.31215 20.9728 5.6871C21.3665 5.6871 21.7665 5.6871 22.1914 5.6871C22.1914 6.14329 22.1914 6.55573 22.1914 6.99941C21.7915 6.99941 21.3915 6.99941 20.9728 6.99941C20.9728 7.38061 20.9728 7.73056 20.9728 8.11801C21.379 8.11801 21.779 8.11801 22.1977 8.11801C22.1977 8.50545 22.1977 8.8554 22.1977 9.28034C14.9175 9.28034 7.63099 9.28034 0.332031 9.28034C0.332031 8.06801 0.332031 6.91193 0.332031 5.7121C0.675732 5.7121 1.00694 5.7121 1.35064 5.7121C1.35064 5.3434 1.35064 5.01845 1.35064 4.6435C1.02568 4.6435 0.688231 4.6435 0.332031 4.6435C0.332031 3.48742 0.332031 2.38132 0.332031 1.24399C0.675732 1.24399 1.00069 1.24399 1.36313 1.24399C1.36313 0.862789 1.36313 0.519088 1.36313 0.150391C2.55047 0.150391 3.7003 0.150391 4.90013 0.150391C4.90013 0.494092 4.90013 0.844042 4.90013 1.21274C5.28133 1.21274 5.61878 1.21274 5.99997 1.21274C5.99997 0.862789 5.99997 0.512839 5.99997 0.150391C7.20605 0.150391 8.36214 0.150391 9.56197 0.150391C9.56197 0.512839 9.56197 0.856541 9.56197 1.22524C9.93067 1.22524 10.2619 1.22524 10.6368 1.22524C10.6368 0.869039 10.6368 0.519089 10.6368 0.15664C11.7867 0.15664 12.8865 0.15664 14.0301 0.15664C14.0301 0.500341 14.0301 0.844042 14.0301 1.21899C14.4113 1.21899 14.7487 1.21899 15.1299 1.21899C15.1299 0.86279 15.1299 0.519088 15.1299 0.150391C16.3298 0.150391 17.4796 0.150391 18.6732 0.150391C18.6732 0.494092 18.6732 0.844042 18.6732 1.21899C19.0544 1.21899 19.3981 1.21899 19.7793 1.21899C19.7793 0.86279 19.7793 0.525338 19.7793 0.15664C20.9666 0.15664 22.1289 0.15664 23.3225 0.15664C23.3225 0.525338 23.3225 0.887786 23.3225 1.25023V1.25648ZM3.75029 8.10551C3.75029 7.72431 3.75029 7.38061 3.75029 7.03691C3.3316 7.03691 2.94416 7.03691 2.55047 7.03691C2.55047 7.40561 2.55047 7.74931 2.55047 8.10551C2.95666 8.10551 3.3441 8.10551 3.75029 8.10551ZM3.76279 2.40632C3.3441 2.40632 2.95041 2.40632 2.55047 2.40632C2.55047 2.76252 2.55047 3.08747 2.55047 3.43742C2.96291 3.43742 3.3566 3.43742 3.76279 3.43742C3.76279 3.07497 3.76279 2.75002 3.76279 2.40632ZM17.5483 7.03066C17.1859 7.03066 16.8422 7.03066 16.4797 7.03066C16.4797 7.39311 16.4797 7.74306 16.4797 8.09926C16.8422 8.09926 17.1859 8.09926 17.5483 8.09926C17.5483 7.73681 17.5483 7.39311 17.5483 7.03066ZM8.23716 8.10551C8.23716 7.72431 8.23716 7.38061 8.23716 7.03066C7.87471 7.03066 7.53726 7.03066 7.18106 7.03066C7.18106 7.39311 7.18106 7.74306 7.18106 8.10551C7.5435 8.10551 7.88096 8.10551 8.23716 8.10551ZM18.7294 4.6435C18.7294 5.00595 18.7294 5.3309 18.7294 5.66835C19.0919 5.66835 19.4356 5.66835 19.7855 5.66835C19.7855 5.31216 19.7855 4.9872 19.7855 4.6435C19.4293 4.6435 19.0919 4.6435 18.7294 4.6435ZM11.8554 7.02441C11.8554 7.40561 11.8554 7.75556 11.8554 8.09926C12.2116 8.09926 12.5365 8.09926 12.8802 8.09926C12.8802 7.73056 12.8802 7.38686 12.8802 7.02441C12.5303 7.02441 12.1991 7.02441 11.8554 7.02441ZM17.5483 2.41257C17.1671 2.41257 16.8234 2.41257 16.4797 2.41257C16.4797 2.76877 16.4797 3.09997 16.4797 3.44367C16.8422 3.44367 17.1859 3.44367 17.5483 3.44367C17.5483 3.08122 17.5483 2.75627 17.5483 2.41257ZM8.23716 3.44992C8.23716 3.07497 8.23716 2.73752 8.23716 2.40632C7.87471 2.40632 7.53726 2.40632 7.18731 2.40632C7.18731 2.76252 7.18731 3.09372 7.18731 3.44992C7.54975 3.44992 7.88096 3.44992 8.23716 3.44992ZM15.1237 5.69335C15.1237 5.3434 15.1237 4.9997 15.1237 4.656C14.7675 4.656 14.4363 4.656 14.0988 4.656C14.0988 5.01845 14.0988 5.34965 14.0988 5.69335C14.4425 5.69335 14.7487 5.69335 15.1237 5.69335ZM9.59946 5.67461C9.96816 5.67461 10.2994 5.67461 10.6431 5.67461C10.6431 5.31216 10.6431 4.98095 10.6431 4.656C10.2744 4.656 9.94316 4.656 9.59946 4.656C9.59946 5.00595 9.59946 5.32466 9.59946 5.67461ZM5.99997 4.64975C5.63128 4.64975 5.30632 4.64975 4.95637 4.64975C4.95637 4.9997 4.95637 5.33715 4.95637 5.68085C5.31882 5.68085 5.65627 5.68085 5.99997 5.68085C5.99997 5.32465 5.99997 4.99345 5.99997 4.64975ZM12.8865 2.40007C12.5178 2.40007 12.1928 2.40007 11.8491 2.40007C11.8491 2.75627 11.8491 3.08747 11.8491 3.43742C12.2053 3.43742 12.5365 3.43742 12.8865 3.43742C12.8865 3.08122 12.8865 2.75002 12.8865 2.40007Z" fill="black"/>
<path d="M27.9967 3.46871C28.3592 3.46871 28.6966 3.46871 29.0591 3.46871C29.0591 3.09377 29.0591 2.75632 29.0591 2.38762C28.7091 2.38762 28.3654 2.38762 27.9967 2.38762C27.9967 2.00017 27.9967 1.64398 27.9967 1.25653C28.3592 1.25653 28.7154 1.25653 29.109 1.25653C29.109 1.61273 29.109 1.95643 29.109 2.33138C29.484 2.33138 29.8214 2.33138 30.2026 2.33138C30.2026 1.96893 30.2026 1.62523 30.2026 1.25653C30.5276 1.25653 30.8151 1.25653 31.1213 1.25653C31.1213 1.61898 31.1213 1.97518 31.1213 2.37512C30.84 2.37512 30.5651 2.37512 30.2651 2.37512C30.2651 2.75007 30.2651 3.08127 30.2651 3.46247C30.5588 3.46247 30.8338 3.46247 31.1275 3.46247C31.1275 3.86866 31.1275 4.22486 31.1275 4.60605C30.8213 4.60605 30.5401 4.60605 30.2151 4.60605C30.2151 4.23736 30.2151 3.89365 30.2151 3.52496C29.8339 3.52496 29.5027 3.52496 29.1215 3.52496C29.1215 3.88741 29.1215 4.23736 29.1215 4.60605C28.7279 4.60605 28.3779 4.60605 28.003 4.60605C27.9967 4.2436 27.9967 3.8874 27.9967 3.46871Z" fill="black"/>
<path d="M24.4663 2.36884C24.8287 2.36884 25.1974 2.36884 25.5599 2.36884L25.5849 2.38758C25.5849 2.73128 25.5849 3.06874 25.5849 3.46243C25.9661 3.46243 26.3223 3.46243 26.6972 3.46243C26.6972 3.86862 26.6972 4.23107 26.6972 4.60602C26.3223 4.60602 25.9661 4.60602 25.5724 4.60602C25.5724 4.24357 25.5724 3.89362 25.5724 3.52492C25.1912 3.52492 24.8475 3.52492 24.4663 3.52492C24.4663 3.89362 24.4663 4.23732 24.4663 4.60602C24.0726 4.60602 23.7164 4.60602 23.3414 4.60602C23.3414 4.22482 23.3414 3.86862 23.3414 3.46868C23.7039 3.46868 24.0538 3.46868 24.4475 3.46868C24.4475 3.08123 24.4475 2.73128 24.4475 2.38133C24.4475 2.38133 24.4663 2.36884 24.4663 2.36884Z" fill="black"/>
<path d="M29.0903 5.73712C29.0903 6.16831 29.0903 6.58075 29.0903 6.99944C28.7216 6.99944 28.3717 6.99944 27.9905 6.99944C27.9905 6.58075 27.9905 6.17456 27.9905 5.73712C28.3467 5.73712 28.7029 5.73712 29.0903 5.73712Z" fill="black"/>
<path d="M24.4474 7.01196C24.0849 7.01196 23.7287 7.01196 23.3475 7.01196C23.3475 6.57453 23.3475 6.16833 23.3475 5.7309C23.7037 5.7309 24.0599 5.7309 24.4661 5.7309C24.4661 6.15584 24.4661 6.57453 24.4661 6.99322L24.4474 7.01196Z" fill="black"/>
<path d="M25.5723 6.99318C25.5723 6.58074 25.5723 6.1683 25.5723 5.72461C25.9535 5.72461 26.3097 5.72461 26.6909 5.72461C26.6909 6.1433 26.6909 6.54949 26.6909 7.00568C26.3284 7.00568 25.9597 7.00568 25.591 7.00568C25.5848 7.01193 25.5723 6.99318 25.5723 6.99318Z" fill="black"/>
<path d="M28.0093 8.13678C28.3717 8.13678 28.7217 8.13678 29.0904 8.13678C29.0904 8.51173 29.0904 8.86792 29.0904 9.24912C28.7342 9.24912 28.3905 9.24912 28.0093 9.24912C28.0093 8.88667 28.0093 8.53047 28.0093 8.13678Z" fill="black"/>
<path d="M23.3413 1.23773C23.7037 1.23773 24.0599 1.23773 24.4724 1.23773C24.4724 1.62518 24.4724 1.99387 24.4724 2.36257L24.4536 2.38132C24.0974 2.38132 23.735 2.38132 23.3288 2.38132C23.3288 1.98763 23.3288 1.62518 23.3288 1.25648C23.3225 1.25648 23.3413 1.23773 23.3413 1.23773Z" fill="black"/>
<path d="M25.5848 8.12427C25.9472 8.12427 26.3034 8.12427 26.6909 8.12427C26.6909 8.50546 26.6909 8.86166 26.6909 9.24286C26.3347 9.24286 25.9785 9.24286 25.5723 9.24286C25.5723 8.88041 25.5723 8.51172 25.5723 8.14302L25.5848 8.12427Z" fill="black"/>
<path d="M24.4663 8.14302C24.4663 8.50547 24.4663 8.86791 24.4663 9.24286C24.0788 9.24286 23.7164 9.24286 23.3414 9.24286C23.3414 8.87416 23.3414 8.52421 23.3414 8.12427C23.7101 8.12427 24.0788 8.12427 24.4475 8.12427L24.4663 8.14302Z" fill="black"/>
<path d="M25.5722 8.13681C25.2035 8.13681 24.8348 8.13681 24.4661 8.14306L24.4474 8.12431C24.4474 7.75562 24.4474 7.38692 24.4474 7.01197L24.4661 6.99323C24.8348 6.99323 25.2035 6.99322 25.5722 6.99947L25.5847 7.01197C25.5847 7.38067 25.5847 7.74937 25.5847 8.12431L25.5722 8.13681Z" fill="black"/>
<path d="M25.5597 2.36262C25.5597 2.00017 25.5597 1.63773 25.5597 1.25653C25.9534 1.25653 26.3096 1.25653 26.6845 1.25653C26.6845 1.61273 26.6845 1.97518 26.6845 2.38762C26.3158 2.38762 25.9471 2.38762 25.5784 2.38762C25.5847 2.38762 25.5597 2.36262 25.5597 2.36262Z" fill="black"/>
<path d="M31.1213 6.99944C30.8151 6.99944 30.5401 6.99944 30.2339 6.99944C30.2339 6.587 30.2339 6.18081 30.2339 5.73712C30.5213 5.73712 30.8088 5.73712 31.1213 5.73712C31.1213 6.14956 31.1213 6.562 31.1213 6.99944Z" fill="black"/>
<path d="M30.2339 8.13678C30.5338 8.13678 30.8213 8.13678 31.1275 8.13678C31.1275 8.50548 31.1275 8.86168 31.1275 9.24287C30.8338 9.24287 30.5463 9.24287 30.2339 9.24287C30.2339 8.88667 30.2339 8.53047 30.2339 8.13678Z" fill="black"/>
</svg>
