<svg width="41" height="12" viewBox="0 0 41 12" fill="none" xmlns="http://www.w3.org/2000/svg">
<path d="M29.9249 1.15227C29.9249 1.69698 29.9249 2.25019 29.9249 2.85447C29.3376 2.85447 28.8014 2.85447 28.2397 2.85447C28.2397 3.42471 28.2397 3.94388 28.2397 4.51412C28.7844 4.51412 29.3206 4.51412 29.8993 4.51412C29.8993 5.10138 29.8993 5.62907 29.8993 6.19079C30.5462 6.19079 31.1334 6.19079 31.7973 6.19079C31.7973 5.6546 31.7973 5.1184 31.7973 4.54817C32.4186 4.54817 32.9633 4.54817 33.542 4.54817C33.542 5.1184 33.542 5.68013 33.542 6.30144C32.9973 6.30144 32.4611 6.30144 31.8994 6.30144C31.8994 6.95679 31.8994 7.53554 31.8994 8.18237C32.4526 8.18237 32.9803 8.18237 33.542 8.18237C33.542 8.79517 33.542 9.35689 33.542 9.94415C32.9718 9.94415 32.4271 9.94415 31.8228 9.94415C31.8228 9.39094 31.8228 8.86325 31.8228 8.30153C31.1675 8.30153 30.5802 8.30153 29.9334 8.30153C29.9334 8.83772 29.9334 9.3654 29.9334 9.96118C29.3461 9.96118 28.8099 9.96118 28.2141 9.96118C28.2141 10.4803 28.2141 10.9399 28.2141 11.4251C26.4524 11.4251 24.7587 11.4251 23.0139 11.4251C23.0139 10.9655 23.0139 10.5229 23.0139 10.0293C22.3671 10.0293 21.7713 10.0293 21.0989 10.0293C21.0989 10.4803 21.0989 10.9399 21.0989 11.4251C14.1454 11.4251 7.26 11.4251 0.332031 11.4251C0.332031 7.63767 0.332031 3.85877 0.332031 0.0458374C8.46857 0.0458374 16.5881 0.0458374 24.7416 0.0458374C24.7672 0.386278 24.7842 0.718209 24.8097 1.08418C25.3374 1.08418 25.8396 1.08418 26.3758 1.08418C26.3928 0.743742 26.4098 0.411811 26.4353 0.0458374C27.0226 0.0458374 27.5843 0.0458374 28.1801 0.0458374C28.1971 0.394789 28.2141 0.726718 28.2312 1.1012C28.7929 1.1012 29.3291 1.1012 29.8568 1.1012C29.8908 1.10971 29.9078 1.12674 29.9249 1.15227ZM21.0564 2.82894C21.0564 2.28424 21.0564 1.73953 21.0564 1.16929C20.4691 1.16929 19.9499 1.16929 19.4137 1.16929C19.4137 1.72251 19.4137 2.25019 19.4137 2.82894C19.984 2.82894 20.5202 2.82894 21.0564 2.82894C21.0564 3.39918 21.0564 3.96091 21.0479 4.53115C20.5031 4.55668 19.9584 4.58221 19.4052 4.60774C19.4052 5.16096 19.4052 5.66311 19.4052 6.18228C19.9584 6.18228 20.4861 6.18228 21.0564 6.18228C21.0564 5.60353 21.0564 5.06734 21.0564 4.53115C21.6862 4.53115 22.316 4.53115 23.0139 4.53115C23.0139 3.91835 23.0139 3.37365 23.0139 2.82894C23.5586 2.82894 24.1033 2.82894 24.665 2.82894C24.665 2.22466 24.665 1.70549 24.665 1.16929C24.1203 1.16929 23.6182 1.16929 23.0054 1.16929C23.0054 1.73102 23.0054 2.27573 23.0054 2.82043C22.3586 2.82043 21.7117 2.82043 21.0564 2.82894ZM12.3411 4.59923C12.3411 5.15245 12.3411 5.66311 12.3411 6.19079C12.9709 6.19079 13.5582 6.19079 14.1795 6.19079C14.1795 5.6546 14.1795 5.14394 14.1795 4.59923C13.5411 4.59923 12.9454 4.59923 12.3411 4.59923ZM29.8312 8.15684C29.8312 7.54405 29.8312 6.94827 29.8312 6.34399C29.278 6.34399 28.7674 6.34399 28.2567 6.34399C28.2567 6.97381 28.2567 7.55256 28.2567 8.15684C28.7929 8.15684 29.295 8.15684 29.8312 8.15684ZM24.8267 6.33548C24.8267 6.9653 24.8267 7.54405 24.8267 8.14833C25.3629 8.14833 25.8651 8.14833 26.3843 8.14833C26.3843 7.53554 26.3843 6.94827 26.3843 6.33548C25.8566 6.33548 25.3715 6.33548 24.8267 6.33548ZM15.9838 2.76936C16.554 2.76936 17.0817 2.76936 17.6009 2.76936C17.6009 2.21615 17.6009 1.69697 17.6009 1.1778C17.0477 1.1778 16.52 1.1778 15.9838 1.1778C15.9838 1.72251 15.9838 2.23317 15.9838 2.76936ZM17.6009 6.19079C17.6009 5.62907 17.6009 5.12692 17.6009 4.60774C17.0477 4.60774 16.52 4.60774 15.9923 4.60774C15.9923 5.16096 15.9923 5.66311 15.9923 6.19079C16.5455 6.19079 17.0562 6.19079 17.6009 6.19079ZM3.38749 2.7949C3.38749 2.23317 3.38749 1.70549 3.38749 1.1778C2.83427 1.1778 2.32361 1.1778 1.79593 1.1778C1.79593 1.73102 1.79593 2.2587 1.79593 2.7949C2.33212 2.7949 2.83427 2.7949 3.38749 2.7949ZM23.0905 6.18228C23.6437 6.18228 24.1544 6.18228 24.6821 6.18228C24.6821 5.63758 24.6821 5.13543 24.6821 4.59923C24.1459 4.59923 23.6267 4.59923 23.0905 4.59923C23.0905 5.15245 23.0905 5.66311 23.0905 6.18228ZM17.6094 8.30153C17.0392 8.30153 16.5285 8.30153 16.0008 8.30153C16.0008 8.83772 16.0008 9.33987 16.0008 9.85053C16.554 9.85053 17.0817 9.85053 17.6094 9.85053C17.6094 9.31434 17.6094 8.8207 17.6094 8.30153ZM21.0138 8.30153C20.4436 8.30153 19.9329 8.30153 19.4223 8.30153C19.4223 8.84623 19.4223 9.34838 19.4223 9.84202C19.9755 9.84202 20.4946 9.84202 21.0138 9.84202C21.0138 9.31434 21.0138 8.8207 21.0138 8.30153ZM23.0905 9.85053C23.6522 9.85053 24.1629 9.85053 24.6735 9.85053C24.6735 9.30583 24.6735 8.81219 24.6735 8.29302C24.1288 8.29302 23.6267 8.29302 23.0905 8.29302C23.0905 8.8207 23.0905 9.31434 23.0905 9.85053ZM26.5375 4.59923C26.5375 5.14394 26.5375 5.6546 26.5375 6.19079C27.0737 6.19079 27.5673 6.19079 28.095 6.19079C28.095 5.64609 28.095 5.13543 28.095 4.59923C27.5588 4.59923 27.0651 4.59923 26.5375 4.59923ZM26.3843 2.88001C25.8396 2.88001 25.3459 2.88001 24.8353 2.88001C24.8353 3.43322 24.8353 3.9524 24.8353 4.48859C25.3715 4.48859 25.8651 4.48859 26.3843 4.48859C26.3843 3.94389 26.3843 3.43322 26.3843 2.88001ZM26.5289 2.76936C27.0907 2.76936 27.5843 2.76936 28.095 2.76936C28.095 2.21615 28.095 1.70549 28.095 1.1778C27.5588 1.1778 27.0566 1.1778 26.5289 1.1778C26.5289 1.714 26.5289 2.23317 26.5289 2.76936ZM8.91114 2.77788C9.44733 2.77788 9.94948 2.77788 10.4601 2.77788C10.4601 2.22466 10.4601 1.69697 10.4601 1.1778C9.91544 1.1778 9.4218 1.1778 8.91114 1.1778C8.91114 1.73102 8.91114 2.24168 8.91114 2.77788ZM8.91114 8.2845C8.91114 8.84623 8.91114 9.33987 8.91114 9.84202C9.45584 9.84202 9.958 9.84202 10.4601 9.84202C10.4601 9.30583 10.4601 8.80368 10.4601 8.2845C9.93246 8.2845 9.44733 8.2845 8.91114 8.2845ZM26.5375 9.85904C27.0907 9.85904 27.5758 9.85904 28.0865 9.85904C28.0865 9.32285 28.0865 8.81219 28.0865 8.31004C27.5418 8.31004 27.0396 8.31004 26.5375 8.31004C26.5375 8.84623 26.5375 9.33987 26.5375 9.85904Z" fill="#717174"/>
<path d="M38.6912 8.20789C39.3465 8.20789 39.9763 8.20789 40.6402 8.20789C40.6402 8.79515 40.6402 9.34836 40.6402 9.94413C39.9848 9.94413 39.355 9.94413 38.6912 9.94413C38.6912 9.35687 38.6912 8.79515 38.6912 8.20789Z" fill="#717174"/>
<path d="M38.6997 1.12671C39.3465 1.12671 39.9764 1.12671 40.6402 1.12671C40.6402 1.68844 40.6402 2.23314 40.6402 2.81189C40.0019 2.81189 39.3721 2.81189 38.6997 2.81189C38.6997 2.2757 38.6997 1.73099 38.6997 1.12671Z" fill="#717174"/>
<path d="M36.9804 4.54816C36.9804 5.13542 36.9804 5.68012 36.9804 6.26738C36.4102 6.26738 35.874 6.26738 35.2867 6.26738C35.2867 5.69715 35.2867 5.14393 35.2867 4.54816C35.84 4.54816 36.3762 4.54816 36.9804 4.54816Z" fill="#717174"/>
<path d="M31.8909 1.1012C32.4356 1.1012 32.9803 1.1012 33.559 1.1012C33.559 1.69697 33.559 2.24167 33.559 2.82042C32.9973 2.82042 32.4441 2.82042 31.8313 2.82042C31.8313 2.2587 31.8313 1.71399 31.8313 1.16929C31.8483 1.14375 31.8739 1.11822 31.8909 1.1012Z" fill="#717174"/>
<path d="M36.972 1.13525C36.972 1.70549 36.972 2.2502 36.972 2.82044C36.4018 2.82044 35.8571 2.82044 35.2783 2.82044C35.2783 2.25871 35.2783 1.714 35.2783 1.13525C35.8315 1.13525 36.3762 1.13525 36.972 1.13525Z" fill="#717174"/>
<path d="M31.8313 1.16078C31.193 1.15226 30.5631 1.15226 29.9248 1.14375C29.9078 1.12673 29.8823 1.10971 29.8652 1.08418C29.8652 0.743736 29.8652 0.411805 29.8652 0.0288086C30.5376 0.0288086 31.1759 0.0288086 31.8823 0.0288086C31.8823 0.394783 31.8823 0.743734 31.8823 1.09269C31.8738 1.11822 31.8483 1.14375 31.8313 1.16078Z" fill="#717174"/>
</svg>
