<svg width="14" height="12" viewBox="0 0 14 12" fill="none" xmlns="http://www.w3.org/2000/svg">
    <rect x="2.6828" y="0.27356" width="9.6127" height="9.25174" fill="#F79F53" stroke="#F79F53" stroke-width="0.5"/>
    <rect x="1.59921" y="1.32907" width="9.6127" height="9.25174" stroke="#F79F53" stroke-width="0.5"/>
    <rect x="8.01238" y="2.0157" width="0.385092" height="0.318874" transform="rotate(-180 8.01238 2.0157)" fill="white" stroke="white" stroke-width="0.318874"/>
    <rect x="8.01238" y="2.65346" width="0.385092" height="0.318874" transform="rotate(-180 8.01238 2.65346)" fill="white" stroke="white" stroke-width="0.318874"/>
    <rect x="8.01238" y="3.29122" width="0.385092" height="0.318874" transform="rotate(-180 8.01238 3.29122)" fill="white" stroke="white" stroke-width="0.318874"/>
    <rect x="8.01238" y="3.92897" width="0.385092" height="0.318874" transform="rotate(-180 8.01238 3.92897)" fill="white" stroke="white" stroke-width="0.318874"/>
    <rect x="8.01238" y="4.56673" width="0.385092" height="0.318874" transform="rotate(-180 8.01238 4.56673)" fill="white" stroke="white" stroke-width="0.318874"/>
    <rect x="8.01238" y="5.20448" width="0.385092" height="0.318874" transform="rotate(-180 8.01238 5.20448)" fill="white" stroke="white" stroke-width="0.318874"/>
    <rect x="8.01238" y="5.77825" width="0.385092" height="0.318874" transform="rotate(-180 8.01238 5.77825)" fill="white" stroke="white" stroke-width="0.318874"/>
    <rect x="8.01238" y="6.416" width="0.385092" height="0.318874" transform="rotate(-180 8.01238 6.416)" fill="white" stroke="white" stroke-width="0.318874"/>
    <rect x="8.01238" y="7.69151" width="0.385092" height="0.318874" transform="rotate(-180 8.01238 7.69151)" fill="white" stroke="white" stroke-width="0.318874"/>
    <rect x="8.01238" y="8.32927" width="0.385092" height="0.318874" transform="rotate(-180 8.01238 8.32927)" fill="white" stroke="white" stroke-width="0.318874"/>
    <rect x="7.35124" y="2.0157" width="0.385092" height="0.318874" transform="rotate(-180 7.35124 2.0157)" fill="white" stroke="white" stroke-width="0.318874"/>
    <rect x="7.35124" y="2.65346" width="0.385092" height="0.318874" transform="rotate(-180 7.35124 2.65346)" fill="white" stroke="white" stroke-width="0.318874"/>
    <rect x="7.35124" y="3.29122" width="0.385092" height="0.318874" transform="rotate(-180 7.35124 3.29122)" fill="white" stroke="white" stroke-width="0.318874"/>
    <rect x="7.35124" y="3.92897" width="0.385092" height="0.318874" transform="rotate(-180 7.35124 3.92897)" fill="white" stroke="white" stroke-width="0.318874"/>
    <rect x="7.35124" y="4.56673" width="0.385092" height="0.318874" transform="rotate(-180 7.35124 4.56673)" fill="white" stroke="white" stroke-width="0.318874"/>
    <rect x="7.35124" y="5.20448" width="0.385092" height="0.318874" transform="rotate(-180 7.35124 5.20448)" fill="white" stroke="white" stroke-width="0.318874"/>
    <rect x="7.35124" y="5.77825" width="0.385092" height="0.318874" transform="rotate(-180 7.35124 5.77825)" fill="white" stroke="white" stroke-width="0.318874"/>
    <rect x="7.35124" y="6.416" width="0.385092" height="0.318874" transform="rotate(-180 7.35124 6.416)" fill="white" stroke="white" stroke-width="0.318874"/>
    <rect x="7.35124" y="7.69151" width="0.385092" height="0.318874" transform="rotate(-180 7.35124 7.69151)" fill="white" stroke="white" stroke-width="0.318874"/>
    <rect x="7.35124" y="8.32927" width="0.385092" height="0.318874" transform="rotate(-180 7.35124 8.32927)" fill="white" stroke="white" stroke-width="0.318874"/>
</svg>
