<svg width="36" height="37" viewBox="0 0 36 37" fill="none" xmlns="http://www.w3.org/2000/svg">
    <rect x="0.0551758" y="0.421387" width="35.5763" height="35.8242" rx="17.7882" fill="white"/>
    <path fill-rule="evenodd" clip-rule="evenodd" d="M15.2654 13.9497L15.587 13.1772H20.0997L20.4214 13.9497L18.4691 15.9871L20.4214 18.0245L20.4208 18.6596L18.4702 20.6879L20.4208 22.7162L20.0997 23.4893H15.587L15.2659 22.7162L17.2166 20.6879L15.2659 18.6596L15.2654 18.0245L17.2177 15.9871L15.2654 13.9497ZM17.8434 15.3341L19.0379 14.0876H16.6489L17.8434 15.3341ZM17.8434 16.64L16.2133 18.3412L17.8434 20.0362L19.4735 18.3412L17.8434 16.64ZM17.8434 21.3397L16.6516 22.5789H19.0352L17.8434 21.3397Z" fill="black"/>
    <path d="M8.29667 12.8216L17.8435 7.30977L27.3902 12.8216V23.8453L17.8435 29.3571L8.29667 23.8453V12.8216Z" stroke="black"/>
</svg>
