<svg width="12" height="12" viewBox="0 0 12 12" fill="none" xmlns="http://www.w3.org/2000/svg">
    <path fill-rule="evenodd" clip-rule="evenodd" d="M4.43066 0.222656C2.22153 0.222656 0.430664 2.01352 0.430664 4.22265V7.67522C0.430664 9.88436 2.22152 11.6752 4.43066 11.6752H7.88323C10.0924 11.6752 11.8832 9.88436 11.8832 7.67522V4.22266C11.8832 2.01352 10.0924 0.222656 7.88323 0.222656H4.43066ZM9.67377 3.04548C9.71944 2.99434 9.77956 2.96169 9.8449 2.95183L9.84498 2.952C9.97274 2.93228 10.0982 3.00315 10.1543 3.12698C10.2104 3.2508 10.1843 3.39991 10.0901 3.49417C9.3054 4.33219 8.48226 5.24773 7.65753 6.16503C6.82946 7.08605 5.9998 8.00885 5.20583 8.85674C5.09771 8.97133 4.92601 8.97996 4.80806 8.87646L2.29192 6.66834C2.23121 6.61473 2.19247 6.53772 2.18496 6.45331C2.17744 6.36952 2.20115 6.28634 2.25145 6.22104C2.30233 6.15635 2.3746 6.11568 2.4538 6.10767C2.53244 6.10028 2.61049 6.12616 2.6712 6.18037L4.9745 8.20112C5.70133 7.41982 6.45736 6.58101 7.21479 5.74064C8.04497 4.81956 8.87683 3.89662 9.67377 3.04548Z" fill="white"/>
</svg>
