<svg width="11" height="12" viewBox="0 0 11 12" fill="none" xmlns="http://www.w3.org/2000/svg">
    <rect x="0.231934" y="0.796875" width="10.5816" height="10.5034" rx="5.25171" fill="#F79F53"/>
    <rect x="6.04515" y="2.90215" width="0.385092" height="0.318874" transform="rotate(-180 6.04515 2.90215)" fill="white" stroke="white" stroke-width="0.318874"/>
    <rect x="6.04515" y="3.5399" width="0.385092" height="0.318874" transform="rotate(-180 6.04515 3.5399)" fill="white" stroke="white" stroke-width="0.318874"/>
    <rect x="6.04515" y="4.17766" width="0.385092" height="0.318874" transform="rotate(-180 6.04515 4.17766)" fill="white" stroke="white" stroke-width="0.318874"/>
    <rect x="6.04515" y="4.81542" width="0.385092" height="0.318874" transform="rotate(-180 6.04515 4.81542)" fill="white" stroke="white" stroke-width="0.318874"/>
    <rect x="6.04515" y="5.45317" width="0.385092" height="0.318874" transform="rotate(-180 6.04515 5.45317)" fill="white" stroke="white" stroke-width="0.318874"/>
    <rect x="6.04515" y="6.09093" width="0.385092" height="0.318874" transform="rotate(-180 6.04515 6.09093)" fill="white" stroke="white" stroke-width="0.318874"/>
    <rect x="6.04491" y="6.66469" width="0.385092" height="0.318874" transform="rotate(-180 6.04491 6.66469)" fill="white" stroke="white" stroke-width="0.318874"/>
    <rect x="6.04491" y="7.30245" width="0.385092" height="0.318874" transform="rotate(-180 6.04491 7.30245)" fill="white" stroke="white" stroke-width="0.318874"/>
    <rect x="6.04491" y="8.57796" width="0.385092" height="0.318874" transform="rotate(-180 6.04491 8.57796)" fill="white" stroke="white" stroke-width="0.318874"/>
    <rect x="6.04491" y="9.21572" width="0.385092" height="0.318874" transform="rotate(-180 6.04491 9.21572)" fill="white" stroke="white" stroke-width="0.318874"/>
    <rect x="5.38402" y="2.90215" width="0.385092" height="0.318874" transform="rotate(-180 5.38402 2.90215)" fill="white" stroke="white" stroke-width="0.318874"/>
    <rect x="5.38402" y="3.5399" width="0.385092" height="0.318874" transform="rotate(-180 5.38402 3.5399)" fill="white" stroke="white" stroke-width="0.318874"/>
    <rect x="5.38402" y="4.17766" width="0.385092" height="0.318874" transform="rotate(-180 5.38402 4.17766)" fill="white" stroke="white" stroke-width="0.318874"/>
    <rect x="5.38378" y="4.81542" width="0.385092" height="0.318874" transform="rotate(-180 5.38378 4.81542)" fill="white" stroke="white" stroke-width="0.318874"/>
    <rect x="5.38378" y="5.45317" width="0.385092" height="0.318874" transform="rotate(-180 5.38378 5.45317)" fill="white" stroke="white" stroke-width="0.318874"/>
    <rect x="5.38378" y="6.09093" width="0.385092" height="0.318874" transform="rotate(-180 5.38378 6.09093)" fill="white" stroke="white" stroke-width="0.318874"/>
    <rect x="5.38402" y="6.66469" width="0.385092" height="0.318874" transform="rotate(-180 5.38402 6.66469)" fill="white" stroke="white" stroke-width="0.318874"/>
    <rect x="5.38402" y="7.30245" width="0.385092" height="0.318874" transform="rotate(-180 5.38402 7.30245)" fill="white" stroke="white" stroke-width="0.318874"/>
    <rect x="5.38378" y="8.57796" width="0.385092" height="0.318874" transform="rotate(-180 5.38378 8.57796)" fill="white" stroke="white" stroke-width="0.318874"/>
    <rect x="5.38378" y="9.21572" width="0.385092" height="0.318874" transform="rotate(-180 5.38378 9.21572)" fill="white" stroke="white" stroke-width="0.318874"/>
</svg>
