<svg width="37" height="37" viewBox="0 0 37 37" fill="none" xmlns="http://www.w3.org/2000/svg">
    <rect x="0.452637" y="0.421387" width="35.5763" height="35.8242" rx="17.7882" fill="white"/>
    <path d="M16.7506 18.3354C16.7506 19.3367 17.5624 20.1481 18.5638 20.1481C19.5651 20.1481 20.3765 19.3367 20.3769 18.3354H16.7506ZM16.7506 18.3354C16.7506 17.334 17.5624 16.5222 18.5638 16.5222M16.7506 18.3354L18.5638 16.5222M18.5638 16.5222C19.5655 16.5222 20.3769 17.334 20.3769 18.3353L18.5638 16.5222ZM20.859 18.3354V18.3353C20.8585 17.0696 19.8292 16.0402 18.5638 16.0402C17.2984 16.0402 16.2686 17.0695 16.2686 18.3354C16.2686 19.6007 17.2979 20.6301 18.5638 20.6301C19.8291 20.6301 20.859 19.6008 20.859 18.3354Z" fill="black" stroke="black" stroke-width="0.25"/>
    <mask id="path-3-outside-1_8471_38937" maskUnits="userSpaceOnUse" x="12.4131" y="12.1128" width="12" height="12" fill="black">
        <rect fill="white" x="12.4131" y="12.1128" width="12" height="12"/>
        <path d="M23.5854 19.1716L22.6238 18.7293C22.636 18.5997 22.6432 18.4678 22.6432 18.3351C22.6432 18.2005 22.636 18.0677 22.6238 17.9367L23.5854 17.4949C23.6823 17.4636 23.7358 17.3589 23.7041 17.262L23.352 16.178C23.3207 16.0806 23.216 16.0275 23.1191 16.0593L22.08 16.2673C21.9454 16.0389 21.789 15.8245 21.6141 15.6274L22.1339 14.7029C22.1942 14.6205 22.1756 14.5045 22.0931 14.4446L21.1709 13.7744C21.0884 13.7141 20.9724 13.7327 20.9126 13.8157L20.1943 14.5946C19.9546 14.49 19.7027 14.4079 19.4416 14.3504L19.3184 13.2972C19.3179 13.1957 19.2354 13.1128 19.133 13.1128H17.9933C17.8913 13.1128 17.8084 13.1957 17.8084 13.2977L17.6852 14.3508C17.4237 14.4079 17.1722 14.4904 16.9324 14.5951L16.2142 13.8157C16.1539 13.7332 16.0388 13.7146 15.9559 13.7749L15.0337 14.4446C14.9508 14.5049 14.9326 14.6205 14.9924 14.703L15.5118 15.6274C15.3364 15.8245 15.1805 16.0389 15.0459 16.2673L14.0073 16.0588C13.9103 16.0276 13.8061 16.0806 13.7743 16.1775L13.4222 17.2615C13.3905 17.3585 13.444 17.4627 13.541 17.4944L14.503 17.9363C14.4903 18.0677 14.4835 18.2 14.4835 18.3351C14.4835 18.4678 14.4903 18.5997 14.503 18.7293L13.5414 19.1712C13.4444 19.2024 13.391 19.3071 13.4227 19.4041L13.7748 20.4885C13.8065 20.5859 13.9108 20.639 14.0077 20.6072L15.0446 20.3997C15.1792 20.6294 15.336 20.8438 15.5113 21.0418L14.9934 21.9636C14.9335 22.0465 14.9517 22.162 15.0346 22.2219L15.9568 22.8921C16.0393 22.9524 16.1548 22.9338 16.2151 22.8509L16.9311 22.0746C17.1717 22.1797 17.4246 22.2622 17.687 22.3197L17.8093 23.3684C17.8084 23.4708 17.8914 23.5537 17.9933 23.5537H19.1335C19.2354 23.5542 19.3184 23.4708 19.3184 23.3688L19.4412 22.3197C19.7036 22.2622 19.9564 22.1793 20.1975 22.0746L20.9131 22.8509C20.9733 22.9333 21.0889 22.9519 21.1714 22.8921L22.0936 22.2223C22.1765 22.1625 22.1946 22.0465 22.1343 21.964L21.6164 21.0418C21.7917 20.8442 21.9481 20.629 22.0827 20.3997L23.1195 20.6077C23.2165 20.639 23.3207 20.5859 23.3524 20.489L23.7046 19.405C23.7363 19.3076 23.6828 19.2029 23.5854 19.1716L23.5854 19.1716ZM23.1449 20.3761L21.9662 20.1396L21.8824 20.2823C21.756 20.4976 21.6078 20.7015 21.4424 20.8878L21.3327 21.0115L21.9214 22.0601L21.069 22.6791L20.2551 21.7964L20.1037 21.8625C19.874 21.9627 19.6342 22.0406 19.3909 22.0941L19.2296 22.1294L19.09 23.3217H18.0364L17.8973 22.129L17.7355 22.0936C17.4917 22.0402 17.2515 21.9622 17.0227 21.8621L16.8713 21.7959L16.0574 22.6787L15.205 22.0592L15.7937 21.011L15.684 20.8873C15.5181 20.701 15.3704 20.4971 15.244 20.2819L15.1601 20.1391L13.9815 20.3752L13.6561 19.3733L14.7491 18.8712L14.7333 18.7071C14.721 18.5811 14.7152 18.4561 14.7152 18.3351C14.7152 18.2118 14.7215 18.0854 14.7337 17.959L14.7496 17.7944L13.6561 17.2923L13.9815 16.2904L15.162 16.527L15.2458 16.3847C15.3723 16.1703 15.52 15.9673 15.6854 15.781L15.7951 15.6573L15.2046 14.6064L16.057 13.987L16.8732 14.8729L17.0245 14.8067C17.2525 14.7075 17.4913 14.63 17.7346 14.5765L17.896 14.5412L18.0364 13.3449H19.09L19.2301 14.5421L19.3918 14.5775C19.6357 14.6309 19.874 14.7084 20.1015 14.8077L20.2529 14.8738L21.0695 13.9879L21.9219 14.6074L21.3314 15.6583L21.4411 15.782C21.6065 15.9682 21.7542 16.1712 21.8802 16.3856L21.964 16.5279L23.145 16.2918L23.4708 17.2937L22.3774 17.7958L22.3932 17.9599C22.4055 18.0881 22.4118 18.2146 22.4118 18.336C22.4118 18.4552 22.4055 18.5803 22.3937 18.7081L22.3778 18.8721L23.4713 19.3747L23.1449 20.3761Z"/>
    </mask>
    <path d="M23.5854 19.1716L22.6238 18.7293C22.636 18.5997 22.6432 18.4678 22.6432 18.3351C22.6432 18.2005 22.636 18.0677 22.6238 17.9367L23.5854 17.4949C23.6823 17.4636 23.7358 17.3589 23.7041 17.262L23.352 16.178C23.3207 16.0806 23.216 16.0275 23.1191 16.0593L22.08 16.2673C21.9454 16.0389 21.789 15.8245 21.6141 15.6274L22.1339 14.7029C22.1942 14.6205 22.1756 14.5045 22.0931 14.4446L21.1709 13.7744C21.0884 13.7141 20.9724 13.7327 20.9126 13.8157L20.1943 14.5946C19.9546 14.49 19.7027 14.4079 19.4416 14.3504L19.3184 13.2972C19.3179 13.1957 19.2354 13.1128 19.133 13.1128H17.9933C17.8913 13.1128 17.8084 13.1957 17.8084 13.2977L17.6852 14.3508C17.4237 14.4079 17.1722 14.4904 16.9324 14.5951L16.2142 13.8157C16.1539 13.7332 16.0388 13.7146 15.9559 13.7749L15.0337 14.4446C14.9508 14.5049 14.9326 14.6205 14.9924 14.703L15.5118 15.6274C15.3364 15.8245 15.1805 16.0389 15.0459 16.2673L14.0073 16.0588C13.9103 16.0276 13.8061 16.0806 13.7743 16.1775L13.4222 17.2615C13.3905 17.3585 13.444 17.4627 13.541 17.4944L14.503 17.9363C14.4903 18.0677 14.4835 18.2 14.4835 18.3351C14.4835 18.4678 14.4903 18.5997 14.503 18.7293L13.5414 19.1712C13.4444 19.2024 13.391 19.3071 13.4227 19.4041L13.7748 20.4885C13.8065 20.5859 13.9108 20.639 14.0077 20.6072L15.0446 20.3997C15.1792 20.6294 15.336 20.8438 15.5113 21.0418L14.9934 21.9636C14.9335 22.0465 14.9517 22.162 15.0346 22.2219L15.9568 22.8921C16.0393 22.9524 16.1548 22.9338 16.2151 22.8509L16.9311 22.0746C17.1717 22.1797 17.4246 22.2622 17.687 22.3197L17.8093 23.3684C17.8084 23.4708 17.8914 23.5537 17.9933 23.5537H19.1335C19.2354 23.5542 19.3184 23.4708 19.3184 23.3688L19.4412 22.3197C19.7036 22.2622 19.9564 22.1793 20.1975 22.0746L20.9131 22.8509C20.9733 22.9333 21.0889 22.9519 21.1714 22.8921L22.0936 22.2223C22.1765 22.1625 22.1946 22.0465 22.1343 21.964L21.6164 21.0418C21.7917 20.8442 21.9481 20.629 22.0827 20.3997L23.1195 20.6077C23.2165 20.639 23.3207 20.5859 23.3524 20.489L23.7046 19.405C23.7363 19.3076 23.6828 19.2029 23.5854 19.1716L23.5854 19.1716ZM23.1449 20.3761L21.9662 20.1396L21.8824 20.2823C21.756 20.4976 21.6078 20.7015 21.4424 20.8878L21.3327 21.0115L21.9214 22.0601L21.069 22.6791L20.2551 21.7964L20.1037 21.8625C19.874 21.9627 19.6342 22.0406 19.3909 22.0941L19.2296 22.1294L19.09 23.3217H18.0364L17.8973 22.129L17.7355 22.0936C17.4917 22.0402 17.2515 21.9622 17.0227 21.8621L16.8713 21.7959L16.0574 22.6787L15.205 22.0592L15.7937 21.011L15.684 20.8873C15.5181 20.701 15.3704 20.4971 15.244 20.2819L15.1601 20.1391L13.9815 20.3752L13.6561 19.3733L14.7491 18.8712L14.7333 18.7071C14.721 18.5811 14.7152 18.4561 14.7152 18.3351C14.7152 18.2118 14.7215 18.0854 14.7337 17.959L14.7496 17.7944L13.6561 17.2923L13.9815 16.2904L15.162 16.527L15.2458 16.3847C15.3723 16.1703 15.52 15.9673 15.6854 15.781L15.7951 15.6573L15.2046 14.6064L16.057 13.987L16.8732 14.8729L17.0245 14.8067C17.2525 14.7075 17.4913 14.63 17.7346 14.5765L17.896 14.5412L18.0364 13.3449H19.09L19.2301 14.5421L19.3918 14.5775C19.6357 14.6309 19.874 14.7084 20.1015 14.8077L20.2529 14.8738L21.0695 13.9879L21.9219 14.6074L21.3314 15.6583L21.4411 15.782C21.6065 15.9682 21.7542 16.1712 21.8802 16.3856L21.964 16.5279L23.145 16.2918L23.4708 17.2937L22.3774 17.7958L22.3932 17.9599C22.4055 18.0881 22.4118 18.2146 22.4118 18.336C22.4118 18.4552 22.4055 18.5803 22.3937 18.7081L22.3778 18.8721L23.4713 19.3747L23.1449 20.3761Z" fill="black"/>
    <path d="M23.5854 19.1716L22.6238 18.7293C22.636 18.5997 22.6432 18.4678 22.6432 18.3351C22.6432 18.2005 22.636 18.0677 22.6238 17.9367L23.5854 17.4949C23.6823 17.4636 23.7358 17.3589 23.7041 17.262L23.352 16.178C23.3207 16.0806 23.216 16.0275 23.1191 16.0593L22.08 16.2673C21.9454 16.0389 21.789 15.8245 21.6141 15.6274L22.1339 14.7029C22.1942 14.6205 22.1756 14.5045 22.0931 14.4446L21.1709 13.7744C21.0884 13.7141 20.9724 13.7327 20.9126 13.8157L20.1943 14.5946C19.9546 14.49 19.7027 14.4079 19.4416 14.3504L19.3184 13.2972C19.3179 13.1957 19.2354 13.1128 19.133 13.1128H17.9933C17.8913 13.1128 17.8084 13.1957 17.8084 13.2977L17.6852 14.3508C17.4237 14.4079 17.1722 14.4904 16.9324 14.5951L16.2142 13.8157C16.1539 13.7332 16.0388 13.7146 15.9559 13.7749L15.0337 14.4446C14.9508 14.5049 14.9326 14.6205 14.9924 14.703L15.5118 15.6274C15.3364 15.8245 15.1805 16.0389 15.0459 16.2673L14.0073 16.0588C13.9103 16.0276 13.8061 16.0806 13.7743 16.1775L13.4222 17.2615C13.3905 17.3585 13.444 17.4627 13.541 17.4944L14.503 17.9363C14.4903 18.0677 14.4835 18.2 14.4835 18.3351C14.4835 18.4678 14.4903 18.5997 14.503 18.7293L13.5414 19.1712C13.4444 19.2024 13.391 19.3071 13.4227 19.4041L13.7748 20.4885C13.8065 20.5859 13.9108 20.639 14.0077 20.6072L15.0446 20.3997C15.1792 20.6294 15.336 20.8438 15.5113 21.0418L14.9934 21.9636C14.9335 22.0465 14.9517 22.162 15.0346 22.2219L15.9568 22.8921C16.0393 22.9524 16.1548 22.9338 16.2151 22.8509L16.9311 22.0746C17.1717 22.1797 17.4246 22.2622 17.687 22.3197L17.8093 23.3684C17.8084 23.4708 17.8914 23.5537 17.9933 23.5537H19.1335C19.2354 23.5542 19.3184 23.4708 19.3184 23.3688L19.4412 22.3197C19.7036 22.2622 19.9564 22.1793 20.1975 22.0746L20.9131 22.8509C20.9733 22.9333 21.0889 22.9519 21.1714 22.8921L22.0936 22.2223C22.1765 22.1625 22.1946 22.0465 22.1343 21.964L21.6164 21.0418C21.7917 20.8442 21.9481 20.629 22.0827 20.3997L23.1195 20.6077C23.2165 20.639 23.3207 20.5859 23.3524 20.489L23.7046 19.405C23.7363 19.3076 23.6828 19.2029 23.5854 19.1716L23.5854 19.1716ZM23.1449 20.3761L21.9662 20.1396L21.8824 20.2823C21.756 20.4976 21.6078 20.7015 21.4424 20.8878L21.3327 21.0115L21.9214 22.0601L21.069 22.6791L20.2551 21.7964L20.1037 21.8625C19.874 21.9627 19.6342 22.0406 19.3909 22.0941L19.2296 22.1294L19.09 23.3217H18.0364L17.8973 22.129L17.7355 22.0936C17.4917 22.0402 17.2515 21.9622 17.0227 21.8621L16.8713 21.7959L16.0574 22.6787L15.205 22.0592L15.7937 21.011L15.684 20.8873C15.5181 20.701 15.3704 20.4971 15.244 20.2819L15.1601 20.1391L13.9815 20.3752L13.6561 19.3733L14.7491 18.8712L14.7333 18.7071C14.721 18.5811 14.7152 18.4561 14.7152 18.3351C14.7152 18.2118 14.7215 18.0854 14.7337 17.959L14.7496 17.7944L13.6561 17.2923L13.9815 16.2904L15.162 16.527L15.2458 16.3847C15.3723 16.1703 15.52 15.9673 15.6854 15.781L15.7951 15.6573L15.2046 14.6064L16.057 13.987L16.8732 14.8729L17.0245 14.8067C17.2525 14.7075 17.4913 14.63 17.7346 14.5765L17.896 14.5412L18.0364 13.3449H19.09L19.2301 14.5421L19.3918 14.5775C19.6357 14.6309 19.874 14.7084 20.1015 14.8077L20.2529 14.8738L21.0695 13.9879L21.9219 14.6074L21.3314 15.6583L21.4411 15.782C21.6065 15.9682 21.7542 16.1712 21.8802 16.3856L21.964 16.5279L23.145 16.2918L23.4708 17.2937L22.3774 17.7958L22.3932 17.9599C22.4055 18.0881 22.4118 18.2146 22.4118 18.336C22.4118 18.4552 22.4055 18.5803 22.3937 18.7081L22.3778 18.8721L23.4713 19.3747L23.1449 20.3761Z" stroke="black" stroke-width="0.5" mask="url(#path-3-outside-1_8471_38937)"/>
    <path d="M8.69413 12.8216L18.2409 7.30977L27.7877 12.8216V23.8453L18.2409 29.3571L8.69413 23.8453V12.8216Z" stroke="black"/>
</svg>
