<svg width="26" height="26" viewBox="0 0 26 26" fill="none" xmlns="http://www.w3.org/2000/svg">
<path d="M12.948 0.0817261C10.1687 0.0817261 7.89517 2.35523 7.89517 5.13451C7.89517 6.70612 8.62669 8.11364 9.76034 9.04253L6.14823 15.9999C5.79542 15.9209 5.42906 15.8716 5.05279 15.8716C2.2735 15.8716 0 18.1451 0 20.9244C0 23.7037 2.2735 25.9772 5.05279 25.9772C7.50885 25.9772 9.57029 24.2033 10.0168 21.8718H15.8787C16.3253 24.2033 18.3866 25.9772 20.8427 25.9772C23.622 25.9772 25.8955 23.7037 25.8955 20.9244C25.8955 18.1451 23.622 15.8716 20.8427 15.8716C20.4665 15.8716 20.1001 15.9209 19.7473 15.9999L16.1352 9.04253C17.2688 8.11364 18.0004 6.70612 18.0004 5.13451C18.0004 2.35523 15.7269 0.0817261 12.9476 0.0817261H12.948ZM12.948 1.97652C14.7034 1.97652 16.1059 3.37911 16.1059 5.13451C16.1059 6.88991 14.7034 8.2925 12.948 8.2925C11.1926 8.2925 9.78996 6.88991 9.78996 5.13451C9.78996 3.37911 11.1926 1.97652 12.948 1.97652ZM11.4183 9.95045C11.9006 10.1046 12.4163 10.1873 12.948 10.1873C13.4796 10.1873 13.9953 10.1046 14.4776 9.95045L18.0007 16.7499C16.9176 17.4901 16.1367 18.6459 15.8789 19.9771H10.017C9.7592 18.646 8.97833 17.4902 7.89523 16.7499L11.4183 9.95045ZM5.05304 17.7665C6.80844 17.7665 8.21103 19.1691 8.21103 20.9245C8.21103 22.6799 6.80844 24.0825 5.05304 24.0825C3.29764 24.0825 1.89505 22.6799 1.89505 20.9245C1.89505 19.1691 3.29764 17.7665 5.05304 17.7665ZM20.843 17.7665C22.5984 17.7665 24.001 19.1691 24.001 20.9245C24.001 22.6799 22.5984 24.0825 20.843 24.0825C19.0876 24.0825 17.685 22.6799 17.685 20.9245C17.685 19.1691 19.0876 17.7665 20.843 17.7665Z" fill="#AA58B1"/>
</svg>
