<svg width="25" height="23" viewBox="0 0 25 23" fill="none" xmlns="http://www.w3.org/2000/svg">
<path d="M3.98796 22.3082H20.9473C22.9273 22.3082 24.5387 20.6978 24.5387 18.7169V17.7189C24.5387 15.7389 22.9283 14.1275 20.9473 14.1275H3.98796C2.00796 14.1275 0.396582 15.7379 0.396582 17.7189V18.7169C0.396582 20.6969 2.00697 22.3082 3.98796 22.3082ZM1.59261 17.7199C1.59261 16.4002 2.66737 15.3255 3.987 15.3255H20.9463C22.266 15.3255 23.3407 16.4002 23.3407 17.7199V18.7178C23.3407 20.0374 22.266 21.1122 20.9463 21.1122H3.987C2.66737 21.1122 1.59261 20.0374 1.59261 18.7178V17.7199Z" fill="#65B042" stroke="#65B042" stroke-width="0.2"/>
<path d="M20.1991 19.615C19.4294 19.615 18.8026 18.9883 18.8026 18.2186C18.8026 17.4489 19.4294 16.8222 20.1991 16.8222C20.9688 16.8222 21.5955 17.4489 21.5955 18.2186C21.5955 18.9883 20.9688 19.615 20.1991 19.615ZM20.1991 17.6192C19.8698 17.6192 19.6006 17.8884 19.6006 18.2177C19.6006 18.5469 19.8698 18.8162 20.1991 18.8162C20.5283 18.8162 20.7976 18.5469 20.7976 18.2177C20.7976 17.8884 20.5283 17.6192 20.1991 17.6192Z" fill="#65B042" stroke="#65B042" stroke-width="0.2"/>
<path d="M23.5589 16.7372C23.8892 16.6945 24.1181 16.3923 24.0754 16.0658L24.0754 16.0656L22.4228 3.58435C22.1648 1.63312 20.4865 0.16123 18.5172 0.16123H6.41014C4.44546 0.16123 2.76731 1.62817 2.50529 3.57549C2.50529 3.57549 2.50529 3.5755 2.50529 3.5755L0.814313 16.1288L0.814249 16.1293C0.775765 16.4261 0.959938 16.7017 1.23778 16.784L1.90181 16.2762L2.00092 16.2896L2.00093 16.2895L3.69189 3.73624L3.6919 3.73623C3.87414 2.38194 5.04311 1.35843 6.40993 1.35843H18.517C19.8886 1.35843 21.0573 2.38365 21.2359 3.74144L21.2359 3.74152L22.8876 16.2218L22.8876 16.2219C22.9313 16.5499 23.2258 16.7808 23.5589 16.7372ZM23.5589 16.7372L23.5461 16.6385L23.5591 16.7372C23.559 16.7372 23.5589 16.7372 23.5589 16.7372Z" fill="#65B042" stroke="#65B042" stroke-width="0.2"/>
<path fill-rule="evenodd" clip-rule="evenodd" d="M13.8989 4.58958L13.2257 4.06116L13.2185 4.05578C13.077 3.95464 12.8914 3.95406 12.7494 4.05407C12.1034 4.49153 11.4977 5.02926 10.9411 5.59531C10.7122 5.49798 10.4388 5.54846 10.256 5.7432L10.2508 5.74917C10.0855 5.93988 10.0748 6.20677 10.1736 6.41449C9.38772 7.34495 8.71979 8.31468 8.19769 9.14807C8.06154 9.35943 8.15669 9.57895 8.30007 9.68415C8.44226 9.78848 8.68065 9.81537 8.84143 9.62304C9.64658 8.67075 10.3666 7.92474 10.993 7.33175L14.5027 11.0741C14.7866 11.384 15.2805 11.4464 15.6186 11.1645L15.6203 11.1631C15.9901 10.848 16.006 10.2949 15.6603 9.96318L11.9547 6.4893C12.8265 5.78501 13.4457 5.4458 13.7938 5.2951C13.9353 5.2344 14.0205 5.10636 14.0439 4.97718C14.0675 4.84711 14.0317 4.69038 13.8989 4.58958Z" fill="#65B042"/>
</svg>
