<svg width="19" height="14" viewBox="0 0 19 14" fill="none" xmlns="http://www.w3.org/2000/svg">
    <path d="M13.5112 1.74696H2.45051V0.561856C2.45051 0.456678 2.40904 0.356692 2.33497 0.282609C2.2609 0.208541 2.16016 0.166321 2.05572 0.166321H0.870618C0.652123 0.166321 0.475098 0.343344 0.475098 0.561841C0.475098 0.779596 0.652121 0.956622 0.870618 0.956622H1.6602V3.7216C1.6602 3.50385 1.48391 3.32682 1.26542 3.32682C1.04692 3.32682 0.870637 3.50385 0.870637 3.7216V5.69702C0.870637 5.91552 1.04692 6.0918 1.26542 6.0918C1.48391 6.0918 1.6602 5.91552 1.6602 5.69702V7.67244C1.6602 7.45395 1.48391 7.27692 1.26542 7.27692C1.04692 7.27692 0.870637 7.45395 0.870637 7.67244V9.64787V9.64713C0.870637 9.86562 1.04692 10.0426 1.26542 10.0426C1.48391 10.0426 1.6602 9.86562 1.6602 9.64713V12.8076C1.6602 13.0261 1.83722 13.2024 2.05572 13.2024C2.27347 13.2024 2.4505 13.0261 2.4505 12.8076V11.6225H3.6356V12.8076C3.6356 12.9121 3.67708 13.0128 3.75115 13.0869C3.82522 13.161 3.92595 13.2024 4.0304 13.2024H8.37602C8.48045 13.2024 8.58118 13.161 8.65526 13.0869C8.72935 13.0128 8.77081 12.9121 8.77081 12.8076V11.6225H9.95591V12.8076C9.95591 12.9121 9.99813 13.0128 10.0722 13.0869C10.1463 13.161 10.2463 13.2024 10.3514 13.2024H16.277C16.3814 13.2024 16.4821 13.161 16.5562 13.0869C16.6303 13.0128 16.6717 12.9121 16.6717 12.8076V11.6225C17.091 11.6225 17.4924 11.4559 17.7887 11.1596C18.0857 10.8633 18.2516 10.4611 18.2516 10.0427V6.48736C18.2516 5.22968 17.7524 4.02387 16.8636 3.13495C15.9748 2.24603 14.7689 1.7469 13.5112 1.7469L13.5112 1.74696ZM7.98124 12.4129H4.42593V11.6225H7.98124V12.4129ZM15.8822 12.4129H10.7462V11.6225H15.8814L15.8822 12.4129ZM17.462 10.0427C17.462 10.2523 17.3783 10.453 17.2302 10.6011C17.0821 10.7493 16.8813 10.8322 16.6717 10.8322H2.45051V2.53654H13.5112C14.5593 2.53654 15.5636 2.9528 16.305 3.6935C17.0457 4.43494 17.462 5.43929 17.462 6.4873L17.462 10.0427Z" fill="#404040"/>
    <path d="M13.3143 3.32684C12.4232 3.32684 11.5692 3.68089 10.9397 4.31047C10.3101 4.94005 9.95605 5.79407 9.95605 6.68447C9.95605 7.57551 10.3101 8.42952 10.9397 9.05903C11.5693 9.68861 12.4233 10.0427 13.3143 10.0427C14.2046 10.0427 15.0586 9.68861 15.6882 9.05903C16.3178 8.42945 16.6719 7.57543 16.6719 6.68447C16.6711 5.79416 16.3171 4.94089 15.6875 4.31123C15.0579 3.68165 14.2046 3.3276 13.3143 3.32686L13.3143 3.32684ZM13.3143 9.25234C12.2758 9.25234 11.3388 8.62646 10.9418 7.66726C10.544 6.70807 10.764 5.60291 11.498 4.86891C12.2328 4.13489 13.3372 3.91491 14.2964 4.31265C15.2563 4.70967 15.8815 5.64588 15.8815 6.68437C15.8792 8.10206 14.7312 9.25007 13.3143 9.25234Z" fill="#404040"/>
    <path d="M8.37614 3.32684H4.03052C3.81277 3.32684 3.63574 3.50386 3.63574 3.72162C3.63574 3.94011 3.81277 4.11714 4.03052 4.11714H8.37614C8.59464 4.11714 8.77093 3.94012 8.77093 3.72162C8.77093 3.50386 8.59464 3.32684 8.37614 3.32684Z" fill="#404040"/>
    <path d="M8.37614 5.30226H4.03052C3.81277 5.30226 3.63574 5.47854 3.63574 5.69704C3.63574 5.91553 3.81277 6.09182 4.03052 6.09182H8.37614C8.59464 6.09182 8.77093 5.91553 8.77093 5.69704C8.77093 5.47854 8.59464 5.30226 8.37614 5.30226Z" fill="#404040"/>
    <path d="M8.37614 7.27692H4.03052C3.81277 7.27692 3.63574 7.45394 3.63574 7.67244C3.63574 7.89019 3.81277 8.06722 4.03052 8.06722H8.37614C8.59464 8.06722 8.77093 7.8902 8.77093 7.67244C8.77093 7.45394 8.59464 7.27692 8.37614 7.27692Z" fill="#404040"/>
    <path d="M8.37614 9.25234H4.03052C3.81277 9.25234 3.63574 9.42936 3.63574 9.64712C3.63574 9.86561 3.81277 10.0426 4.03052 10.0426H8.37614C8.59464 10.0426 8.77093 9.86561 8.77093 9.64712C8.77093 9.42936 8.59464 9.25234 8.37614 9.25234Z" fill="#404040"/>
    <path d="M13.3141 5.30226C12.7549 5.30226 12.2505 5.63852 12.0364 6.15553C11.8224 6.67254 11.9409 7.26657 12.3364 7.66209C12.7319 8.05761 13.326 8.17612 13.8429 7.96206C14.36 7.748 14.6962 7.24358 14.6962 6.68437C14.6962 6.31773 14.551 5.96589 14.2918 5.70667C14.0326 5.44743 13.6807 5.30226 13.3141 5.30226ZM13.3141 7.27768V7.27694C13.0741 7.27694 12.8579 7.1325 12.7667 6.91103C12.6749 6.6903 12.7253 6.43477 12.8949 6.2659C13.0645 6.09629 13.3193 6.04517 13.5408 6.13702C13.7622 6.22887 13.9067 6.44515 13.9067 6.68439C13.9067 7.01178 13.6408 7.27694 13.3141 7.27694L13.3141 7.27768Z" fill="#404040"/>
</svg>
