<svg width="10" height="10" viewBox="0 0 10 10" fill="none" xmlns="http://www.w3.org/2000/svg">
<path d="M1.7068 9.75438H8.27561C9.07634 9.75438 9.72792 9.10321 9.72792 8.30207V7.91554C9.72792 7.11481 9.07675 6.46323 8.27561 6.46323H1.7068C0.906066 6.46323 0.254492 7.1144 0.254492 7.91554V8.30207C0.254492 9.1028 0.905659 9.75438 1.7068 9.75438ZM0.840282 7.91591C0.840282 7.43862 1.22913 7.04976 1.70643 7.04976H8.27524C8.75253 7.04976 9.14138 7.43862 9.14138 7.91591V8.30244C9.14138 8.77973 8.75253 9.16859 8.27524 9.16859H1.70643C1.22913 9.16859 0.840282 8.77973 0.840282 8.30244V7.91591Z" fill="#65B042" stroke="#65B042" stroke-width="0.2"/>
<path d="M7.98586 8.58852C7.72158 8.58852 7.50625 8.37319 7.50625 8.10891C7.50625 7.84463 7.72158 7.6293 7.98586 7.6293C8.25014 7.6293 8.46548 7.84463 8.46548 8.10891C8.46548 8.37319 8.25014 8.58852 7.98586 8.58852ZM7.98586 7.81547C7.8245 7.81547 7.69278 7.94718 7.69278 8.10855C7.69278 8.26991 7.8245 8.40163 7.98586 8.40163C8.14723 8.40163 8.27894 8.26991 8.27894 8.10855C8.27894 7.94718 8.14723 7.81547 7.98586 7.81547Z" fill="#65B042" stroke="#65B042" stroke-width="0.2"/>
<path d="M9.29485 7.59592C9.45668 7.57501 9.5687 7.4269 9.54784 7.26717L9.54781 7.26699L8.90771 2.43267C8.80376 1.64645 8.12775 1.05356 7.33423 1.05356H2.64483C1.85319 1.05356 1.17724 1.64443 1.07166 2.42909C1.07166 2.42909 1.07166 2.4291 1.07166 2.4291L0.416696 7.29134L0.416632 7.29183C0.401449 7.40894 0.457244 7.51955 0.551106 7.57897L9.28204 7.49674M9.29485 7.59592L9.28204 7.49674M9.29485 7.59592C9.29492 7.59591 9.29499 7.5959 9.29506 7.59589L9.28204 7.49674M9.29485 7.59592C9.13199 7.61719 8.98759 7.50375 8.96629 7.34365L8.96628 7.34358L8.32653 2.50961L8.32652 2.50954C8.26135 2.01414 7.83467 1.63981 7.33414 1.63981H2.64475C2.14606 1.63981 1.7192 2.01351 1.6527 2.5077L1.6527 2.50771L0.99775 7.36988L0.898634 7.35661L1.5536 2.49436C1.62677 1.95061 2.09593 1.53981 2.64475 1.53981H7.33414C7.88482 1.53981 8.35394 1.9513 8.42567 2.49649L9.06541 7.33046C9.07954 7.43661 9.17444 7.51087 9.28204 7.49674" fill="#65B042" stroke="#65B042" stroke-width="0.2"/>
<path d="M5.51335 3.12408C5.5759 3.09724 5.61324 3.04081 5.62351 2.98426C5.63386 2.92726 5.61826 2.85739 5.55895 2.81226L5.29834 2.60771L5.2984 2.60763L5.47382 3.03222M5.51335 3.12408C5.51328 3.12411 5.51322 3.12414 5.51315 3.12416L5.47382 3.03222M5.51335 3.12408C5.51341 3.12405 5.51347 3.12402 5.51354 3.124L5.47382 3.03222M5.51335 3.12408C5.38338 3.18035 5.15219 3.3065 4.82645 3.56722L4.7659 3.51045L4.71699 3.56262L4.69751 3.54313M5.47382 3.03222C5.32505 3.0966 5.06361 3.24141 4.69751 3.54313M4.69751 3.54313L4.71517 3.56457" fill="#65B042" stroke="#65B042" stroke-width="0.2"/>
</svg>
