<svg width="11" height="15" viewBox="0 0 11 15" fill="none" xmlns="http://www.w3.org/2000/svg">
<path d="M7.69474 9.84838L7.71303 9.89491C7.81318 9.85554 7.91217 9.81333 8.00991 9.76689C8.04115 9.75264 8.07216 9.73701 8.10205 9.72194C8.11047 9.7177 8.1188 9.7135 8.12702 9.70939L8.12717 9.70932C8.21108 9.66701 8.29348 9.622 8.37501 9.57501L8.37554 9.57471C8.38842 9.56707 8.40218 9.55916 8.41626 9.55107C8.43472 9.54046 8.45375 9.52952 8.4721 9.51846V13.3103L6.17738 11.6158L6.1773 11.6157C6.03012 11.5075 5.83064 11.5075 5.68346 11.6157L5.68338 11.6158L3.38866 13.3103L3.38863 9.51834L8.4721 9.48492L8.46109 9.46657M7.69474 9.84838C7.68479 9.85236 7.67496 9.85657 7.66515 9.86078C7.6513 9.86672 7.6375 9.87264 7.62345 9.87785M7.69474 9.84838L7.71331 9.8948C7.70603 9.89771 7.69709 9.90153 7.68751 9.90561C7.67229 9.91211 7.65545 9.91929 7.64112 9.92463M7.69474 9.84838C7.79413 9.8093 7.89216 9.76749 7.98881 9.72156C8.01919 9.70771 8.04915 9.69261 8.07901 9.67756C8.08757 9.67325 8.09611 9.66894 8.10466 9.66467C8.18759 9.62286 8.26916 9.5783 8.35005 9.53169C8.36423 9.52329 8.37851 9.51508 8.39278 9.50689C8.41575 9.4937 8.43868 9.48053 8.46109 9.46657M7.62345 9.87785L7.64112 9.92463M7.62345 9.87785C7.50007 9.92446 7.37531 9.96491 7.2485 10.0012L7.62345 9.87785ZM7.64112 9.92463C7.5163 9.97178 7.39025 10.0126 7.26239 10.0493L7.64112 9.92463ZM8.46109 9.46657C8.46476 9.46437 8.46843 9.46223 8.4721 9.46013V9.48425L8.46109 9.46657ZM6.45131 10.1548C6.41087 10.1596 6.37043 10.1644 6.3293 10.1678M6.45131 10.1548C6.54453 10.1445 6.63776 10.1315 6.73029 10.1164C6.74194 10.1144 6.75363 10.1124 6.76535 10.1104L6.3293 10.1678M6.45131 10.1548L6.4568 10.2045C6.55097 10.1941 6.64505 10.1809 6.73834 10.1657L6.73889 10.1657C6.75001 10.1637 6.76139 10.1618 6.77292 10.1598C6.80487 10.1544 6.83805 10.1488 6.87048 10.1421M6.45131 10.1548L6.45721 10.2044L6.45689 10.2045C6.41668 10.2092 6.37548 10.2141 6.33345 10.2176L6.33343 10.2176C6.20031 10.2287 6.06587 10.2363 5.93036 10.2363C5.79503 10.2363 5.66061 10.2294 5.52716 10.2176M6.3293 10.1678C6.19701 10.1788 6.06403 10.1863 5.93036 10.1863C5.7967 10.1863 5.66372 10.1795 5.53143 10.1678M6.3293 10.1678L5.40941 10.1548M6.87048 10.1421L5.52704 10.2176L5.53143 10.1678M6.87048 10.1421C6.96777 10.1228 7.06526 10.1006 7.1615 10.075C7.16166 10.075 7.16182 10.075 7.16197 10.0749L6.87048 10.1421ZM5.52716 10.2176C5.5272 10.2176 5.52724 10.2176 5.52728 10.2176L5.53143 10.1678M5.52716 10.2176C5.50257 10.2156 5.47681 10.2126 5.45195 10.2098C5.43553 10.2079 5.41949 10.206 5.40444 10.2045L5.40397 10.2045C5.3093 10.1941 5.21575 10.1817 5.12204 10.1657L5.12184 10.1656C5.1163 10.1647 5.11074 10.1637 5.10517 10.1627C5.06745 10.1562 5.02888 10.1495 4.99084 10.1422L4.99046 10.1421C4.89271 10.1227 4.7951 10.0999 4.69908 10.075L4.6988 10.0749C4.6875 10.0719 4.67471 10.0688 4.66138 10.0656C4.64043 10.0605 4.61815 10.055 4.59822 10.0492M5.52716 10.2176L4.59822 10.0492M5.53143 10.1678C5.50709 10.1658 5.48324 10.163 5.4593 10.1603C5.44278 10.1584 5.42621 10.1565 5.40941 10.1548M5.40941 10.1548C5.3155 10.1445 5.22297 10.1322 5.13044 10.1164C5.12485 10.1154 5.11924 10.1144 5.11363 10.1135C5.0759 10.1069 5.03779 10.1003 5.0002 10.0931L5.40941 10.1548ZM4.59822 10.0492C4.47042 10.0126 4.34448 9.9718 4.2191 9.92469C4.21907 9.92468 4.21904 9.92467 4.21901 9.92466L4.59822 10.0492ZM9.05203 14.4609C8.92865 14.5226 8.78127 14.5103 8.67022 14.4287L9.25287 14.1346C9.25287 14.2731 9.17541 14.3985 9.05203 14.4609ZM9.30433 12.1618L9.30287 14.1346V14.1347C9.30286 14.292 9.21473 14.4347 9.0746 14.5055L9.07439 14.5056C8.9343 14.5757 8.76685 14.5617 8.64062 14.469L8.64051 14.4689L5.93045 12.4667L3.22039 14.4689L3.22026 14.469C3.1471 14.5227 3.06062 14.55 2.97338 14.55C2.90941 14.55 2.84555 14.5352 2.78651 14.5056L2.78631 14.5055C2.64615 14.4347 2.55803 14.292 2.55803 14.1346V8.88136C1.58995 7.95871 1.03765 6.68131 1.03765 5.34413C1.03765 2.64518 3.23301 0.45 5.93126 0.45C8.63021 0.45 10.8254 2.64536 10.8254 5.34413C10.8254 6.68133 10.2724 7.95871 9.30433 8.88136L9.30433 12.1617L9.30433 12.1618ZM8.50678 9.498C8.49932 9.50221 8.49249 9.50605 8.48716 9.50924L8.5221 13.3473V9.48932C8.51688 9.49231 8.51169 9.49524 8.50678 9.498ZM4.14682 9.89483C4.04661 9.85544 3.94753 9.81318 3.85033 9.76666L3.87192 9.72156L3.85051 9.76675C3.81092 9.748 3.77209 9.72858 3.73382 9.70944L3.73371 9.70939L3.73356 9.70932C3.64964 9.66701 3.56725 9.622 3.48571 9.57501L3.48519 9.5747C3.47147 9.56657 3.45702 9.55822 3.4423 9.54971L4.14682 9.89483ZM6.14768 11.656L8.4721 13.3725L6.14768 11.656ZM9.99304 5.30449C9.97167 3.08274 8.15703 1.28126 5.93033 1.28126C3.69039 1.28126 1.86812 3.10352 1.86812 5.34417C1.86812 6.50042 2.36512 7.60384 3.23406 8.37665H3.23469L3.24887 8.38916C3.71411 8.79954 4.26057 9.0941 4.84561 9.25796C5.19631 9.35613 5.56125 9.40691 5.93092 9.40691C6.30058 9.40691 6.66484 9.35614 7.01624 9.25796C7.60128 9.0941 8.14776 8.79954 8.6137 8.38913L8.62787 8.37665H8.62845C9.49606 7.60317 9.99304 6.49971 9.99304 5.34417V5.30449Z" fill="#AA58B1" stroke="#AA58B1" stroke-width="0.1"/>
<path d="M6.84431 3.81621C6.92122 3.78323 6.96778 3.71349 6.98061 3.64284C6.99351 3.57176 6.97381 3.48701 6.90217 3.43265L6.5084 3.12358L6.50846 3.1235L6.80479 3.72435M6.84431 3.81621C6.84424 3.81624 6.84418 3.81627 6.84411 3.8163L6.80479 3.72435M6.84431 3.81621C6.84437 3.81618 6.84444 3.81616 6.8445 3.81613L6.80479 3.72435M6.84431 3.81621C6.63704 3.90593 6.26857 4.10821 5.74988 4.5291L5.70122 4.48349L5.66225 4.52506L5.63283 4.49564M6.80479 3.72435C6.58019 3.82155 6.18551 4.04015 5.63283 4.49564M5.63283 4.49564L5.6595 4.528" fill="#AA58B1" stroke="#AA58B1" stroke-width="0.2"/>
</svg>
