<svg width="11" height="11" viewBox="0 0 11 11" fill="none" xmlns="http://www.w3.org/2000/svg">
<path d="M1.92427 10.0043H8.80473C9.64083 10.0043 10.3212 9.32436 10.3212 8.48784V8.08297C10.3212 7.24687 9.64125 6.5665 8.80473 6.5665H1.92427C1.08817 6.5665 0.407812 7.24644 0.407812 8.08297V8.48784C0.407812 9.32394 1.08775 10.0043 1.92427 10.0043ZM1.01191 8.08335C1.01191 7.5808 1.42133 7.17137 1.92389 7.17137H8.80434C9.30689 7.17137 9.71632 7.5808 9.71632 8.08335V8.48822C9.71632 8.99078 9.30689 9.4002 8.80434 9.4002H1.92389C1.42133 9.4002 1.01191 8.99078 1.01191 8.48822V8.08335Z" fill="#AA58B1" stroke="#AA58B1" stroke-width="0.2"/>
<path d="M8.50164 8.79269C8.2222 8.79269 7.99453 8.56502 7.99453 8.28558C7.99453 8.00614 8.2222 7.77847 8.50164 7.77847C8.78108 7.77847 9.00875 8.00614 9.00875 8.28558C9.00875 8.56502 8.78108 8.79269 8.50164 8.79269ZM8.50164 7.98296C8.33524 7.98296 8.1994 8.1188 8.1994 8.2852C8.1994 8.4516 8.33524 8.58744 8.50164 8.58744C8.66804 8.58744 8.80388 8.4516 8.80388 8.2852C8.80388 8.1188 8.66804 7.98296 8.50164 7.98296Z" fill="#AA58B1" stroke="#AA58B1" stroke-width="0.2"/>
<path d="M0.720984 7.72894C0.621798 7.6683 0.562457 7.55277 0.578331 7.43034L0.578395 7.42984L1.26443 2.33693C1.26443 2.33692 1.26443 2.33692 1.26443 2.33691C1.37471 1.51738 2.08072 0.900244 2.90754 0.900244H7.81941C8.6482 0.900244 9.35427 1.51949 9.46284 2.34065L10.1333 7.40433L10.1333 7.4045C10.1548 7.56924 10.0393 7.72197 9.87244 7.74353M0.720984 7.72894L9.85963 7.64436M0.720984 7.72894L0.691843 7.77289H0.878149C1.02702 7.77289 1.15713 7.6636 1.1776 7.51093L0.720984 7.72894ZM9.87244 7.74353L9.85963 7.64436M9.87244 7.74353C9.87251 7.74352 9.87258 7.74351 9.87265 7.7435L9.85963 7.64436M9.87244 7.74353C9.70448 7.76548 9.55557 7.64851 9.5336 7.48338L9.53359 7.48331L8.86349 2.42001L8.86348 2.41993C8.7949 1.89866 8.34597 1.50481 7.81932 1.50481H2.90745C2.38273 1.50481 1.93361 1.89801 1.86364 2.41799L1.86364 2.418L1.17761 7.51084L1.0785 7.49758L1.76453 2.40465C1.84117 1.8351 2.33259 1.40481 2.90745 1.40481H7.81932C8.39612 1.40481 8.8875 1.83582 8.96263 2.40689L9.63272 7.47019C9.64752 7.58137 9.74693 7.65915 9.85963 7.64436" fill="#AA58B1" stroke="#AA58B1" stroke-width="0.2"/>
<path d="M5.90961 3.06003C5.9735 3.03262 6.0117 2.97495 6.0222 2.91708C6.03279 2.85878 6.01682 2.78753 5.95637 2.74154L5.68335 2.52724L5.68341 2.52717L5.87009 2.96817M5.90961 3.06003C5.90954 3.06006 5.90948 3.06008 5.90941 3.06011L5.87009 2.96817M5.90961 3.06003C5.90967 3.06 5.90974 3.05997 5.9098 3.05994L5.87009 2.96817M5.90961 3.06003C5.77245 3.11941 5.52848 3.25265 5.18477 3.52827L5.12533 3.47255L5.07735 3.52373L5.05694 3.50332M5.87009 2.96817C5.71425 3.0356 5.44041 3.18728 5.05694 3.50332M5.05694 3.50332L5.07544 3.52577" fill="#AA58B1" stroke="#AA58B1" stroke-width="0.2"/>
</svg>
