<svg width="11" height="10" viewBox="0 0 11 10" fill="none" xmlns="http://www.w3.org/2000/svg">
<mask id="path-1-inside-1" fill="white">
<path d="M10.0169 5.40119C10.0138 5.39414 10.0099 5.38867 10.006 5.38163C9.95784 5.30026 9.86514 5.2232 9.77204 5.20168C9.67229 5.17939 9.56002 5.18408 9.47084 5.2408C9.46614 5.24393 9.46106 5.24784 9.45597 5.25058C9.3171 5.32881 9.17432 5.39923 9.02881 5.4626C9.03741 5.45947 9.04641 5.45556 9.05424 5.45164C9.03468 5.46025 9.01434 5.46807 8.99478 5.47707C9.00651 5.47238 9.01707 5.46729 9.0292 5.46221C8.7014 5.59442 8.36029 5.68518 8.01017 5.73603C7.65419 5.77828 7.29432 5.77828 6.93836 5.73525C6.95322 5.73721 6.96652 5.73916 6.98139 5.74112C6.94696 5.73721 6.91176 5.73251 6.87772 5.72743C6.89806 5.73056 6.91762 5.73212 6.93835 5.73525C6.5902 5.6844 6.2491 5.59247 5.92322 5.46142C5.93105 5.46455 5.93809 5.46847 5.94552 5.4712C5.92987 5.46416 5.91423 5.45869 5.89858 5.45165C5.9064 5.45477 5.91501 5.45869 5.92283 5.46142C5.59229 5.31982 5.28052 5.13675 4.99379 4.91964C5.00866 4.93138 5.02196 4.94194 5.03682 4.95407C5.01022 4.93372 4.98402 4.91299 4.95781 4.89226C4.96954 4.90087 4.98128 4.91104 4.9938 4.91964C4.72975 4.70919 4.48997 4.46979 4.27912 4.20575C4.28694 4.2167 4.29555 4.22726 4.30337 4.23782C4.28851 4.21905 4.27521 4.20066 4.26034 4.18228C4.26621 4.1901 4.27286 4.19792 4.27912 4.20575C4.06084 3.91706 3.87699 3.60256 3.73343 3.27005C3.73734 3.27866 3.74125 3.28883 3.74438 3.29743C3.73734 3.28178 3.73069 3.26614 3.72483 3.25049C3.72796 3.25753 3.73069 3.26301 3.73343 3.27005C3.60239 2.94459 3.51124 2.60427 3.46039 2.25692C3.41736 1.90017 3.41814 1.53911 3.46039 1.18201C3.45726 1.19961 3.45569 1.21643 3.45335 1.23364C3.45726 1.19922 3.46195 1.16401 3.46704 1.12998C3.46508 1.14758 3.46313 1.1644 3.46 1.18161C3.47643 1.06739 3.49716 0.953952 3.52337 0.840512C3.55857 0.684823 3.51163 0.528353 3.38333 0.429774C3.25893 0.333936 3.08682 0.32024 2.94913 0.399262C2.66161 0.563553 2.39053 0.75993 2.14135 0.978197C1.891 1.19726 1.67272 1.44447 1.47166 1.70892C1.08635 2.21471 0.80588 2.81047 0.652925 3.42854C0.491758 4.08571 0.473763 4.76442 0.58447 5.43056C0.681481 6.01263 0.896629 6.58057 1.20057 7.08519C1.49865 7.57885 1.88708 8.02479 2.34278 8.37921C2.58531 8.56775 2.83644 8.73909 3.10947 8.87991C3.38252 9.02073 3.66885 9.13809 3.96302 9.2261C4.54978 9.40096 5.18153 9.46393 5.79059 9.40213C6.43408 9.33758 7.05217 9.15569 7.62327 8.85135C8.14745 8.57166 8.62548 8.18714 9.00882 7.73258C9.4176 7.2483 9.73054 6.69792 9.93004 6.09547C9.97502 5.95934 10.013 5.82165 10.0443 5.68278C10.0462 5.67418 10.0482 5.66518 10.049 5.65735C10.0689 5.57012 10.0599 5.47819 10.0169 5.40113L10.0169 5.40119ZM3.46859 2.31955C3.46546 2.29999 3.4639 2.28043 3.46077 2.26165C3.46351 2.28121 3.46664 2.29999 3.46859 2.31955ZM1.32688 5.13601C1.33001 5.15557 1.33157 5.17513 1.3347 5.19391C1.33079 5.17435 1.32883 5.15479 1.32688 5.13601ZM5.88019 8.6097C5.9017 8.60657 5.92244 8.60384 5.94356 8.60188C5.92243 8.60501 5.9017 8.60775 5.88019 8.6097ZM8.54214 7.07634C8.548 7.06852 8.55387 7.06148 8.55974 7.05405C8.54722 7.07048 8.53314 7.08847 8.51984 7.1049C8.52766 7.09512 8.53548 7.08612 8.54214 7.07634C8.3309 7.34156 8.09033 7.58292 7.82551 7.79415C7.83724 7.78555 7.8478 7.77655 7.85993 7.76755C7.8435 7.78125 7.82551 7.79415 7.80908 7.80745C7.81494 7.80276 7.82081 7.79885 7.82551 7.79376C7.53994 8.00969 7.22897 8.19198 6.90037 8.33358C6.90741 8.33045 6.91524 8.32771 6.92189 8.32498C6.90155 8.33358 6.88199 8.34141 6.86126 8.3504C6.87377 8.34454 6.88786 8.33945 6.90037 8.33397C6.57061 8.46697 6.22755 8.5589 5.87623 8.61092C5.52026 8.65317 5.1596 8.65317 4.80362 8.61092C4.81849 8.61288 4.83179 8.61484 4.84665 8.61679C4.81223 8.61288 4.77702 8.60819 4.74298 8.6031C4.76333 8.60623 4.78289 8.60779 4.80362 8.61092C4.45547 8.56007 4.11437 8.46814 3.78849 8.3371C3.79631 8.34023 3.80335 8.34414 3.81079 8.34688C3.79514 8.33984 3.77949 8.33436 3.76384 8.32732C3.77167 8.33045 3.78027 8.33436 3.7881 8.3371C3.45755 8.19549 3.14578 8.01242 2.85906 7.79532C2.87392 7.80705 2.88722 7.81761 2.90209 7.82974C2.87549 7.8094 2.84928 7.78867 2.82307 7.76793C2.83481 7.77654 2.84654 7.78671 2.85906 7.79532C2.59502 7.58486 2.35523 7.34546 2.14438 7.08142C2.15221 7.09237 2.16081 7.10293 2.16864 7.1135C2.15377 7.09472 2.1393 7.07634 2.12561 7.05795C2.13147 7.06577 2.13812 7.0736 2.14438 7.08142C1.92611 6.79273 1.74226 6.47823 1.5987 6.14572C1.60261 6.15433 1.60652 6.1645 1.60965 6.17311C1.60261 6.15746 1.59713 6.14181 1.59009 6.12617C1.59322 6.13321 1.59596 6.13986 1.5987 6.14572C1.46882 5.82027 1.3765 5.47995 1.32565 5.1326C1.2834 4.77663 1.2834 4.41675 1.32565 4.06079C1.3237 4.07448 1.32174 4.08895 1.31978 4.10304C1.3237 4.06861 1.32839 4.03341 1.33348 3.99937C1.33035 4.01971 1.32878 4.04044 1.32565 4.06118C1.3765 3.71185 1.46843 3.36958 1.59948 3.04334C1.59557 3.05195 1.59165 3.06095 1.58774 3.06994C1.59557 3.05038 1.60339 3.03161 1.612 3.01205C1.60808 3.02183 1.60417 3.03161 1.60026 3.04139C1.74304 2.71162 1.92416 2.40064 2.14086 2.11508C2.13617 2.12095 2.13108 2.1276 2.126 2.13464C2.13851 2.11821 2.1526 2.10022 2.1659 2.08379C2.15807 2.09474 2.14947 2.1053 2.14164 2.11586C2.29616 1.92145 2.4671 1.74034 2.65213 1.57408C2.63727 2.04819 2.69047 2.52542 2.81447 2.98547C2.9905 3.63873 3.30814 4.23803 3.72904 4.76528C4.12608 5.26206 4.63461 5.68062 5.1952 5.97989C5.80465 6.30456 6.4732 6.49233 7.16207 6.54123C7.79108 6.58504 8.42164 6.4982 9.01698 6.29869C8.88438 6.57174 8.72595 6.83304 8.54209 7.07635L8.54214 7.07634Z"/>
</mask>
<path d="M10.0169 5.40119C10.0138 5.39414 10.0099 5.38867 10.006 5.38163C9.95784 5.30026 9.86514 5.2232 9.77204 5.20168C9.67229 5.17939 9.56002 5.18408 9.47084 5.2408C9.46614 5.24393 9.46106 5.24784 9.45597 5.25058C9.3171 5.32881 9.17432 5.39923 9.02881 5.4626C9.03741 5.45947 9.04641 5.45556 9.05424 5.45164C9.03468 5.46025 9.01434 5.46807 8.99478 5.47707C9.00651 5.47238 9.01707 5.46729 9.0292 5.46221C8.7014 5.59442 8.36029 5.68518 8.01017 5.73603C7.65419 5.77828 7.29432 5.77828 6.93836 5.73525C6.95322 5.73721 6.96652 5.73916 6.98139 5.74112C6.94696 5.73721 6.91176 5.73251 6.87772 5.72743C6.89806 5.73056 6.91762 5.73212 6.93835 5.73525C6.5902 5.6844 6.2491 5.59247 5.92322 5.46142C5.93105 5.46455 5.93809 5.46847 5.94552 5.4712C5.92987 5.46416 5.91423 5.45869 5.89858 5.45165C5.9064 5.45477 5.91501 5.45869 5.92283 5.46142C5.59229 5.31982 5.28052 5.13675 4.99379 4.91964C5.00866 4.93138 5.02196 4.94194 5.03682 4.95407C5.01022 4.93372 4.98402 4.91299 4.95781 4.89226C4.96954 4.90087 4.98128 4.91104 4.9938 4.91964C4.72975 4.70919 4.48997 4.46979 4.27912 4.20575C4.28694 4.2167 4.29555 4.22726 4.30337 4.23782C4.28851 4.21905 4.27521 4.20066 4.26034 4.18228C4.26621 4.1901 4.27286 4.19792 4.27912 4.20575C4.06084 3.91706 3.87699 3.60256 3.73343 3.27005C3.73734 3.27866 3.74125 3.28883 3.74438 3.29743C3.73734 3.28178 3.73069 3.26614 3.72483 3.25049C3.72796 3.25753 3.73069 3.26301 3.73343 3.27005C3.60239 2.94459 3.51124 2.60427 3.46039 2.25692C3.41736 1.90017 3.41814 1.53911 3.46039 1.18201C3.45726 1.19961 3.45569 1.21643 3.45335 1.23364C3.45726 1.19922 3.46195 1.16401 3.46704 1.12998C3.46508 1.14758 3.46313 1.1644 3.46 1.18161C3.47643 1.06739 3.49716 0.953952 3.52337 0.840512C3.55857 0.684823 3.51163 0.528353 3.38333 0.429774C3.25893 0.333936 3.08682 0.32024 2.94913 0.399262C2.66161 0.563553 2.39053 0.75993 2.14135 0.978197C1.891 1.19726 1.67272 1.44447 1.47166 1.70892C1.08635 2.21471 0.80588 2.81047 0.652925 3.42854C0.491758 4.08571 0.473763 4.76442 0.58447 5.43056C0.681481 6.01263 0.896629 6.58057 1.20057 7.08519C1.49865 7.57885 1.88708 8.02479 2.34278 8.37921C2.58531 8.56775 2.83644 8.73909 3.10947 8.87991C3.38252 9.02073 3.66885 9.13809 3.96302 9.2261C4.54978 9.40096 5.18153 9.46393 5.79059 9.40213C6.43408 9.33758 7.05217 9.15569 7.62327 8.85135C8.14745 8.57166 8.62548 8.18714 9.00882 7.73258C9.4176 7.2483 9.73054 6.69792 9.93004 6.09547C9.97502 5.95934 10.013 5.82165 10.0443 5.68278C10.0462 5.67418 10.0482 5.66518 10.049 5.65735C10.0689 5.57012 10.0599 5.47819 10.0169 5.40113L10.0169 5.40119ZM3.46859 2.31955C3.46546 2.29999 3.4639 2.28043 3.46077 2.26165C3.46351 2.28121 3.46664 2.29999 3.46859 2.31955ZM1.32688 5.13601C1.33001 5.15557 1.33157 5.17513 1.3347 5.19391C1.33079 5.17435 1.32883 5.15479 1.32688 5.13601ZM5.88019 8.6097C5.9017 8.60657 5.92244 8.60384 5.94356 8.60188C5.92243 8.60501 5.9017 8.60775 5.88019 8.6097ZM8.54214 7.07634C8.548 7.06852 8.55387 7.06148 8.55974 7.05405C8.54722 7.07048 8.53314 7.08847 8.51984 7.1049C8.52766 7.09512 8.53548 7.08612 8.54214 7.07634C8.3309 7.34156 8.09033 7.58292 7.82551 7.79415C7.83724 7.78555 7.8478 7.77655 7.85993 7.76755C7.8435 7.78125 7.82551 7.79415 7.80908 7.80745C7.81494 7.80276 7.82081 7.79885 7.82551 7.79376C7.53994 8.00969 7.22897 8.19198 6.90037 8.33358C6.90741 8.33045 6.91524 8.32771 6.92189 8.32498C6.90155 8.33358 6.88199 8.34141 6.86126 8.3504C6.87377 8.34454 6.88786 8.33945 6.90037 8.33397C6.57061 8.46697 6.22755 8.5589 5.87623 8.61092C5.52026 8.65317 5.1596 8.65317 4.80362 8.61092C4.81849 8.61288 4.83179 8.61484 4.84665 8.61679C4.81223 8.61288 4.77702 8.60819 4.74298 8.6031C4.76333 8.60623 4.78289 8.60779 4.80362 8.61092C4.45547 8.56007 4.11437 8.46814 3.78849 8.3371C3.79631 8.34023 3.80335 8.34414 3.81079 8.34688C3.79514 8.33984 3.77949 8.33436 3.76384 8.32732C3.77167 8.33045 3.78027 8.33436 3.7881 8.3371C3.45755 8.19549 3.14578 8.01242 2.85906 7.79532C2.87392 7.80705 2.88722 7.81761 2.90209 7.82974C2.87549 7.8094 2.84928 7.78867 2.82307 7.76793C2.83481 7.77654 2.84654 7.78671 2.85906 7.79532C2.59502 7.58486 2.35523 7.34546 2.14438 7.08142C2.15221 7.09237 2.16081 7.10293 2.16864 7.1135C2.15377 7.09472 2.1393 7.07634 2.12561 7.05795C2.13147 7.06577 2.13812 7.0736 2.14438 7.08142C1.92611 6.79273 1.74226 6.47823 1.5987 6.14572C1.60261 6.15433 1.60652 6.1645 1.60965 6.17311C1.60261 6.15746 1.59713 6.14181 1.59009 6.12617C1.59322 6.13321 1.59596 6.13986 1.5987 6.14572C1.46882 5.82027 1.3765 5.47995 1.32565 5.1326C1.2834 4.77663 1.2834 4.41675 1.32565 4.06079C1.3237 4.07448 1.32174 4.08895 1.31978 4.10304C1.3237 4.06861 1.32839 4.03341 1.33348 3.99937C1.33035 4.01971 1.32878 4.04044 1.32565 4.06118C1.3765 3.71185 1.46843 3.36958 1.59948 3.04334C1.59557 3.05195 1.59165 3.06095 1.58774 3.06994C1.59557 3.05038 1.60339 3.03161 1.612 3.01205C1.60808 3.02183 1.60417 3.03161 1.60026 3.04139C1.74304 2.71162 1.92416 2.40064 2.14086 2.11508C2.13617 2.12095 2.13108 2.1276 2.126 2.13464C2.13851 2.11821 2.1526 2.10022 2.1659 2.08379C2.15807 2.09474 2.14947 2.1053 2.14164 2.11586C2.29616 1.92145 2.4671 1.74034 2.65213 1.57408C2.63727 2.04819 2.69047 2.52542 2.81447 2.98547C2.9905 3.63873 3.30814 4.23803 3.72904 4.76528C4.12608 5.26206 4.63461 5.68062 5.1952 5.97989C5.80465 6.30456 6.4732 6.49233 7.16207 6.54123C7.79108 6.58504 8.42164 6.4982 9.01698 6.29869C8.88438 6.57174 8.72595 6.83304 8.54209 7.07635L8.54214 7.07634Z" fill="#EC5C3D" stroke="#EC5C3D" stroke-width="0.1" mask="url(#path-1-inside-1)"/>
</svg>
