<svg width="19" height="14" viewBox="0 0 19 14" fill="none" xmlns="http://www.w3.org/2000/svg">
<path d="M13.4404 1.74696H2.37971V0.561856C2.37971 0.456678 2.33824 0.356692 2.26417 0.282609C2.1901 0.208541 2.08936 0.166321 1.98492 0.166321H0.799817C0.581322 0.166321 0.404297 0.343344 0.404297 0.561841C0.404297 0.779596 0.581321 0.956622 0.799817 0.956622H1.5894V3.7216C1.5894 3.50385 1.41311 3.32682 1.19462 3.32682C0.97612 3.32682 0.799836 3.50385 0.799836 3.7216V5.69702C0.799836 5.91552 0.97612 6.0918 1.19462 6.0918C1.41311 6.0918 1.5894 5.91552 1.5894 5.69702V7.67244C1.5894 7.45395 1.41311 7.27692 1.19462 7.27692C0.97612 7.27692 0.799836 7.45395 0.799836 7.67244V9.64787V9.64713C0.799836 9.86562 0.97612 10.0426 1.19462 10.0426C1.41311 10.0426 1.5894 9.86562 1.5894 9.64713V12.8076C1.5894 13.0261 1.76642 13.2024 1.98492 13.2024C2.20267 13.2024 2.3797 13.0261 2.3797 12.8076V11.6225H3.5648V12.8076C3.5648 12.9121 3.60628 13.0128 3.68035 13.0869C3.75442 13.161 3.85515 13.2024 3.9596 13.2024H8.30522C8.40965 13.2024 8.51038 13.161 8.58446 13.0869C8.65855 13.0128 8.70001 12.9121 8.70001 12.8076V11.6225H9.88511V12.8076C9.88511 12.9121 9.92733 13.0128 10.0014 13.0869C10.0755 13.161 10.1755 13.2024 10.2806 13.2024H16.2062C16.3106 13.2024 16.4113 13.161 16.4854 13.0869C16.5595 13.0128 16.6009 12.9121 16.6009 12.8076V11.6225C17.0202 11.6225 17.4216 11.4559 17.7179 11.1596C18.0149 10.8633 18.1808 10.4611 18.1808 10.0427V6.48736C18.1808 5.22968 17.6816 4.02387 16.7928 3.13495C15.904 2.24603 14.6981 1.7469 13.4404 1.7469L13.4404 1.74696ZM7.91044 12.4129H4.35513V11.6225H7.91044V12.4129ZM15.8114 12.4129H10.6754V11.6225H15.8106L15.8114 12.4129ZM17.3912 10.0427C17.3912 10.2523 17.3075 10.453 17.1594 10.6011C17.0113 10.7493 16.8105 10.8322 16.6009 10.8322H2.37971V2.53654H13.4404C14.4885 2.53654 15.4928 2.9528 16.2342 3.6935C16.9749 4.43494 17.3912 5.43929 17.3912 6.4873L17.3912 10.0427Z" fill="#65B042"/>
<path d="M13.2434 3.32684C12.3524 3.32684 11.4984 3.68089 10.8689 4.31047C10.2393 4.94005 9.88525 5.79407 9.88525 6.68447C9.88525 7.57551 10.2393 8.42952 10.8689 9.05903C11.4985 9.68861 12.3525 10.0427 13.2434 10.0427C14.1338 10.0427 14.9878 9.68861 15.6174 9.05903C16.247 8.42945 16.6011 7.57543 16.6011 6.68447C16.6003 5.79416 16.2463 4.94089 15.6167 4.31123C14.9871 3.68165 14.1338 3.3276 13.2435 3.32686L13.2434 3.32684ZM13.2434 9.25234C12.205 9.25234 11.268 8.62646 10.871 7.66726C10.4732 6.70807 10.6932 5.60291 11.4272 4.86891C12.162 4.13489 13.2664 3.91491 14.2256 4.31265C15.1855 4.70967 15.8107 5.64588 15.8107 6.68437C15.8084 8.10206 14.6604 9.25007 13.2434 9.25234Z" fill="#65B042"/>
<path d="M8.30534 3.32684H3.95972C3.74197 3.32684 3.56494 3.50386 3.56494 3.72162C3.56494 3.94011 3.74197 4.11714 3.95972 4.11714H8.30534C8.52384 4.11714 8.70012 3.94012 8.70012 3.72162C8.70012 3.50386 8.52384 3.32684 8.30534 3.32684Z" fill="#65B042"/>
<path d="M8.30534 5.30226H3.95972C3.74197 5.30226 3.56494 5.47854 3.56494 5.69704C3.56494 5.91553 3.74197 6.09182 3.95972 6.09182H8.30534C8.52384 6.09182 8.70012 5.91553 8.70012 5.69704C8.70012 5.47854 8.52384 5.30226 8.30534 5.30226Z" fill="#65B042"/>
<path d="M8.30534 7.27692H3.95972C3.74197 7.27692 3.56494 7.45394 3.56494 7.67244C3.56494 7.89019 3.74197 8.06722 3.95972 8.06722H8.30534C8.52384 8.06722 8.70012 7.8902 8.70012 7.67244C8.70012 7.45394 8.52384 7.27692 8.30534 7.27692Z" fill="#65B042"/>
<path d="M8.30534 9.25234H3.95972C3.74197 9.25234 3.56494 9.42936 3.56494 9.64712C3.56494 9.86561 3.74197 10.0426 3.95972 10.0426H8.30534C8.52384 10.0426 8.70012 9.86561 8.70012 9.64712C8.70012 9.42936 8.52384 9.25234 8.30534 9.25234Z" fill="#65B042"/>
<path d="M13.2433 5.30226C12.6841 5.30226 12.1797 5.63852 11.9656 6.15553C11.7516 6.67254 11.8701 7.26657 12.2656 7.66209C12.6611 8.05761 13.2552 8.17612 13.7721 7.96206C14.2892 7.748 14.6254 7.24358 14.6254 6.68437C14.6254 6.31773 14.4802 5.96589 14.221 5.70667C13.9618 5.44743 13.6099 5.30226 13.2433 5.30226ZM13.2433 7.27768V7.27694C13.0033 7.27694 12.7871 7.1325 12.6959 6.91103C12.6041 6.6903 12.6545 6.43477 12.8241 6.2659C12.9937 6.09629 13.2485 6.04517 13.47 6.13702C13.6914 6.22887 13.8359 6.44515 13.8359 6.68439C13.8359 7.01178 13.57 7.27694 13.2433 7.27694L13.2433 7.27768Z" fill="#65B042"/>
</svg>
