<svg width="15" height="15" viewBox="0 0 15 15" fill="none" xmlns="http://www.w3.org/2000/svg">
<path d="M9.70966 5.87983C9.70966 5.77466 9.66822 5.67382 9.59398 5.59959C9.51974 5.52536 9.4189 5.4839 9.31374 5.4839H5.35443C5.13605 5.4839 4.9585 5.66146 4.9585 5.87984V9.83915C4.9585 9.94432 4.99995 10.0452 5.07418 10.1194C5.14842 10.1936 5.24926 10.2351 5.35442 10.2351H9.31373C9.4189 10.2351 9.51974 10.1936 9.59397 10.1194C9.6682 10.0451 9.70966 9.94431 9.70966 9.83915L9.70966 5.87983ZM8.9178 9.44321H5.75035V6.27576H8.9178V9.44321Z" fill="white"/>
<path d="M6.54193 9.04728H8.12565C8.23082 9.04728 8.33166 9.00583 8.40589 8.93159C8.48012 8.85736 8.52158 8.75651 8.52158 8.65135V7.06763C8.52158 6.96246 8.48013 6.86162 8.40589 6.78739C8.33165 6.71316 8.23081 6.6717 8.12565 6.6717H6.54193C6.32355 6.6717 6.146 6.84925 6.146 7.06763V8.65136C6.146 8.75653 6.18745 8.85737 6.26168 8.9316C6.33592 9.00583 6.43676 9.04729 6.54192 9.04729L6.54193 9.04728ZM6.93786 7.46356H7.72972V8.25542H6.93786V7.46356Z" fill="white"/>
<path d="M14.0646 5.08797C14.283 5.08797 14.4606 4.91042 14.4606 4.69204C14.4606 4.47366 14.283 4.29611 14.0646 4.29611H13.2728V2.94994C13.2728 2.38142 12.8119 1.92052 12.2433 1.92052H10.8972V1.12866C10.8972 0.910278 10.7196 0.732727 10.5012 0.732727C10.2829 0.732727 10.1053 0.910278 10.1053 1.12866V1.92052H8.78637V1.12866C8.78637 0.910278 8.60882 0.732727 8.39044 0.732727C8.17144 0.732727 7.9945 0.910278 7.9945 1.12866V1.92052H6.67308V1.12866C6.67308 0.910278 6.49614 0.732727 6.27715 0.732727C6.05877 0.732727 5.88121 0.910278 5.88121 1.12866V1.92052H4.56227V1.12866C4.56227 0.910278 4.38472 0.732727 4.16634 0.732727C3.94796 0.732727 3.77041 0.910278 3.77041 1.12866V1.92052H2.42425C1.85572 1.92052 1.39482 2.38142 1.39482 2.94994V4.29611H0.602962C0.384583 4.29611 0.207031 4.47366 0.207031 4.69204C0.207031 4.91042 0.384583 5.08797 0.602962 5.08797H1.39482V6.40691H0.602962C0.384583 6.40691 0.207031 6.58446 0.207031 6.80284C0.207031 7.02184 0.384583 7.19877 0.602962 7.19877H1.39482V8.51957H0.602962V8.52019C0.384583 8.52019 0.207031 8.69712 0.207031 8.91612C0.207031 9.1345 0.384583 9.31205 0.602962 9.31205H1.39482V10.631H0.602962C0.384583 10.631 0.207031 10.8085 0.207031 11.0269C0.207031 11.2453 0.384583 11.4229 0.602962 11.4229H1.39482V12.769C1.39482 13.3375 1.85572 13.7984 2.42425 13.7984H3.77041V14.5903C3.77041 14.8087 3.94796 14.9862 4.16634 14.9862C4.38472 14.9862 4.56227 14.8087 4.56227 14.5903V13.7984H5.88121V14.5903C5.88121 14.8087 6.05877 14.9862 6.27715 14.9862C6.49614 14.9862 6.67308 14.8087 6.67308 14.5903V13.7984H7.99387V14.5903H7.99449C7.99449 14.8087 8.17142 14.9862 8.39042 14.9862C8.6088 14.9862 8.78635 14.8087 8.78635 14.5903V13.7984H10.1053V14.5903C10.1053 14.8087 10.2828 14.9862 10.5012 14.9862C10.7196 14.9862 10.8972 14.8087 10.8972 14.5903V13.7984H12.2433C12.8118 13.7984 13.2727 13.3375 13.2727 12.769V11.4229H14.0646C14.283 11.4229 14.4605 11.2453 14.4605 11.0269C14.4605 10.8085 14.283 10.631 14.0646 10.631H13.2727V9.31205H14.0646C14.283 9.31205 14.4605 9.1345 14.4605 8.91612C14.4605 8.69712 14.283 8.52019 14.0646 8.52019H13.2727V7.19876H14.0646C14.283 7.19876 14.4605 7.02182 14.4605 6.80283C14.4605 6.58445 14.283 6.4069 14.0646 6.4069H13.2727V5.08795L14.0646 5.08797ZM12.4809 12.769C12.4815 12.8321 12.4561 12.8928 12.4116 12.9373C12.3671 12.9818 12.3064 13.0072 12.2433 13.0066H2.42425C2.36114 13.0072 2.30052 12.9818 2.25597 12.9373C2.21143 12.8928 2.18607 12.8321 2.18669 12.769V2.94994C2.18607 2.88684 2.21143 2.82621 2.25597 2.78167C2.30052 2.73713 2.36114 2.71176 2.42425 2.71238H12.2433C12.3064 2.71176 12.3671 2.73713 12.4116 2.78167C12.4561 2.82621 12.4815 2.88684 12.4809 2.94994V12.769Z" fill="white"/>
<path d="M10.8969 3.10831C10.4162 3.10831 9.98315 3.39783 9.7994 3.8414C9.61566 4.28559 9.71713 4.79658 10.0568 5.13622C10.3964 5.47585 10.9074 5.57732 11.3516 5.39358C11.7952 5.20984 12.0847 4.7768 12.0847 4.29611C12.0847 3.98121 11.9597 3.67871 11.737 3.45599C11.5143 3.23327 11.2118 3.10831 10.8969 3.10831ZM10.8969 4.69204C10.7367 4.69204 10.5925 4.59553 10.5313 4.44767C10.47 4.29981 10.5034 4.12907 10.6166 4.01585C10.7298 3.90264 10.9006 3.86923 11.0485 3.93048C11.1963 3.99172 11.2928 4.13587 11.2928 4.2961C11.2928 4.40126 11.2514 4.50211 11.1771 4.57634C11.1029 4.65057 11.0021 4.69202 10.8969 4.69202L10.8969 4.69204Z" fill="white"/>
<path d="M3.77031 5.4839C4.251 5.4839 4.68404 5.19438 4.86779 4.75081C5.05153 4.30662 4.95007 3.79563 4.61043 3.45599C4.2708 3.11636 3.7598 3.01489 3.31561 3.19863C2.87204 3.38237 2.58252 3.81541 2.58252 4.2961C2.58252 4.95186 3.11456 5.4839 3.77031 5.4839ZM3.77031 3.90017C3.93054 3.90017 4.07469 3.99668 4.13593 4.14454C4.19718 4.2924 4.16377 4.46314 4.05056 4.57636C3.93735 4.68957 3.7666 4.72298 3.61874 4.66173C3.47089 4.60049 3.37437 4.45634 3.37437 4.29611C3.37437 4.07773 3.55192 3.90018 3.7703 3.90018L3.77031 3.90017Z" fill="white"/>
<path d="M10.8969 10.2351C10.4162 10.2351 9.98315 10.5246 9.7994 10.9682C9.61566 11.4123 9.71713 11.9233 10.0568 12.263C10.3964 12.6026 10.9074 12.7041 11.3516 12.5203C11.7952 12.3366 12.0847 11.9036 12.0847 11.4229C12.0847 11.108 11.9597 10.8055 11.737 10.5827C11.5143 10.36 11.2118 10.2351 10.8969 10.2351ZM10.8969 11.8188C10.7367 11.8188 10.5925 11.7223 10.5313 11.5744C10.47 11.4266 10.5034 11.2558 10.6166 11.1426C10.7298 11.0294 10.9006 10.996 11.0485 11.0572C11.1963 11.1185 11.2928 11.2626 11.2928 11.4229C11.2928 11.528 11.2514 11.6289 11.1771 11.7031C11.1029 11.7773 11.0021 11.8188 10.8969 11.8188L10.8969 11.8188Z" fill="white"/>
<path d="M3.77041 10.2351C3.28972 10.2351 2.85668 10.5246 2.67294 10.9682C2.4892 11.4123 2.59066 11.9233 2.93029 12.263C3.26992 12.6026 3.78093 12.7041 4.22512 12.5203C4.66869 12.3366 4.95821 11.9036 4.95821 11.4229C4.95821 11.108 4.83324 10.8055 4.61053 10.5827C4.38782 10.36 4.08531 10.2351 3.77041 10.2351ZM3.77041 11.8188C3.61019 11.8188 3.46604 11.7223 3.40479 11.5744C3.34355 11.4266 3.37696 11.2558 3.49017 11.1426C3.60338 11.0294 3.77413 10.996 3.92199 11.0572C4.06984 11.1185 4.16635 11.2626 4.16635 11.4229C4.16635 11.528 4.1249 11.6289 4.05067 11.7031C3.97643 11.7773 3.87559 11.8188 3.77043 11.8188L3.77041 11.8188Z" fill="white"/>
</svg>
