<svg width="17" height="18" viewBox="0 0 17 18" fill="none" xmlns="http://www.w3.org/2000/svg">
<path fill-rule="evenodd" clip-rule="evenodd" d="M0 0.373047H17V17.373H0V0.373047ZM6.59747 4.93894C6.77747 4.86541 6.98516 4.94897 7.06132 5.12276C7.13747 5.29656 7.05093 5.49709 6.87093 5.57062C5.36171 6.18225 4.3821 7.60269 4.3821 9.18356C4.3821 11.3426 6.20286 13.1006 8.439 13.1006C10.6751 13.1006 12.4994 11.346 12.4994 9.18356C12.4994 7.61272 11.5336 6.19896 10.0382 5.58065C9.85823 5.50712 9.77515 5.30659 9.85131 5.13279C9.92746 4.959 10.1352 4.87878 10.3186 4.95231C12.0736 5.67757 13.209 7.342 13.209 9.18356C13.209 11.7236 11.0698 13.7858 8.44247 13.7858C5.81517 13.7858 3.67249 11.7236 3.67249 9.18356C3.67249 7.32529 4.82171 5.65752 6.59747 4.93894ZM8.79884 4.1465C8.79884 3.95599 8.6396 3.80225 8.44229 3.80225C8.24498 3.80225 8.08575 3.95599 8.08575 4.14315V9.18657C8.08575 9.37708 8.24498 9.53082 8.44229 9.53082C8.6396 9.53082 8.79884 9.37708 8.79884 9.18657V4.1465Z" fill="#FFFFFF"/>
</svg>
