<svg width="13" height="17" viewBox="0 0 13 17" fill="none" xmlns="http://www.w3.org/2000/svg">
    <path d="M9.60669 2.14201H10.5858V3.12113H9.60669V2.14201Z" fill="white"/>
    <path d="M9.60669 3.12109H10.5858V4.10022H9.60669V3.12109Z" fill="white"/>
    <path d="M8.62769 4.10028H9.60681V5.0794H8.62769V4.10028Z" fill="white"/>
    <path d="M9.60669 4.10028H10.5858V5.0794H9.60669V4.10028Z" fill="white"/>
    <path d="M10.5859 3.12109H11.5651V4.10022H10.5859V3.12109Z" fill="white"/>
    <path d="M8.62769 5.07932H9.60681V6.05844H8.62769V5.07932Z" fill="white"/>
    <path d="M7.64844 5.07932H8.62756V6.05844H7.64844V5.07932Z" fill="white"/>
    <path d="M7.64844 6.0585H8.62756V7.03762H7.64844V6.0585Z" fill="white"/>
    <path d="M8.62769 2.14201H9.60681V3.12113H8.62769V2.14201Z" fill="white"/>
    <path d="M8.62769 1.16288H9.60681V2.142H8.62769V1.16288Z" fill="white"/>
    <path d="M7.64844 1.16288H8.62756V2.142H7.64844V1.16288Z" fill="white"/>
    <path d="M7.64868 0.183838L8.6278 0.183838V1.16296H7.64868V0.183838Z" fill="white"/>
    <path d="M3.41138 14.5449L2.43225 14.5449L2.43225 13.5658L3.41138 13.5658L3.41138 14.5449Z" fill="white"/>
    <path d="M3.41138 13.5658L2.43225 13.5658L2.43225 12.5867L3.41138 12.5867L3.41138 13.5658Z" fill="white"/>
    <path d="M4.39038 12.5866L3.41126 12.5866L3.41126 11.6075L4.39038 11.6075L4.39038 12.5866Z" fill="white"/>
    <path d="M3.41138 12.5866L2.43225 12.5866L2.43225 11.6075L3.41138 11.6075L3.41138 12.5866Z" fill="white"/>
    <path d="M2.43237 13.5658L1.45325 13.5658L1.45325 12.5867L2.43237 12.5867L2.43237 13.5658Z" fill="white"/>
    <path d="M4.39038 11.6076L3.41126 11.6076L3.41126 10.6285L4.39038 10.6285L4.39038 11.6076Z" fill="white"/>
    <path d="M5.36963 11.6076L4.39051 11.6076L4.39051 10.6285L5.36963 10.6285L5.36963 11.6076Z" fill="white"/>
    <path d="M5.36963 10.6284L4.39051 10.6284L4.39051 9.6493L5.36963 9.6493L5.36963 10.6284Z" fill="white"/>
    <path d="M4.39038 14.5449L3.41126 14.5449L3.41126 13.5658L4.39038 13.5658L4.39038 14.5449Z" fill="white"/>
    <path d="M4.39038 15.524L3.41126 15.524L3.41126 14.5449L4.39038 14.5449L4.39038 15.524Z" fill="white"/>
    <path d="M5.36963 15.524L4.39051 15.524L4.39051 14.5449L5.36963 14.5449L5.36963 15.524Z" fill="white"/>
    <path d="M5.36938 16.5031L4.39026 16.5031L4.39026 15.524L5.36938 15.524L5.36938 16.5031Z" fill="white"/>
    <path d="M11.5647 7.74084H12.5438V8.71997H11.5647V7.74084Z" fill="white"/>
    <path d="M1.34644 8.94592L0.367313 8.94592L0.367313 7.9668L1.34644 7.9668L1.34644 8.94592Z" fill="white"/>
    <path d="M11.5647 6.76184H12.5438V7.74096H11.5647V6.76184Z" fill="white"/>
    <path d="M1.34644 9.92505L0.367313 9.92505L0.367313 8.94593L1.34644 8.94593L1.34644 9.92505Z" fill="white"/>
    <path d="M11.5649 5.83273H12.5441V6.81186H11.5649V5.83273Z" fill="white"/>
    <path d="M1.34668 10.854L0.367557 10.854L0.367558 9.87491L1.34668 9.87491L1.34668 10.854Z" fill="white"/>
    <path d="M11.5647 8.67017H12.5438V9.64929H11.5647V8.67017Z" fill="white"/>
    <path d="M1.34644 8.01672L0.367313 8.01672L0.367313 7.0376L1.34644 7.0376L1.34644 8.01672Z" fill="white"/>
    <path d="M10.5857 9.64929H11.5648V10.6284H10.5857V9.64929Z" fill="white"/>
    <path d="M2.32544 7.0376L1.34632 7.0376L1.34632 6.05848L2.32544 6.05848L2.32544 7.0376Z" fill="white"/>
    <path d="M11.5647 9.64929H12.5438V10.6284H11.5647V9.64929Z" fill="white"/>
    <path d="M1.34644 7.0376L0.367313 7.0376L0.367313 6.05848L1.34644 6.05848L1.34644 7.0376Z" fill="white"/>
    <path d="M10.5857 10.6284H11.5648V11.6075H10.5857V10.6284Z" fill="white"/>
    <path d="M2.32544 6.05847L1.34632 6.05847L1.34632 5.07935L2.32544 5.07935L2.32544 6.05847Z" fill="white"/>
    <path d="M10.5857 11.6075H11.5648V12.5867H10.5857V11.6075Z" fill="white"/>
    <path d="M2.32544 5.07935L1.34632 5.07935L1.34632 4.10022L2.32544 4.10022L2.32544 5.07935Z" fill="white"/>
    <path d="M9.60669 11.6075H10.5858V12.5867H9.60669V11.6075Z" fill="white"/>
    <path d="M3.30444 5.07935L2.32532 5.07935L2.32532 4.10022L3.30444 4.10022L3.30444 5.07935Z" fill="white"/>
    <path d="M9.60669 12.5865H10.5858V13.5657H9.60669V12.5865Z" fill="white"/>
    <path d="M3.30444 4.10022L2.32532 4.10022L2.32532 3.1211L3.30444 3.1211L3.30444 4.10022Z" fill="white"/>
    <path d="M8.62744 12.5865H9.60656V13.5657H8.62744V12.5865Z" fill="white"/>
    <path d="M4.28369 4.10022L3.30457 4.10022L3.30457 3.1211L4.28369 3.1211L4.28369 4.10022Z" fill="white"/>
    <path d="M7.64844 12.5865H8.62756V13.5657H7.64844V12.5865Z" fill="white"/>
    <path d="M5.2627 4.10022L4.28357 4.10022L4.28357 3.1211L5.2627 3.1211L5.2627 4.10022Z" fill="white"/>
    <path d="M6.66943 12.5865H7.64856V13.5657H6.66943V12.5865Z" fill="white"/>
    <path d="M6.2417 4.10022L5.26258 4.10022L5.26258 3.1211L6.2417 3.1211L6.2417 4.10022Z" fill="white"/>
    <path d="M5.47656 12.5865H6.6695V13.5657H5.47656V12.5865Z" fill="white"/>
    <path d="M7.43457 4.10022L6.24163 4.10022L6.24163 3.1211L7.43457 3.1211L7.43457 4.10022Z" fill="white"/>
    <path d="M3.30444 12.5865H5.47644V13.5657H3.30444V12.5865Z" fill="white"/>
    <path d="M9.60645 4.10022L7.43458 4.10022L7.43458 3.1211L9.60645 3.1211L9.60645 4.10022Z" fill="white"/>
</svg>
