<svg width="21" height="547" viewBox="0 0 21 547" fill="none" xmlns="http://www.w3.org/2000/svg">
<path d="M5.74846 378.45L5.74846 383.469L1.08814 383.469C0.927444 383.469 0.766743 383.548 0.686393 383.548C0.686393 385.46 0.686393 387.292 0.766743 389.204C0.847093 389.204 0.847093 389.284 0.927443 389.284L5.74846 389.284L5.74846 394.303L0.766743 394.303C0.686393 394.382 0.525692 394.382 0.445342 394.382C0.445342 396.055 0.445342 397.648 0.445342 399.321C0.606043 399.401 0.686393 399.48 0.847093 399.56L5.66811 399.56L5.6681 404.499C3.98075 404.499 2.2934 404.499 0.686393 404.499C0.686393 406.172 0.686393 407.924 0.686393 409.757L5.74845 409.757L5.74845 415.492L0.606042 415.492C0.525692 415.492 0.525692 415.492 0.445342 415.492C0.445342 417.245 0.445342 418.997 0.445342 420.75C0.606042 420.75 0.847093 420.75 1.00779 420.829L5.6681 420.829L5.6681 425.768L0.847093 425.768C0.686392 425.768 0.606042 425.848 0.445342 425.848C0.445342 427.521 0.445342 429.273 0.445342 430.946C0.525692 430.946 0.606042 430.946 0.686392 431.026L5.6681 431.026L5.6681 436.682L0.686392 436.682L0.686392 436.522C0.606042 436.522 0.525692 436.522 0.445342 436.522C0.445342 438.275 0.445342 440.107 0.445342 441.86C0.525692 441.86 0.606042 441.86 0.686392 441.86L0.766742 441.86C0.847093 441.86 0.847093 441.86 0.927443 441.86C1.00779 441.86 1.00779 441.86 1.08814 441.86L5.74845 441.86L5.74845 446.719L1.08814 446.719C1.00779 446.719 0.927443 446.719 0.766742 446.719C0.686392 446.719 0.606042 446.719 0.606042 446.719C0.525692 446.719 0.525692 446.719 0.445342 446.719C0.445342 452.136 0.445341 457.553 0.445341 463.049C0.525692 463.049 0.606042 463.049 0.686392 463.049L5.6681 463.049L5.6681 467.988L0.686392 467.988C0.606042 467.988 0.525692 467.988 0.445341 467.988C0.445341 473.086 0.445341 478.264 0.445341 483.362C0.525691 483.362 0.606042 483.362 0.686392 483.362L5.6681 483.362L5.6681 489.018L1.00779 489.018C0.927442 489.018 0.847092 489.018 0.766742 489.018C0.606042 489.018 0.525691 489.018 0.364991 489.018C0.364991 494.037 0.364991 499.135 0.364991 504.313C0.445341 504.313 0.525691 504.313 0.606041 504.313C0.686392 504.313 0.766742 504.313 0.847092 504.313C1.00779 504.313 1.16849 504.313 1.32919 504.313L5.6681 504.313L5.6681 509.969L0.686391 509.969C0.606041 509.969 0.525691 509.969 0.445341 509.969C0.445341 521.519 0.445341 533.07 0.44534 544.621C0.36499 545.258 0.36499 545.895 0.36499 546.533L20.4525 546.533L20.4525 409.757L15.9529 409.757L15.9529 415.412L10.8909 415.412L10.8909 409.677L15.8726 409.677L15.8726 404.499C17.3992 404.499 18.9259 404.499 20.4525 404.499L20.4525 389.364C18.9259 389.364 17.5599 389.285 16.0333 389.285C16.0333 387.373 16.0333 385.381 16.0333 383.469L10.8105 383.548L10.8105 378.53C9.12316 378.45 7.43581 378.45 5.74846 378.45ZM15.8726 451.976L15.8726 456.915L10.8909 456.915L10.8909 451.976L15.8726 451.976ZM15.8726 430.866L15.8726 436.522L10.8909 436.522L10.8909 430.866L15.8726 430.866ZM15.8726 420.67L15.8726 425.609L10.8909 425.609L10.8909 420.67L15.8726 420.67ZM15.8726 399.56C15.8726 401.233 15.8726 402.826 15.8726 404.499L10.8909 404.499L10.8909 399.56L15.8726 399.56ZM16.0333 394.303L10.8909 394.303L10.8909 389.284C12.4979 389.284 14.4263 389.285 16.0333 389.285C16.194 390.878 15.9529 392.55 16.0333 394.303Z" fill="black"/>
<path d="M10.8104 378.45C10.8104 376.777 10.8104 375.104 10.8104 373.272C12.5781 373.272 14.1851 373.272 15.9528 373.272C15.9528 371.52 15.9528 369.927 15.9528 368.015C17.5598 368.015 19.0061 368.015 20.4524 368.015C20.4524 373.113 20.4524 378.291 20.4524 383.389C18.9258 383.389 17.3991 383.389 15.8725 383.389C15.8725 381.716 15.8725 380.043 15.8725 378.291C14.1048 378.45 12.4978 378.45 10.8104 378.45Z" fill="black"/>
<path d="M10.8106 0.62304C10.8106 2.37556 10.8106 4.20775 10.8106 5.96027C9.20357 5.96027 7.51622 5.96027 5.58781 5.96027C5.74851 4.04843 5.50744 2.37556 5.58779 0.62304C7.27515 0.62304 9.20357 0.62304 10.8106 0.62304Z" fill="black"/>
<path d="M20.4525 16.794C19.0062 16.794 17.5599 16.794 15.8726 16.794C15.8726 14.7228 15.8726 12.811 15.8726 10.8992C17.3992 10.8992 18.9259 10.8992 20.4525 10.8992C20.4525 12.8906 20.4525 14.8822 20.4525 16.794Z" fill="black"/>
<path d="M15.8726 90.3999C15.8726 88.488 15.8726 86.5762 15.8726 84.505C17.5599 84.505 19.0062 84.505 20.4525 84.505C20.4525 86.4169 20.4525 88.4083 20.4525 90.3202C18.9259 90.3202 17.3992 90.3999 15.8726 90.3999Z" fill="black"/>
<path d="M20.4525 142.657C19.0062 142.657 17.5599 142.657 15.8726 142.657C15.8726 140.586 15.8726 138.674 15.8726 136.762C17.3992 136.762 18.9259 136.762 20.4525 136.762C20.4525 138.753 20.4525 140.745 20.4525 142.657Z" fill="black"/>
<path d="M15.8726 216.263C15.8726 214.351 15.8726 212.439 15.8726 210.368C17.5599 210.368 19.0062 210.368 20.4525 210.368C20.4525 212.28 20.4525 214.271 20.4525 216.183C18.9259 216.183 17.3992 216.263 15.8726 216.263Z" fill="black"/>
<path d="M15.8726 237.213C15.8726 235.301 15.8726 233.469 15.8726 231.318C17.5599 231.318 19.0062 231.318 20.4525 231.318C20.4525 233.23 20.4525 235.222 20.4525 237.133C18.9259 237.213 17.3992 237.213 15.8726 237.213Z" fill="black"/>
<path d="M15.8726 363.076C15.8726 361.164 15.8726 359.332 15.8726 357.181C17.5599 357.181 19.0062 357.181 20.4525 357.181C20.4525 359.093 20.4525 361.084 20.4525 362.996C18.9259 363.076 17.3992 363.076 15.8726 363.076Z" fill="black"/>
<path d="M20.4526 163.607C19.0063 163.607 17.6403 163.607 16.1136 163.607C16.1136 161.775 16.1136 159.943 16.1136 158.031C17.56 158.031 19.0063 158.031 20.4526 158.031C20.4526 159.943 20.4526 161.775 20.4526 163.607Z" fill="black"/>
<path d="M20.4526 289.47C19.0063 289.47 17.56 289.47 16.0333 289.47C16.0333 287.558 16.0333 285.726 16.0333 283.894C17.56 283.894 19.0063 283.894 20.4526 283.894C20.4526 285.806 20.4526 287.638 20.4526 289.47Z" fill="black"/>
<path d="M15.8726 5.96027C15.8726 4.68571 15.9529 3.33147 15.9529 2.05691C15.9529 1.57895 16.1136 1.101 16.1136 0.62304C17.5599 0.62304 19.0062 0.62304 20.3722 0.62304C20.3722 2.37556 20.3722 4.12809 20.3722 5.96027C18.9259 5.88061 17.3992 5.96027 15.8726 5.96027Z" fill="black"/>
<path d="M20.4526 79.4864C19.0063 79.4864 17.6403 79.4864 16.1136 79.4864C16.1136 77.6542 16.1136 76.061 16.1136 74.1492C17.56 74.1492 19.0063 74.1492 20.4526 74.1492C20.4526 75.9017 20.4526 77.6542 20.4526 79.4864Z" fill="black"/>
<path d="M20.4526 205.349C19.0063 205.349 17.6403 205.349 16.1136 205.349C16.1136 203.517 16.1136 201.924 16.1136 200.012C17.56 200.012 19.0063 200.012 20.4526 200.012C20.4526 201.764 20.4526 203.517 20.4526 205.349Z" fill="black"/>
<path d="M20.4525 352.162C18.9259 352.162 17.3992 352.162 15.8726 352.162L15.9529 352.242C15.9529 350.569 15.9529 348.817 15.9529 347.144L15.8726 347.223C17.3992 347.223 18.9259 347.223 20.4525 347.223C20.4525 348.817 20.4525 350.49 20.4525 352.162Z" fill="black"/>
<path d="M15.8726 26.9108C15.8726 25.3176 15.8726 23.6447 15.8726 21.8922C17.5599 21.8922 19.0062 21.8922 20.4525 21.8922C20.4525 23.5651 20.4525 25.2379 20.4525 26.9108C18.9259 26.9108 17.3992 26.9108 15.8726 26.9108Z" fill="black"/>
<path d="M15.8726 48.1801C15.8726 46.5072 15.8726 44.8343 15.8726 43.0818C17.5599 43.0818 19.0062 43.0818 20.4525 43.0818C20.4525 44.7547 20.4525 46.4275 20.4525 48.1004C18.9259 48.1004 17.3992 48.1801 15.8726 48.1801Z" fill="black"/>
<path d="M15.8726 53.119C17.3992 53.119 18.9259 53.119 20.4525 53.119C20.4525 54.7919 20.4525 56.4648 20.4525 58.1376C19.0062 58.1376 17.5599 58.1376 15.8726 58.1376C15.8726 56.4648 15.8726 54.7919 15.8726 53.119Z" fill="black"/>
<path d="M15.8726 69.1306C15.8726 67.4577 15.8726 65.8645 15.8726 64.0323C17.5599 64.0323 19.0062 64.0323 20.4525 64.0323C20.4525 65.7052 20.4525 67.378 20.4525 69.0509C18.9259 69.1305 17.3992 69.1306 15.8726 69.1306Z" fill="black"/>
<path d="M20.4525 342.046C18.9259 342.046 17.3992 342.046 15.8726 342.046C15.8726 340.373 15.8726 338.7 15.8726 336.947C17.5599 336.947 19.0062 336.947 20.4525 336.947C20.4525 338.7 20.4525 340.373 20.4525 342.046Z" fill="black"/>
<path d="M15.8726 95.3387C17.3992 95.3387 18.9259 95.3387 20.4525 95.3387C20.4525 97.0116 20.4525 98.6845 20.4525 100.357C19.0062 100.357 17.5599 100.357 15.8726 100.357C15.8726 98.6845 15.8726 97.0116 15.8726 95.3387Z" fill="black"/>
<path d="M15.8726 131.823C15.8726 130.15 15.8726 128.557 15.8726 126.725C17.5599 126.725 19.0062 126.725 20.4525 126.725C20.4525 128.398 20.4525 130.071 20.4525 131.743C18.9259 131.743 17.3992 131.823 15.8726 131.823Z" fill="black"/>
<path d="M15.8726 278.636C15.8726 277.043 15.8726 275.37 15.8726 273.618C17.5599 273.618 19.0062 273.618 20.4525 273.618C20.4525 275.29 20.4525 276.963 20.4525 278.636C18.9259 278.636 17.3992 278.636 15.8726 278.636Z" fill="black"/>
<path d="M15.8726 263.421C17.3992 263.421 18.9259 263.421 20.4525 263.421C20.4525 265.094 20.4525 266.767 20.4525 268.44C19.0062 268.44 17.5599 268.44 15.8726 268.44C15.8726 266.767 15.8726 265.094 15.8726 263.421Z" fill="black"/>
<path d="M15.8726 299.906C15.8726 298.233 15.8726 296.56 15.8726 294.807C17.5599 294.807 19.0062 294.807 20.4525 294.807C20.4525 296.48 20.4525 298.153 20.4525 299.826C18.9259 299.826 17.3992 299.906 15.8726 299.906Z" fill="black"/>
<path d="M20.4525 257.606C18.9259 257.606 17.3992 257.606 15.8726 257.606C15.8726 255.933 15.8726 254.34 15.8726 252.508C17.5599 252.508 19.0062 252.508 20.4525 252.508C20.4525 254.26 20.4525 255.933 20.4525 257.606Z" fill="black"/>
<path d="M20.4525 226.3C19.0062 226.3 17.5599 226.3 15.8726 226.3C15.8726 224.547 15.8726 222.874 15.8726 221.202C17.3992 221.202 18.9259 221.202 20.4525 221.202C20.4525 222.954 20.4525 224.627 20.4525 226.3Z" fill="black"/>
<path d="M15.8726 304.924C17.3992 304.924 18.9259 304.924 20.4525 304.924C20.4525 306.597 20.4525 308.27 20.4525 309.943C18.9259 309.943 17.3992 309.943 15.8726 309.943L15.9529 310.022C15.9529 308.27 15.9529 306.597 15.8726 304.924Z" fill="black"/>
<path d="M15.8726 194.993C15.8726 193.4 15.8726 191.727 15.8726 189.895C17.5599 189.895 19.0062 189.895 20.4525 189.895C20.4525 191.568 20.4525 193.241 20.4525 194.914C18.9259 194.993 17.3992 194.993 15.8726 194.993Z" fill="black"/>
<path d="M20.4525 184.08C19.0062 184.08 17.5599 184.08 15.8726 184.08C15.8726 182.327 15.8726 180.655 15.8726 178.982C17.3992 178.982 18.9259 178.982 20.4525 178.982C20.4525 180.734 20.4525 182.407 20.4525 184.08Z" fill="black"/>
<path d="M20.4525 173.963C18.9259 173.963 17.3992 173.963 15.8726 173.963C15.8726 172.29 15.8726 170.617 15.8726 168.865C17.5599 168.865 19.0062 168.865 20.4525 168.865C20.4525 170.617 20.4525 172.29 20.4525 173.963Z" fill="black"/>
<path d="M15.8726 315.837C17.3992 315.837 18.9259 315.837 20.4525 315.837C20.4525 317.51 20.4525 319.183 20.4525 320.856C18.9259 320.856 17.3992 320.856 15.8726 320.856L15.9529 320.936C15.9529 319.183 15.9529 317.431 15.8726 315.837Z" fill="black"/>
<path d="M15.8726 152.774C15.8726 151.18 15.8726 149.507 15.8726 147.755C17.5599 147.755 19.0062 147.755 20.4525 147.755C20.4525 149.428 20.4525 151.101 20.4525 152.774C18.9259 152.774 17.3992 152.774 15.8726 152.774Z" fill="black"/>
<path d="M15.8726 110.554C15.8726 108.961 15.8726 107.367 15.8726 105.535C17.5599 105.535 19.0062 105.535 20.4525 105.535C20.4525 107.208 20.4525 108.881 20.4525 110.554C18.9259 110.554 17.3992 110.554 15.8726 110.554Z" fill="black"/>
<path d="M20.4526 121.388C19.0063 121.388 17.56 121.388 16.0333 121.388C16.0333 119.715 16.0333 118.201 16.0333 116.369C17.56 116.369 19.0063 116.369 20.4526 116.369C20.4526 118.042 20.4526 119.715 20.4526 121.388Z" fill="black"/>
<path d="M20.4526 247.25C19.0063 247.25 17.56 247.25 16.0333 247.25C16.0333 245.578 16.0333 244.064 16.0333 242.232C17.56 242.232 19.0063 242.232 20.4526 242.232C20.4526 243.905 20.4526 245.578 20.4526 247.25Z" fill="black"/>
<path d="M20.4526 37.2666C19.0063 37.2666 17.6403 37.2666 16.1136 37.2666C16.1136 35.5141 16.1136 33.8412 16.1136 32.248C17.56 32.248 19.0063 32.248 20.4526 32.248C20.4526 33.8412 20.4526 35.5937 20.4526 37.2666Z" fill="black"/>
<path d="M20.4526 331.212C19.0063 331.212 17.6403 331.212 16.1136 331.212C16.1136 329.459 16.1136 327.866 16.1136 326.193C17.56 326.193 19.0063 326.193 20.4526 326.193C20.4526 327.786 20.4526 329.539 20.4526 331.212Z" fill="black"/>
<path d="M10.8105 357.181C10.8105 359.093 10.8105 361.005 10.8105 362.996C12.5782 362.996 14.2656 362.996 15.9529 362.996C15.9529 364.589 15.9529 366.262 15.9529 368.094C14.3459 368.094 12.7389 368.094 10.8909 368.094C10.8909 369.847 10.8909 371.52 10.8909 373.193C9.12317 373.193 7.51617 373.193 5.82881 373.193C5.82881 371.599 5.82881 370.006 5.82881 368.094C3.98076 368.094 2.29341 368.094 0.686401 368.094C0.686401 366.422 0.686401 364.749 0.686401 363.076C2.37376 363.076 3.98076 363.076 5.74846 363.076C5.74846 361.005 5.74846 359.093 5.74846 357.181L5.66811 357.261C7.43582 357.261 9.12317 357.261 10.8105 357.181Z" fill="black"/>
<path d="M15.953 342.046C15.953 343.718 15.953 345.471 15.8726 347.144L15.953 347.064C14.2656 347.064 12.6586 347.064 10.8106 347.064C10.8106 348.896 10.8106 350.49 10.8106 352.162C9.1232 352.162 7.3555 352.162 5.66814 352.162C5.66814 350.49 5.66814 348.817 5.66814 347.064C3.82009 347.064 2.21308 347.064 0.606079 347.064C0.606079 345.471 0.606079 343.798 0.606079 342.046C2.29343 342.046 3.90044 342.046 5.66814 342.046C5.66814 340.293 5.66814 338.7 5.66814 336.947C7.3555 336.947 8.9625 336.947 10.7302 336.947C10.7302 338.541 10.7302 340.134 10.7302 342.046C12.5783 342.046 14.2656 342.046 15.953 342.046Z" fill="black"/>
<path d="M0.445435 373.272C0.445435 375.025 0.445435 376.698 0.445435 378.45C0.525785 378.45 0.606135 378.45 0.606135 378.45C0.606135 378.45 0.606135 378.45 0.686485 378.45L5.6682 378.45L5.6682 373.272L1.48999 373.272C1.08824 373.272 0.766835 373.272 0.445435 373.272Z" fill="black"/>
<path d="M5.66809 231.318C7.27509 231.318 8.96245 231.318 10.8105 231.318C10.8105 233.389 10.8105 235.301 10.8105 237.213C9.2035 237.213 7.51615 237.213 5.66809 237.213C5.66809 235.142 5.66809 233.23 5.66809 231.318Z" fill="black"/>
<path d="M5.66809 210.368C7.35544 210.368 8.96245 210.368 10.8105 210.368C10.8105 212.439 10.8105 214.351 10.8105 216.263C9.2035 216.263 7.51615 216.263 5.66809 216.263C5.66809 214.191 5.66809 212.28 5.66809 210.368Z" fill="black"/>
<path d="M10.8106 110.474C12.4979 110.474 14.2656 110.474 15.953 110.474C15.953 112.386 15.953 114.298 15.953 116.449C14.1853 116.369 12.4176 116.289 10.7302 116.21C10.7302 114.377 10.7302 112.386 10.8106 110.474Z" fill="black"/>
<path d="M5.66811 43.1614C4.06111 43.0818 2.37376 43.0021 0.686401 42.9225C0.686401 41.0106 0.686401 39.1785 0.686401 37.1073C2.45411 37.187 4.14146 37.2666 5.82881 37.3463C5.74846 39.3378 5.66811 41.2496 5.66811 43.1614C5.66811 43.1614 5.58776 43.1614 5.66811 43.1614Z" fill="black"/>
<path d="M5.74856 58.2172C5.74856 60.2087 5.74856 62.1205 5.74856 64.112C4.14155 64.112 2.4542 64.112 0.766846 64.112C0.766846 62.1205 0.766846 60.2883 0.766846 58.2172C2.37385 58.2172 4.0612 58.2172 5.74856 58.2172Z" fill="black"/>
<path d="M10.8105 136.762C10.8105 138.674 10.8105 140.506 10.8105 142.657C9.0428 142.657 7.35544 142.657 5.66809 142.657C5.66809 140.745 5.66809 138.913 5.66809 136.762C7.51615 136.762 9.12315 136.762 10.8105 136.762Z" fill="black"/>
<path d="M15.953 257.606C15.953 259.598 15.953 261.509 15.953 263.501C14.2656 263.501 12.4979 263.501 10.8106 263.501C10.8106 261.589 10.7302 259.677 10.7302 257.765C12.4176 257.686 14.1853 257.686 15.953 257.606Z" fill="black"/>
<path d="M5.66809 84.505C7.35544 84.505 8.96245 84.505 10.8105 84.505C10.8105 86.5762 10.8105 88.488 10.8105 90.3999C9.2035 90.3999 7.51615 90.3999 5.66809 90.3999C5.66809 88.3287 5.66809 86.4169 5.66809 84.505Z" fill="black"/>
<path d="M5.74856 184.08C5.74856 186.071 5.74856 187.983 5.74856 189.975C4.14155 189.975 2.4542 189.975 0.766846 189.975C0.766846 188.063 0.766846 186.151 0.766846 184.08C2.37385 184.08 4.0612 184.08 5.74856 184.08Z" fill="black"/>
<path d="M10.8105 10.8992C10.8105 12.811 10.8105 14.6432 10.8105 16.794C9.0428 16.794 7.35544 16.794 5.66809 16.794C5.66809 14.8822 5.66809 13.05 5.66809 10.8992C7.51615 10.8992 9.12315 10.8992 10.8105 10.8992Z" fill="black"/>
<path d="M0.606079 315.758C0.606079 313.846 0.606079 312.014 0.606079 309.943C2.37378 309.943 4.06114 309.943 5.66814 309.943C5.66814 311.934 5.66814 313.846 5.66814 315.837L5.66814 315.758C4.06114 315.758 2.37378 315.758 0.606079 315.758Z" fill="black"/>
<path d="M5.58789 163.528C5.58789 161.775 5.58789 159.943 5.58789 158.031C7.43595 158.031 9.04295 158.031 10.7303 158.031C10.7303 159.863 10.7303 161.696 10.7303 163.767C9.04295 163.687 7.27524 163.607 5.58789 163.528Z" fill="black"/>
<path d="M10.6498 331.291C12.3371 331.212 14.0245 331.132 15.8725 331.052C15.8725 333.124 15.8725 334.956 15.8725 336.788C14.1852 336.788 12.6585 336.788 10.9712 336.788C10.8908 334.956 10.8105 333.124 10.6498 331.291C10.6498 331.291 10.7301 331.291 10.6498 331.291Z" fill="black"/>
<path d="M5.82886 283.894C7.43586 283.894 9.04286 283.894 10.7302 283.894C10.7302 285.726 10.7302 287.638 10.7302 289.55C9.12322 289.55 7.51621 289.55 5.82886 289.55C5.82886 287.718 5.82886 285.806 5.82886 283.894Z" fill="black"/>
<path d="M5.82881 331.291C5.82881 333.124 5.82881 334.876 5.82881 336.788C4.06111 336.788 2.45411 336.788 0.686401 336.788C0.686401 334.956 0.686401 333.124 0.686401 331.052C2.45411 331.132 4.14146 331.212 5.82881 331.291Z" fill="black"/>
<path d="M5.58776 163.528C5.58776 165.36 5.58776 167.272 5.58776 169.104C3.98076 169.024 2.37376 168.945 0.686401 168.865C0.686401 167.192 0.686401 165.599 0.686401 163.926C2.37376 163.687 3.98076 163.607 5.58776 163.528Z" fill="black"/>
<path d="M10.8105 74.1492C10.8105 75.8221 10.8105 77.5746 10.8105 79.4864C9.0428 79.4864 7.35544 79.4864 5.66809 79.4864C5.66809 77.8136 5.66809 76.061 5.66809 74.1492C7.51615 74.1492 9.2035 74.1492 10.8105 74.1492Z" fill="black"/>
<path d="M10.8105 200.012C10.8105 201.685 10.8105 203.437 10.8105 205.349C9.0428 205.349 7.35544 205.349 5.66809 205.349C5.66809 203.676 5.66809 201.924 5.66809 200.012C7.51615 200.012 9.2035 200.012 10.8105 200.012Z" fill="black"/>
<path d="M15.8725 320.776C15.8725 322.449 15.8725 324.122 15.8725 325.875C14.2655 325.875 12.6585 325.875 10.8104 325.875C10.8104 324.202 10.8104 322.529 10.8104 320.776C12.4978 320.856 14.1851 320.856 15.8725 320.776Z" fill="black"/>
<path d="M15.953 299.826C15.953 301.499 15.953 303.251 15.8726 304.924L15.953 304.844C14.2656 304.844 12.4979 304.844 10.8106 304.844C10.8106 303.172 10.7302 301.499 10.7302 299.905C12.4176 299.905 14.1853 299.905 15.953 299.826Z" fill="black"/>
<path d="M10.8104 278.557C12.4978 278.557 14.2655 278.557 15.9528 278.557C15.9528 280.23 15.9528 281.902 15.9528 283.655C14.2655 283.655 12.6585 283.655 10.8104 283.655C10.8104 281.982 10.8104 280.309 10.8104 278.557Z" fill="black"/>
<path d="M10.8106 237.133C12.4979 237.133 14.2656 237.133 15.953 237.133C15.953 238.806 15.953 240.479 15.953 242.311C14.1853 242.232 12.4176 242.152 10.7302 242.072C10.7302 240.479 10.7302 238.806 10.8106 237.133Z" fill="black"/>
<path d="M15.9528 216.183C15.9528 217.856 15.9528 219.608 15.9528 221.281C14.2655 221.281 12.4978 221.281 10.8104 221.281C10.8104 219.608 10.8104 217.856 10.8104 216.183C12.4978 216.183 14.1851 216.183 15.9528 216.183Z" fill="black"/>
<path d="M10.8104 194.914C12.4978 194.914 14.2655 194.914 15.9528 194.914C15.9528 196.587 15.9528 198.259 15.9528 200.012C14.1851 200.012 12.4978 200.012 10.8104 200.012C10.8104 198.339 10.8104 196.666 10.8104 194.914Z" fill="black"/>
<path d="M15.953 173.963C15.953 175.636 15.953 177.388 15.953 179.061C14.2656 179.061 12.4979 179.061 10.8106 179.061C10.8106 177.388 10.7302 175.795 10.7302 174.122C12.4176 174.043 14.1853 174.043 15.953 173.963Z" fill="black"/>
<path d="M10.8104 152.694C12.4978 152.694 14.2655 152.694 15.9528 152.694C15.9528 154.367 15.9528 156.04 15.9528 157.792C14.2655 157.792 12.6585 157.792 10.8104 157.792C10.8104 156.119 10.8104 154.446 10.8104 152.694Z" fill="black"/>
<path d="M15.953 131.743C15.953 133.416 15.953 135.169 15.953 136.842C14.2656 136.842 12.4979 136.842 10.8106 136.842C10.8106 135.169 10.7302 133.576 10.7302 131.903C12.4176 131.823 14.1853 131.823 15.953 131.743Z" fill="black"/>
<path d="M15.9528 90.3201C15.9528 91.9929 15.9528 93.7455 15.9528 95.4183C14.2655 95.4183 12.4978 95.4183 10.8104 95.4183C10.8104 93.7455 10.8104 91.9929 10.8104 90.3201C12.4978 90.3201 14.1851 90.3201 15.9528 90.3201Z" fill="black"/>
<path d="M10.8104 69.051C12.4978 69.051 14.2655 69.051 15.9528 69.051C15.9528 70.7238 15.9528 72.3967 15.9528 74.1492C14.1851 74.1492 12.4978 74.1492 10.8104 74.1492C10.8104 72.4764 10.8104 70.8035 10.8104 69.051Z" fill="black"/>
<path d="M15.953 48.1003C15.953 49.7732 15.953 51.5257 15.953 53.1986C14.2656 53.1986 12.4979 53.1986 10.8106 53.1986C10.8106 51.5257 10.7302 49.9325 10.7302 48.2597C12.4176 48.18 14.1853 48.18 15.953 48.1003Z" fill="black"/>
<path d="M10.8105 26.8311C12.4979 26.8311 14.2656 26.8311 15.953 26.8311C15.953 28.504 15.953 30.1769 15.953 31.9294C14.2656 31.9294 12.6586 31.9294 10.8105 31.9294C10.8105 30.2565 10.8105 28.5836 10.8105 26.8311Z" fill="black"/>
<path d="M15.953 5.8805C15.953 7.55336 15.953 9.3059 15.953 10.9788C14.2656 10.9788 12.4979 10.9788 10.8105 10.9788C10.8105 9.3059 10.8105 7.55336 10.8105 5.8805C12.4979 5.8805 14.1853 5.8805 15.953 5.8805Z" fill="black"/>
<path d="M5.66809 126.805C7.35544 126.805 9.0428 126.805 10.7302 126.805C10.7302 128.477 10.7302 130.15 10.7302 131.903C9.12315 131.903 7.5965 131.903 5.66809 131.903C5.66809 130.071 5.66809 128.398 5.66809 126.805Z" fill="black"/>
<path d="M5.74856 100.437C5.74856 102.11 5.74856 103.862 5.74856 105.535C4.14155 105.535 2.4542 105.535 0.766846 105.535C0.766846 103.862 0.766846 102.269 0.766846 100.437C2.37385 100.437 4.0612 100.437 5.74856 100.437Z" fill="black"/>
<path d="M5.74856 79.4067C5.74856 81.0796 5.74856 82.8321 5.74856 84.505C4.14155 84.505 2.4542 84.505 0.766846 84.505C0.766846 82.7525 0.766846 81.1593 0.766846 79.4067C2.37385 79.4067 4.0612 79.4067 5.74856 79.4067Z" fill="black"/>
<path d="M5.66809 147.675C7.27509 147.675 8.96245 147.675 10.8105 147.675C10.8105 149.428 10.8105 151.101 10.8105 152.774C9.2035 152.774 7.51615 152.774 5.66809 152.774C5.66809 151.021 5.66809 149.348 5.66809 147.675Z" fill="black"/>
<path d="M5.74856 16.794C5.74856 18.4669 5.74856 20.2194 5.74856 21.8923C4.14155 21.8923 2.4542 21.8923 0.766846 21.8923C0.766846 20.2194 0.766846 18.6262 0.766846 16.794C2.37385 16.794 4.0612 16.794 5.74856 16.794Z" fill="black"/>
<path d="M5.58789 169.024C7.27524 168.945 8.88225 168.865 10.65 168.785C10.65 170.617 10.65 172.37 10.65 174.122C9.04295 174.043 7.43594 173.963 5.58789 173.884C5.66824 172.29 5.66824 170.617 5.58789 169.024C5.58789 169.024 5.66824 169.024 5.58789 169.024Z" fill="black"/>
<path d="M10.8105 178.982C10.8105 180.575 10.8105 182.248 10.8105 184.08C9.0428 184.08 7.35544 184.08 5.66809 184.08C5.66809 182.487 5.66809 180.814 5.66809 178.982C7.51615 178.982 9.12315 178.982 10.8105 178.982Z" fill="black"/>
<path d="M5.66809 189.895C7.27509 189.895 8.96245 189.895 10.8105 189.895C10.8105 191.648 10.8105 193.32 10.8105 194.993C9.2035 194.993 7.51615 194.993 5.66809 194.993C5.66809 193.241 5.66809 191.568 5.66809 189.895Z" fill="black"/>
<path d="M5.82886 331.292C5.82886 329.619 5.82886 327.866 5.82886 326.034C7.43586 326.034 9.04286 326.034 10.6499 326.034C10.6499 327.787 10.6499 329.539 10.6499 331.212C9.04286 331.292 7.43586 331.292 5.82886 331.292Z" fill="black"/>
<path d="M5.66809 320.856C5.66809 319.183 5.66809 317.431 5.66809 315.758L5.66809 315.837C7.35544 315.837 9.12315 315.837 10.8105 315.837C10.8105 317.51 10.8105 319.263 10.8105 320.936C9.12315 320.856 7.4358 320.856 5.66809 320.856Z" fill="black"/>
<path d="M10.8105 263.421C10.8105 265.014 10.8105 266.687 10.8105 268.52C9.0428 268.52 7.35544 268.52 5.66809 268.52C5.66809 266.926 5.66809 265.253 5.66809 263.421C7.51615 263.421 9.12315 263.421 10.8105 263.421Z" fill="black"/>
<path d="M10.7302 257.686C9.12315 257.686 7.5965 257.686 5.66809 257.686C5.66809 255.933 5.66809 254.26 5.66809 252.587C7.35544 252.587 9.0428 252.587 10.7302 252.587C10.7302 254.34 10.7302 256.013 10.7302 257.686C10.7302 257.686 10.6498 257.765 10.7302 257.686Z" fill="black"/>
<path d="M10.7302 242.072C10.7302 243.745 10.7302 245.498 10.7302 247.25C9.12322 247.25 7.51621 247.25 5.82886 247.25C5.82886 245.578 5.82886 243.984 5.82886 242.311C7.51621 242.311 9.12322 242.232 10.7302 242.072C10.7302 242.072 10.7302 242.152 10.7302 242.072Z" fill="black"/>
<path d="M5.74854 309.943C5.74854 308.349 5.74854 306.677 5.74854 304.924C7.51624 304.924 9.20359 304.924 10.8106 304.924C10.8106 306.597 10.8106 308.349 10.8106 310.022C9.12324 309.943 7.43589 309.943 5.74854 309.943Z" fill="black"/>
<path d="M5.66809 273.538C7.27509 273.538 8.96245 273.538 10.8105 273.538C10.8105 275.29 10.8105 276.963 10.8105 278.636C9.2035 278.636 7.51615 278.636 5.66809 278.636C5.66809 276.884 5.66809 275.211 5.66809 273.538Z" fill="black"/>
<path d="M10.7302 299.906C9.12315 299.906 7.51615 299.906 5.66809 299.906C5.66809 298.073 5.66809 296.48 5.66809 294.887C7.35544 294.807 9.0428 294.728 10.7302 294.648C10.7302 296.56 10.7302 298.312 10.7302 299.906C10.7302 299.906 10.6498 299.985 10.7302 299.906Z" fill="black"/>
<path d="M10.8105 221.202C10.8105 222.795 10.8105 224.468 10.8105 226.3C9.0428 226.3 7.35544 226.3 5.66809 226.3C5.66809 224.707 5.66809 223.034 5.66809 221.202C7.51615 221.202 9.12315 221.202 10.8105 221.202Z" fill="black"/>
<path d="M0.606079 352.163C2.29343 352.163 3.98079 352.163 5.66814 352.163C5.66814 353.835 5.66814 355.588 5.66814 357.261L5.74849 357.181C4.06114 357.181 2.37378 357.181 0.606079 357.181C0.606079 355.508 0.606079 353.835 0.606079 352.163Z" fill="black"/>
<path d="M0.686401 320.856C2.37376 320.856 4.06111 320.776 5.74846 320.776C5.74846 322.449 5.74846 324.122 5.74846 325.875C3.98076 325.875 2.37376 325.875 0.686401 325.875C0.686401 324.202 0.686401 322.529 0.686401 320.856Z" fill="black"/>
<path d="M5.66821 294.887C4.0612 294.807 2.4542 294.728 0.766846 294.568C0.766846 292.895 0.766846 291.302 0.766846 289.629C2.4542 289.629 3.98085 289.629 5.66821 289.629C5.58786 291.461 5.58786 293.214 5.66821 294.887C5.66821 294.887 5.58786 294.966 5.66821 294.887Z" fill="black"/>
<path d="M5.74856 268.52C5.74856 270.192 5.74856 271.945 5.74856 273.618C4.14155 273.618 2.4542 273.618 0.766846 273.618C0.766846 271.945 0.766846 270.352 0.766846 268.52C2.37385 268.52 4.0612 268.52 5.74856 268.52Z" fill="black"/>
<path d="M5.66809 21.8125C7.27509 21.8125 8.96245 21.8125 10.8105 21.8125C10.8105 23.565 10.8105 25.2379 10.8105 26.9108C9.2035 26.9108 7.51615 26.9108 5.66809 26.9108C5.66809 25.1582 5.66809 23.4854 5.66809 21.8125Z" fill="black"/>
<path d="M5.82886 37.3463C5.82886 35.6734 5.82886 33.9209 5.82886 32.1684C7.43586 32.1684 9.04286 32.1684 10.7302 32.1684C10.7302 33.8412 10.7302 35.3548 10.7302 37.0277C9.12322 37.187 7.43586 37.2666 5.82886 37.3463Z" fill="black"/>
<path d="M5.58789 43.1615C7.27524 43.0818 8.88225 43.0022 10.65 42.9225C10.65 44.7547 10.65 46.5072 10.65 48.2597C9.04295 48.1801 7.43594 48.1004 5.58789 48.0208C5.66824 46.4276 5.66824 44.7547 5.58789 43.1615C5.58789 43.1615 5.66824 43.1615 5.58789 43.1615Z" fill="black"/>
<path d="M10.8105 53.119C10.8105 54.7122 10.8105 56.3851 10.8105 58.2173C9.0428 58.2173 7.35544 58.2173 5.66809 58.2173C5.66809 56.6241 5.66809 54.9512 5.66809 53.119C7.51615 53.119 9.12315 53.119 10.8105 53.119Z" fill="black"/>
<path d="M5.66811 252.667C4.06111 252.667 2.37376 252.667 0.686401 252.667C0.686401 250.835 0.686401 249.242 0.686401 247.489C2.37376 247.489 3.98076 247.489 5.58776 247.489C5.66811 249.242 5.66811 250.994 5.66811 252.667Z" fill="black"/>
<path d="M5.66809 64.0323C7.35544 64.0323 8.96245 64.0323 10.8105 64.0323C10.8105 65.7848 10.8105 67.4577 10.8105 69.1306C9.2035 69.1306 7.51615 69.1306 5.66809 69.1306C5.66809 67.378 5.66809 65.7052 5.66809 64.0323Z" fill="black"/>
<path d="M5.74856 226.3C5.74856 227.973 5.74856 229.725 5.74856 231.398C4.14155 231.398 2.4542 231.398 0.766846 231.398C0.766846 229.725 0.766846 228.132 0.766846 226.3C2.37385 226.3 4.0612 226.3 5.74856 226.3Z" fill="black"/>
<path d="M5.74856 205.27C5.74856 206.942 5.74856 208.695 5.74856 210.368C4.14155 210.368 2.4542 210.368 0.766846 210.368C0.766846 208.615 0.766846 207.022 0.766846 205.27C2.37385 205.27 4.0612 205.27 5.74856 205.27Z" fill="black"/>
<path d="M5.74856 142.657C5.74856 144.33 5.74856 146.082 5.74856 147.755C4.14155 147.755 2.4542 147.755 0.766846 147.755C0.766846 146.082 0.766846 144.489 0.766846 142.657C2.37385 142.657 4.0612 142.657 5.74856 142.657Z" fill="black"/>
<path d="M10.8105 95.3388C10.8105 96.932 10.8105 98.6049 10.8105 100.437C9.0428 100.437 7.35544 100.437 5.66809 100.437C5.66809 98.8439 5.66809 97.171 5.66809 95.3388C7.51615 95.3388 9.12315 95.3388 10.8105 95.3388Z" fill="black"/>
<path d="M5.66811 126.804C4.06111 126.804 2.37376 126.804 0.686401 126.804C0.686401 124.972 0.686401 123.379 0.686401 121.627C2.37376 121.627 3.98076 121.627 5.58776 121.627C5.66811 123.379 5.66811 125.132 5.66811 126.804Z" fill="black"/>
<path d="M5.66809 105.456C7.27509 105.456 8.96245 105.456 10.8105 105.456C10.8105 107.208 10.8105 108.881 10.8105 110.554C9.2035 110.554 7.51615 110.554 5.66809 110.554C5.66809 108.801 5.66809 107.128 5.66809 105.456Z" fill="black"/>
<path d="M10.7302 116.21C10.7302 117.883 10.7302 119.635 10.7302 121.388C9.12322 121.388 7.51621 121.388 5.82886 121.388C5.82886 119.715 5.82886 118.122 5.82886 116.449C7.51621 116.449 9.12322 116.369 10.7302 116.21C10.7302 116.21 10.7302 116.289 10.7302 116.21Z" fill="black"/>
<path d="M15.8725 352.163C15.8725 353.756 15.8725 355.429 15.8725 357.181C14.1851 357.181 12.4978 357.181 10.8104 357.181L10.8908 357.261C10.8908 355.588 10.8908 353.835 10.8908 352.163C12.4978 352.163 14.1851 352.163 15.8725 352.163Z" fill="black"/>
<path d="M15.8725 309.943C15.8725 311.934 15.8725 313.846 15.8725 315.837L15.9528 315.837C14.2655 315.837 12.4978 315.837 10.8104 315.837C10.8104 313.846 10.8104 311.934 10.8104 309.943C12.4978 309.943 14.1851 309.943 15.8725 309.943Z" fill="black"/>
</svg>
