<svg width="18" height="18" viewBox="0 0 18 18" fill="none" xmlns="http://www.w3.org/2000/svg">
<path d="M7.87155 9.00162C7.87155 9.76293 8.48879 10.3799 9.25018 10.3799C10.0115 10.3799 10.6285 9.76301 10.6288 9.00162H7.87155ZM7.87155 9.00162C7.87155 8.24027 8.48883 7.62299 9.25018 7.62299M7.87155 9.00162L9.25018 7.62299M9.25018 7.62299C10.0119 7.62299 10.6288 8.24023 10.6288 9.00157L9.25018 7.62299ZM11.0588 9.00162V9.00158C11.0584 8.00417 10.2474 7.19299 9.25018 7.19299C8.25308 7.19299 7.44155 8.00409 7.44155 9.00162C7.44155 9.99876 8.25269 10.8099 9.25018 10.8099C10.2473 10.8099 11.0588 9.99881 11.0588 9.00162Z" fill="#000000" stroke="#000000" stroke-width="0.25"/>
<mask id="path-2-outside-1" maskUnits="userSpaceOnUse" x="4.25442" y="3.95001" width="10" height="10" fill="black">
<rect fill="#000000" x="4.25442" y="3.95001" width="10" height="10"/>
<path d="M13.146 9.6504L12.4 9.30728C12.4095 9.20673 12.4151 9.10442 12.4151 9.00142C12.4151 8.897 12.4095 8.794 12.4 8.6924L13.146 8.34962C13.2212 8.32536 13.2627 8.24415 13.2381 8.16892L12.9649 7.32798C12.9407 7.25239 12.8595 7.21126 12.7842 7.23587L11.9781 7.39724C11.8737 7.22005 11.7524 7.05377 11.6167 6.90084L12.02 6.18364C12.0667 6.11966 12.0523 6.02966 11.9883 5.98325L11.2729 5.46329C11.2089 5.41654 11.1189 5.43095 11.0725 5.49529L10.5153 6.09962C10.3293 6.01841 10.1338 5.95477 9.93132 5.91012L9.8357 5.09309C9.83535 5.01434 9.77136 4.95001 9.69191 4.95001H8.80773C8.72863 4.95001 8.66429 5.01435 8.66429 5.09345L8.56866 5.91048C8.36581 5.95478 8.17069 6.01876 7.98471 6.09998L7.42749 5.49529C7.38073 5.4313 7.29143 5.41689 7.22709 5.46365L6.51167 5.98325C6.44733 6.03001 6.43327 6.11966 6.47967 6.18365L6.88257 6.90084C6.74651 7.05377 6.62557 7.22006 6.52116 7.39724L5.71538 7.23552C5.64015 7.21126 5.55929 7.2524 5.53468 7.32763L5.26151 8.16857C5.2369 8.2438 5.27839 8.32467 5.35362 8.34927L6.09999 8.69204C6.09015 8.794 6.08487 8.89665 6.08487 9.00142C6.08487 9.10442 6.09015 9.20673 6.09999 9.30728L5.35397 9.65005C5.27874 9.67431 5.23725 9.75552 5.26187 9.83075L5.53503 10.672C5.55964 10.7476 5.6405 10.7888 5.71574 10.7642L6.52011 10.6031C6.62453 10.7814 6.74616 10.9477 6.88222 11.1013L6.48038 11.8164C6.43398 11.8807 6.44804 11.9704 6.51238 12.0168L7.2278 12.5367C7.29179 12.5835 7.38143 12.5691 7.4282 12.5047L7.98367 11.9025C8.17035 11.9841 8.36652 12.0481 8.57007 12.0927L8.665 12.9062C8.66429 12.9857 8.72863 13.05 8.80773 13.05H9.69226C9.77136 13.0504 9.8357 12.9857 9.8357 12.9066L9.93097 12.0927C10.1345 12.0481 10.3307 11.9837 10.5177 11.9025L11.0728 12.5047C11.1196 12.5687 11.2093 12.5831 11.2732 12.5367L11.9887 12.0171C12.053 11.9707 12.0671 11.8807 12.0203 11.8167L11.6185 11.1013C11.7545 10.948 11.8758 10.781 11.9802 10.6031L12.7846 10.7645C12.8598 10.7888 12.9407 10.7476 12.9653 10.6724L13.2385 9.83145C13.2631 9.75587 13.2216 9.67466 13.146 9.6504L13.146 9.6504ZM12.8043 10.5849L11.8899 10.4014L11.8249 10.5121C11.7268 10.6791 11.6118 10.8373 11.4835 10.9818L11.3984 11.0778L11.8551 11.8913L11.1938 12.3715L10.5624 11.6867L10.445 11.738C10.2667 11.8157 10.0807 11.8762 9.89196 11.9176L9.7668 11.9451L9.65852 12.87H8.84114L8.73322 11.9447L8.60771 11.9173C8.41857 11.8758 8.23224 11.8153 8.05471 11.7376L7.93728 11.6863L7.30588 12.3712L6.64459 11.8906L7.10126 11.0774L7.01619 10.9814C6.88751 10.8369 6.77291 10.6787 6.67482 10.5117L6.60978 10.401L5.69538 10.5842L5.44295 9.80686L6.29092 9.41733L6.27862 9.29006C6.26913 9.19233 6.26456 9.09529 6.26456 9.00143C6.26456 8.9058 6.26948 8.80772 6.27897 8.70963L6.29128 8.58201L5.44295 8.19248L5.69538 7.41518L6.61122 7.5987L6.67626 7.4883C6.77434 7.32201 6.88895 7.16451 7.01728 7.02002L7.10235 6.92405L6.64427 6.10877L7.30556 5.62819L7.93873 6.3155L8.05616 6.26417C8.23299 6.18717 8.41826 6.12706 8.60705 6.08557L8.73221 6.05815L8.84119 5.13007H9.65857L9.7672 6.05887L9.8927 6.08629C10.0818 6.12778 10.2668 6.18789 10.4433 6.26489L10.5607 6.31621L11.1942 5.62891L11.8555 6.10949L11.3974 6.92477L11.4825 7.02074C11.6108 7.16524 11.7254 7.32274 11.8232 7.48902L11.8882 7.59942L12.8044 7.41625L13.0572 8.19355L12.2088 8.58308L12.2211 8.71035C12.2306 8.80985 12.2356 8.90793 12.2356 9.00215C12.2356 9.09461 12.2306 9.19164 12.2215 9.29078L12.2092 9.41805L13.0575 9.80793L12.8043 10.5849Z"/>
</mask>
<path d="M13.146 9.6504L12.4 9.30728C12.4095 9.20673 12.4151 9.10442 12.4151 9.00142C12.4151 8.897 12.4095 8.794 12.4 8.6924L13.146 8.34962C13.2212 8.32536 13.2627 8.24415 13.2381 8.16892L12.9649 7.32798C12.9407 7.25239 12.8595 7.21126 12.7842 7.23587L11.9781 7.39724C11.8737 7.22005 11.7524 7.05377 11.6167 6.90084L12.02 6.18364C12.0667 6.11966 12.0523 6.02966 11.9883 5.98325L11.2729 5.46329C11.2089 5.41654 11.1189 5.43095 11.0725 5.49529L10.5153 6.09962C10.3293 6.01841 10.1338 5.95477 9.93132 5.91012L9.8357 5.09309C9.83535 5.01434 9.77136 4.95001 9.69191 4.95001H8.80773C8.72863 4.95001 8.66429 5.01435 8.66429 5.09345L8.56866 5.91048C8.36581 5.95478 8.17069 6.01876 7.98471 6.09998L7.42749 5.49529C7.38073 5.4313 7.29143 5.41689 7.22709 5.46365L6.51167 5.98325C6.44733 6.03001 6.43327 6.11966 6.47967 6.18365L6.88257 6.90084C6.74651 7.05377 6.62557 7.22006 6.52116 7.39724L5.71538 7.23552C5.64015 7.21126 5.55929 7.2524 5.53468 7.32763L5.26151 8.16857C5.2369 8.2438 5.27839 8.32467 5.35362 8.34927L6.09999 8.69204C6.09015 8.794 6.08487 8.89665 6.08487 9.00142C6.08487 9.10442 6.09015 9.20673 6.09999 9.30728L5.35397 9.65005C5.27874 9.67431 5.23725 9.75552 5.26187 9.83075L5.53503 10.672C5.55964 10.7476 5.6405 10.7888 5.71574 10.7642L6.52011 10.6031C6.62453 10.7814 6.74616 10.9477 6.88222 11.1013L6.48038 11.8164C6.43398 11.8807 6.44804 11.9704 6.51238 12.0168L7.2278 12.5367C7.29179 12.5835 7.38143 12.5691 7.4282 12.5047L7.98367 11.9025C8.17035 11.9841 8.36652 12.0481 8.57007 12.0927L8.665 12.9062C8.66429 12.9857 8.72863 13.05 8.80773 13.05H9.69226C9.77136 13.0504 9.8357 12.9857 9.8357 12.9066L9.93097 12.0927C10.1345 12.0481 10.3307 11.9837 10.5177 11.9025L11.0728 12.5047C11.1196 12.5687 11.2093 12.5831 11.2732 12.5367L11.9887 12.0171C12.053 11.9707 12.0671 11.8807 12.0203 11.8167L11.6185 11.1013C11.7545 10.948 11.8758 10.781 11.9802 10.6031L12.7846 10.7645C12.8598 10.7888 12.9407 10.7476 12.9653 10.6724L13.2385 9.83145C13.2631 9.75587 13.2216 9.67466 13.146 9.6504L13.146 9.6504ZM12.8043 10.5849L11.8899 10.4014L11.8249 10.5121C11.7268 10.6791 11.6118 10.8373 11.4835 10.9818L11.3984 11.0778L11.8551 11.8913L11.1938 12.3715L10.5624 11.6867L10.445 11.738C10.2667 11.8157 10.0807 11.8762 9.89196 11.9176L9.7668 11.9451L9.65852 12.87H8.84114L8.73322 11.9447L8.60771 11.9173C8.41857 11.8758 8.23224 11.8153 8.05471 11.7376L7.93728 11.6863L7.30588 12.3712L6.64459 11.8906L7.10126 11.0774L7.01619 10.9814C6.88751 10.8369 6.77291 10.6787 6.67482 10.5117L6.60978 10.401L5.69538 10.5842L5.44295 9.80686L6.29092 9.41733L6.27862 9.29006C6.26913 9.19233 6.26456 9.09529 6.26456 9.00143C6.26456 8.9058 6.26948 8.80772 6.27897 8.70963L6.29128 8.58201L5.44295 8.19248L5.69538 7.41518L6.61122 7.5987L6.67626 7.4883C6.77434 7.32201 6.88895 7.16451 7.01728 7.02002L7.10235 6.92405L6.64427 6.10877L7.30556 5.62819L7.93873 6.3155L8.05616 6.26417C8.23299 6.18717 8.41826 6.12706 8.60705 6.08557L8.73221 6.05815L8.84119 5.13007H9.65857L9.7672 6.05887L9.8927 6.08629C10.0818 6.12778 10.2668 6.18789 10.4433 6.26489L10.5607 6.31621L11.1942 5.62891L11.8555 6.10949L11.3974 6.92477L11.4825 7.02074C11.6108 7.16524 11.7254 7.32274 11.8232 7.48902L11.8882 7.59942L12.8044 7.41625L13.0572 8.19355L12.2088 8.58308L12.2211 8.71035C12.2306 8.80985 12.2356 8.90793 12.2356 9.00215C12.2356 9.09461 12.2306 9.19164 12.2215 9.29078L12.2092 9.41805L13.0575 9.80793L12.8043 10.5849Z" fill="#000000"/>
<path d="M13.146 9.6504L12.4 9.30728C12.4095 9.20673 12.4151 9.10442 12.4151 9.00142C12.4151 8.897 12.4095 8.794 12.4 8.6924L13.146 8.34962C13.2212 8.32536 13.2627 8.24415 13.2381 8.16892L12.9649 7.32798C12.9407 7.25239 12.8595 7.21126 12.7842 7.23587L11.9781 7.39724C11.8737 7.22005 11.7524 7.05377 11.6167 6.90084L12.02 6.18364C12.0667 6.11966 12.0523 6.02966 11.9883 5.98325L11.2729 5.46329C11.2089 5.41654 11.1189 5.43095 11.0725 5.49529L10.5153 6.09962C10.3293 6.01841 10.1338 5.95477 9.93132 5.91012L9.8357 5.09309C9.83535 5.01434 9.77136 4.95001 9.69191 4.95001H8.80773C8.72863 4.95001 8.66429 5.01435 8.66429 5.09345L8.56866 5.91048C8.36581 5.95478 8.17069 6.01876 7.98471 6.09998L7.42749 5.49529C7.38073 5.4313 7.29143 5.41689 7.22709 5.46365L6.51167 5.98325C6.44733 6.03001 6.43327 6.11966 6.47967 6.18365L6.88257 6.90084C6.74651 7.05377 6.62557 7.22006 6.52116 7.39724L5.71538 7.23552C5.64015 7.21126 5.55929 7.2524 5.53468 7.32763L5.26151 8.16857C5.2369 8.2438 5.27839 8.32467 5.35362 8.34927L6.09999 8.69204C6.09015 8.794 6.08487 8.89665 6.08487 9.00142C6.08487 9.10442 6.09015 9.20673 6.09999 9.30728L5.35397 9.65005C5.27874 9.67431 5.23725 9.75552 5.26187 9.83075L5.53503 10.672C5.55964 10.7476 5.6405 10.7888 5.71574 10.7642L6.52011 10.6031C6.62453 10.7814 6.74616 10.9477 6.88222 11.1013L6.48038 11.8164C6.43398 11.8807 6.44804 11.9704 6.51238 12.0168L7.2278 12.5367C7.29179 12.5835 7.38143 12.5691 7.4282 12.5047L7.98367 11.9025C8.17035 11.9841 8.36652 12.0481 8.57007 12.0927L8.665 12.9062C8.66429 12.9857 8.72863 13.05 8.80773 13.05H9.69226C9.77136 13.0504 9.8357 12.9857 9.8357 12.9066L9.93097 12.0927C10.1345 12.0481 10.3307 11.9837 10.5177 11.9025L11.0728 12.5047C11.1196 12.5687 11.2093 12.5831 11.2732 12.5367L11.9887 12.0171C12.053 11.9707 12.0671 11.8807 12.0203 11.8167L11.6185 11.1013C11.7545 10.948 11.8758 10.781 11.9802 10.6031L12.7846 10.7645C12.8598 10.7888 12.9407 10.7476 12.9653 10.6724L13.2385 9.83145C13.2631 9.75587 13.2216 9.67466 13.146 9.6504L13.146 9.6504ZM12.8043 10.5849L11.8899 10.4014L11.8249 10.5121C11.7268 10.6791 11.6118 10.8373 11.4835 10.9818L11.3984 11.0778L11.8551 11.8913L11.1938 12.3715L10.5624 11.6867L10.445 11.738C10.2667 11.8157 10.0807 11.8762 9.89196 11.9176L9.7668 11.9451L9.65852 12.87H8.84114L8.73322 11.9447L8.60771 11.9173C8.41857 11.8758 8.23224 11.8153 8.05471 11.7376L7.93728 11.6863L7.30588 12.3712L6.64459 11.8906L7.10126 11.0774L7.01619 10.9814C6.88751 10.8369 6.77291 10.6787 6.67482 10.5117L6.60978 10.401L5.69538 10.5842L5.44295 9.80686L6.29092 9.41733L6.27862 9.29006C6.26913 9.19233 6.26456 9.09529 6.26456 9.00143C6.26456 8.9058 6.26948 8.80772 6.27897 8.70963L6.29128 8.58201L5.44295 8.19248L5.69538 7.41518L6.61122 7.5987L6.67626 7.4883C6.77434 7.32201 6.88895 7.16451 7.01728 7.02002L7.10235 6.92405L6.64427 6.10877L7.30556 5.62819L7.93873 6.3155L8.05616 6.26417C8.23299 6.18717 8.41826 6.12706 8.60705 6.08557L8.73221 6.05815L8.84119 5.13007H9.65857L9.7672 6.05887L9.8927 6.08629C10.0818 6.12778 10.2668 6.18789 10.4433 6.26489L10.5607 6.31621L11.1942 5.62891L11.8555 6.10949L11.3974 6.92477L11.4825 7.02074C11.6108 7.16524 11.7254 7.32274 11.8232 7.48902L11.8882 7.59942L12.8044 7.41625L13.0572 8.19355L12.2088 8.58308L12.2211 8.71035C12.2306 8.80985 12.2356 8.90793 12.2356 9.00215C12.2356 9.09461 12.2306 9.19164 12.2215 9.29078L12.2092 9.41805L13.0575 9.80793L12.8043 10.5849Z" stroke="#000000" stroke-width="0.5" mask="url(#path-2-outside-1)"/>
<path d="M1.58077 4.71651L9 0.433013L16.4192 4.71651V13.2835L9 17.567L1.58077 13.2835V4.71651Z" stroke="#000000" stroke-width="0.75"/>
</svg>
