<svg width="8" height="313" viewBox="0 0 8 313" fill="none" xmlns="http://www.w3.org/2000/svg">
<path d="M0.0427247 53.4192C0.679397 53.4192 1.36155 53.4192 2.08917 53.4192C2.08917 54.3742 2.08917 55.2837 2.08917 56.2842C3.08966 56.2842 3.99919 56.2842 4.99968 56.2842C4.99968 55.3747 4.99968 54.4197 4.99968 53.4192C5.77278 53.4192 6.45493 53.4192 7.13708 53.4192C7.13708 54.3742 7.13708 55.3292 7.13708 56.2842C6.45493 56.3297 5.77278 56.4206 5.09063 56.4661C5.09063 57.2847 5.09063 58.0578 5.09063 58.8309C5.81825 58.8764 6.5004 58.9673 7.13708 59.0128C7.13708 59.8314 7.13708 60.65 7.13708 61.4231C6.45493 61.4686 5.77278 61.514 4.99968 61.5595C4.99968 60.6045 4.99968 59.8314 4.99968 59.0128C3.99919 59.0128 3.08966 59.0128 2.08917 59.0128C2.08917 59.8769 2.08917 60.65 2.08917 61.5595C1.31607 61.5595 0.679397 61.5595 0.0427246 61.5595C0.0427246 60.65 0.0427246 59.7404 0.0427246 58.8309C0.679397 58.8309 1.31607 58.8309 1.99822 58.8309C1.99822 57.9669 1.99822 57.1938 1.99822 56.4207C1.31607 56.4207 0.679397 56.4207 0.0427247 56.4207C0.0427247 55.4657 0.0427247 54.4651 0.0427247 53.4192Z" fill="black"/>
<path d="M0.0427247 190.94C0.679397 190.94 1.36155 190.94 2.08917 190.94C2.08917 191.895 2.08917 192.805 2.08917 193.805C3.08966 193.805 3.99919 193.805 4.99968 193.805C4.99968 192.896 4.99968 191.941 4.99968 190.94C5.77278 190.94 6.45493 190.94 7.13708 190.94C7.13708 191.895 7.13708 192.85 7.13708 193.805C6.45493 193.851 5.77278 193.942 5.09063 193.987C5.09063 194.806 5.09063 195.579 5.09063 196.352C5.81825 196.398 6.5004 196.489 7.13708 196.534C7.13708 197.353 7.13708 198.171 7.13708 198.944C6.45493 198.99 5.77278 199.035 4.99968 199.081C4.99968 198.126 4.99968 197.353 4.99968 196.534C3.99919 196.534 3.08966 196.534 2.08917 196.534C2.08917 197.398 2.08917 198.171 2.08917 199.081C1.31607 199.081 0.679397 199.081 0.0427246 199.081C0.0427246 198.171 0.0427246 197.262 0.0427246 196.352C0.679397 196.352 1.31607 196.352 1.99822 196.352C1.99822 195.488 1.99822 194.715 1.99822 193.942C1.31607 193.942 0.679397 193.942 0.0427247 193.942C0.0427247 192.941 0.0427247 191.941 0.0427247 190.94Z" fill="black"/>
<path d="M0.0427247 64.0608C0.679397 64.0608 1.36155 64.0608 2.08917 64.0608C2.08917 64.9703 2.08917 65.7434 2.08917 66.6074C3.08966 66.6074 3.99919 66.6074 4.99968 66.6074C4.99968 65.7889 4.99968 65.0158 4.99968 64.0608C5.77278 64.1062 6.45493 64.1517 7.13708 64.1972C7.13708 65.0158 7.13708 65.8343 7.13708 66.6074C6.45493 66.6529 5.77278 66.7439 5.04515 66.7894C5.04515 67.7898 5.04515 68.6994 5.04515 69.6544C4.09014 69.6544 3.13514 69.6544 2.13465 69.6544C2.13465 70.5184 2.13465 71.337 2.13465 72.201C1.40703 72.201 0.724873 72.201 0.0427246 72.201C0.0427246 71.337 0.0427246 70.473 0.0427246 69.6089C0.679397 69.6089 1.31607 69.6089 1.99822 69.6089C1.99822 68.5629 1.99822 67.6534 1.99822 66.7439C1.31607 66.7439 0.679397 66.7439 0.0427247 66.7439C0.0427247 65.8798 0.0427247 64.9703 0.0427247 64.0608Z" fill="black"/>
<path d="M0.0427247 296.719C0.679397 296.719 1.36155 296.719 2.08917 296.719C2.08917 297.629 2.08917 298.402 2.08917 299.266C3.08966 299.266 3.99919 299.266 4.99968 299.266C4.99968 298.447 4.99968 297.674 4.99968 296.719C5.77278 296.765 6.45493 296.81 7.13708 296.855C7.13708 297.674 7.13708 298.493 7.13708 299.266C6.45493 299.311 5.77278 299.402 5.04515 299.448C5.04515 300.448 5.04515 301.358 5.04515 302.313C4.09014 302.313 3.13514 302.313 2.13465 302.313C2.13465 303.177 2.13465 303.995 2.13465 304.859C1.40703 304.859 0.724873 304.859 0.0427246 304.859C0.0427246 303.995 0.0427246 303.131 0.0427246 302.267C0.679397 302.267 1.31607 302.267 1.99822 302.267C1.99822 301.221 1.99822 300.312 1.99822 299.402C1.31607 299.402 0.679397 299.402 0.0427247 299.402C0.0427247 298.538 0.0427247 297.629 0.0427247 296.719Z" fill="black"/>
<path d="M0.0427247 201.537C0.679397 201.537 1.36155 201.537 2.08917 201.537C2.08917 202.446 2.08917 203.219 2.08917 204.083C3.08966 204.083 3.99919 204.083 4.99968 204.083C4.99968 203.265 4.99968 202.492 4.99968 201.537C5.77278 201.582 6.45493 201.628 7.13708 201.673C7.13708 202.492 7.13708 203.31 7.13708 204.083C6.45493 204.129 5.77278 204.22 5.04515 204.265C5.04515 205.266 5.04515 206.175 5.04515 207.13C4.09014 207.13 3.13514 207.13 2.13465 207.13C2.13465 207.994 2.13465 208.813 2.13465 209.677C1.40703 209.677 0.724873 209.677 0.0427246 209.677C0.0427246 208.813 0.0427246 207.949 0.0427246 207.085C0.679397 207.085 1.31607 207.085 1.99822 207.085C1.99822 206.039 1.99822 205.129 1.99822 204.22C1.31607 204.22 0.679397 204.22 0.0427247 204.22C0.0427247 203.356 0.0427247 202.446 0.0427247 201.537Z" fill="black"/>
<path d="M0.0427247 159.38C0.679397 159.38 1.36155 159.38 2.08917 159.38C2.08917 160.153 2.08917 160.971 2.08917 161.79C3.08966 161.79 3.99919 161.79 4.99968 161.79C4.99968 161.017 4.99968 160.198 4.99968 159.38C5.77278 159.38 6.45492 159.38 7.18255 159.38C7.18255 160.198 7.18255 161.017 7.18255 161.79C6.5004 161.836 5.81826 161.926 5.09063 161.972C5.09063 162.972 5.09063 163.882 5.09063 164.837C4.13562 164.837 3.18061 164.837 2.18012 164.837C2.18012 165.701 2.18012 166.52 2.18012 167.384C1.4525 167.384 0.770353 167.384 0.088204 167.384C0.088204 166.52 0.088204 165.656 0.088204 164.792C0.724876 164.792 1.36155 164.792 2.0437 164.792C2.0437 163.746 2.0437 162.836 2.0437 161.926C1.36155 161.926 0.724876 161.926 0.088204 161.926C0.0427275 161.108 0.0427247 160.244 0.0427247 159.38Z" fill="black"/>
<path d="M5.04515 101.17C4.09014 101.17 3.13514 101.17 2.13465 101.17C2.13465 102.125 2.13465 102.898 2.13465 103.762C1.36155 103.762 0.724873 103.762 0.0427246 103.762C0.0427246 102.898 0.0427246 102.034 0.0427246 101.17C0.679397 101.17 1.31607 101.17 1.99822 101.17C1.99822 100.306 1.99822 99.5326 1.99822 98.7595C1.31607 98.7595 0.679397 98.7595 0.0427247 98.7595C0.0427247 97.85 0.0427247 96.9405 0.0427247 96.0309C0.679397 96.0309 1.36155 96.0309 2.08917 96.0309C2.08917 96.9405 2.08917 97.7136 2.08917 98.5776C3.08966 98.5776 3.99919 98.5776 4.99968 98.5776C4.99968 97.7591 4.99968 96.986 4.99968 96.0309C5.77278 96.0764 6.45493 96.1219 7.13708 96.1674C7.13708 96.9859 7.13708 97.8045 7.13708 98.5776C6.45493 98.6231 5.77278 98.7141 4.99968 98.7595C4.99968 99.6236 4.99967 100.397 5.04515 101.17Z" fill="black"/>
<path d="M0.0427247 106.354C0.679397 106.354 1.31607 106.354 2.08917 106.354C2.08917 107.264 2.08917 108.037 2.08917 108.901C3.13513 108.901 4.09014 108.901 5.04515 108.901C5.04515 109.901 5.04515 110.947 5.04515 111.948C4.09014 111.948 3.13514 111.948 2.13465 111.948C2.13465 112.812 2.13465 113.585 2.13465 114.494C1.36155 114.494 0.724873 114.494 0.0427246 114.494C0.0427246 113.63 0.0427246 112.766 0.0427246 111.902C0.679397 111.902 1.31607 111.902 1.99822 111.902C1.99822 110.856 1.99822 109.947 1.99822 108.992C1.31607 108.946 0.679397 108.901 0.0427247 108.855C0.0427247 108.037 0.0427247 107.218 0.0427247 106.354Z" fill="black"/>
<path d="M5.04515 249.469C4.09014 249.469 3.13514 249.469 2.13465 249.469C2.13465 250.333 2.13465 251.106 2.13465 252.016C1.36155 252.016 0.724873 252.016 0.0427246 252.016C0.0427246 251.152 0.0427246 250.287 0.0427246 249.423C0.679397 249.423 1.31607 249.423 1.99822 249.423C1.99822 248.377 1.99822 247.468 1.99822 246.513C1.31607 246.467 0.679397 246.422 0.0427247 246.376C0.0427247 245.512 0.0427247 244.648 0.0427247 243.784C0.679397 243.784 1.31607 243.784 2.08917 243.784C2.08917 244.694 2.08917 245.467 2.08917 246.331C3.13513 246.331 4.09014 246.331 5.04515 246.331C5.04515 247.422 5.04515 248.423 5.04515 249.469Z" fill="black"/>
<path d="M5.04515 16.7651C4.09014 16.7651 3.13514 16.7651 2.13465 16.7651C2.13465 17.6292 2.13465 18.4023 2.13465 19.3573C1.36155 19.3573 0.724873 19.3573 0.0427246 19.3573C0.0427246 18.4932 0.0427246 17.6292 0.0427246 16.7651C0.679397 16.7196 1.31607 16.6742 1.99822 16.6287C1.99822 15.7646 1.99822 14.9915 1.99822 14.1729C1.31607 14.1729 0.679397 14.1729 0.0427247 14.1729C0.0427247 13.1724 0.0427247 12.172 0.0427247 11.126C0.679397 11.126 1.36155 11.126 2.08917 11.126C2.08917 12.1265 2.08917 13.0815 2.08917 14.1729C3.13513 14.1729 4.09014 14.1729 5.04515 14.1729C5.04515 15.037 5.04515 15.901 5.04515 16.7651Z" fill="black"/>
<path d="M5.04515 291.717C4.09014 291.717 3.13514 291.717 2.13465 291.717C2.13465 292.581 2.13465 293.354 2.13465 294.309C1.36155 294.309 0.724873 294.309 0.0427246 294.309C0.0427246 293.445 0.0427246 292.581 0.0427246 291.717C0.679397 291.671 1.31607 291.626 1.99822 291.58C1.99822 290.716 1.99822 289.943 1.99822 289.125C1.31607 289.125 0.679397 289.125 0.0427247 289.125C0.0427247 288.124 0.0427247 287.124 0.0427247 286.078C0.679397 286.078 1.36155 286.078 2.08917 286.078C2.08917 287.078 2.08917 288.033 2.08917 289.125C3.13513 289.125 4.09014 289.125 5.04515 289.125C5.04515 290.034 5.04515 290.898 5.04515 291.717Z" fill="black"/>
<path d="M5.04515 154.241C4.09014 154.241 3.13514 154.241 2.13465 154.241C2.13465 155.105 2.13465 155.878 2.13465 156.788C1.36155 156.788 0.724873 156.788 0.0427246 156.788C0.0427246 155.924 0.0427246 155.06 0.0427246 154.195C0.679397 154.15 1.31607 154.105 1.99822 154.059C1.99822 153.195 1.99822 152.422 1.99822 151.603C1.31607 151.603 0.679397 151.603 0.0427247 151.603C0.0427247 150.603 0.0427247 149.602 0.0427247 148.556C0.679397 148.556 1.36155 148.556 2.08917 148.556C2.08917 149.557 2.08917 150.512 2.08917 151.603C3.13513 151.603 4.09014 151.603 5.04515 151.603C5.04515 152.513 5.04515 153.377 5.04515 154.241Z" fill="black"/>
<path d="M5.04515 27.3611C4.09014 27.3611 3.13514 27.3611 2.13465 27.3611C2.13465 28.2252 2.13465 29.0437 2.13465 29.9078C1.40703 29.9078 0.724873 29.9078 0.0427246 29.9078C0.0427246 29.0437 0.0427246 28.1797 0.0427246 27.3156C0.679397 27.3156 1.31607 27.3156 1.99822 27.3156C1.99822 26.3151 1.99822 25.4056 1.99822 24.4506C1.31607 24.4506 0.679397 24.4506 0.0427247 24.4506C0.0427247 23.5865 0.0427247 22.7225 0.0427247 21.8584C0.679397 21.8584 1.31607 21.8584 2.08917 21.8584C2.08917 22.677 2.08917 23.4956 2.08917 24.4051C3.13513 24.4051 4.09014 24.4051 5.04515 24.4051C5.04515 25.4511 5.04515 26.4061 5.04515 27.3611Z" fill="black"/>
<path d="M0.0427247 74.7932C0.679397 74.7932 1.36155 74.7932 2.08917 74.7932C2.08917 75.6118 2.08917 76.4304 2.08917 77.3854C3.13513 77.3854 4.09014 77.3854 5.04515 77.3854C5.04515 78.2495 5.04515 79.1135 5.04515 79.9776C4.13562 79.9776 3.18061 79.9776 2.13465 79.9776C2.13465 80.9326 2.13465 81.8421 2.13465 82.8426C1.36155 82.8426 0.679397 82.8426 0.0427246 82.8426C0.0427246 81.8876 0.0427246 80.9326 0.0427246 79.9776C0.679397 79.9776 1.31607 79.9776 1.99822 79.9776C1.99822 79.068 1.99822 78.2949 1.99822 77.3854C1.31607 77.3854 0.679397 77.3854 0.0427247 77.3854C0.0427247 76.5213 0.0427247 75.6573 0.0427247 74.7932Z" fill="black"/>
<path d="M0.0427247 254.608C0.679397 254.608 1.31607 254.608 2.08917 254.608C2.08917 255.426 2.08917 256.245 2.08917 257.155C3.13513 257.155 4.09014 257.155 5.04515 257.155C5.04515 258.019 5.04515 258.883 5.04515 259.747C4.13562 259.747 3.18061 259.747 2.13465 259.747C2.13465 260.702 2.13465 261.611 2.13465 262.612C1.36155 262.612 0.679397 262.612 0.0427246 262.612C0.0427246 261.657 0.0427246 260.702 0.0427246 259.747C0.679397 259.701 1.31607 259.656 1.99822 259.61C1.99822 258.746 1.99822 257.973 1.99822 257.155C1.31607 257.155 0.679397 257.155 0.0427247 257.155C0.0427247 256.291 0.0427247 255.472 0.0427247 254.608Z" fill="black"/>
<path d="M0.0427247 117.087C0.679397 117.087 1.31607 117.087 2.08917 117.087C2.08917 117.905 2.08917 118.678 2.08917 119.679C3.13513 119.679 4.09014 119.679 5.04515 119.679C5.04515 120.543 5.04515 121.407 5.04515 122.271C4.13562 122.271 3.18061 122.271 2.13465 122.271C2.13465 123.226 2.13465 124.135 2.13465 125.136C1.36155 125.136 0.679397 125.136 0.0427246 125.136C0.0427246 124.181 0.0427246 123.226 0.0427246 122.271C0.679397 122.225 1.31607 122.18 1.99822 122.134C1.99822 121.27 1.99822 120.497 1.99822 119.679C1.31607 119.679 0.679397 119.679 0.0427247 119.679C0.0427247 118.815 0.0427247 117.951 0.0427247 117.087Z" fill="black"/>
<path d="M0.0427247 212.315C0.679397 212.315 1.36155 212.315 2.08917 212.315C2.08917 213.133 2.08917 213.952 2.08917 214.861C3.13513 214.861 4.09014 214.861 5.04515 214.861C5.04515 215.725 5.04515 216.589 5.04515 217.453C4.13562 217.453 3.18061 217.453 2.13465 217.453C2.13465 218.408 2.13465 219.318 2.13465 220.318C1.36155 220.318 0.679397 220.318 0.0427246 220.318C0.0427246 219.363 0.0427246 218.408 0.0427246 217.453C0.679397 217.453 1.31607 217.453 1.99822 217.453C1.99822 216.544 1.99822 215.771 1.99822 214.861C1.31607 214.861 0.679397 214.861 0.0427247 214.861C0.0427247 213.997 0.0427247 213.179 0.0427247 212.315Z" fill="black"/>
<path d="M0.0427247 85.4348C0.679397 85.4348 1.36155 85.4348 2.08917 85.4348C2.08917 86.2988 2.08917 87.1174 2.08917 88.0269C3.13513 88.0269 4.09014 88.0269 5.04515 88.0269C5.04515 88.891 5.04515 89.755 5.04515 90.6191C4.09014 90.6191 3.13514 90.6191 2.13465 90.6191C2.13465 91.5286 2.13465 92.3017 2.13465 93.1658C1.40703 93.1658 0.724873 93.1658 0.0427246 93.1658C0.0427246 92.3017 0.0427246 91.4377 0.0427246 90.5736C0.679397 90.5736 1.31607 90.5736 1.99822 90.5736C1.99822 89.6641 1.99822 88.8455 1.99822 87.9814C1.31607 87.9814 0.679397 87.9814 0.0427247 87.9814C0.0427247 87.1174 0.0427247 86.2988 0.0427247 85.4348Z" fill="black"/>
<path d="M0.0427247 222.911C0.679397 222.911 1.36155 222.911 2.08917 222.911C2.08917 223.775 2.08917 224.593 2.08917 225.457C3.13513 225.457 4.09014 225.457 5.04515 225.457C5.04515 226.321 5.04515 227.185 5.04515 228.049C4.09014 228.049 3.13514 228.049 2.13465 228.049C2.13465 228.959 2.13465 229.732 2.13465 230.642C1.36155 230.642 0.724873 230.642 0.0427246 230.642C0.0427246 229.778 0.0427246 228.914 0.0427246 228.049C0.679397 228.049 1.31607 228.049 1.99822 228.049C1.99822 227.14 1.99822 226.321 1.99822 225.457C1.31607 225.457 0.679397 225.457 0.0427247 225.457C0.0427247 224.639 0.0427247 223.775 0.0427247 222.911Z" fill="black"/>
<path d="M0.0427247 32.4999C0.679397 32.4999 1.36155 32.4999 2.08917 32.4999C2.08917 33.364 2.08917 34.1371 2.08917 35.0466C3.13513 35.0466 4.09014 35.0466 5.04515 35.0466C5.04515 35.9107 5.04515 36.7747 5.04515 37.6388C4.09014 37.6388 3.13514 37.6388 2.13465 37.6388C2.13465 38.5483 2.13465 39.3214 2.13465 40.231C1.40703 40.231 0.724873 40.231 0.0427246 40.231C0.0427246 39.3669 0.0427246 38.5028 0.0427246 37.6388C0.679397 37.6388 1.31607 37.6388 1.99822 37.6388C1.99822 36.7293 1.99822 35.9107 1.99822 35.0466C1.31607 35.0466 0.679397 35.0466 0.0427247 35.0466C0.0427247 34.2281 0.0427247 33.364 0.0427247 32.4999Z" fill="black"/>
<path d="M0.0427247 127.728C0.679397 127.728 1.36155 127.728 2.08917 127.728C2.08917 128.592 2.08917 129.411 2.08917 130.32C3.13513 130.32 4.09014 130.32 5.04515 130.32C5.04515 131.184 5.04515 132.048 5.04515 132.912C4.09014 132.912 3.13514 132.912 2.13465 132.912C2.13465 133.776 2.13465 134.595 2.13465 135.459C1.40703 135.459 0.724873 135.459 0.0427246 135.459C0.0427246 134.595 0.0427246 133.731 0.0427246 132.867C0.679397 132.867 1.31607 132.867 1.99822 132.867C1.99822 131.957 1.99822 131.139 1.99822 130.275C1.31607 130.275 0.679397 130.275 0.0427247 130.275C0.0427247 129.411 0.0427247 128.592 0.0427247 127.728Z" fill="black"/>
<path d="M0.0427247 265.204C0.679397 265.204 1.36155 265.204 2.08917 265.204C2.08917 266.068 2.08917 266.886 2.08917 267.75C3.13513 267.75 4.09014 267.75 5.04515 267.75C5.04515 268.614 5.04515 269.479 5.04515 270.343C4.09014 270.343 3.13514 270.343 2.13465 270.343C2.13465 271.252 2.13465 272.025 2.13465 272.935C1.40703 272.935 0.724873 272.935 0.0427246 272.935C0.0427246 272.071 0.0427246 271.207 0.0427246 270.343C0.679397 270.343 1.31607 270.343 1.99822 270.343C1.99822 269.433 1.99822 268.614 1.99822 267.75C1.31607 267.75 0.679397 267.75 0.0427247 267.75C0.0427247 266.932 0.0427247 266.068 0.0427247 265.204Z" fill="black"/>
<path d="M0.0427247 170.021C0.679397 170.021 1.36155 170.021 2.08917 170.021C2.08917 170.885 2.08917 171.658 2.08917 172.568C3.13513 172.568 4.09014 172.568 5.04515 172.568C5.04515 173.432 5.04515 174.296 5.04515 175.16C4.09014 175.16 3.13514 175.16 2.13465 175.16C2.13465 176.07 2.13465 176.843 2.13465 177.752C1.40703 177.752 0.724873 177.752 0.0427246 177.752C0.0427246 176.888 0.0427246 176.024 0.0427246 175.16C0.679397 175.16 1.31607 175.16 1.99822 175.16C1.99822 174.251 1.99822 173.432 1.99822 172.568C1.31607 172.568 0.679397 172.568 0.0427247 172.568C0.0427247 171.704 0.0427247 170.885 0.0427247 170.021Z" fill="black"/>
<path d="M5.04515 185.802C4.09014 185.802 3.13514 185.802 2.13465 185.802C2.13465 186.711 2.13465 187.484 2.13465 188.348C1.36155 188.348 0.724873 188.348 0.0427246 188.348C0.0427246 187.484 0.0427246 186.62 0.0427246 185.756C0.679397 185.756 1.31607 185.756 1.99822 185.756C1.99822 184.892 1.99822 184.074 1.99822 183.164C1.31607 183.164 0.679397 183.164 0.0427247 183.164C0.0427247 182.3 0.0427247 181.436 0.0427247 180.572C0.679397 180.572 1.36155 180.572 2.08917 180.572C2.08917 181.436 2.08917 182.255 2.08917 183.164C3.13513 183.164 4.09014 183.164 5.04515 183.164C5.04515 184.074 5.04515 184.938 5.04515 185.802Z" fill="black"/>
<path d="M5.04515 5.9872C4.09014 5.9872 3.18061 5.9872 2.13465 5.9872C2.13465 6.89673 2.13465 7.7153 2.13465 8.53387C1.36155 8.53387 0.724873 8.53387 0.0427246 8.53387C0.0427246 7.66982 0.0427246 6.80579 0.0427246 5.94173C0.679397 5.94173 1.31607 5.94173 1.99822 5.94173C1.99822 5.07768 1.99822 4.30456 1.99822 3.48598C1.31607 3.44051 0.679397 3.39504 0.0427247 3.34956C0.0427247 2.4855 0.0427247 1.62144 0.0427247 0.757388C0.724874 0.757388 1.36155 0.757388 2.13465 0.757388C2.13465 1.66692 2.13465 2.48549 2.13465 3.30407C3.18061 3.30407 4.13562 3.30407 5.04515 3.30407C5.04515 4.25907 5.04515 5.12314 5.04515 5.9872Z" fill="black"/>
<path d="M5.04515 238.691C4.09014 238.691 3.13514 238.691 2.13465 238.691C2.13465 239.646 2.13465 240.419 2.13465 241.283C1.36155 241.283 0.724873 241.283 0.0427246 241.283C0.0427246 240.419 0.0427246 239.555 0.0427246 238.691C0.679397 238.691 1.31607 238.691 1.99822 238.691C1.99822 237.827 1.99822 237.054 1.99822 236.235C1.31607 236.19 0.679397 236.144 0.0427247 236.099C0.0427247 235.235 0.0427247 234.371 0.0427247 233.507C0.679397 233.507 1.36155 233.507 2.08917 233.507C2.08917 234.416 2.08917 235.189 2.08917 236.053C3.13513 236.053 4.09014 236.053 5.04515 236.053C5.04515 236.963 5.04515 237.827 5.04515 238.691Z" fill="black"/>
<path d="M5.04515 48.2805C4.09014 48.2805 3.13514 48.2805 2.13465 48.2805C2.13465 49.19 2.13465 50.0086 2.13465 50.8727C1.36155 50.8727 0.724873 50.8727 0.0427246 50.8727C0.0427246 50.0086 0.0427246 49.1446 0.0427246 48.2805C0.679397 48.2805 1.31607 48.2805 1.99822 48.2805C1.99822 47.4165 1.99822 46.5979 1.99822 45.6883C1.31607 45.6883 0.679397 45.6883 0.0427247 45.6883C0.0427247 44.8243 0.0427247 43.9602 0.0427247 43.0962C0.679397 43.0962 1.36155 43.0962 2.08917 43.0962C2.08917 43.9602 2.08917 44.7788 2.08917 45.6429C3.13513 45.6429 4.09014 45.6429 5.04515 45.6429C5.04515 46.5524 5.04515 47.4165 5.04515 48.2805Z" fill="black"/>
<path d="M5.04515 143.508C4.09014 143.508 3.13514 143.508 2.13465 143.508C2.13465 144.418 2.13465 145.191 2.13465 146.055C1.36155 146.055 0.724873 146.055 0.0427246 146.055C0.0427246 145.191 0.0427246 144.327 0.0427246 143.463C0.679397 143.463 1.31607 143.463 1.99822 143.463C1.99822 142.599 1.99822 141.826 1.99822 141.007C1.31607 140.962 0.679397 140.916 0.0427247 140.871C0.0427247 140.007 0.0427247 139.143 0.0427247 138.279C0.679397 138.279 1.31607 138.279 2.08917 138.279C2.08917 139.188 2.08917 139.961 2.08917 140.871C3.13513 140.871 4.09014 140.871 5.04515 140.871C5.04515 141.78 5.04515 142.644 5.04515 143.508Z" fill="black"/>
<path d="M5.04515 280.984C4.09014 280.984 3.13514 280.984 2.13465 280.984C2.13465 281.894 2.13465 282.712 2.13465 283.576C1.36155 283.576 0.724873 283.576 0.0427246 283.576C0.0427246 282.712 0.0427246 281.848 0.0427246 280.984C0.679397 280.984 1.31607 280.984 1.99822 280.984C1.99822 280.12 1.99822 279.301 1.99822 278.392C1.31607 278.392 0.679397 278.392 0.0427247 278.392C0.0427247 277.528 0.0427247 276.664 0.0427247 275.8C0.679397 275.8 1.31607 275.8 2.08917 275.8C2.08917 276.664 2.08917 277.437 2.08917 278.346C3.13513 278.346 4.09014 278.346 5.04515 278.346C5.04515 279.256 5.04515 280.12 5.04515 280.984Z" fill="black"/>
<path d="M0.0427247 307.497C0.679397 307.497 1.36155 307.497 2.08917 307.497C2.08917 308.361 2.08917 309.134 2.08917 310.089C3.13513 310.089 4.09014 310.089 5.04515 310.089C5.04515 310.862 5.04515 311.59 5.04515 312.363C4.09014 312.363 3.13513 312.363 2.18012 312.363C2.13465 311.635 2.0437 310.862 1.99822 310.089C1.31607 310.089 0.679397 310.089 0.0427246 310.089C0.0427246 309.225 0.0427247 308.361 0.0427247 307.497Z" fill="black"/>
<path d="M5.04517 151.649C5.04517 150.694 5.04517 149.693 5.04517 148.602C5.77279 148.602 6.45494 148.602 7.18256 148.602C7.18256 149.602 7.18256 150.603 7.18256 151.649C6.45494 151.649 5.72731 151.649 5.04517 151.649Z" fill="black"/>
<path d="M5.04511 14.173C5.04511 13.218 5.04511 12.2175 5.04511 11.1261C5.77274 11.1261 6.45489 11.1261 7.18251 11.1261C7.18251 12.1266 7.18251 13.127 7.18251 14.173C6.45489 14.173 5.72726 14.173 5.04511 14.173C5.04511 14.173 4.99964 14.173 5.04511 14.173Z" fill="black"/>
<path d="M5.04517 289.17C5.04517 288.215 5.04517 287.214 5.04517 286.123C5.77279 286.123 6.45494 286.123 7.18256 286.123C7.18256 287.123 7.18256 288.124 7.18256 289.17C6.45494 289.17 5.72731 289.17 5.04517 289.17Z" fill="black"/>
<path d="M7.13703 125.136C6.45488 125.136 5.77274 125.136 4.99963 125.136C4.99963 124.135 4.99963 123.18 4.99963 122.271C5.72726 122.271 6.40941 122.271 7.13703 122.271C7.13703 123.226 7.13703 124.181 7.13703 125.136Z" fill="black"/>
<path d="M7.13703 262.612C6.45488 262.612 5.77274 262.612 4.99963 262.612C4.99963 261.611 4.99963 260.656 4.99963 259.747C5.72726 259.747 6.40941 259.747 7.13703 259.747C7.13703 260.702 7.13703 261.657 7.13703 262.612Z" fill="black"/>
<path d="M7.13703 220.318C6.45488 220.318 5.77274 220.318 4.99963 220.318C4.99963 219.363 4.99963 218.408 4.99963 217.453C5.72726 217.453 6.40941 217.453 7.13703 217.453C7.13703 218.408 7.13703 219.363 7.13703 220.318Z" fill="black"/>
<path d="M7.13703 82.8426C6.45488 82.8426 5.77274 82.8426 4.99963 82.8426C4.99963 81.8876 4.99963 80.9326 4.99963 79.9776C5.72726 79.9776 6.40941 79.9776 7.13703 79.9776C7.13703 80.9326 7.13703 81.8876 7.13703 82.8426Z" fill="black"/>
<path d="M5.04517 183.209C5.04517 182.391 5.04517 181.572 5.04517 180.617C5.77279 180.617 6.45494 180.617 7.18256 180.617C7.18256 181.481 7.18256 182.345 7.18256 183.209C6.45494 183.209 5.72731 183.209 5.04517 183.209Z" fill="black"/>
<path d="M5.04517 130.275C5.04517 129.456 5.04517 128.637 5.04517 127.682C5.77279 127.682 6.45494 127.682 7.18256 127.682C7.18256 128.546 7.18256 129.411 7.18256 130.275C6.45494 130.275 5.72731 130.275 5.04517 130.275Z" fill="black"/>
<path d="M4.99963 132.867C5.72726 132.867 6.40941 132.867 7.13703 132.867C7.13703 133.731 7.13703 134.595 7.13703 135.459C6.45488 135.459 5.77274 135.459 4.99963 135.459C4.99963 134.55 4.99963 133.685 4.99963 132.867Z" fill="black"/>
<path d="M5.04517 140.916C5.04517 140.098 5.04517 139.279 5.04517 138.324C5.77279 138.324 6.45494 138.324 7.13709 138.324C7.13709 139.188 7.13709 140.052 7.13709 140.916C6.45494 140.916 5.72731 140.916 5.04517 140.916Z" fill="black"/>
<path d="M4.99963 143.463C5.72726 143.463 6.40941 143.463 7.13703 143.463C7.13703 144.327 7.13703 145.191 7.13703 146.055C6.45488 146.055 5.77274 146.055 4.99963 146.055C4.99963 145.191 4.99963 144.327 4.99963 143.463Z" fill="black"/>
<path d="M4.99963 185.756C5.72726 185.756 6.40941 185.756 7.13703 185.756C7.13703 186.62 7.13703 187.484 7.13703 188.348C6.45488 188.348 5.81821 188.348 4.99963 188.348C4.99963 187.484 4.99963 186.62 4.99963 185.756Z" fill="black"/>
<path d="M7.13703 24.4962C6.40941 24.4962 5.72726 24.4962 4.99963 24.4962C4.99963 23.6322 4.99963 22.8136 4.99963 21.904C5.77274 21.904 6.45488 21.904 7.13703 21.904C7.13703 22.7681 7.13703 23.6322 7.13703 24.4962Z" fill="black"/>
<path d="M7.13703 177.752C6.45488 177.752 5.77274 177.752 4.99963 177.752C4.99963 176.843 4.99963 176.024 4.99963 175.16C5.72726 175.16 6.40941 175.16 7.13703 175.16C7.13703 176.024 7.13703 176.888 7.13703 177.752Z" fill="black"/>
<path d="M4.99963 154.241C5.72726 154.241 6.40941 154.241 7.13703 154.241C7.13703 155.105 7.13703 155.969 7.13703 156.833C6.45488 156.833 5.81821 156.833 4.99963 156.833C4.99963 155.924 4.99963 155.06 4.99963 154.241Z" fill="black"/>
<path d="M7.13703 19.3117C6.45488 19.3117 5.81821 19.3117 4.99963 19.3117C4.99963 18.4022 4.99963 17.5836 4.99963 16.7196C5.72726 16.7196 6.40941 16.7196 7.13703 16.7196C7.13703 17.6291 7.13703 18.4477 7.13703 19.3117Z" fill="black"/>
<path d="M4.99963 164.837C5.72726 164.837 6.40941 164.837 7.13703 164.837C7.13703 165.701 7.13703 166.565 7.13703 167.429C6.45488 167.429 5.77274 167.429 4.99963 167.429C4.99963 166.52 4.99963 165.701 4.99963 164.837Z" fill="black"/>
<path d="M7.13703 172.568C6.40941 172.568 5.72726 172.568 4.99963 172.568C4.99963 171.749 4.99963 170.885 4.99963 169.976C5.77274 169.976 6.45488 169.976 7.13703 169.976C7.13703 170.885 7.13703 171.704 7.13703 172.568Z" fill="black"/>
<path d="M5.04517 77.3855C5.04517 76.5669 5.04517 75.7029 5.04517 74.7933C5.77279 74.7933 6.45494 74.7933 7.18256 74.7933C7.18256 75.6574 7.18256 76.5214 7.18256 77.3855C6.45494 77.3855 5.72731 77.3855 5.04517 77.3855Z" fill="black"/>
<path d="M4.99963 69.6544C5.72726 69.6544 6.40941 69.6544 7.13703 69.6544C7.13703 70.5185 7.13703 71.3825 7.13703 72.2466C6.45488 72.2466 5.77274 72.2466 4.99963 72.2466C4.99963 71.3371 4.99963 70.473 4.99963 69.6544Z" fill="black"/>
<path d="M7.13703 50.8727C6.45488 50.8727 5.81821 50.8727 4.99963 50.8727C4.99963 50.0086 4.99963 49.1446 4.99963 48.2805C5.72726 48.2805 6.40941 48.2805 7.13703 48.2805C7.13703 49.1446 7.13703 50.0086 7.13703 50.8727Z" fill="black"/>
<path d="M5.04517 87.9816C5.04517 87.163 5.04517 86.3444 5.04517 85.3894C5.77279 85.3894 6.45494 85.3894 7.18256 85.3894C7.18256 86.2535 7.18256 87.1175 7.18256 87.9816C6.45494 87.9816 5.72731 87.9816 5.04517 87.9816Z" fill="black"/>
<path d="M4.99963 5.98724C5.72726 5.98724 6.40941 5.98724 7.13703 5.98724C7.13703 6.85129 7.13703 7.71535 7.13703 8.57941C6.45488 8.57941 5.77274 8.57941 4.99963 8.57941C4.99963 7.71535 4.99963 6.85129 4.99963 5.98724Z" fill="black"/>
<path d="M7.13703 45.6882C6.40941 45.6882 5.72726 45.6882 4.99963 45.6882C4.99963 44.8697 4.99963 44.0511 4.99963 43.0961C5.72726 43.0961 6.45488 43.0961 7.13703 43.0961C7.13703 44.0056 7.13703 44.8242 7.13703 45.6882Z" fill="black"/>
<path d="M7.13703 40.231C6.45488 40.231 5.77274 40.231 4.99963 40.231C4.99963 39.3214 4.99963 38.5028 4.99963 37.6388C5.72726 37.6388 6.40941 37.6388 7.13703 37.6388C7.13703 38.5483 7.13703 39.3669 7.13703 40.231Z" fill="black"/>
<path d="M7.13703 3.39496C6.40941 3.39496 5.72726 3.39496 4.99963 3.39496C4.99963 2.57638 4.99963 1.7578 4.99963 0.802787C5.77274 0.802787 6.45488 0.802787 7.13703 0.802787C7.13703 1.71232 7.13703 2.5309 7.13703 3.39496Z" fill="black"/>
<path d="M4.99963 90.5736C5.72726 90.5736 6.40941 90.5736 7.13703 90.5736C7.13703 91.4377 7.13703 92.3017 7.13703 93.1658C6.45488 93.1658 5.81821 93.1658 4.99963 93.1658C4.99963 92.3017 4.99963 91.4377 4.99963 90.5736Z" fill="black"/>
<path d="M7.13703 35.0922C6.40941 35.0922 5.72726 35.0922 4.99963 35.0922C4.99963 34.2736 4.99963 33.4096 4.99963 32.5001C5.77274 32.5001 6.45488 32.5001 7.13703 32.5001C7.13703 33.3641 7.13703 34.2282 7.13703 35.0922Z" fill="black"/>
<path d="M7.13703 103.762C6.45488 103.762 5.77274 103.762 4.99963 103.762C4.99963 102.898 4.99963 102.034 4.99963 101.17C5.72726 101.17 6.40941 101.17 7.13703 101.17C7.13703 102.034 7.13703 102.898 7.13703 103.762Z" fill="black"/>
<path d="M7.13703 108.901C6.40941 108.901 5.72726 108.901 4.99963 108.901C4.99963 108.082 4.99963 107.264 4.99963 106.309C5.77274 106.309 6.45488 106.309 7.13703 106.309C7.13703 107.218 7.13703 108.037 7.13703 108.901Z" fill="black"/>
<path d="M4.99963 27.3611C5.72726 27.3611 6.40941 27.3611 7.13703 27.3611C7.13703 28.2252 7.13703 29.0893 7.13703 29.9533C6.45488 29.9533 5.77274 29.9533 4.99963 29.9533C4.99963 29.0438 4.99963 28.1797 4.99963 27.3611Z" fill="black"/>
<path d="M4.99963 111.948C5.72726 111.948 6.40941 111.948 7.13703 111.948C7.13703 112.812 7.13703 113.676 7.13703 114.54C6.45488 114.54 5.77274 114.54 4.99963 114.54C4.99963 113.63 4.99963 112.766 4.99963 111.948Z" fill="black"/>
<path d="M5.04517 119.679C5.04517 118.815 5.04517 117.996 5.04517 117.087C5.77279 117.087 6.45494 117.087 7.18256 117.087C7.18256 117.951 7.18256 118.815 7.18256 119.679C6.45494 119.679 5.72731 119.679 5.04517 119.679Z" fill="black"/>
<path d="M5.04517 310.089C5.04517 309.271 5.04517 308.406 5.04517 307.497C5.77279 307.497 6.45494 307.497 7.18256 307.497C7.18256 308.361 7.18256 309.225 7.18256 310.089C6.45494 310.089 5.72731 310.089 5.04517 310.089Z" fill="black"/>
<path d="M4.99963 302.313C5.72726 302.313 6.40941 302.313 7.13703 302.313C7.13703 303.177 7.13703 304.041 7.13703 304.905C6.45488 304.905 5.77274 304.905 4.99963 304.905C4.99963 304.041 4.99963 303.177 4.99963 302.313Z" fill="black"/>
<path d="M7.13703 294.309C6.45488 294.309 5.81821 294.309 4.99963 294.309C4.99963 293.399 4.99963 292.581 4.99963 291.717C5.72726 291.717 6.40941 291.717 7.13703 291.717C7.13703 292.581 7.13703 293.445 7.13703 294.309Z" fill="black"/>
<path d="M7.13703 283.531C6.45488 283.531 5.77274 283.531 4.99963 283.531C4.99963 282.667 4.99963 281.803 4.99963 280.939C5.72726 280.939 6.40941 280.939 7.13703 280.939C7.13703 281.848 7.13703 282.667 7.13703 283.531Z" fill="black"/>
<path d="M7.13703 278.392C6.40941 278.392 5.72726 278.392 4.99963 278.392C4.99963 277.573 4.99963 276.755 4.99963 275.8C5.77274 275.8 6.45488 275.8 7.13703 275.8C7.13703 276.664 7.13703 277.528 7.13703 278.392Z" fill="black"/>
<path d="M7.13703 272.935C6.45488 272.935 5.77274 272.935 4.99963 272.935C4.99963 272.025 4.99963 271.207 4.99963 270.343C5.72726 270.343 6.40941 270.343 7.13703 270.343C7.13703 271.207 7.13703 272.071 7.13703 272.935Z" fill="black"/>
<path d="M7.13703 267.796C6.40941 267.796 5.72726 267.796 4.99963 267.796C4.99963 266.977 4.99963 266.113 4.99963 265.204C5.72726 265.204 6.45488 265.204 7.13703 265.204C7.13703 266.068 7.13703 266.932 7.13703 267.796Z" fill="black"/>
<path d="M7.13703 257.154C6.40941 257.154 5.72726 257.154 4.99963 257.154C4.99963 256.29 4.99963 255.472 4.99963 254.562C5.77274 254.562 6.45488 254.562 7.13703 254.562C7.13703 255.472 7.13703 256.29 7.13703 257.154Z" fill="black"/>
<path d="M4.99963 249.423C5.72726 249.423 6.40941 249.423 7.13703 249.423C7.13703 250.287 7.13703 251.152 7.13703 252.016C6.45488 252.016 5.77274 252.016 4.99963 252.016C4.99963 251.106 4.99963 250.287 4.99963 249.423Z" fill="black"/>
<path d="M7.13703 246.422C6.40941 246.422 5.72726 246.422 4.99963 246.422C4.99963 245.603 4.99963 244.785 4.99963 243.83C5.77274 243.83 6.45488 243.83 7.13703 243.83C7.13703 244.694 7.13703 245.558 7.13703 246.422Z" fill="black"/>
<path d="M7.13703 241.238C6.45488 241.238 5.77274 241.238 4.99963 241.238C4.99963 240.374 4.99963 239.51 4.99963 238.646C5.72726 238.646 6.40941 238.646 7.13703 238.646C7.13703 239.555 7.13703 240.374 7.13703 241.238Z" fill="black"/>
<path d="M7.13703 230.642C6.45488 230.642 5.77274 230.642 4.99963 230.642C4.99963 229.732 4.99963 228.914 4.99963 228.049C5.72726 228.049 6.40941 228.049 7.13703 228.049C7.13703 228.914 7.13703 229.778 7.13703 230.642Z" fill="black"/>
<path d="M7.13703 225.503C6.40941 225.503 5.72726 225.503 4.99963 225.503C4.99963 224.684 4.99963 223.866 4.99963 222.911C5.72726 222.911 6.45488 222.911 7.13703 222.911C7.13703 223.775 7.13703 224.639 7.13703 225.503Z" fill="black"/>
<path d="M7.13703 214.861C6.40941 214.861 5.72726 214.861 4.99963 214.861C4.99963 213.997 4.99963 213.179 4.99963 212.269C5.77274 212.269 6.45488 212.269 7.13703 212.269C7.13703 213.179 7.13703 213.997 7.13703 214.861Z" fill="black"/>
<path d="M4.99963 207.13C5.72726 207.13 6.40941 207.13 7.13703 207.13C7.13703 207.994 7.13703 208.858 7.13703 209.722C6.45488 209.722 5.77274 209.722 4.99963 209.722C4.99963 208.813 4.99963 207.994 4.99963 207.13Z" fill="black"/>
<path d="M7.13703 236.099C6.40941 236.099 5.72726 236.099 4.99963 236.099C4.99963 235.28 4.99963 234.462 4.99963 233.507C5.77274 233.552 6.45488 233.598 7.13703 233.643C7.13703 234.462 7.13703 235.28 7.13703 236.099Z" fill="black"/>
</svg>
