<svg width="8" height="118" viewBox="0 0 8 118" fill="none" xmlns="http://www.w3.org/2000/svg">
<path d="M5.68732 51.8535C5.68732 52.6597 5.68732 53.4428 5.68732 54.3412C6.35532 54.3873 6.97724 54.4333 7.64524 54.4794C7.64524 55.4468 7.64524 56.3452 7.64524 57.3126C7.00028 57.3587 6.40139 57.3817 5.68732 57.4278C5.68732 58.3031 5.68732 59.1323 5.68732 59.9615L5.73339 59.9155C4.71989 59.9155 3.70637 59.9155 2.69287 59.9155L2.71591 59.9385C2.71591 59.1323 2.71591 58.3491 2.71591 57.4047C2.04791 57.4047 1.40295 57.4047 0.642822 57.4047C0.642822 56.3682 0.642822 55.4699 0.642822 54.4333C1.28778 54.4333 1.95578 54.4333 2.71591 54.4333C2.71591 53.4889 2.71591 52.6597 2.71591 51.8304L2.69287 51.8535C3.70637 51.8535 4.71989 51.8535 5.7334 51.8535L5.68732 51.8535Z" fill="#FFFFFF"/>
<path d="M2.69291 18.0161C2.69291 17.2099 2.69291 16.4267 2.69291 15.5284C2.02491 15.5284 1.37996 15.5284 0.665894 15.5284C0.665894 14.5379 0.665894 13.6395 0.665894 12.6951C1.33389 12.6491 1.97885 12.603 2.71595 12.5569C2.76202 11.7277 2.78505 10.9445 2.83112 10.0692C3.8216 10.0232 4.766 9.97708 5.71041 9.93102L5.66434 9.88495C5.66434 10.7603 5.66434 11.6125 5.66434 12.5109C6.40143 12.5569 7.00032 12.603 7.64528 12.6491C7.64528 13.5704 7.64528 14.4457 7.64528 15.3901C7.02336 15.4132 6.4475 15.4592 5.68737 15.4823C5.68737 16.3345 5.68737 17.1407 5.68737 17.97L5.71041 17.947C4.6969 17.947 3.66036 17.947 2.64685 17.9239C2.66989 17.97 2.69291 18.0161 2.69291 18.0161Z" fill="#FFFFFF"/>
<path d="M5.71041 93.7991C5.71041 94.5822 5.71041 95.3884 5.71041 96.2407C6.40144 96.2868 7.00032 96.3098 7.64528 96.3559C7.64528 97.2772 7.64528 98.1295 7.64528 99.0739C7.02336 99.0969 6.42447 99.143 5.71041 99.1891C5.71041 100.018 5.71041 100.801 5.71041 101.654C4.6969 101.654 3.79857 101.654 2.76202 101.654C2.76202 100.825 2.76202 100.041 2.76202 99.2121C2.00189 99.166 1.35692 99.143 0.665894 99.0969C0.665894 98.1986 0.665894 97.3233 0.665894 96.3559C1.31085 96.3559 1.93279 96.3559 2.60078 96.3559C2.90023 95.4575 2.78505 94.6283 2.71595 93.7991L2.66988 93.8451C3.68339 93.8451 4.71993 93.8451 5.73344 93.8451L5.71041 93.7991Z" fill="#FFFFFF"/>
<path d="M5.66429 41.2348C5.66429 42.1792 5.66429 43.1466 5.66429 44.2062C6.35532 44.2292 6.93118 44.2753 7.62221 44.2983C7.62221 45.1045 7.62221 45.8647 7.62221 46.74C7.02332 46.763 6.42442 46.8091 5.68732 46.8321C5.68732 47.6844 5.68732 48.5136 5.68732 49.3428L5.73339 49.3198C4.71989 49.3198 3.70637 49.3198 2.69287 49.3198L2.71591 49.3428C2.71591 48.5366 2.71591 47.7535 2.71591 46.8091C2.02488 46.8091 1.35689 46.8091 0.642822 46.8091C0.642822 45.9338 0.642822 45.1736 0.642822 44.2753C1.28778 44.2753 1.95578 44.2753 2.76198 44.2753C2.76198 43.2387 2.76198 42.3404 2.76198 41.3269C3.82156 41.3039 4.76596 41.2578 5.71037 41.2348L5.66429 41.2348Z" fill="#FFFFFF"/>
<path d="M5.71041 70.5344C4.78904 70.5344 3.89069 70.5344 2.85415 70.5344C2.85415 69.5209 2.85415 68.6225 2.85415 67.586C2.07099 67.586 1.40299 67.586 0.665894 67.586C0.665894 66.6876 0.665894 65.9045 0.665894 65.0292C1.35692 65.0292 1.97885 65.0292 2.73898 65.0292C2.73898 64.1078 2.73898 63.2786 2.73898 62.4724L2.71595 62.4954C3.72946 62.4954 4.74297 62.4954 5.75648 62.4954L5.73344 62.4724C5.73344 63.2786 5.73344 64.0617 5.73344 64.9601C6.40143 64.9831 7.00033 65.0292 7.66832 65.0522C7.66832 65.8584 7.66832 66.6185 7.66832 67.4939C7.0464 67.5169 6.44751 67.563 5.71041 67.586C5.71041 68.5995 5.71041 69.59 5.71041 70.5804L5.71041 70.5344Z" fill="#FFFFFF"/>
<path d="M5.73339 112.18C4.69685 112.18 3.68335 112.18 2.64681 112.18L2.69287 112.226C2.69287 111.351 2.69287 110.476 2.69287 109.485C2.37039 109.462 2.04792 109.439 1.72544 109.416C1.37992 109.393 1.05744 109.37 0.642822 109.347C0.642822 108.541 0.642822 107.781 0.642822 106.928C1.28778 106.905 1.93273 106.882 2.69287 106.836C2.73893 106.03 2.76197 105.247 2.80804 104.395C3.75244 104.395 4.65079 104.395 5.66429 104.395C5.66429 105.178 5.66429 105.961 5.66429 106.813C6.37836 106.859 6.97725 106.905 7.62221 106.952C7.62221 107.735 7.62221 108.495 7.62221 109.347C7.00028 109.393 6.40139 109.416 5.68732 109.462C5.68732 110.407 5.68732 111.305 5.68732 112.226L5.73339 112.18Z" fill="#FFFFFF"/>
<path d="M5.73339 38.7009C4.69685 38.7009 3.68335 38.7009 2.64681 38.6779L2.69287 38.724C2.69287 37.9408 2.69287 37.1346 2.69287 36.2593C2.00184 36.2132 1.35689 36.1902 0.642822 36.1441C0.642822 35.3379 0.642822 34.5778 0.642822 33.7025C1.31082 33.7025 1.97881 33.7025 2.73894 33.7025C2.73894 32.7581 2.73894 31.9289 2.73894 31.1227L2.71591 31.1457C3.72942 31.1457 4.74293 31.1457 5.75644 31.1457L5.71037 31.1227C5.71037 31.9289 5.71037 32.712 5.71037 33.6104C6.37836 33.6564 7.00028 33.7025 7.69131 33.7486C7.69131 34.5548 7.69131 35.3149 7.69131 36.1672C7.06938 36.1902 6.49353 36.2363 5.73339 36.2593C5.73339 37.0885 5.73339 37.9178 5.73339 38.747L5.73339 38.7009Z" fill="#FFFFFF"/>
<path d="M5.71041 80.6694C4.6969 80.6694 3.68339 80.6464 2.66988 80.6464L2.71595 80.6694C2.71595 79.8632 2.71595 79.0801 2.71595 78.1587C2.04796 78.1126 1.37996 78.0896 0.665894 78.0435C0.665894 77.2373 0.665894 76.4772 0.665894 75.6249C1.31085 75.6249 1.93279 75.6249 2.60078 75.6249C2.92326 74.7266 2.78505 73.8974 2.73898 73.0681L2.69291 73.1142C3.70642 73.1142 4.74297 73.1142 5.75648 73.1142L5.73344 73.0912C5.73344 73.8974 5.73344 74.6805 5.73344 75.5328C6.4475 75.5789 7.02336 75.6019 7.69135 75.648C7.69135 76.4542 7.69135 77.2143 7.69135 78.0666C7.04639 78.1126 6.44751 78.1357 5.71041 78.1817C5.71041 79.034 5.71041 79.8863 5.71041 80.7155L5.71041 80.6694Z" fill="#FFFFFF"/>
<path d="M5.71038 91.2651C4.78901 91.2651 3.89066 91.2651 2.80805 91.2651C2.80805 90.3668 2.80805 89.5836 2.80805 88.7314C2.02489 88.6853 1.40297 88.6623 0.688908 88.6392C0.481599 87.833 0.619799 87.0498 0.596765 86.1745C1.31083 86.1285 1.93275 86.1054 2.69288 86.0594C2.73895 85.2532 2.76198 84.47 2.80805 83.6408C3.77549 83.6408 4.67383 83.6408 5.66431 83.6408C5.66431 84.447 5.66431 85.2071 5.66431 86.0363C6.35534 86.0824 6.93119 86.1285 7.62222 86.1976C7.62222 86.9807 7.62222 87.7409 7.62222 88.6162C7.04637 88.6623 6.47051 88.7083 5.73341 88.7544C5.71037 89.6067 5.68735 90.4589 5.64128 91.3342L5.71038 91.2651Z" fill="#FFFFFF"/>
<path d="M2.71591 28.1512C2.71591 27.368 2.71591 26.5849 2.71591 25.7326C2.00185 25.6865 1.35689 25.6635 0.642822 25.6174C0.642822 24.7882 0.642822 24.028 0.642822 23.1527C1.31082 23.1527 1.93273 23.1527 2.69287 23.1527C2.73893 22.2774 2.78501 21.5173 2.83108 20.642C3.82155 20.619 4.76595 20.5959 5.68732 20.5499L5.64127 20.5038C5.64127 21.333 5.64127 22.1623 5.64127 23.0376C6.35533 23.0836 6.95422 23.1297 7.62221 23.1527C7.62221 23.982 7.62221 24.7421 7.62221 25.5944C6.97725 25.6404 6.37836 25.6635 5.66429 25.7095C5.66429 26.5618 5.66429 27.345 5.66429 28.1281L5.68732 28.1051C4.67381 28.1051 3.66032 28.1051 2.64681 28.1051L2.71591 28.1512Z" fill="#FFFFFF"/>
<path d="M2.69287 7.3974C2.69287 6.63727 2.69287 5.87714 2.69287 4.9788C2.02487 4.95577 1.35689 4.9097 0.642822 4.88666C0.642822 4.05743 0.642822 3.2973 0.642822 2.39896C1.31082 2.39896 1.9788 2.39896 2.69287 2.39896C2.73893 1.73097 2.785 1.22421 2.80804 0.62532C3.72941 0.418011 4.62775 0.533184 5.61822 0.533184C5.66429 1.13208 5.71037 1.68489 5.75644 2.30682C6.37836 2.35289 6.97724 2.37592 7.64524 2.42199C7.64524 3.22819 7.64524 3.98832 7.64524 4.86363C7.04635 4.9097 6.44746 4.93273 5.71037 4.9788C5.71037 5.80803 5.71037 6.5912 5.71037 7.3974L5.73339 7.37436C4.69685 7.37436 3.68335 7.37436 2.64681 7.37436C2.64681 7.37436 2.69287 7.3974 2.69287 7.3974Z" fill="#FFFFFF"/>
<path d="M5.66427 114.714C5.66427 115.589 5.66427 116.442 5.66427 117.363C4.69683 117.363 3.79849 117.363 2.83105 117.363C2.83105 116.511 2.83105 115.751 2.83105 114.898C3.82153 114.852 4.76593 114.806 5.6873 114.783L5.66427 114.714Z" fill="#FFFFFF"/>
<path d="M2.71591 31.1227C2.04791 31.1227 1.35689 31.1227 0.642822 31.1227C0.642822 30.1322 0.642822 29.2339 0.642822 28.2664C1.37992 28.2204 2.04791 28.1973 2.71591 28.1513L2.66984 28.1282C2.66984 29.1417 2.66984 30.1553 2.66984 31.1688L2.71591 31.1227Z" fill="#FFFFFF"/>
<path d="M5.68738 28.1512C6.28627 28.1743 6.88516 28.2203 7.57619 28.2434C7.87564 29.1647 7.66834 30.0861 7.71441 31.1227C6.97731 31.1227 6.33235 31.1227 5.71042 31.1227L5.75649 31.1457C5.75649 30.1322 5.75649 29.1187 5.75649 28.1052C5.71042 28.1282 5.68738 28.1512 5.68738 28.1512Z" fill="#FFFFFF"/>
<path d="M5.68738 80.6925C6.33234 80.6925 6.95427 80.6925 7.66834 80.6925C7.66834 81.6138 7.66834 82.4891 7.66834 83.4335C7.04641 83.4335 6.47055 83.4335 5.73345 83.4335C5.73345 82.5352 5.73345 81.5908 5.73345 80.6694L5.68738 80.6925Z" fill="#FFFFFF"/>
<path d="M2.66988 80.6464C2.66988 81.5448 2.66988 82.4661 2.66988 83.4566C2.04795 83.4566 1.40299 83.4566 0.665894 83.4566C0.665894 82.5813 0.665894 81.706 0.665894 80.6925C1.33389 80.6925 2.02491 80.6925 2.69291 80.6925L2.66988 80.6464Z" fill="#FFFFFF"/>
<path d="M2.64685 112.18C2.69292 113.009 2.73898 113.839 2.78505 114.737C2.02492 114.737 1.37996 114.737 0.665894 114.737C0.665894 113.977 0.665894 113.194 0.665894 112.318C1.33389 112.295 2.00188 112.249 2.69291 112.226C2.69291 112.203 2.64685 112.18 2.64685 112.18Z" fill="#FFFFFF"/>
<path d="M5.68734 18.0162C6.3323 18.0162 6.95422 18.0162 7.64525 18.0162C7.64525 18.8915 7.64525 19.6286 7.64525 20.4578C6.97726 20.6191 6.3323 20.573 5.66431 20.5039L5.71038 20.55C5.71038 19.6977 5.73341 18.8454 5.73341 17.9932L5.68734 18.0162Z" fill="#FFFFFF"/>
<path d="M5.68738 49.3659C6.33234 49.3659 6.95426 49.3659 7.64529 49.3659C7.64529 50.2412 7.64529 51.0013 7.64529 51.8536C6.95426 51.8536 6.3093 51.8536 5.68738 51.8536L5.73345 51.8997C5.73345 51.0474 5.73345 50.1951 5.73345 49.3429L5.68738 49.3659Z" fill="#FFFFFF"/>
<path d="M5.68738 59.9615C6.33234 59.9615 6.95426 59.9615 7.64529 59.9615C7.64529 60.8138 7.64529 61.5739 7.64529 62.4723C6.95426 62.4723 6.3093 62.4723 5.68738 62.4723L5.71042 62.4953C5.71042 61.643 5.71042 60.7908 5.71042 59.9385L5.68738 59.9615Z" fill="#FFFFFF"/>
<path d="M2.71598 73.0681C2.07102 73.0681 1.42606 73.0681 0.688965 73.0681C0.688965 72.1928 0.688965 71.4097 0.688965 70.5574C1.31089 70.5574 1.95585 70.5574 2.64688 70.5574C2.85419 71.3866 2.80811 72.2389 2.66991 73.1142L2.71598 73.0681Z" fill="#FFFFFF"/>
<path d="M2.71591 62.4492C2.04791 62.4492 1.37992 62.4492 0.642822 62.4492C0.642822 61.5969 0.642822 60.8598 0.642822 59.9385C1.33385 59.9385 2.02488 59.9385 2.71591 59.9385L2.69287 59.9154C2.69287 60.7677 2.69287 61.62 2.69287 62.4722L2.71591 62.4492Z" fill="#FFFFFF"/>
<path d="M2.71598 93.7988C2.07102 93.7988 1.42606 93.7988 0.688965 93.7988C0.688965 92.9235 0.688965 92.1404 0.688965 91.2881C1.31089 91.2881 1.95585 91.2881 2.64688 91.2881C2.85419 92.1173 2.80811 92.9696 2.66991 93.8449L2.71598 93.7988Z" fill="#FFFFFF"/>
<path d="M2.71591 51.8536C2.04791 51.8536 1.37992 51.8536 0.642822 51.8536C0.642822 51.0013 0.642822 50.2181 0.642822 49.3428C1.37992 49.3428 2.04791 49.3428 2.71591 49.3428L2.69287 49.3198C2.69287 50.172 2.69287 51.0243 2.69287 51.8766L2.71591 51.8536Z" fill="#FFFFFF"/>
<path d="M2.64685 38.7009C2.69292 39.5301 2.73898 40.3363 2.78505 41.2347C2.02492 41.2347 1.37996 41.2347 0.665894 41.2347C0.665894 40.4745 0.665894 39.6914 0.665894 38.8391C1.33389 38.8161 2.02491 38.77 2.69291 38.747C2.69291 38.7239 2.64685 38.7009 2.64685 38.7009Z" fill="#FFFFFF"/>
<path d="M2.64685 7.37434C2.69292 8.20358 2.73898 9.03282 2.78505 9.93115C2.02492 9.93115 1.40299 9.93115 0.665894 9.93115C0.665894 9.17102 0.665894 8.41089 0.665894 7.55862C1.33389 7.51255 2.02491 7.46648 2.69291 7.42042C2.69291 7.39738 2.64685 7.37434 2.64685 7.37434Z" fill="#FFFFFF"/>
<path d="M2.66988 17.9701C2.71595 18.7994 2.73898 19.6286 2.78505 20.5039C2.02492 20.5039 1.37996 20.5039 0.665894 20.5039C0.665894 19.6977 0.665894 18.9376 0.665894 17.9932C1.35692 17.9932 2.02492 17.9932 2.71595 17.9932C2.69292 18.0162 2.66988 17.9701 2.66988 17.9701Z" fill="#FFFFFF"/>
<path d="M5.68734 114.76C5.71037 113.908 5.71037 113.056 5.73341 112.18L5.71038 112.203C6.30927 112.203 6.90816 112.203 7.62222 112.203C7.62222 113.079 7.62222 113.839 7.62222 114.691C7.0003 114.829 6.3323 114.852 5.66431 114.691L5.68734 114.76Z" fill="#FFFFFF"/>
<path d="M5.73341 93.8449C5.73341 92.9926 5.71038 92.1404 5.71038 91.2651L5.66431 91.3111C6.28623 91.2881 6.93119 91.242 7.62222 91.196C7.62222 92.0713 7.62222 92.8544 7.62222 93.7067C6.93119 93.7297 6.30926 93.7758 5.68734 93.7988L5.73341 93.8449Z" fill="#FFFFFF"/>
<path d="M5.73341 73.1142C5.73341 72.2619 5.71038 71.4097 5.71038 70.5344L5.66431 70.5804C6.28623 70.5574 6.93119 70.5113 7.62222 70.4653C7.62222 71.3406 7.62222 72.1237 7.62222 72.976C6.93119 72.999 6.30926 73.0451 5.68734 73.0681C5.71037 73.0681 5.73341 73.1142 5.73341 73.1142Z" fill="#FFFFFF"/>
<path d="M5.68734 38.747C6.28623 38.747 6.88513 38.747 7.59919 38.747C7.59919 39.5993 7.59919 40.3594 7.59919 41.2347C6.97727 41.3729 6.30927 41.3499 5.66431 41.2347L5.71038 41.2808C5.73341 40.4285 5.73342 39.5762 5.75645 38.7239C5.73342 38.7009 5.68734 38.747 5.68734 38.747Z" fill="#FFFFFF"/>
<path d="M5.68734 9.95409C5.71037 9.10182 5.71037 8.22652 5.73341 7.37425L5.71038 7.39729C6.30927 7.44335 6.90816 7.48942 7.55312 7.53549C7.85257 8.34169 7.64525 9.10182 7.69132 10.0232C6.93119 9.97712 6.28623 9.95409 5.66431 9.90802L5.68734 9.95409Z" fill="#FFFFFF"/>
<path d="M5.75647 101.815C6.4475 101.815 7.00032 101.815 7.62224 101.815C7.62224 102.621 7.62224 103.358 7.62224 104.188C6.97728 104.188 6.40143 104.188 5.75647 104.188C5.75647 103.404 5.75647 102.644 5.75647 101.815Z" fill="#FFFFFF"/>
<path d="M2.71595 101.838C2.71595 102.621 2.71595 103.335 2.71595 104.164C2.04796 104.164 1.40299 104.164 0.665894 104.164C0.665894 103.404 0.665894 102.667 0.665894 101.838C1.31085 101.838 1.95582 101.838 2.71595 101.838Z" fill="#FFFFFF"/>
</svg>
