<svg width="8" height="118" viewBox="0 0 8 118" fill="none" xmlns="http://www.w3.org/2000/svg">
<path d="M7.82448 48.5135C7.11041 48.5135 6.37332 48.5135 5.52105 48.5135C5.52105 47.6613 5.52105 46.8781 5.52105 46.0258C4.50754 46.0258 3.65527 46.0258 2.68783 46.0258C2.64176 46.832 2.61873 47.6152 2.57266 48.4675C1.9277 48.4675 1.35183 48.4675 0.660803 48.4675C0.660803 47.6152 0.660803 46.786 0.660803 45.8646C1.25969 45.8185 1.81252 45.7494 2.43445 45.7034C2.43445 44.9663 2.43445 44.2522 2.43445 43.4921C1.83556 43.423 1.25971 43.3539 0.614746 43.2848C0.614746 42.3173 0.614746 41.396 0.614746 40.3824C1.28274 40.3824 1.85859 40.3824 2.59569 40.3824C2.59569 41.3038 2.59569 42.1791 2.59569 43.1235C3.58616 43.1235 4.43844 43.1235 5.45195 43.1235C5.45195 42.2482 5.45195 41.3499 5.45195 40.2673C6.35028 40.3364 7.08737 40.4055 7.8475 40.4515C7.8475 41.3729 7.8475 42.2943 7.8475 43.2157C7.11041 43.3078 6.39634 43.3999 5.65925 43.5151C5.65925 44.2983 5.65925 44.9893 5.65925 45.6573C6.44241 45.7725 7.13344 45.8876 7.8475 46.0028C7.82447 46.832 7.82448 47.6613 7.82448 48.5135Z" fill="#FFFFFF"/>
<path d="M7.82445 101.493C7.11038 101.493 6.37328 101.493 5.54405 101.493C5.49798 100.617 5.45192 99.8341 5.40585 98.9818C4.48448 98.9818 3.63221 98.9818 2.64173 98.9818C2.59566 99.788 2.57263 100.594 2.52656 101.423C1.8816 101.423 1.30575 101.423 0.614718 101.423C0.614718 100.571 0.614718 99.7189 0.614718 98.7975C1.21361 98.7515 1.76642 98.7054 2.38835 98.6593C2.38835 97.784 2.38835 96.9778 2.38835 96.0565C1.83552 96.0104 1.25967 95.9643 0.591675 95.8952C0.591675 95.066 0.591675 94.2368 0.591675 93.3384C1.2136 93.3384 1.78946 93.3384 2.50352 93.3384C2.54959 94.0985 2.57262 94.8587 2.61869 95.7109C3.54006 95.7109 4.4384 95.7109 5.3828 95.7109C5.42887 94.9047 5.45191 94.1676 5.49798 93.3614C6.30418 93.2232 7.06431 93.085 7.77838 93.4536C7.77838 94.3059 7.77838 95.1351 7.77838 95.9874C7.06431 95.9874 6.35026 95.9874 5.56709 95.9874C5.56709 96.9548 5.56709 97.784 5.56709 98.7515C6.32722 98.7515 7.06431 98.7515 7.77838 98.7515C7.82445 99.6498 7.82445 100.571 7.82445 101.493Z" fill="#FFFFFF"/>
<path d="M7.82445 69.7051C7.11038 69.7281 6.37329 69.7742 5.52102 69.7972C5.52102 68.8298 5.52102 67.9775 5.52102 67.0101C4.50751 67.0101 3.6322 67.0101 2.59566 67.0101C2.59566 67.9084 2.59566 68.7837 2.59566 69.7051C1.85856 69.7051 1.25968 69.7051 0.614718 69.7051C0.614718 68.7146 0.614718 67.7933 0.614718 66.8258C1.25968 66.7567 1.83553 66.7106 2.43442 66.6415C2.43442 65.9044 2.43442 65.2365 2.43442 64.4533C1.83553 64.3842 1.25967 64.292 0.591675 64.2229C0.591675 63.3476 0.591675 62.5414 0.591675 61.6661C1.25967 61.6661 1.85856 61.6661 2.54959 61.6661C2.59566 62.4723 2.61869 63.2325 2.66476 64.0617C3.5631 64.0617 4.4384 64.0617 5.42888 64.0617C5.42888 63.3246 5.42888 62.5414 5.42888 61.6201C6.32721 61.6201 7.06432 61.6201 7.82445 61.6201C7.82445 62.4723 7.82445 63.3016 7.82445 64.1538C7.08735 64.246 6.37329 64.3381 5.63619 64.4533C5.63619 65.2365 5.63619 65.9275 5.63619 66.5955C6.41936 66.7106 7.11038 66.8258 7.82445 66.941C7.82445 67.8624 7.82445 68.7837 7.82445 69.7051Z" fill="#FFFFFF"/>
<path d="M5.52105 14.2155C4.59968 14.2616 3.70133 14.3077 2.66479 14.3538C2.61872 15.183 2.57265 15.9662 2.54962 16.8184C1.90466 16.8184 1.30577 16.8184 0.614746 16.8184C0.614746 15.9662 0.614746 15.1369 0.614746 14.2386C1.23667 14.1925 1.78949 14.1695 2.43445 14.1234C2.43445 13.2481 2.43445 12.4419 2.43445 11.4975C1.88162 11.4514 1.3288 11.4054 0.660803 11.3363C0.660804 10.461 0.660804 9.63173 0.660804 8.71036C1.28273 8.71036 1.83556 8.71036 2.54962 8.71036C2.59569 9.49352 2.64176 10.2537 2.68783 11.129C3.58617 11.129 4.43843 11.129 5.4289 11.129C5.47497 10.3688 5.52105 9.58566 5.56712 8.66428C6.35028 8.66428 7.11041 8.66428 7.8475 8.66428C7.8475 9.51655 7.8475 10.3458 7.8475 11.1981C7.11041 11.3132 6.39634 11.4284 5.54408 11.5666C5.52104 12.4649 5.52105 13.3402 5.52105 14.2155Z" fill="#FFFFFF"/>
<path d="M5.52102 77.5598C4.55358 77.5829 3.5631 77.5829 2.59566 77.6059C2.54959 77.5829 2.52656 77.5368 2.48049 77.5138C2.48049 76.7536 2.48049 75.9935 2.48049 75.1412C1.85856 75.0721 1.2827 75.003 0.591675 74.9339C0.591675 74.0816 0.591675 73.2524 0.591675 72.3771C1.25967 72.3771 1.85857 72.3771 2.52656 72.3771C2.57263 73.1833 2.61869 73.9434 2.66476 74.7727C3.58613 74.7727 4.43841 74.7727 5.40585 74.7727C5.45192 74.0125 5.47495 73.2294 5.52102 72.4001C6.35025 72.2619 7.08734 72.1468 7.80141 72.4923C7.80141 73.3446 7.80141 74.1738 7.80141 75.0261C7.06431 75.0491 6.32721 75.0721 5.49798 75.0952C5.52101 75.9705 5.52102 76.7767 5.52102 77.5598Z" fill="#FFFFFF"/>
<path d="M7.82443 112.088C7.11036 112.088 6.3963 112.088 5.521 112.088C5.521 111.075 5.521 110.084 5.521 109.094C6.28113 109.094 7.06429 109.094 7.82443 109.094C7.82443 110.084 7.82443 111.098 7.82443 112.088Z" fill="#FFFFFF"/>
<path d="M7.82443 37.6875C7.08733 37.7566 6.35023 37.8027 5.521 37.8948C5.521 36.8583 5.521 36.006 5.521 35.1538C6.28113 35.1538 7.06429 35.1538 7.82443 35.1538C7.82443 36.006 7.82443 36.8353 7.82443 37.6875Z" fill="#FFFFFF"/>
<path d="M5.49805 14.1924C6.25818 14.1924 7.04134 14.1924 7.80148 14.1924C7.80148 15.0447 7.80148 15.8739 7.80148 16.7262C7.06438 16.7953 6.32728 16.8414 5.49805 16.9105C5.49805 15.897 5.49805 15.0447 5.49805 14.1924Z" fill="#FFFFFF"/>
<path d="M5.49805 22.0241C5.49805 21.1949 5.49805 20.3656 5.49805 19.5134C6.28121 19.237 7.04134 19.26 7.80148 19.4903C7.80148 20.3426 7.80148 21.1718 7.80148 22.0241C7.04134 22.0241 6.28121 22.0241 5.49805 22.0241Z" fill="#FFFFFF"/>
<path d="M7.82447 117.156C7.08737 117.225 6.35027 117.294 5.54407 117.363C5.54407 116.373 5.54407 115.566 5.54407 114.622C6.32723 114.622 7.08737 114.622 7.82447 114.622C7.82447 115.474 7.82447 116.303 7.82447 117.156Z" fill="#FFFFFF"/>
<path d="M7.82443 53.5811C7.06429 53.5811 6.28113 53.5811 5.521 53.5811C5.521 52.7518 5.521 51.9456 5.521 51.0473C6.35023 51.0473 7.08733 51.0473 7.82443 51.0473C7.82443 51.8996 7.82443 52.7288 7.82443 53.5811Z" fill="#FFFFFF"/>
<path d="M5.49805 56.5756C6.25818 56.5756 7.04134 56.5756 7.80148 56.5756C7.80148 57.4279 7.80148 58.2571 7.80148 59.1094C7.06438 59.1094 6.32728 59.1094 5.49805 59.1094C5.49805 58.211 5.49805 57.3818 5.49805 56.5756Z" fill="#FFFFFF"/>
<path d="M5.49805 77.5367C6.25818 77.5367 7.04134 77.5367 7.80148 77.5367C7.80148 78.389 7.80148 79.2182 7.80148 80.0705C7.06438 80.0705 6.32728 80.0705 5.49805 80.0705C5.49805 79.1722 5.49805 78.3429 5.49805 77.5367Z" fill="#FFFFFF"/>
<path d="M5.49805 85.5988C5.49805 84.7695 5.49805 83.9403 5.49805 83.065C6.32728 83.065 7.06439 83.065 7.82452 83.065C7.82452 83.9173 7.82452 84.7465 7.82452 85.5988C7.04135 85.5988 6.28121 85.5988 5.49805 85.5988Z" fill="#FFFFFF"/>
<path d="M5.49805 88.1324C6.25818 88.1324 7.04134 88.1324 7.80148 88.1324C7.80148 88.9847 7.80148 89.8139 7.80148 90.6662C7.08741 90.6892 6.37335 90.7353 5.49805 90.7814C5.49805 89.837 5.49805 88.9847 5.49805 88.1324Z" fill="#FFFFFF"/>
<path d="M5.49805 106.56C5.49805 105.731 5.49805 104.902 5.49805 104.026C6.32728 104.026 7.06439 104.026 7.82452 104.026C7.82452 104.879 7.82452 105.708 7.82452 106.56C7.04135 106.56 6.28121 106.56 5.49805 106.56Z" fill="#FFFFFF"/>
<path d="M7.82443 32.6199C7.06429 32.6199 6.28113 32.6199 5.521 32.6199C5.521 31.7907 5.521 30.9845 5.521 30.0862C6.35023 30.0862 7.08733 30.0862 7.82443 30.0862C7.82443 30.9384 7.82443 31.7677 7.82443 32.6199Z" fill="#FFFFFF"/>
<path d="M7.82452 27.0917C7.11046 27.0917 6.39638 27.0917 5.49805 27.0917C5.49805 26.2394 5.49805 25.3871 5.49805 24.5579C6.28121 24.5579 7.04135 24.5579 7.82452 24.5579C7.82452 25.4102 7.82452 26.2394 7.82452 27.0917Z" fill="#FFFFFF"/>
<path d="M7.82452 6.13055C7.11046 6.13055 6.39638 6.13055 5.49805 6.13055C5.49805 5.27829 5.49805 4.42602 5.49805 3.59678C6.28121 3.59678 7.04135 3.59678 7.82452 3.59678C7.82452 4.44905 7.82452 5.27829 7.82452 6.13055Z" fill="#FFFFFF"/>
<path d="M7.82443 1.06299C7.06429 1.06299 6.28113 1.06299 5.521 1.06299C5.54403 0.85568 5.54403 0.648371 5.56707 0.37196C6.37327 0.37196 7.08733 0.37196 7.82443 0.37196C7.82443 0.602302 7.82443 0.832645 7.82443 1.06299Z" fill="#FFFFFF"/>
<path d="M5.52109 22.0242C5.52109 22.8765 5.52109 23.7287 5.52109 24.581C4.55365 24.604 3.56317 24.604 2.59573 24.6271C2.54966 24.604 2.52663 24.558 2.48056 24.5349C2.48056 23.7748 2.48056 23.0147 2.48056 22.1394C1.88167 22.0933 1.30581 22.0703 0.637817 22.0012C0.637817 21.1719 0.637817 20.3657 0.637817 19.4444C1.25974 19.4444 1.85863 19.4444 2.59573 19.4444C2.59573 20.2736 2.59573 21.0107 2.59573 21.886C3.63228 21.909 4.57668 21.9781 5.52109 22.0242Z" fill="#FFFFFF"/>
<path d="M5.52102 32.6199C5.52102 33.4721 5.52102 34.3244 5.52102 35.1767C4.59965 35.2227 3.7013 35.2688 2.66476 35.3149C2.61869 36.1211 2.57263 36.9042 2.52656 37.7795C1.8816 37.7795 1.2827 37.7795 0.591675 37.7795C0.591675 36.9273 0.591675 36.098 0.591675 35.1997C1.2136 35.1536 1.76643 35.1306 2.45746 35.0845C2.45746 34.2553 2.45746 33.4721 2.45746 32.6659C2.50353 32.6199 2.52656 32.5968 2.57263 32.5738C3.56311 32.5738 4.55358 32.5968 5.52102 32.6199Z" fill="#FFFFFF"/>
<path d="M5.521 53.581C5.521 54.5945 5.521 55.585 5.521 56.5985C4.55356 56.6216 3.56308 56.6216 2.59564 56.6446C2.54957 56.6216 2.52654 56.5755 2.48047 56.5525C2.48047 55.585 2.48047 54.6176 2.48047 53.6501C2.52654 53.6041 2.54957 53.581 2.59564 53.558C3.56308 53.535 4.55356 53.558 5.521 53.581Z" fill="#FFFFFF"/>
<path d="M5.52107 1.0629C5.52107 1.91517 5.52107 2.76744 5.52107 3.61971C4.55363 3.64274 3.56315 3.64274 2.59571 3.66577C2.54964 3.64274 2.52661 3.59667 2.48054 3.57364C2.48054 2.8135 2.48054 2.05338 2.48054 1.22414C2.15806 1.17807 1.85861 1.132 1.5822 1.132C1.32882 1.10897 1.05241 1.132 0.752969 1.132C0.683866 0.924691 0.637791 0.763454 0.545654 0.487042C1.19061 0.487042 1.72041 0.487042 2.41144 0.487042C2.48054 0.556145 2.64177 0.763455 2.84908 0.970764C3.70135 0.970764 4.62273 1.01683 5.52107 1.0629Z" fill="#FFFFFF"/>
<path d="M5.521 85.5987C5.521 86.4509 5.521 87.3032 5.521 88.1555C4.55356 88.1785 3.56308 88.1785 2.59564 88.2015C2.54957 88.1785 2.52654 88.1324 2.48047 88.1094C2.48047 87.3032 2.48047 86.474 2.48047 85.6678C2.52654 85.6217 2.54957 85.5987 2.59564 85.5756C3.56308 85.5526 4.55356 85.5756 5.521 85.5987Z" fill="#FFFFFF"/>
<path d="M5.521 106.56C5.521 107.412 5.521 108.265 5.521 109.117C4.55356 109.14 3.56308 109.14 2.59564 109.163C2.54957 109.14 2.52654 109.094 2.48047 109.071C2.48047 108.265 2.48047 107.435 2.48047 106.629C2.52654 106.583 2.54957 106.56 2.59564 106.537C3.56308 106.514 4.55356 106.537 5.521 106.56Z" fill="#FFFFFF"/>
<path d="M2.59566 109.163C2.59566 110.107 2.59566 111.052 2.59566 112.065C1.85856 112.065 1.25967 112.065 0.591675 112.065C0.591675 111.052 0.591675 110.13 0.591675 109.071C1.25967 109.071 1.8816 109.071 2.48049 109.071C2.52656 109.094 2.54959 109.117 2.59566 109.163Z" fill="#FFFFFF"/>
<path d="M0.591675 117.248C0.591675 116.304 0.591675 115.52 0.591675 114.668C1.25967 114.668 1.85857 114.668 2.52656 114.668C2.52656 115.543 2.52656 116.35 2.52656 117.248C1.8816 117.248 1.2827 117.248 0.591675 117.248Z" fill="#FFFFFF"/>
<path d="M2.48049 106.606C1.8816 106.606 1.25967 106.606 0.591675 106.606C0.591675 105.708 0.591675 104.925 0.591675 104.049C1.23663 104.049 1.8125 104.049 2.57263 104.049C2.57263 104.855 2.59566 105.685 2.59566 106.514C2.54959 106.537 2.52656 106.56 2.48049 106.606Z" fill="#FFFFFF"/>
<path d="M2.59569 88.2017C2.59569 89.0079 2.59569 89.791 2.59569 90.6663C1.90466 90.6663 1.30577 90.6663 0.614746 90.6663C0.614746 89.8371 0.614746 89.0309 0.614746 88.1095C1.28274 88.1095 1.88163 88.1095 2.48052 88.1095C2.52659 88.1325 2.54962 88.1556 2.59569 88.2017Z" fill="#FFFFFF"/>
<path d="M2.48049 85.6449C1.8816 85.6449 1.25967 85.6449 0.591675 85.6449C0.591675 84.7466 0.591675 83.9634 0.591675 83.0881C1.23663 83.0881 1.8125 83.0881 2.57263 83.0881C2.57263 83.8943 2.59566 84.7235 2.59566 85.5528C2.54959 85.5758 2.52656 85.5988 2.48049 85.6449Z" fill="#FFFFFF"/>
<path d="M2.59569 77.5827C2.59569 78.3659 2.59569 79.1721 2.59569 80.0244C1.90466 80.0244 1.30577 80.0244 0.614746 80.0244C0.614746 79.1951 0.614746 78.3889 0.614746 77.4675C1.28274 77.4675 1.88163 77.4675 2.48052 77.4675C2.50355 77.5366 2.54962 77.5597 2.59569 77.5827Z" fill="#FFFFFF"/>
<path d="M2.59569 3.64282C2.59569 4.42598 2.59569 5.23218 2.59569 6.10748C1.90466 6.10748 1.30577 6.10748 0.614746 6.10748C0.614746 5.27825 0.614746 4.47205 0.614746 3.55068C1.28274 3.55068 1.88163 3.55068 2.48052 3.55068C2.50355 3.59674 2.54962 3.61978 2.59569 3.64282Z" fill="#FFFFFF"/>
<path d="M2.59569 56.6216C2.59569 57.4048 2.59569 58.211 2.59569 59.0632C1.90466 59.0632 1.30577 59.0632 0.614746 59.0632C0.614746 58.234 0.614746 57.4278 0.614746 56.5064C1.28274 56.5064 1.88163 56.5064 2.48052 56.5064C2.50355 56.5755 2.54962 56.5986 2.59569 56.6216Z" fill="#FFFFFF"/>
<path d="M2.48049 53.6272C1.8816 53.6272 1.2827 53.6272 0.591675 53.6272C0.591675 52.7289 0.591675 51.9457 0.591675 51.0934C1.2136 51.0934 1.8125 51.0934 2.57263 51.0934C2.57263 51.8996 2.59566 52.7058 2.59566 53.5351C2.54959 53.5581 2.52656 53.5811 2.48049 53.6272Z" fill="#FFFFFF"/>
<path d="M2.59569 24.6039C2.59569 25.3871 2.59569 26.1933 2.59569 27.0686C1.90466 27.0686 1.30577 27.0686 0.614746 27.0686C0.614746 26.2394 0.614746 25.4332 0.614746 24.5118C1.28274 24.5118 1.88163 24.5118 2.48052 24.5118C2.50355 24.5579 2.54962 24.5809 2.59569 24.6039Z" fill="#FFFFFF"/>
<path d="M2.48049 32.6659C1.8816 32.6659 1.2827 32.6659 0.591675 32.6659C0.591675 31.7676 0.591675 30.9844 0.591675 30.1321C1.2136 30.1321 1.8125 30.1321 2.57263 30.1321C2.57263 30.9383 2.59566 31.7445 2.59566 32.5738C2.54959 32.5968 2.52656 32.6198 2.48049 32.6659Z" fill="#FFFFFF"/>
</svg>
