<svg width="8" height="313" viewBox="0 0 8 313" fill="none" xmlns="http://www.w3.org/2000/svg">
<path d="M3.04541 245.785C2.99994 244.967 2.99994 244.194 2.95446 243.284C2.27231 243.284 1.63564 243.284 0.953491 243.284C0.953491 242.42 0.953491 241.647 0.953491 240.783C1.59016 240.783 2.22683 240.783 2.90898 240.783C2.90898 239.782 2.90898 238.873 2.90898 237.872C2.27231 237.827 1.63564 237.827 0.953491 237.781C0.953491 236.963 0.953491 236.19 0.953491 235.326C1.59016 235.326 2.22683 235.326 2.90898 235.326C2.90898 234.416 2.90898 233.643 2.90898 232.734C2.27231 232.734 1.63564 232.734 0.953491 232.734C0.953491 231.824 0.953491 231.051 0.953491 230.187C1.59016 230.187 2.22683 230.187 2.90898 230.187C2.90898 229.323 2.90898 228.504 2.90898 227.64C2.27231 227.64 1.63564 227.64 0.953491 227.64C0.953491 226.64 0.953491 225.73 0.953491 224.684C1.63564 224.684 2.31779 224.684 2.99994 224.684C2.99994 225.639 2.99994 226.594 2.99994 227.595C4.00042 227.595 4.95543 227.595 5.91044 227.595C5.91044 228.459 5.91044 229.277 5.91044 230.187C6.59259 230.187 7.13831 230.187 7.7295 230.187C7.7295 231.051 7.7295 231.915 7.7295 232.779C7.13831 232.779 6.54711 232.779 5.95592 232.779C5.95592 233.689 5.95592 234.553 5.95592 235.371C5.00091 235.371 4.00042 235.371 3.04541 235.371C3.04541 236.235 3.04541 237.008 3.04541 237.781C4.00042 237.781 4.90996 237.781 5.91044 237.781C5.91044 236.963 5.91044 236.144 5.91044 235.326C6.50164 235.326 7.09283 235.326 7.7295 235.326C7.7295 236.19 7.7295 237.054 7.7295 237.918C7.13831 237.918 6.54711 237.918 5.95592 237.918C5.95592 238.873 5.95592 239.782 5.95592 240.783C6.59259 240.783 7.13831 240.783 7.7295 240.783C7.7295 241.647 7.7295 242.511 7.7295 243.375C7.13831 243.375 6.54711 243.375 5.91044 243.375C5.91044 244.194 5.91044 245.012 5.91044 245.831C4.95543 245.785 4.00042 245.785 3.04541 245.785Z" fill="#FFFFFF"/>
<path d="M3.04541 130.911C3.04541 130.002 3.04541 129.047 3.04541 128.046C2.27231 128.046 1.63564 128.046 0.953491 128.046C0.953491 127.182 0.953491 126.364 0.953491 125.5C1.59016 125.5 2.22683 125.5 2.90898 125.5C2.90898 124.636 2.90898 123.817 2.90898 122.953C2.27231 122.953 1.63564 122.953 0.953491 122.953C0.953491 122.089 0.953491 121.316 0.953491 120.406C1.59016 120.406 2.22683 120.406 2.90898 120.406C2.90898 119.542 2.90898 118.769 2.90898 117.905C2.27231 117.905 1.63564 117.905 0.953491 117.905C0.953491 116.905 0.953491 115.95 0.953491 114.949C1.59016 114.949 2.22683 114.949 2.90898 114.949C2.95446 114.039 2.99994 113.266 2.99994 112.448C3.95495 112.448 4.90996 112.448 5.91044 112.448C5.91044 113.266 5.91044 114.085 5.91044 114.949C6.59259 114.904 7.18379 114.904 7.7295 114.858C7.7295 115.859 7.7295 116.859 7.7295 117.905C7.13831 117.905 6.54711 117.905 5.95592 117.905C5.95592 118.769 5.95592 119.542 5.95592 120.406C6.59259 120.361 7.13831 120.361 7.7295 120.315C7.7295 121.179 7.7295 122.043 7.7295 122.907C7.13831 122.907 6.54711 122.907 5.91044 122.907C5.91044 122.089 5.91044 121.316 5.91044 120.497C4.86448 120.497 3.95495 120.497 3.04541 120.497C3.04541 121.316 3.04541 122.134 3.04541 122.907C4.0459 122.907 5.00091 122.907 5.95592 122.907C5.95592 123.771 5.95592 124.636 5.95592 125.545C6.59259 125.545 7.18378 125.545 7.7295 125.545C7.7295 126.409 7.7295 127.273 7.7295 128.137C7.13831 128.137 6.54711 128.137 5.91044 128.137C5.91044 129.183 5.91044 130.093 5.91044 131.002C4.95543 130.866 4.00042 130.866 3.04541 130.911Z" fill="#FFFFFF"/>
<path d="M3.04541 91.6196C2.36326 91.6196 1.68112 91.6196 0.953491 91.6196C0.953491 90.6646 0.953491 89.755 0.953491 88.7545C1.59016 88.7545 2.22683 88.7545 2.90898 88.7545C2.90898 87.8905 2.90898 87.0719 2.90898 86.2079C2.27231 86.2079 1.63564 86.2079 0.953491 86.2079C0.953491 85.3438 0.953491 84.5252 0.953491 83.6612C1.59016 83.6612 2.22683 83.6612 2.90898 83.6612C2.90898 82.7971 2.90898 82.024 2.90898 81.1145C2.27231 81.1145 1.63564 81.1145 0.953491 81.1145C0.953491 80.2504 0.953491 79.4773 0.953491 78.6133C1.59016 78.6133 2.22683 78.6133 2.90898 78.6133C2.90898 77.7037 2.90898 76.9306 2.90898 76.0666C2.27231 76.0666 1.63564 76.0666 0.953491 76.0666C0.953491 75.0661 0.953491 74.1566 0.953491 73.1561C1.59016 73.1561 2.22683 73.1561 2.90898 73.1561C2.95446 72.2466 2.99994 71.428 2.99994 70.6094C3.95495 70.6094 4.90996 70.6094 5.91044 70.6094C5.91044 71.428 5.91044 72.292 5.91044 73.1106C6.59259 73.1561 7.18379 73.1561 7.7295 73.2015C7.7295 74.1566 7.7295 75.1116 7.7295 76.0666C7.13831 76.0666 6.54711 76.0666 5.91044 76.0666C5.91044 76.9761 5.91044 77.8402 5.91044 78.6587C4.95543 78.6587 4.00042 78.6587 3.04541 78.6587C3.04541 79.5228 3.04541 80.2959 3.04541 81.1145C4.0459 81.1145 4.95543 81.1145 5.91044 81.1145C5.91044 81.9785 5.91044 82.7971 5.91044 83.7066C6.59259 83.7066 7.13831 83.7066 7.7295 83.7066C7.7295 84.5707 7.7295 85.4348 7.7295 86.2988C7.13831 86.2988 6.54711 86.2988 5.91044 86.2988C5.91044 87.2083 5.91044 88.0724 5.91044 88.891C4.95543 88.891 4.00042 88.891 2.99994 88.891C3.04541 89.8005 3.04541 90.71 3.04541 91.6196Z" fill="#FFFFFF"/>
<path d="M3.04541 26.179C3.04541 25.3604 3.04541 24.5873 3.04541 23.6777C2.27231 23.6323 1.63564 23.6323 0.953491 23.5868C0.953491 22.6318 0.953491 21.7223 0.953491 20.7218C1.59016 20.7218 2.22683 20.7218 2.90898 20.7218C2.90898 19.8577 2.90898 19.0846 2.90898 18.1751C2.27231 18.1751 1.63564 18.1751 0.953491 18.1751C0.953491 17.2655 0.953491 16.4924 0.953491 15.6284C1.59016 15.6284 2.22683 15.6284 2.90898 15.6284C2.90898 14.7643 2.90898 13.9912 2.90898 13.1272C2.27231 13.1272 1.63564 13.1272 0.953491 13.1272C0.953491 12.2631 0.953491 11.49 0.953491 10.5805C1.59016 10.5805 2.22683 10.5805 2.90898 10.5805C2.95446 9.67093 2.99994 8.80689 2.99994 7.94283C3.95495 7.94283 4.90996 7.94283 5.91044 7.94283C5.91044 8.80689 5.91044 9.62547 5.91044 10.535C6.59259 10.535 7.18379 10.535 7.7295 10.535C7.7295 11.3991 7.7295 12.2631 7.7295 13.1272C7.13831 13.1272 6.54711 13.1272 5.95592 13.1272C5.95592 13.9912 5.95592 14.7643 5.95592 15.6284C6.59259 15.5829 7.13831 15.5829 7.7295 15.5374C7.7295 16.4015 7.7295 17.2655 7.7295 18.1296C7.13831 18.1296 6.54711 18.1296 5.91044 18.1296C5.91044 17.311 5.91044 16.5379 5.91044 15.7193C4.86448 15.7193 3.95495 15.7193 3.04541 15.7193C3.04541 16.5379 3.04541 17.3565 3.04541 18.1296C4.0459 18.1296 5.00091 18.1296 5.95592 18.1296C5.95592 18.9937 5.95592 19.8577 5.95592 20.7672C6.59259 20.7672 7.18378 20.7672 7.7295 20.7672C7.7295 21.7222 7.7295 22.6772 7.7295 23.6323C7.13831 23.6777 6.54711 23.6777 5.91044 23.7232C5.91044 24.5873 5.91044 25.4058 5.91044 26.2244C4.95543 26.1335 4.00042 26.1335 3.04541 26.179Z" fill="#FFFFFF"/>
<path d="M3.04536 46.9161C3.04536 46.0976 3.04536 45.279 3.04536 44.3695C2.27226 44.3695 1.63558 44.3695 0.953435 44.3695C0.953435 43.5054 0.953435 42.6868 0.953435 41.7773C1.59011 41.7773 2.27226 41.7773 2.95441 41.7773C2.95441 40.9132 2.95441 40.1401 2.95441 39.2761C2.27226 39.2761 1.63558 39.2761 0.953435 39.2761C0.953435 38.412 0.953435 37.6389 0.953435 36.7749C1.59011 36.7749 2.22678 36.7749 2.90893 36.7749C2.90893 35.7744 2.90893 34.8649 2.90893 33.8189C2.22678 33.8189 1.59011 33.8189 0.907959 33.8189C0.907959 32.9548 0.907959 32.1817 0.907959 31.3177C1.54463 31.3177 2.1813 31.3177 2.90893 31.3177C2.9544 30.4081 2.99988 29.5441 3.04536 28.7255C4.00037 28.7255 4.95538 28.7255 5.95586 28.7255C5.95586 29.5441 5.95586 30.4081 5.95586 31.3177C6.63801 31.3177 7.2292 31.3177 7.77492 31.3177C7.77492 32.1817 7.77492 33.0458 7.77492 33.9098C7.18373 33.9098 6.59253 33.9098 6.00134 33.9098C6.00134 34.9103 6.00134 35.8653 6.00134 36.8203C5.04633 36.8203 4.04584 36.8203 3.09083 36.8203C3.09083 37.6844 3.09083 38.4575 3.09083 39.2306C4.04584 39.2306 4.95538 39.2306 5.95586 39.2306C5.95586 38.412 5.95586 37.5934 5.95586 36.7749C6.54706 36.7749 7.13825 36.7749 7.77492 36.7749C7.77492 37.6389 7.77492 38.503 7.77492 39.367C7.18373 39.367 6.59253 39.367 6.00134 39.367C6.00134 40.1856 6.00134 40.9587 6.00134 41.7773C6.63801 41.7773 7.18373 41.7773 7.77492 41.7773C7.77492 42.6413 7.77492 43.5054 7.77492 44.3695C7.18373 44.3695 6.59253 44.3695 5.95586 44.3695C5.95586 45.3245 5.95586 46.143 5.95586 46.9616C4.95537 46.9161 4.00037 46.9161 3.04536 46.9161Z" fill="#FFFFFF"/>
<path d="M3.04541 164.701C2.36326 164.701 1.68112 164.701 0.953491 164.701C0.953491 163.882 0.953491 163.109 0.953491 162.199C1.59016 162.199 2.22683 162.199 2.90898 162.199C2.90898 161.335 2.90898 160.562 2.90898 159.698C2.27231 159.698 1.63564 159.698 0.953491 159.698C0.953491 158.698 0.953491 157.788 0.953491 156.742C1.59016 156.742 2.22683 156.742 2.90898 156.742C2.95446 155.833 2.99994 155.059 2.99994 154.241C3.95495 154.241 4.90996 154.241 5.91044 154.241C5.91044 155.059 5.91044 155.878 5.91044 156.742C6.59259 156.697 7.18379 156.697 7.7295 156.651C7.7295 157.652 7.7295 158.652 7.7295 159.698C7.13831 159.698 6.54711 159.698 5.95592 159.698C5.95592 160.562 5.95592 161.335 5.95592 162.199C6.59259 162.154 7.13831 162.154 7.7295 162.108C7.7295 162.972 7.7295 163.836 7.7295 164.701C7.13831 164.701 6.50164 164.701 5.91044 164.701C5.86496 163.882 5.86496 163.063 5.81949 162.245C4.819 162.245 3.95495 162.245 2.99994 162.245C3.04541 163.109 3.04541 163.927 3.04541 164.701Z" fill="#FFFFFF"/>
<path d="M3.04541 151.694C3.04541 150.876 3.04541 150.057 3.04541 149.147C2.27231 149.147 1.63564 149.147 0.953491 149.147C0.953491 148.283 0.953491 147.465 0.953491 146.601C1.59016 146.601 2.22683 146.601 2.90898 146.601C2.90898 145.737 2.90898 144.964 2.90898 144.1C2.27231 144.1 1.63564 144.1 0.953491 144.1C0.953491 143.054 0.953491 142.144 0.953491 141.098C1.63564 141.098 2.31779 141.098 3.04541 141.098C3.04541 142.053 3.04541 143.054 3.04541 144.009C4.0459 144.009 4.95543 144.009 5.95592 144.009C5.95592 143.008 5.95592 142.053 5.95592 141.098C6.54711 141.098 7.18378 141.098 7.77498 141.098C7.77498 142.099 7.77498 143.099 7.77498 144.145C7.18378 144.145 6.59259 144.145 6.00139 144.145C6.00139 144.964 6.00139 145.737 6.00139 146.555C6.63806 146.555 7.18378 146.555 7.77498 146.555C7.77498 147.419 7.77498 148.283 7.77498 149.147C7.18378 149.147 6.59259 149.147 5.95592 149.147C5.95592 150.102 5.95592 150.921 5.95592 151.74C4.95543 151.649 4.00042 151.649 3.04541 151.694Z" fill="#FFFFFF"/>
<path d="M3.04541 196.079C2.36326 196.079 1.68112 196.079 0.953491 196.079C0.953491 195.17 0.953491 194.397 0.953491 193.533C1.59016 193.533 2.18136 193.533 2.90898 193.533C2.90898 192.669 2.90898 191.85 2.90898 190.986C2.27231 190.986 1.63564 190.986 0.953491 190.986C0.953491 190.122 0.953491 189.303 0.953491 188.439C1.59016 188.439 2.22683 188.439 2.90898 188.439C2.90898 187.575 2.90898 186.802 2.90898 185.893C2.27231 185.893 1.63564 185.893 0.953491 185.893C0.953491 184.892 0.953491 183.983 0.953491 182.937C1.63564 182.937 2.31779 182.937 3.04541 182.937C3.04541 183.892 3.04541 184.847 3.04541 185.847C4.0459 185.847 5.00091 185.847 5.95592 185.847C5.95592 186.711 5.95592 187.53 5.95592 188.439C6.63807 188.439 7.18378 188.439 7.77498 188.439C7.77498 189.303 7.77498 190.167 7.77498 191.032C7.18378 191.032 6.59259 191.032 5.95592 191.032C5.95592 191.941 5.95592 192.805 5.95592 193.624C5.00091 193.624 4.0459 193.624 3.04541 193.624C3.04541 194.442 3.04541 195.261 3.04541 196.079Z" fill="#FFFFFF"/>
<path d="M3.04541 269.433C2.36326 269.433 1.68112 269.433 0.953491 269.433C0.953491 268.615 0.953491 267.842 0.953491 266.932C1.59016 266.932 2.22683 266.932 2.90898 266.932C2.90898 265.932 2.90898 264.977 2.90898 264.022C2.22683 264.022 1.63564 264.022 0.953491 264.022C0.953491 263.157 0.953491 262.384 0.953491 261.475C1.59016 261.475 2.22684 261.475 3.04541 261.475C3.04541 260.565 3.04541 259.792 3.04541 258.974C4.00042 258.974 4.95543 258.974 5.95592 258.974C5.95592 259.792 5.95592 260.611 5.95592 261.475C6.63807 261.429 7.22926 261.429 7.77498 261.384C7.77498 262.248 7.77498 263.112 7.77498 263.976C7.18378 263.976 6.59259 263.976 6.00139 263.976C6.00139 265.022 6.00139 265.932 6.00139 266.932C6.63806 266.887 7.18378 266.887 7.77498 266.841C7.77498 267.705 7.77498 268.569 7.77498 269.433C7.18378 269.433 6.54711 269.433 5.95592 269.433C5.91044 268.615 5.91044 267.796 5.86496 266.977C4.86448 266.977 4.00042 266.977 3.04541 266.977C3.04541 267.842 3.04541 268.66 3.04541 269.433Z" fill="#FFFFFF"/>
<path d="M3.04536 59.9225C2.36321 59.9225 1.68106 59.9225 0.953435 59.9225C0.953435 59.1039 0.953435 58.3308 0.953435 57.4213C1.59011 57.4213 2.27225 57.4213 2.90893 57.4213C2.90893 56.5573 2.90893 55.7842 2.90893 54.9201C2.22678 54.9201 1.59011 54.9201 0.907959 54.9201C0.907959 54.056 0.907959 53.2829 0.907959 52.4189C1.54463 52.4189 2.1813 52.4189 2.86345 52.4189C2.90893 51.5094 2.95441 50.6453 2.95441 49.7812C3.90941 49.7812 4.86442 49.7813 5.86491 49.7813C5.86491 50.6453 5.86491 51.4639 5.86491 52.3734C6.54705 52.3734 7.13825 52.3734 7.68397 52.3734C7.68397 53.2375 7.68397 54.1015 7.68397 54.9656C7.09277 54.9656 6.50158 54.9656 5.91038 54.9656C5.91038 55.8296 5.91038 56.6027 5.91038 57.4668C6.54706 57.4213 7.09277 57.4213 7.68397 57.3758C7.68397 58.2399 7.68397 59.104 7.68397 59.968C7.09277 59.968 6.4561 59.968 5.86491 59.968C5.81943 59.1494 5.81943 58.3308 5.77395 57.5123C4.77347 57.5123 3.90941 57.5123 2.95441 57.5123C3.04536 58.3763 3.04536 59.1494 3.04536 59.9225Z" fill="#FFFFFF"/>
<path d="M3.04541 300.812C2.36326 300.812 1.68112 300.812 0.953491 300.812C0.953491 299.902 0.953491 299.129 0.953491 298.22C1.59016 298.22 2.22683 298.22 2.90898 298.22C2.90898 297.31 2.90898 296.537 2.90898 295.673C2.27231 295.673 1.63564 295.673 0.953491 295.673C0.953491 294.673 0.953491 293.808 0.953491 292.808C1.59016 292.808 2.22683 292.808 2.90898 292.808C2.95446 291.898 2.99994 291.034 2.99994 290.17C3.95495 290.17 4.90996 290.17 5.91044 290.17C5.91044 291.034 5.91044 291.853 5.91044 292.763C6.59259 292.763 7.18379 292.763 7.7295 292.763C7.7295 293.718 7.7295 294.673 7.7295 295.628C7.13831 295.628 6.54711 295.628 5.91044 295.628C5.91044 296.583 5.91044 297.401 5.91044 298.22C4.95543 298.22 4.00042 298.22 2.99994 298.22C3.04541 299.175 3.04541 299.993 3.04541 300.812Z" fill="#FFFFFF"/>
<path d="M3.04541 280.029C2.36326 280.029 1.68112 280.029 0.953491 280.029C0.953491 279.074 0.953491 278.119 0.953491 277.119C1.59016 277.119 2.22683 277.119 2.90898 277.119C2.90898 276.254 2.90898 275.481 2.90898 274.572C2.27231 274.572 1.63564 274.572 0.953491 274.572C0.953491 273.662 0.953491 272.889 0.953491 272.025C1.59016 272.025 2.22683 272.025 2.90898 272.025C2.95446 271.116 2.99994 270.252 2.99994 269.388L2.95446 269.388C3.90947 269.388 4.86448 269.388 5.86496 269.388C5.86496 270.252 5.86496 271.07 5.86496 271.98C6.54711 271.98 7.13831 271.98 7.68402 271.98C7.68402 272.844 7.68402 273.708 7.68402 274.572C7.09283 274.572 6.50163 274.572 5.86496 274.572C5.86496 275.481 5.86496 276.345 5.86496 277.164C4.90995 277.164 3.95495 277.164 2.95446 277.164C3.04542 278.165 3.04541 279.12 3.04541 280.029Z" fill="#FFFFFF"/>
<path d="M3.04541 203.947C3.04541 203.174 3.04541 202.401 3.04541 201.491C2.31779 201.491 1.68112 201.491 0.953491 201.491C0.953491 200.581 0.953491 199.808 0.953491 198.944C1.59016 198.944 2.18136 198.944 2.90898 198.944C2.95446 197.944 2.99994 196.989 2.99994 196.034C3.95495 196.034 4.90996 196.034 5.91044 196.034C5.91044 196.989 5.91044 197.898 5.91044 198.899C6.59259 198.899 7.18379 198.899 7.7295 198.899C7.7295 199.763 7.7295 200.627 7.7295 201.491C7.13831 201.491 6.54711 201.491 5.95592 201.491C5.95592 202.355 5.95592 203.128 5.95592 203.901C6.59259 203.901 7.13831 203.901 7.7295 203.901C7.7295 204.765 7.7295 205.629 7.7295 206.493C7.13831 206.493 6.50164 206.493 5.91044 206.493C5.91044 205.675 5.91044 204.856 5.91044 203.901C4.86448 203.947 3.95495 203.947 3.04541 203.947Z" fill="#FFFFFF"/>
<path d="M3.04535 308.725C2.99987 307.815 2.99987 306.86 2.9544 305.86C2.27225 305.86 1.68105 305.86 0.998901 305.86C0.998901 304.996 0.998901 304.177 0.998901 303.313C1.63557 303.313 2.27225 303.313 2.9544 303.313C2.99987 302.404 3.04535 301.631 3.04535 300.812C4.00036 300.812 4.95537 300.812 5.95585 300.812C5.95585 301.631 5.95585 302.449 5.95585 303.268C6.638 303.268 7.2292 303.268 7.77491 303.268C7.77491 304.132 7.77491 304.996 7.77491 305.86C7.18372 305.86 6.59252 305.86 6.00133 305.86C6.00133 306.906 6.00133 307.815 6.00133 308.725C6.638 308.725 7.18372 308.725 7.77491 308.725C7.77491 309.589 7.77491 310.453 7.77491 311.317C7.18372 311.317 6.54705 311.317 5.95585 311.317C5.95585 310.499 5.95585 309.68 5.95585 308.725C4.86441 308.679 3.95488 308.679 3.04535 308.725Z" fill="#FFFFFF"/>
<path d="M3.04541 99.2142C3.04541 98.4411 3.04541 97.668 3.04541 96.7585C2.31779 96.7585 1.68112 96.7585 0.953491 96.7585C0.953491 95.849 0.953491 95.0759 0.953491 94.2118C1.59016 94.2118 2.18136 94.2118 2.90898 94.2118C2.95446 93.3023 2.99994 92.4382 3.04541 91.6196C4.00042 91.6196 4.95543 91.6196 5.95592 91.6196C5.95592 92.4382 5.95592 93.3023 5.95592 94.2118C6.63807 94.2118 7.22926 94.2118 7.77498 94.2118C7.77498 95.0759 7.77498 95.9399 7.77498 96.804C7.18378 96.804 6.59259 96.804 6.00139 96.804C6.00139 97.668 6.00139 98.4411 6.00139 99.2142C6.63806 99.2142 7.18378 99.2142 7.77498 99.2142C7.77498 100.078 7.77498 100.942 7.77498 101.806C7.18378 101.806 6.54711 101.806 5.95592 101.806C5.95592 100.988 5.95592 100.169 5.95592 99.2142C4.86448 99.2142 3.95495 99.2142 3.04541 99.2142Z" fill="#FFFFFF"/>
<path d="M3.04541 256.427C3.04541 255.608 3.04541 254.79 3.04541 253.88C2.27231 253.88 1.63564 253.88 0.953491 253.88C0.953491 252.88 0.953491 252.016 0.953491 251.015C1.59016 251.015 2.22683 251.015 2.90898 251.015C2.95446 250.106 2.99994 249.242 2.99994 248.377C3.95495 248.377 4.90996 248.377 5.91044 248.377C5.91044 249.242 5.91044 250.06 5.91044 250.97C6.59259 250.97 7.18378 250.97 7.7295 250.97C7.7295 251.925 7.7295 252.88 7.7295 253.835C7.13831 253.835 6.54711 253.835 5.91044 253.835C5.91044 254.79 5.91044 255.608 5.91044 256.427C4.95543 256.381 4.00042 256.381 3.04541 256.427Z" fill="#FFFFFF"/>
<path d="M3.04541 214.588C3.04541 213.77 3.04541 212.951 3.04541 212.042C2.27231 212.042 1.63564 212.042 0.953491 212.042C0.953491 211.041 0.953491 210.177 0.953491 209.177C1.59016 209.177 2.22683 209.177 2.90898 209.177C2.95446 208.267 2.99994 207.403 2.99994 206.539C3.95495 206.539 4.90996 206.539 5.91044 206.539C5.91044 207.403 5.91044 208.222 5.91044 209.131C6.59259 209.131 7.18378 209.131 7.7295 209.131C7.7295 210.086 7.7295 211.041 7.7295 211.996C7.13831 211.996 6.54711 211.996 5.91044 211.996C5.91044 212.951 5.91044 213.77 5.91044 214.588C4.95543 214.543 4.00042 214.543 3.04541 214.588Z" fill="#FFFFFF"/>
<path d="M3.04541 172.75C3.04541 171.84 3.04541 170.885 3.04541 169.885C2.27231 169.885 1.63564 169.885 0.953491 169.885C0.953491 169.021 0.953491 168.202 0.953491 167.338C1.59016 167.338 2.22683 167.338 2.90898 167.338C2.95446 166.429 2.99994 165.565 2.99994 164.701L2.95446 164.701C3.90947 164.701 4.86448 164.701 5.86496 164.701C5.86496 165.565 5.86496 166.383 5.86496 167.293C6.54711 167.293 7.13831 167.293 7.68402 167.293C7.68402 168.157 7.68402 169.021 7.68402 169.885C7.09283 169.885 6.50163 169.885 5.86496 169.885C5.86496 170.931 5.86496 171.84 5.86496 172.795C4.95543 172.704 4.00042 172.704 3.04541 172.75Z" fill="#FFFFFF"/>
<path d="M3.04541 109.856C3.04541 109.037 3.04541 108.219 3.04541 107.309C2.27231 107.309 1.63564 107.309 0.953491 107.309C0.953491 106.445 0.953491 105.626 0.953491 104.762C1.59016 104.762 2.22684 104.762 2.95446 104.762C2.99994 103.716 3.04541 102.761 3.04541 101.806C4.00042 101.806 4.95543 101.806 5.95592 101.806C5.95592 102.761 5.95592 103.716 5.95592 104.717C6.63807 104.717 7.22926 104.717 7.77498 104.717C7.77498 105.581 7.77498 106.445 7.77498 107.309C7.18378 107.309 6.59259 107.309 5.95592 107.309C5.95592 108.264 5.95592 109.083 5.95592 109.901C4.95543 109.81 4.00042 109.81 3.04541 109.856Z" fill="#FFFFFF"/>
<path d="M3.04535 68.0173C2.99987 67.1988 2.9544 66.3802 2.9544 65.4706C2.27225 65.4706 1.68105 65.4706 0.998901 65.4706C0.998901 64.6066 0.998901 63.8335 0.998901 62.9239C1.63557 62.9239 2.27225 62.9239 2.9544 62.9239C2.99987 61.878 3.04535 60.923 3.04535 59.968L2.99987 59.968C3.95488 59.968 4.90989 59.968 5.91038 59.968C5.91038 60.923 5.91038 61.9235 5.91038 62.9239C6.59252 62.8785 7.18372 62.8785 7.72944 62.833C7.72944 63.697 7.72944 64.5611 7.72944 65.4252C7.13824 65.4252 6.54705 65.4252 5.91037 65.4252C5.91037 66.3802 5.91037 67.1988 5.91037 68.0173C4.95537 67.9719 4.00036 67.9719 3.04535 68.0173C3.04535 68.0173 3.04535 67.9719 3.04535 68.0173Z" fill="#FFFFFF"/>
<path d="M3.04541 224.73C3.04541 223.911 3.04541 223.138 3.04541 222.228C2.27231 222.183 1.63564 222.183 0.953491 222.137C0.953491 221.319 0.953491 220.5 0.953491 219.636C1.59016 219.636 2.22683 219.636 2.90898 219.636C2.95446 218.727 2.99994 217.954 2.99994 217.135C3.95495 217.135 4.90996 217.135 5.91044 217.135C5.91044 217.954 5.91044 218.772 5.91044 219.636C6.59259 219.591 7.18378 219.591 7.7295 219.545C7.7295 220.409 7.7295 221.273 7.7295 222.137C7.13831 222.183 6.54711 222.183 5.91044 222.228C5.91044 223.092 5.91044 223.911 5.91044 224.73C4.95543 224.73 4.00042 224.73 3.04541 224.73Z" fill="#FFFFFF"/>
<path d="M3.04541 141.053C2.99994 140.234 2.99994 139.461 2.95446 138.551C2.27231 138.551 1.63564 138.551 0.953491 138.551C0.953491 137.687 0.953491 136.914 0.953491 136.05C1.59016 136.05 2.22684 136.05 2.95446 136.05C2.99994 135.141 3.04541 134.277 3.09089 133.458C4.0459 133.458 5.00091 133.458 6.00139 133.458C6.00139 134.277 6.00139 135.141 6.00139 136.05C6.68354 136.05 7.27474 136.05 7.82046 136.05C7.82046 136.914 7.82046 137.778 7.82046 138.642C7.22926 138.642 6.63806 138.642 6.00139 138.642C6.00139 139.461 6.00139 140.28 6.00139 141.098C4.95543 141.053 4.00042 141.053 3.04541 141.053Z" fill="#FFFFFF"/>
<path d="M3.04541 182.891C3.04541 182.073 3.04541 181.299 3.04541 180.39C2.27231 180.344 1.63564 180.344 0.953491 180.299C0.953491 179.48 0.953491 178.707 0.953491 177.843C1.59016 177.843 2.22683 177.843 2.90898 177.843C2.95446 176.934 2.99994 176.115 2.99994 175.297C3.95495 175.297 4.90996 175.297 5.91044 175.297C5.91044 176.115 5.91044 176.979 5.91044 177.798C6.59259 177.843 7.18378 177.843 7.7295 177.889C7.7295 178.707 7.7295 179.526 7.7295 180.299C7.13831 180.344 6.54711 180.344 5.91044 180.39C5.91044 181.254 5.91044 182.073 5.91044 182.891C4.95543 182.891 4.00042 182.891 3.04541 182.891Z" fill="#FFFFFF"/>
<path d="M3.04541 287.624C3.04541 286.805 3.04541 286.032 3.04541 285.123C2.27231 285.077 1.63564 285.077 0.953491 285.032C0.953491 284.213 0.953491 283.44 0.953491 282.576C1.59016 282.576 2.22683 282.576 2.90898 282.576C2.95446 281.666 2.99994 280.848 2.99994 280.029C3.95495 280.029 4.90996 280.029 5.91044 280.029C5.91044 280.848 5.91044 281.712 5.91044 282.531C6.59259 282.576 7.18378 282.576 7.7295 282.621C7.7295 283.44 7.7295 284.259 7.7295 285.032C7.13831 285.077 6.54711 285.077 5.91044 285.123C5.91044 285.987 5.91044 286.805 5.91044 287.624C4.95543 287.624 4.00042 287.624 3.04541 287.624Z" fill="#FFFFFF"/>
<path d="M3.04536 5.07767C3.04536 4.25909 3.04536 3.44052 3.04536 2.53099C2.27226 2.53099 1.63558 2.53099 0.907959 2.53099C0.907959 1.89432 0.907959 1.34858 0.907959 0.802856C3.18179 0.802856 5.45562 0.802856 7.72945 0.802856C7.72945 1.34858 7.72945 1.8943 7.72945 2.4855C7.13825 2.4855 6.54706 2.4855 5.91038 2.4855C5.91038 3.4405 5.91038 4.25909 5.91038 5.07767C4.95538 5.07767 4.00037 5.07767 3.04536 5.07767Z" fill="#FFFFFF"/>
<path d="M7.72946 182.891C7.72946 183.846 7.72946 184.801 7.72946 185.756C7.13827 185.756 6.5016 185.756 5.9104 185.756C5.9104 184.801 5.9104 183.846 5.9104 182.846C6.54707 182.891 7.13827 182.891 7.72946 182.891Z" fill="#FFFFFF"/>
<path d="M7.72946 224.73C7.72946 225.685 7.72946 226.64 7.72946 227.595C7.13827 227.595 6.5016 227.595 5.9104 227.595C5.9104 226.64 5.9104 225.685 5.9104 224.684C6.54707 224.73 7.13827 224.73 7.72946 224.73Z" fill="#FFFFFF"/>
<path d="M7.72946 88.7545C7.72946 89.7096 7.72946 90.6646 7.72946 91.6196C7.13827 91.6196 6.5016 91.6196 5.9104 91.6196C5.9104 90.6646 5.9104 89.7096 5.9104 88.7091C6.54707 88.7545 7.13827 88.7545 7.72946 88.7545Z" fill="#FFFFFF"/>
<path d="M7.72946 46.9161C7.72946 47.8711 7.72946 48.8261 7.72946 49.7811C7.13827 49.7811 6.5016 49.7811 5.9104 49.7811C5.9104 48.8261 5.9104 47.8711 5.9104 46.8706C6.54707 46.9161 7.13827 46.9161 7.72946 46.9161Z" fill="#FFFFFF"/>
<path d="M7.72946 277.164C7.72946 278.119 7.72946 279.074 7.72946 280.029C7.13827 280.029 6.5016 280.029 5.9104 280.029C5.9104 279.074 5.9104 278.119 5.9104 277.119C6.54707 277.164 7.13827 277.164 7.72946 277.164Z" fill="#FFFFFF"/>
<path d="M7.72946 5.07752C7.72946 6.03252 7.72946 6.98753 7.72946 7.94254C7.13827 7.94254 6.5016 7.94254 5.9104 7.94254C5.9104 6.98753 5.9104 6.03254 5.9104 5.03205C6.54707 5.07753 7.13827 5.07752 7.72946 5.07752Z" fill="#FFFFFF"/>
<path d="M7.72946 151.649C7.72946 152.513 7.72946 153.377 7.72946 154.241C7.13827 154.241 6.5016 154.241 5.9104 154.241C5.9104 153.377 5.9104 152.513 5.9104 151.649C6.54707 151.649 7.13827 151.649 7.72946 151.649Z" fill="#FFFFFF"/>
<path d="M7.72946 133.458C7.13827 133.458 6.5016 133.458 5.9104 133.458C5.9104 132.594 5.9104 131.73 5.9104 130.866C6.5016 130.866 7.13827 130.866 7.72946 130.866C7.72946 131.775 7.72946 132.594 7.72946 133.458Z" fill="#FFFFFF"/>
<path d="M7.72946 109.81C7.72946 110.674 7.72946 111.538 7.72946 112.402C7.13827 112.402 6.5016 112.402 5.9104 112.402C5.9104 111.538 5.9104 110.674 5.9104 109.81C6.54707 109.81 7.13827 109.81 7.72946 109.81Z" fill="#FFFFFF"/>
<path d="M5.9104 26.1332C6.5016 26.1332 7.13827 26.1332 7.72946 26.1332C7.72946 26.9973 7.72946 27.8613 7.72946 28.7254C7.13827 28.7254 6.5016 28.7254 5.9104 28.7254C5.95588 27.8613 5.95588 26.9973 5.9104 26.1332Z" fill="#FFFFFF"/>
<path d="M7.72946 70.564C7.13827 70.564 6.5016 70.564 5.9104 70.564C5.9104 69.7 5.9104 68.8359 5.9104 67.9719C6.5016 67.9719 7.13827 67.9719 7.72946 67.9719C7.72946 68.8359 7.72946 69.7 7.72946 70.564Z" fill="#FFFFFF"/>
<path d="M7.72946 256.427C7.72946 257.291 7.72946 258.155 7.72946 259.019C7.13827 259.019 6.5016 259.019 5.9104 259.019C5.9104 258.155 5.9104 257.291 5.9104 256.427C6.54707 256.427 7.13827 256.427 7.72946 256.427Z" fill="#FFFFFF"/>
<path d="M7.72946 248.378C7.13827 248.378 6.5016 248.378 5.9104 248.378C5.9104 247.513 5.9104 246.649 5.9104 245.785C6.5016 245.785 7.13827 245.785 7.72946 245.785C7.72946 246.649 7.72946 247.513 7.72946 248.378Z" fill="#FFFFFF"/>
<path d="M7.72946 214.588C7.72946 215.452 7.72946 216.316 7.72946 217.18C7.13827 217.18 6.5016 217.18 5.9104 217.18C5.9104 216.316 5.9104 215.452 5.9104 214.588C6.54707 214.588 7.13827 214.588 7.72946 214.588Z" fill="#FFFFFF"/>
<path d="M5.9104 287.624C6.5016 287.624 7.13827 287.624 7.72946 287.624C7.72946 288.488 7.72946 289.352 7.72946 290.216C7.13827 290.216 6.5016 290.216 5.9104 290.216C5.95588 289.352 5.95588 288.488 5.9104 287.624C5.9104 287.624 5.95588 287.624 5.9104 287.624Z" fill="#FFFFFF"/>
<path d="M7.72946 196.079C7.13827 196.079 6.5016 196.079 5.9104 196.079C5.9104 195.215 5.9104 194.351 5.9104 193.487C6.5016 193.487 7.13827 193.487 7.72946 193.487C7.72946 194.351 7.72946 195.215 7.72946 196.079Z" fill="#FFFFFF"/>
<path d="M5.9104 298.265C6.5016 298.265 7.13827 298.265 7.72946 298.265C7.72946 299.129 7.72946 299.993 7.72946 300.857C7.13827 300.857 6.5016 300.857 5.9104 300.857C5.95588 299.993 5.95588 299.129 5.9104 298.265Z" fill="#FFFFFF"/>
<path d="M7.72946 175.297C7.13827 175.297 6.5016 175.297 5.9104 175.297C5.9104 174.432 5.9104 173.568 5.9104 172.704C6.5016 172.704 7.13827 172.704 7.72946 172.704C7.72946 173.614 7.72946 174.432 7.72946 175.297Z" fill="#FFFFFF"/>
<path d="M5.9104 78.6135C6.5016 78.6135 7.13827 78.6135 7.72946 78.6135C7.72946 79.4321 7.72946 80.2506 7.72946 81.0237C7.13827 81.0237 6.5016 81.0237 5.9104 81.0237C5.95588 80.2052 5.95588 79.3866 5.9104 78.6135Z" fill="#FFFFFF"/>
<path d="M3.04541 312.363C3.04541 311.999 3.04541 311.635 3.04541 311.272C4.00042 311.272 4.95543 311.272 5.95591 311.272C5.95591 311.635 5.95591 311.999 5.95591 312.363C4.95543 312.363 4.00042 312.363 3.04541 312.363Z" fill="#FFFFFF"/>
<path d="M3.04541 7.94254C2.36326 7.94254 1.68112 7.94254 0.953491 7.94254C0.953491 6.98753 0.953491 6.078 0.953491 5.07752C1.63564 5.07752 2.31779 5.07752 3.04541 5.07752C3.04541 6.03252 3.04541 6.98753 3.04541 7.94254Z" fill="#FFFFFF"/>
<path d="M3.04541 49.7811C2.36326 49.7811 1.68112 49.7811 0.953491 49.7811C0.953491 48.8261 0.953491 47.9166 0.953491 46.9161C1.63564 46.9161 2.31779 46.9161 3.04541 46.9161C3.04541 47.8711 3.04541 48.8261 3.04541 49.7811Z" fill="#FFFFFF"/>
<path d="M3.04541 258.974C2.36326 258.974 1.68112 258.974 0.953491 258.974C0.953491 258.064 0.953491 257.291 0.953491 256.427C1.63564 256.427 2.31779 256.427 3.04541 256.427C3.04541 257.245 3.04541 258.155 3.04541 258.974Z" fill="#FFFFFF"/>
<path d="M3.04541 290.216C2.36326 290.216 1.68112 290.216 0.953491 290.216C0.953491 289.397 0.953491 288.579 0.953491 287.669C1.63564 287.669 2.31779 287.669 3.04541 287.669C3.04541 288.488 3.04541 289.352 3.04541 290.216Z" fill="#FFFFFF"/>
<path d="M3.04541 311.272C2.36326 311.272 1.68112 311.272 0.953491 311.272C0.953491 310.453 0.953491 309.634 0.953491 308.77C1.63564 308.77 2.31779 308.725 3.04541 308.725C3.04541 309.543 3.04541 310.453 3.04541 311.272Z" fill="#FFFFFF"/>
<path d="M3.04541 70.564C2.36326 70.564 1.68112 70.564 0.953491 70.564C0.953491 69.7 0.953491 68.8814 0.953491 68.0173C1.63564 68.0173 2.31779 68.0173 3.04541 68.0173C3.04541 68.8359 3.04541 69.7 3.04541 70.564Z" fill="#FFFFFF"/>
<path d="M3.04541 101.761C2.36326 101.761 1.68112 101.761 0.953491 101.761C0.953491 100.942 0.953491 100.124 0.953491 99.2597C1.63564 99.2597 2.31779 99.2142 3.04541 99.2142C3.04541 100.078 3.04541 100.942 3.04541 101.761Z" fill="#FFFFFF"/>
<path d="M3.04541 112.402C2.36326 112.402 1.68112 112.402 0.953491 112.402C0.953491 111.538 0.953491 110.72 0.953491 109.856C1.63564 109.856 2.31779 109.856 3.04541 109.856C3.04541 110.674 3.04541 111.538 3.04541 112.402Z" fill="#FFFFFF"/>
<path d="M3.04541 28.7254C2.36326 28.7254 1.68112 28.7254 0.953491 28.7254C0.953491 27.8613 0.953491 27.0883 0.953491 26.1787C1.63564 26.1787 2.31779 26.1787 3.04541 26.1787C3.04541 26.9973 3.04541 27.8613 3.04541 28.7254Z" fill="#FFFFFF"/>
<path d="M3.04541 133.458C2.36326 133.458 1.68112 133.458 0.953491 133.458C0.953491 132.594 0.953491 131.821 0.953491 130.911C1.63564 130.911 2.31779 130.911 3.04541 130.911C3.04541 131.73 3.04541 132.639 3.04541 133.458Z" fill="#FFFFFF"/>
<path d="M3.04541 154.241C2.36326 154.241 1.68112 154.241 0.953491 154.241C0.953491 153.331 0.953491 152.558 0.953491 151.694C1.63564 151.694 2.31779 151.694 3.04541 151.694C3.04541 152.513 3.04541 153.377 3.04541 154.241Z" fill="#FFFFFF"/>
<path d="M3.04541 175.297C2.36326 175.297 1.68112 175.297 0.953491 175.297C0.953491 174.432 0.953491 173.614 0.953491 172.75C1.63564 172.75 2.31779 172.75 3.04541 172.75C3.04541 173.568 3.04541 174.478 3.04541 175.297Z" fill="#FFFFFF"/>
<path d="M3.04541 206.539C2.36326 206.539 1.68112 206.539 0.953491 206.539C0.953491 205.72 0.953491 204.902 0.953491 204.038C1.63564 204.038 2.31779 203.992 3.04541 203.992C3.04541 204.811 3.04541 205.675 3.04541 206.539Z" fill="#FFFFFF"/>
<path d="M3.04541 217.135C2.36326 217.135 1.68112 217.135 0.953491 217.135C0.953491 216.271 0.953491 215.452 0.953491 214.588C1.63564 214.588 2.31779 214.588 3.04541 214.588C3.04541 215.407 3.04541 216.317 3.04541 217.135Z" fill="#FFFFFF"/>
<path d="M3.04541 248.378C2.36326 248.378 1.68112 248.378 0.953491 248.378C0.953491 247.559 0.953491 246.74 0.953491 245.831C1.63564 245.831 2.31779 245.831 3.04541 245.831C3.04541 246.649 3.04541 247.513 3.04541 248.378Z" fill="#FFFFFF"/>
</svg>
