<svg width="11" height="11" viewBox="0 0 11 11" fill="none" xmlns="http://www.w3.org/2000/svg">
<path fill-rule="evenodd" clip-rule="evenodd" d="M10.209 0.373047H0.208984V10.373H10.209V0.373047ZM4.80577 6.22905C4.7631 6.39438 4.75777 6.58105 4.78977 6.78905H5.36577C5.34443 6.60238 5.35777 6.43438 5.40577 6.28505C5.45377 6.13038 5.52043 5.98638 5.60577 5.85305C5.69643 5.71971 5.79243 5.59171 5.89377 5.46905C6.00043 5.34105 6.0991 5.21305 6.18977 5.08505C6.28577 4.95705 6.36577 4.82105 6.42977 4.67705C6.49377 4.53305 6.52577 4.37305 6.52577 4.19705C6.52577 3.79705 6.4031 3.48505 6.15777 3.26105C5.91777 3.03171 5.5951 2.91705 5.18977 2.91705C4.89643 2.91705 4.6351 2.98105 4.40577 3.10905C4.18177 3.23171 3.98443 3.38905 3.81377 3.58105L4.18977 3.92505C4.31243 3.78105 4.4511 3.66905 4.60577 3.58905C4.76577 3.50371 4.93377 3.46105 5.10977 3.46105C5.36577 3.46105 5.55777 3.53838 5.68577 3.69305C5.8191 3.84238 5.88577 4.02371 5.88577 4.23705C5.88577 4.38105 5.85377 4.51438 5.78977 4.63705C5.7311 4.75971 5.65643 4.88238 5.56577 5.00505C5.4751 5.12238 5.37643 5.24238 5.26977 5.36505C5.16843 5.48771 5.07777 5.62105 4.99777 5.76505C4.91777 5.90371 4.85377 6.05838 4.80577 6.22905ZM4.75777 8.33305C4.84843 8.42371 4.96043 8.46905 5.09377 8.46905C5.2271 8.46905 5.3391 8.42371 5.42977 8.33305C5.52577 8.23705 5.57377 8.11705 5.57377 7.97305C5.57377 7.81838 5.52577 7.69571 5.42977 7.60505C5.3391 7.50905 5.2271 7.46105 5.09377 7.46105C4.96043 7.46105 4.84843 7.50905 4.75777 7.60505C4.6671 7.69571 4.62177 7.81838 4.62177 7.97305C4.62177 8.11705 4.6671 8.23705 4.75777 8.33305Z" fill="#828282"/>
</svg>
