<?xml version="1.0" encoding="utf-8"?>
<!-- Generator: Adobe Illustrator 24.3.0, SVG Export Plug-In . SVG Version: 6.00 Build 0)  -->
<svg version="1.1" id="Layer_1" xmlns="http://www.w3.org/2000/svg" xmlns:xlink="http://www.w3.org/1999/xlink" x="0px" y="0px"
	 viewBox="0 0 938.55 938.55" style="enable-background:new 0 0 938.55 938.55;" xml:space="preserve">
<style type="text/css">
	.st0{fill:#FAFFFF;}
</style>
<path class="st0" d="M356.72,895.47c-24.7,0-49.4,0-74.11,0c0-3.52,0-7.04,0-10.55c-3.84,0-7.22,0-10.79,0c0,3.68,0,7.11,0,10.55
	c-24.94,0-49.88,0-74.83,0c0-3.52,0-7.04,0-10.55c-3.84,0-7.22,0-10.79,0c0,3.68,0,7.11,0,10.55c-24.7,0-49.4,0-74.11,0
	c0-3.52,0-7.04,0-10.55c-3.84,0-7.22,0-10.79,0c0,3.68,0,7.11,0,10.55c-7.19,0-14.39,0-21.58,0c0-3.53,0-7.07,0-10.96
	c-7.24,0-13.98,0-20.97,0c0-3.68,0-6.99,0-10.67c-3.64,0-7.04,0-10.78,0c0-10.71,0-21.04,0-31.6c-3.81,0-7.25,0-10.7,0
	c0-252.27,0-504.54,0-756.81c3.54,0,7.08,0,10.88,0c0-7.18,0-13.85,0-20.91c7.02,0,13.78,0,20.92,0c0-3.79,0-7.19,0-10.85
	c3.71,0,7.02,0,10.72,0c0-3.66,0-7.07,0-10.46c259.65,0,518.9,0,778.46,0c0,3.68,0,7.14,0,10.6c-3.53,0-7.06,0-10.61,0
	c0,3.78,0,7.16,0,10.49c3.63,0,7.01,0,10.51,0c0-3.7,0-7.15,0-10.6c6.9,0,13.81,0,21.1,0c0,3.96,0,7.36,0,11.01
	c3.71,0,7.02,0,10.72,0c0,7.02,0,13.78,0,20.79c3.71,0,7.02,0,10.45,0c0,3.66,0,7.06,0,10.85c-3.62,0-7.02,0-10.38,0
	c0,3.71,0,7.02,0,10.72c3.58,0,6.99,0,10.32,0c0,10.75,0,21.1,0,31.71c-3.59,0-6.91,0-10.27,0c0,3.67,0,7.06,0,10.85
	c3.64,0,7.05,0,10.34,0c0,10.9,0,21.4,0,32.3c-3.61,0-7.01,0-10.41,0c0,3.47,0,6.54,0,10c3.56,0,6.97,0,10.35,0
	c0,10.99,0,21.58,0,32.43c-3.58,0-6.89,0-10.3,0c0,3.67,0,7.06,0,10.85c3.63,0,7.03,0,10.37,0c0,10.66,0,20.92,0,31.58
	c-3.59,0-7,0-10.31,0c0,3.8,0,7.2,0,10.85c3.6,0,6.91,0,10.25,0c0,10.62,0,20.97,0,31.58c-3.56,0-6.88,0-10.32,0
	c0,3.67,0,7.06,0,10.85c3.61,0,7.01,0,10.39,0c0,10.9,0,21.4,0,32.3c-3.58,0-6.98,0-10.34,0c0,3.56,0,6.71,0,10.13
	c3.59,0,6.9,0,10.28,0c0,10.86,0,21.45,0,32.43c-3.64,0-7.04,0-10.35,0c0,3.71,0,7.02,0,10.72c3.6,0,7,0,10.42,0
	c0,10.66,0,20.92,0,31.58c-3.56,0-6.97,0-10.36,0c0,3.8,0,7.19,0,10.85c3.57,0,6.89,0,10.31,0c0,10.62,0,20.97,0,31.71
	c-3.62,0-7.02,0-10.38,0c0,3.71,0,7.02,0,10.72c3.58,0,6.99,0,10.32,0c0,10.99,0,21.58,0,32.43c-3.6,0-6.91,0-10.26,0
	c0,3.43,0,6.58,0,10.13c3.64,0,7.05,0,10.33,0c0,10.9,0,21.41,0,32.3c-3.61,0-7.01,0-10.4,0c0,3.71,0,7.02,0,10.72
	c3.57,0,6.97,0,10.35,0c0,10.75,0,21.1,0,31.71c-3.58,0-6.9,0-10.29,0c0,3.67,0,7.06,0,10.85c3.63,0,7.03,0,10.36,0
	c0,10.66,0,20.92,0,31.58c-3.59,0-6.99,0-10.3,0c0,3.8,0,7.2,0,10.85c3.6,0,6.91,0,10.25,0c0,10.86,0,21.45,0,32.3
	c-3.57,0-6.88,0-10.32,0c0,3.43,0,6.58,0,10.13c3.61,0,7.01,0,10.39,0c0,25.05,0,49.7,0,74.74c-3.58,0-6.98,0-10.33,0
	c0,3.8,0,7.2,0,10.85c3.59,0,6.9,0,10.28,0c0,25.01,0,49.74,0,74.87c-3.64,0-7.04,0-10.69,0c0,3.47,0,6.54,0,10
	c-3.66,0-7.07,0-10.72,0c0,3.71,0,7.02,0,10.72c-7.02,0-13.78,0-20.79,0c0,3.85,0,7.3,0,10.76c-7.19,0-14.39,0-21.58,0
	c0-3.52,0-7.04,0-10.55c-3.84,0-7.22,0-10.79,0c0,3.68,0,7.11,0,10.55c-10.55,0-21.1,0-31.66,0c0-3.52,0-7.04,0-10.55
	c-3.84,0-7.22,0-10.79,0c0,3.68,0,7.11,0,10.55c-24.94,0-49.88,0-74.83,0c0-3.52,0-7.04,0-10.55c-3.6,0-6.74,0-10.07,0
	c0,3.68,0,7.11,0,10.55c-24.94,0-49.88,0-74.83,0c0-3.52,0-7.04,0-10.55c-3.84,0-7.22,0-10.79,0c0,3.68,0,7.11,0,10.55
	c-24.94,0-49.88,0-74.83,0c0-3.52,0-7.04,0-10.55c-3.84,0-7.22,0-10.79,0c0,3.68,0,7.11,0,10.55c-24.7,0-49.4,0-74.11,0
	c0-3.52,0-7.04,0-10.55c-3.84,0-7.22,0-10.79,0c0,3.68,0,7.11,0,10.55c-24.94,0-49.88,0-74.83,0c0-3.52,0-7.04,0-10.55
	c-3.84,0-7.22,0-10.79,0C356.72,888.6,356.72,892.04,356.72,895.47z M868.93,501.29c0-3.54,0-7.09,0-11.01c-3.81,0-7.21,0-10.54,0
	c0-3.7,0-7.01,0-10.7c3.59,0,6.99,0,10.54,0c0-3.84,0-7.3,0-10.76c3.3,0,6.59,0,9.88,0c0-3.55,0-6.69,0-9.98c-3.46,0-6.67,0-9.88,0
	c0-3.63,0-7.26,0-10.89c3.3,0,6.59,0,9.88,0c0-3.79,0-7.17,0-10.69c-3.46,0-6.67,0-9.88,0c0-3.63,0-7.26,0-10.89
	c3.3,0,6.59,0,9.88,0c0-3.79,0-7.17,0-10.69c-3.46,0-6.67,0-9.88,0c0-3.3,0-6.61,0-10.29c-3.81,0-7.21,0-10.54,0
	c0-3.7,0-7.01,0-10.7c3.59,0,6.99,0,10.54,0c0-3.85,0-7.3,0-10.76c3.3,0,6.59,0,9.88,0c0-3.79,0-7.17,0-10.69c-3.46,0-6.67,0-9.88,0
	c0-3.63,0-7.26,0-10.89c3.3,0,6.59,0,9.88,0c0-3.55,0-6.69,0-9.98c-3.46,0-6.67,0-9.88,0c0-3.63,0-7.26,0-10.89c3.3,0,6.59,0,9.88,0
	c0-3.79,0-7.17,0-10.69c-3.46,0-6.67,0-9.88,0c0-3.54,0-7.09,0-11.01c-3.81,0-7.21,0-10.54,0c0-3.7,0-7.01,0-10.7
	c3.59,0,6.99,0,10.54,0c0-3.85,0-7.3,0-10.76c3.3,0,6.59,0,9.88,0c0-3.55,0-6.69,0-9.98c-3.46,0-6.67,0-9.88,0
	c0-3.63,0-7.26,0-10.89c3.3,0,6.59,0,9.88,0c0-3.79,0-7.17,0-10.69c-3.46,0-6.67,0-9.88,0c0-3.63,0-7.26,0-10.89
	c3.3,0,6.59,0,9.88,0c0-3.79,0-7.17,0-10.69c-3.46,0-6.67,0-9.88,0c0-3.3,0-6.61,0-10.29c-3.81,0-7.21,0-10.54,0
	c0-3.7,0-7.01,0-10.7c3.59,0,6.99,0,10.54,0c0-3.84,0-7.3,0-10.76c3.3,0,6.59,0,9.88,0c0-3.79,0-7.17,0-10.69c-3.46,0-6.67,0-9.88,0
	c0-3.63,0-7.26,0-10.89c3.3,0,6.59,0,9.88,0c0-3.55,0-6.69,0-9.98c-3.46,0-6.67,0-9.88,0c0-3.63,0-7.26,0-10.89c3.3,0,6.59,0,9.88,0
	c0-3.79,0-7.17,0-10.69c-3.46,0-6.67,0-9.88,0c0-3.54,0-7.09,0-11.01c-3.81,0-7.21,0-10.54,0c0-3.7,0-7.01,0-10.7
	c3.59,0,6.99,0,10.54,0c0-3.85,0-7.3,0-10.76c3.3,0,6.59,0,9.88,0c0-3.55,0-6.69,0-9.98c-3.46,0-6.67,0-9.88,0
	c0-3.63,0-7.25,0-10.88c3.29,0,6.59,0,9.89,0c0-3.78,0-7.16,0-10.49c-3.39,0-6.53,0-9.79,0c0,3.7,0,7.15,0,10.59
	c-3.55,0-7.09,0-11.02,0c0-3.96,0-7.36,0-11.01c-3.71,0-7.03,0-10.72,0c0-3.66,0-7.06,0-10.72c-3.71,0-7.02,0-10.72,0
	c0-3.66,0-7.07,0-10.44c-3.8,0-7.19,0-10.85,0c0,3.58,0,6.89,0,10.29c-10.62,0-20.97,0-31.71,0c0-3.63,0-7.03,0-10.36
	c-3.71,0-7.02,0-10.72,0c0,3.58,0,6.99,0,10.31c-10.75,0-21.1,0-31.71,0c0-3.6,0-6.92,0-10.25c-3.67,0-7.06,0-10.85,0
	c0,3.65,0,7.05,0,10.32c-10.9,0-21.41,0-32.3,0c0-3.61,0-7.01,0-10.4c-3.47,0-6.54,0-10,0c0,3.57,0,6.98,0,10.34
	c-10.99,0-21.58,0-32.43,0c0-3.58,0-6.9,0-10.28c-3.67,0-7.06,0-10.85,0c0,3.63,0,7.03,0,10.35c-10.66,0-20.93,0-31.58,0
	c0-3.59,0-7,0-10.3c-3.8,0-7.2,0-10.85,0c0,3.6,0,6.92,0,10.24c-10.62,0-20.97,0-31.58,0c0-3.57,0-6.88,0-10.31
	c-3.67,0-7.06,0-10.85,0c0,3.61,0,7.01,0,10.39c-10.9,0-21.41,0-32.3,0c0-3.58,0-6.98,0-10.33c-3.8,0-7.19,0-10.85,0
	c0,3.59,0,6.9,0,10.27c-10.62,0-20.97,0-31.71,0c0-3.64,0-7.04,0-10.35c-3.71,0-7.02,0-10.72,0c0,3.6,0,7,0,10.42
	c-10.66,0-20.93,0-31.58,0c0-3.56,0-6.97,0-10.36c-3.8,0-7.19,0-10.85,0c0,3.57,0,6.89,0,10.31c-10.62,0-20.97,0-31.71,0
	c0-3.62,0-7.02,0-10.38c-3.71,0-7.02,0-10.72,0c0,3.58,0,6.98,0,10.32c-10.99,0-21.58,0-32.43,0c0-3.59,0-6.91,0-10.27
	c-3.67,0-7.06,0-10.85,0c0,3.64,0,7.05,0,10.34c-10.66,0-20.93,0-31.58,0c0-3.6,0-7.01,0-10.41c-3.71,0-7.02,0-10.72,0
	c0,3.56,0,6.97,0,10.35c-10.75,0-21.1,0-31.71,0c0-3.58,0-6.89,0-10.3c-3.67,0-7.06,0-10.85,0c0,3.62,0,7.02,0,10.37
	c-10.9,0-21.41,0-32.3,0c0-3.59,0-6.99,0-10.31c-3.56,0-6.72,0-10.13,0c0,3.6,0,6.91,0,10.26c-10.86,0-21.45,0-32.43,0
	c0-3.65,0-7.05,0-10.33c-3.71,0-7.02,0-10.72,0c0,3.61,0,7.01,0,10.4c-10.66,0-20.93,0-31.58,0c0-3.57,0-6.98,0-10.34
	c-3.8,0-7.19,0-10.85,0c0,3.58,0,6.9,0,10.29c-10.62,0-20.97,0-31.71,0c0-3.63,0-7.03,0-10.36c-3.71,0-7.02,0-10.72,0
	c0,3.59,0,7,0,10.78c-3.79,0-7.2,0-10.85,0c0,3.71,0,7.02,0,10.72c-3.66,0-7.06,0-10.36,0c0,252.45,0,504.51,0,756.83
	c10.79,0,21.3,0,32.19,0c0,3.66,0,7.07,0,10.37c3.8,0,7.2,0,10.85,0c0-3.6,0-6.92,0-10.24c3.43,0,6.58,0,10,0c0,3.57,0,6.88,0,10.31
	c3.67,0,7.06,0,10.85,0c0-3.61,0-7.02,0-10.39c3.71,0,7.02,0,10.72,0c0,3.58,0,6.98,0,10.33c3.8,0,7.2,0,10.85,0
	c0-3.59,0-6.9,0-10.27c3.67,0,7.06,0,10.85,0c0,3.64,0,7.04,0,10.35c3.47,0,6.54,0,10,0c0-3.6,0-7,0-10.42c3.71,0,7.02,0,10.72,0
	c0,3.56,0,6.97,0,10.36c3.8,0,7.19,0,10.85,0c0-3.57,0-6.89,0-10.31c3.67,0,7.06,0,10.85,0c0,3.62,0,7.02,0,10.38
	c3.71,0,7.02,0,10.72,0c0-3.58,0-6.99,0-10.32c3.56,0,6.71,0,10.13,0c0,3.59,0,6.91,0,10.27c3.67,0,7.06,0,10.85,0
	c0-3.64,0-7.04,0-10.34c3.71,0,7.02,0,10.72,0c0,3.6,0,7.01,0,10.41c3.71,0,7.02,0,10.72,0c0-3.56,0-6.97,0-10.35
	c3.8,0,7.19,0,10.85,0c0,3.58,0,6.89,0,10.3c3.67,0,7.06,0,10.85,0c0-3.62,0-7.03,0-10.37c3.47,0,6.54,0,10,0c0,3.59,0,6.99,0,10.31
	c3.8,0,7.2,0,10.85,0c0-3.6,0-6.91,0-10.26c3.67,0,7.06,0,10.85,0c0,3.65,0,7.05,0,10.33c3.71,0,7.02,0,10.72,0
	c0-3.61,0-7.01,0-10.4c3.71,0,7.02,0,10.72,0c0,3.57,0,6.98,0,10.35c3.56,0,6.71,0,10.13,0c0-3.58,0-6.89,0-10.29
	c3.67,0,7.06,0,10.85,0c0,3.63,0,7.03,0,10.36c3.71,0,7.02,0,10.72,0c0-3.59,0-6.99,0-10.31c3.8,0,7.2,0,10.85,0
	c0,3.6,0,6.92,0,10.25c3.67,0,7.06,0,10.72,0c0-3.56,0-6.88,0-10.32c3.66,0,7.06,0,10.85,0c0,3.61,0,7.01,0,10.39
	c3.47,0,6.54,0,10,0c0-3.57,0-6.98,0-10.34c3.8,0,7.19,0,10.85,0c0,3.58,0,6.9,0,10.28c3.67,0,7.06,0,10.85,0c0-3.63,0-7.03,0-10.35
	c3.71,0,7.02,0,10.72,0c0,3.59,0,7,0,10.3c3.8,0,7.2,0,10.85,0c0-3.6,0-6.92,0-10.24c3.43,0,6.58,0,10,0c0,3.57,0,6.88,0,10.31
	c3.67,0,7.06,0,10.85,0c0-3.61,0-7.02,0-10.38c3.71,0,7.02,0,10.72,0c0,3.58,0,6.98,0,10.33c3.8,0,7.2,0,10.85,0
	c0-3.59,0-6.9,0-10.27c3.67,0,7.06,0,10.85,0c0,3.64,0,7.04,0,10.35c3.47,0,6.54,0,10,0c0-3.6,0-7,0-10.42c3.71,0,7.02,0,10.72,0
	c0,3.56,0,6.97,0,10.36c3.8,0,7.19,0,10.85,0c0-3.57,0-6.89,0-10.31c3.67,0,7.06,0,10.85,0c0,3.62,0,7.02,0,10.38
	c3.71,0,7.02,0,10.72,0c0-3.58,0-6.99,0-10.32c3.8,0,7.19,0,10.85,0c0,3.59,0,6.91,0,10.27c3.43,0,6.58,0,10.13,0
	c0-3.64,0-7.05,0-10.34c3.71,0,7.02,0,10.72,0c0,3.6,0,7.01,0,10.41c3.71,0,7.02,0,10.72,0c0-3.56,0-6.97,0-10.35
	c3.8,0,7.19,0,10.85,0c0,3.58,0,6.89,0,10.3c3.67,0,7.06,0,10.85,0c0-3.62,0-7.03,0-10.37c3.47,0,6.54,0,10,0c0,3.59,0,6.99,0,10.31
	c3.8,0,7.2,0,10.85,0c0-3.6,0-6.91,0-10.26c3.67,0,7.06,0,10.85,0c0,3.65,0,7.05,0,10.33c3.71,0,7.02,0,10.72,0
	c0-3.61,0-7.01,0-10.4c3.71,0,7.02,0,10.72,0c0,3.57,0,6.98,0,10.35c3.8,0,7.19,0,10.85,0c0-3.58,0-6.89,0-10.29
	c3.43,0,6.58,0,10.13,0c0,3.63,0,7.03,0,10.36c3.71,0,7.02,0,10.72,0c0-3.59,0-6.99,0-10.31c3.8,0,7.2,0,10.85,0
	c0,3.6,0,6.92,0,10.25c3.67,0,7.06,0,10.72,0c0-3.56,0-6.88,0-10.32c3.66,0,7.06,0,10.85,0c0,3.61,0,7.01,0,10.39
	c3.47,0,6.54,0,10,0c0-3.57,0-6.98,0-10.34c3.8,0,7.19,0,10.85,0c0,3.59,0,6.9,0,10.28c3.67,0,7.06,0,10.85,0c0-3.63,0-7.03,0-10.35
	c3.71,0,7.02,0,10.72,0c0,3.59,0,7,0,10.3c3.8,0,7.2,0,10.85,0c0-3.6,0-6.92,0-10.24c3.43,0,6.58,0,10,0c0,3.57,0,6.88,0,10.31
	c3.67,0,7.06,0,10.85,0c0-3.61,0-7.02,0-10.67c10.9,0,21.41,0,32.3,0c0-3.66,0-7.07,0-10.75c3.85,0,7.31,0,10.77,0
	c0,3.53,0,7.06,0,10.61c3.53,0,6.68,0,9.78,0c0-3.62,0-7.01,0-10.51c-3.46,0-6.67,0-9.88,0c0-3.54,0-7.08,0-11.01
	c-3.81,0-7.21,0-10.53,0c0-3.7,0-7.01,0-10.7c3.59,0,6.99,0,10.54,0c0-3.84,0-7.3,0-10.76c3.3,0,6.59,0,9.88,0c0-3.55,0-6.69,0-9.97
	c-3.46,0-6.67,0-9.88,0c0-3.54,0-7.09,0-11.01c-3.81,0-7.21,0-10.54,0c0-3.7,0-7.01,0-10.7c3.59,0,6.99,0,10.54,0
	c0-3.84,0-7.3,0-10.76c3.3,0,6.59,0,9.88,0c0-3.79,0-7.17,0-10.69c-3.46,0-6.67,0-9.88,0c0-3.3,0-6.61,0-10.29
	c-3.81,0-7.21,0-10.54,0c0-3.7,0-7.01,0-10.7c3.59,0,6.99,0,10.54,0c0-3.85,0-7.3,0-10.76c3.3,0,6.59,0,9.88,0
	c0-3.79,0-7.17,0-10.69c-3.46,0-6.67,0-9.88,0c0-3.54,0-7.09,0-11.01c-3.81,0-7.21,0-10.54,0c0-3.46,0-6.53,0-9.98
	c3.59,0,6.99,0,10.54,0c0-3.85,0-7.3,0-10.76c3.3,0,6.59,0,9.88,0c0-3.79,0-7.17,0-10.69c-3.46,0-6.67,0-9.88,0
	c0-3.54,0-7.09,0-11.01c-3.81,0-7.21,0-10.54,0c0-3.7,0-7.01,0-10.7c3.59,0,6.99,0,10.54,0c0-3.84,0-7.3,0-10.76
	c3.3,0,6.59,0,9.88,0c0-3.55,0-6.69,0-9.98c-3.46,0-6.67,0-9.88,0c0-3.54,0-7.09,0-11.01c-3.81,0-7.21,0-10.54,0
	c0-3.7,0-7.01,0-10.7c3.59,0,6.99,0,10.54,0c0-3.84,0-7.3,0-10.76c3.3,0,6.59,0,9.88,0c0-3.79,0-7.17,0-10.69c-3.46,0-6.67,0-9.88,0
	c0-3.3,0-6.61,0-10.29c-3.81,0-7.21,0-10.54,0c0-3.7,0-7.01,0-10.7c3.59,0,6.99,0,10.54,0c0-3.85,0-7.3,0-10.76c3.3,0,6.59,0,9.88,0
	c0-3.79,0-7.17,0-10.69c-3.46,0-6.67,0-9.88,0c0-3.63,0-7.26,0-10.89c3.3,0,6.59,0,9.88,0c0-3.55,0-6.69,0-9.98
	c-3.46,0-6.67,0-9.88,0c0-3.63,0-7.26,0-10.89c3.3,0,6.59,0,9.88,0c0-3.79,0-7.17,0-10.69
	C875.35,501.29,872.14,501.29,868.93,501.29z M601.83,64.39c0-3.62,0-7,0-10.35c-3.63,0-7.02,0-10.39,0c0,3.57,0,6.87,0,10.35
	C594.91,64.39,598.21,64.39,601.83,64.39z M687.41,64.44c0-3.74,0-7.13,0-10.48c-3.58,0-6.88,0-10.31,0c0,3.57,0,6.95,0,10.48
	C680.61,64.44,683.91,64.44,687.41,64.44z M719.47,64.28c3.79,0,7.18,0,10.46,0c0-3.6,0-6.91,0-10.27c-3.59,0-6.98,0-10.46,0
	C719.47,57.55,719.47,60.85,719.47,64.28z M761.92,64.3c3.74,0,7.13,0,10.48,0c0-3.58,0-6.88,0-10.31c-3.57,0-6.96,0-10.48,0
	C761.92,57.5,761.92,60.8,761.92,64.3z M559.46,54.03c-3.68,0-7.07,0-10.35,0c0,3.65,0,7.04,0,10.35c3.59,0,6.9,0,10.35,0
	C559.46,60.89,559.46,57.59,559.46,54.03z M506.6,53.96c0,3.62,0,7,0,10.35c3.63,0,7.02,0,10.39,0c0-3.57,0-6.87,0-10.35
	C513.53,53.96,510.22,53.96,506.6,53.96z M175.98,53.97c-3.72,0-7.02,0-10.42,0c0,3.58,0,6.97,0,10.35c3.61,0,7,0,10.42,0
	C175.98,60.76,175.98,57.46,175.98,53.97z M250.49,53.94c0,3.68,0,7.06,0,10.35c3.65,0,7.04,0,10.35,0c0-3.59,0-6.9,0-10.35
	C257.35,53.94,254.05,53.94,250.49,53.94z M346.51,54.05c-3.74,0-7.13,0-10.48,0c0,3.58,0,6.88,0,10.31c3.57,0,6.96,0,10.48,0
	C346.51,60.85,346.51,57.55,346.51,54.05z M388.87,64.39c0-3.62,0-7,0-10.35c-3.63,0-7.02,0-10.39,0c0,3.57,0,6.87,0,10.35
	C381.94,64.39,385.25,64.39,388.87,64.39z M431.34,64.5c0-3.68,0-7.06,0-10.48c-3.6,0-6.99,0-10.31,0c0,3.64,0,7.03,0,10.48
	C424.52,64.5,427.74,64.5,431.34,64.5z M634.59,64.31c3.45,0,6.6,0,9.63,0c0-3.66,0-7.05,0-10.34c-3.36,0-6.42,0-9.63,0
	C634.59,57.47,634.59,60.77,634.59,64.31z M805.25,53.85c0,3.5,0,6.97,0,10.48c3.27,0,6.42,0,9.51,0c0-3.64,0-7.03,0-10.48
	C811.51,53.85,808.53,53.85,805.25,53.85z M464.19,53.92c0,3.74,0,7.13,0,10.48c3.34,0,6.41,0,9.59,0c0-3.57,0-6.96,0-10.48
	C470.52,53.92,467.45,53.92,464.19,53.92z M59.06,330.91c0,3.56,0,6.94,0,10.39c3.35,0,6.5,0,9.61,0c0-3.63,0-7.01,0-10.39
	C65.34,330.91,62.27,330.91,59.06,330.91z M68.64,85.36c0-3.5,0-6.97,0-10.48c-3.27,0-6.42,0-9.51,0c0,3.64,0,7.03,0,10.48
	C62.38,85.36,65.36,85.36,68.64,85.36z M59.08,245.2c0,3.71,0,7.1,0,10.48c3.38,0,6.52,0,9.57,0c0-3.65,0-7.04,0-10.48
	C65.38,245.2,62.4,245.2,59.08,245.2z M293.48,64.36c3.44,0,6.59,0,9.76,0c0-3.61,0-6.99,0-10.3c-3.4,0-6.55,0-9.76,0
	C293.48,57.55,293.48,60.77,293.48,64.36z M869.27,74.77c0,3.78,0,7.16,0,10.48c3.35,0,6.42,0,9.57,0c0-3.58,0-6.97,0-10.48
	C875.56,74.77,872.5,74.77,869.27,74.77z M58.99,170.75c3.55,0,6.7,0,9.74,0c0-3.6,0-6.91,0-10.27c-3.35,0-6.5,0-9.74,0
	C58.99,164.01,58.99,167.31,58.99,170.75z M68.8,118.1c-3.55,0-6.7,0-9.74,0c0,3.36,0,6.43,0,9.55c3.35,0,6.5,0,9.74,0
	C68.8,124.36,68.8,121.29,68.8,118.1z"/>
<path class="st0" d="M218.51,127.67c0-3.21,0-6.28,0-9.61c3.66,0,7.05,0,10.72,0c0,3.1,0,6.17,0,9.53c10.61,0,20.96,0,31.71,0
	c0-3.07,0-6.24,0-9.59c3.7,0,7.01,0,10.72,0c0,3.1,0,6.26,0,9.64c10.74,0,21.09,0,31.71,0c0-3.16,0-6.23,0-9.57
	c3.65,0,7.05,0,10.85,0c0,3.14,0,6.3,0,9.63c10.9,0,21.4,0,32.31,0c0-3.16,0-6.32,0-9.68c3.46,0,6.53,0,10,0c0,3.05,0,6.21,0,9.61
	c10.98,0,21.57,0,32.43,0c0-3.11,0-6.19,0-9.54c3.65,0,7.05,0,10.85,0c0,3.09,0,6.26,0,9.6c10.66,0,20.92,0,31.59,0
	c0-3.11,0-6.27,0-9.65c3.79,0,7.18,0,10.85,0c0,3.18,0,6.25,0,9.58c10.61,0,20.97,0,31.71,0c0-3.15,0-6.32,0-9.64
	c3.7,0,7.01,0,10.72,0c0,3.17,0,6.34,0,9.7c10.9,0,21.4,0,32.31,0c0-3.07,0-6.23,0-9.62c3.55,0,6.7,0,10.13,0c0,3.13,0,6.21,0,9.55
	c10.85,0,21.44,0,32.43,0c0-3.1,0-6.27,0-9.61c3.7,0,7.01,0,10.72,0c0,3.13,0,6.29,0,9.66c10.74,0,21.1,0,31.71,0
	c0-3.19,0-6.27,0-9.59c3.66,0,7.05,0,10.72,0c0,3.08,0,6.16,0,9.52c10.61,0,20.96,0,31.71,0c0-3.06,0-6.23,0-9.58
	c3.7,0,7.01,0,10.72,0c0,3.08,0,6.25,0,9.64c10.98,0,21.57,0,32.43,0c0-3.14,0-6.22,0-9.56c3.65,0,7.05,0,10.85,0
	c0,3.12,0,6.29,0,9.62c10.66,0,20.92,0,31.59,0c0-3.14,0-6.3,0-9.68c3.7,0,7.01,0,10.72,0c0,3.03,0,6.2,0,9.75
	c17.94,0,35.49,0,53.3,0c0,3.7,0,7.01,0,10.72c3.65,0,7.06,0,10.85,0c0,3.78,0,7.19,0,10.85c3.46,0,6.53,0,9.88,0
	c0,10.85,0,21.44,0,32.43c-3.11,0-6.28,0-9.62,0c0,3.46,0,6.53,0,10c3.13,0,6.3,0,9.67,0c0,10.98,0,21.57,0,32.43
	c-3.2,0-6.28,0-9.6,0c0,3.66,0,7.05,0,10.72c3.09,0,6.16,0,9.53,0c0,10.61,0,20.96,0,31.71c-3.07,0-6.24,0-9.59,0
	c0,3.7,0,7.01,0,10.72c3.09,0,6.25,0,9.64,0c0,10.74,0,21.09,0,31.71c-3.16,0-6.23,0-9.57,0c0,3.66,0,7.05,0,10.85
	c3.13,0,6.3,0,9.63,0c0,10.9,0,21.4,0,32.3c-3.15,0-6.32,0-9.68,0c0,3.46,0,6.53,0,10c3.04,0,6.2,0,9.61,0c0,10.98,0,21.57,0,32.43
	c-3.11,0-6.18,0-9.54,0c0,3.65,0,7.05,0,10.85c3.08,0,6.25,0,9.6,0c0,10.66,0,20.92,0,31.58c-3.11,0-6.27,0-9.65,0
	c0,3.79,0,7.18,0,10.85c3.17,0,6.24,0,9.58,0c0,10.61,0,20.96,0,31.71c-3.15,0-6.32,0-9.64,0c0,3.7,0,7.01,0,10.72
	c3.16,0,6.33,0,9.69,0c0,10.9,0,21.4,0,32.3c-3.06,0-6.22,0-9.62,0c0,3.55,0,6.7,0,10.13c3.12,0,6.2,0,9.55,0
	c0,10.85,0,21.44,0,32.43c-3.1,0-6.27,0-9.61,0c0,3.7,0,7.01,0,10.72c3.12,0,6.28,0,9.66,0c0,10.74,0,21.09,0,31.71
	c-3.19,0-6.26,0-9.59,0c0,3.66,0,7.05,0,10.72c3.08,0,6.15,0,9.52,0c0,25,0,49.74,0,74.87c-3.05,0-6.22,0-9.57,0c0,3.46,0,6.53,0,10
	c3.07,0,6.23,0,9.63,0c0,25.13,0,49.87,0,74.87c-3.14,0-6.21,0-9.68,0c0,7.25,0,14.25,0,21.64c-7.38,0-14.38,0-21.64,0
	c0,3.46,0,6.53,0,10c-3.66,0-7.06,0-10.85,0c0,3.78,0,7.19,0,10.75c-202.52,0-404.64,0-607.15,0c0-3.4,0-6.8,0-10.47
	c-10.9,0-21.4,0-32.31,0c0-3.41,0-6.57,0-10.13c-3.54,0-6.71,0-10.13,0c0-10.89,0-21.4,0-32.3c-3.65,0-7.06,0-10.85,0
	c0-21.53,0-42.68,0-64.08c-3.7,0-7.01,0-10.6,0c0-21.41,0-42.54,0-64.08c3.37,0,6.77,0,10.34,0c0-3.46,0-6.53,0-10
	c-3.39,0-6.79,0-10.4,0c0-17.85,0-35.31,0-53.16c3.28,0,6.68,0,10.33,0c0-74.77,0-149.14,0-223.79c-3.34,0-6.65,0-10.25,0
	c0-18.05,0-35.83,0-54.01c3.32,0,6.72,0,10.31,0c0-3.46,0-6.53,0-10c-3.33,0-6.74,0-10.36,0c0-10.98,0-21.57,0-32.43
	c3.4,0,6.72,0,10.29,0c0-3.66,0-7.05,0-10.85c-3.38,0-6.78,0-10.35,0c0-3.46,0-6.53,0-10c3.4,0,6.8,0,10.47,0
	c0-21.45,0-42.5,0-63.95c3.65,0,7.05,0,10.85,0c0-7.38,0-14.38,0-21.64c3.46,0,6.53,0,10,0c0-3.65,0-7.06,0-10.85
	c3.78,0,7.19,0,10.85,0c0-3.7,0-7.01,0-10.72c10.85,0,21.45,0,32.43,0c0-3.54,0-6.71,0-10.04c3.46,0,6.53,0,10,0
	c0,3.15,0,6.31,0,9.68C197.06,127.67,207.65,127.67,218.51,127.67z M154.51,171.1c0-3.53,0-7.06,0-10.61c-3.78,0-7.16,0-10.49,0
	c0,3.62,0,7.01,0,10.51c3.7,0,7.15,0,10.6,0c0,10.5,0,21,0,31.88c-3.95,0-7.36,0-10.65,0c0,3.71,0,7.02,0,10.72
	c3.6,0,7.01,0,10.41,0c0,10.66,0,20.92,0,31.58c-3.57,0-6.97,0-10.75,0c0,3.79,0,7.19,0,10.85c-3.71,0-7.02,0-10.42,0
	c0,28.6,0,56.94,0,85.67c3.63,0,7.03,0,10.68,0c0,7.06,0,13.73,0,20.79c3.66,0,7.07,0,10.39,0c0,17.94,0,35.48,0,53.29
	c-3.6,0-6.92,0-10.25,0c0,3.67,0,7.06,0,10.85c3.65,0,7.05,0,10.33,0c0,53.34,0,106.29,0,159.63c-3.61,0-7.01,0-10.67,0
	c0,3.71,0,7.02,0,10.72c-3.66,0-7.07,0-10.43,0c0,28.73,0,57.06,0,85.67c3.58,0,6.9,0,10.6,0c0,7.02,0,13.78,0,20.92
	c3.79,0,7.19,0,10.85,0c0,25.05,0,49.7,0,74.42c206.07,0,411.88,0,618.08,0c0-3.63,0-7.03,0-10.69c7.3,0,14.22,0,21.17,0
	c0-3.67,0-7.06,0-10.85c-3.64,0-7.04,0-10.33,0c0-10.66,0-20.93,0-31.58c3.61,0,7.01,0,10.41,0c0-3.71,0-7.02,0-10.72
	c-3.56,0-6.97,0-10.35,0c0-10.75,0-21.1,0-31.71c3.58,0,6.9,0,10.29,0c0-3.67,0-7.06,0-10.85c-3.63,0-7.03,0-10.36,0
	c0-10.9,0-21.4,0-32.3c3.59,0,7,0,10.31,0c0-3.56,0-6.72,0-10.13c-3.6,0-6.91,0-10.25,0c0-10.86,0-21.45,0-32.3
	c3.56,0,6.88,0,10.32,0c0-3.67,0-7.06,0-10.85c-3.61,0-7.01,0-10.39,0c0-10.66,0-20.92,0-31.58c3.57,0,6.98,0,10.34,0
	c0-3.8,0-7.19,0-10.85c-3.58,0-6.9,0-10.28,0c0-10.62,0-20.97,0-31.71c3.64,0,7.04,0,10.35,0c0-3.71,0-7.02,0-10.72
	c-3.59,0-7,0-10.29,0c0-10.99,0-21.57,0-32.43c3.61,0,6.92,0,10.24,0c0-3.43,0-6.59,0-10c-3.57,0-6.88,0-10.31,0
	c0-3.66,0-7.06,0-10.85c3.62,0,7.02,0,10.38,0c0-3.71,0-7.02,0-10.72c-3.58,0-6.99,0-10.32,0c0-3.8,0-7.19,0-10.85
	c3.59,0,6.91,0,10.27,0c0-3.67,0-7.06,0-10.85c-3.64,0-7.04,0-10.34,0c0-10.66,0-20.93,0-31.58c3.6,0,7.01,0,10.41,0
	c0-3.71,0-7.02,0-10.72c-3.56,0-6.97,0-10.35,0c0-3.8,0-7.19,0-10.85c3.58,0,6.89,0,10.3,0c0-3.43,0-6.58,0-10.13
	c-3.62,0-7.03,0-10.37,0c0-3.71,0-7.02,0-10.72c3.59,0,6.99,0,10.31,0c0-3.8,0-7.2,0-10.85c-3.6,0-6.91,0-10.26,0
	c0-10.86,0-21.45,0-32.3c3.56,0,6.88,0,10.33,0c0-3.43,0-6.58,0-10.13c-3.61,0-7.01,0-10.4,0c0-3.71,0-7.02,0-10.72
	c3.57,0,6.98,0,10.34,0c0-3.8,0-7.19,0-10.85c-3.58,0-6.9,0-10.29,0c0-3.67,0-7.06,0-10.85c3.63,0,7.04,0,10.36,0
	c0-3.71,0-7.02,0-10.72c-3.59,0-7,0-10.3,0c0-10.75,0-21.1,0-31.71c3.61,0,6.92,0,10.25,0c0-3.67,0-7.06,0-10.72
	c-3.57,0-6.88,0-10.32,0c0-3.67,0-7.06,0-10.85c3.61,0,7.02,0,10.39,0c0-3.47,0-6.54,0-10c-3.58,0-6.98,0-10.67,0
	c0-3.85,0-7.31,0-10.76c3.53,0,7.06,0,10.61,0c0-3.78,0-7.16,0-10.49c-3.63,0-7.01,0-10.51,0c0,3.7,0,7.15,0,10.6
	c-3.55,0-7.09,0-11.02,0c0-3.95,0-7.36,0-10.67c-202.51,0-404.61,0-607.12,0c0,3.58,0,6.98,0,10.67
	C161.42,171.1,157.97,171.1,154.51,171.1z M260.76,149.32c0-3.74,0-7.13,0-10.48c-3.58,0-6.88,0-10.31,0c0,3.57,0,6.95,0,10.48
	C253.96,149.32,257.26,149.32,260.76,149.32z M335.99,149.17c3.79,0,7.18,0,10.46,0c0-3.6,0-6.91,0-10.27c-3.59,0-6.98,0-10.46,0
	C335.99,142.43,335.99,145.74,335.99,149.17z M389.04,138.89c-3.71,0-7.1,0-10.48,0c0,3.61,0,7,0,10.29c3.65,0,7.04,0,10.48,0
	C389.04,145.67,389.04,142.45,389.04,138.89z M431.48,138.89c-3.71,0-7.1,0-10.48,0c0,3.61,0,7,0,10.29c3.65,0,7.04,0,10.48,0
	C431.48,145.67,431.48,142.45,431.48,138.89z M516.92,149.29c0-3.65,0-7.03,0-10.35c-3.64,0-7.03,0-10.37,0c0,3.58,0,6.89,0,10.35
	C510.03,149.29,513.33,149.29,516.92,149.29z M549.08,138.82c0,3.71,0,7.1,0,10.35c3.66,0,7.05,0,10.33,0c0-3.6,0-6.91,0-10.35
	C555.91,138.82,552.61,138.82,549.08,138.82z M601.77,149.33c0-3.79,0-7.18,0-10.46c-3.6,0-6.91,0-10.27,0c0,3.59,0,6.98,0,10.46
	C595.04,149.33,598.34,149.33,601.77,149.33z M687.39,149.33c0-3.79,0-7.18,0-10.46c-3.6,0-6.91,0-10.27,0c0,3.59,0,6.98,0,10.46
	C680.65,149.33,683.96,149.33,687.39,149.33z M719.6,138.82c0,3.71,0,7.1,0,10.35c3.66,0,7.05,0,10.33,0c0-3.6,0-6.91,0-10.35
	C726.43,138.82,723.13,138.82,719.6,138.82z M762.03,138.84c0,3.65,0,7.03,0,10.35c3.64,0,7.03,0,10.37,0c0-3.58,0-6.89,0-10.35
	C768.92,138.84,765.62,138.84,762.03,138.84z M196.84,800.05c-3.68,0-7.07,0-10.35,0c0,3.41,0,6.56,0,9.63c3.59,0,6.9,0,10.35,0
	C196.84,806.43,196.84,803.36,196.84,800.05z M272.05,799.86c0,3.47,0,6.62,0,9.75c3.62,0,7.01,0,10.28,0c0-3.41,0-6.56,0-9.75
	C278.82,799.86,275.6,799.86,272.05,799.86z M356.9,799.94c0,3.47,0,6.53,0,9.72c3.57,0,6.95,0,10.38,0c0-3.36,0-6.51,0-9.72
	C363.73,799.94,360.43,799.94,356.9,799.94z M452.94,809.71c0-3.48,0-6.54,0-9.7c-3.58,0-6.97,0-10.35,0c0,3.37,0,6.52,0,9.7
	C446.15,809.71,449.45,809.71,452.94,809.71z M527.39,809.68c3.72,0,7.03,0,10.41,0c0-3.34,0-6.49,0-9.63c-3.62,0-7,0-10.41,0
	C527.39,803.37,527.39,806.43,527.39,809.68z M623.41,809.69c0-3.39,0-6.53,0-9.63c-3.63,0-7.02,0-10.39,0c0,3.33,0,6.4,0,9.63
	C616.5,809.69,619.8,809.69,623.41,809.69z M751.5,809.8c0-3.44,0-6.59,0-9.76c-3.61,0-6.99,0-10.31,0c0,3.4,0,6.55,0,9.76
	C744.69,809.8,747.91,809.8,751.5,809.8z M464.17,138.83c0,3.68,0,7.07,0,10.35c3.41,0,6.56,0,9.63,0c0-3.59,0-6.9,0-10.35
	C470.56,138.83,467.49,138.83,464.17,138.83z M634.72,138.79c0,3.78,0,7.16,0,10.48c3.35,0,6.42,0,9.57,0c0-3.58,0-6.97,0-10.48
	C641.01,138.79,637.95,138.79,634.72,138.79z M708.31,809.69c0-3.39,0-6.53,0-9.63c-3.39,0-6.54,0-9.67,0c0,3.33,0,6.4,0,9.63
	C701.88,809.69,704.94,809.69,708.31,809.69z"/>
<path class="st0" d="M869.04,160.2c0,3.63,0,7.26,0,10.89c-3.45,0-6.89,0-10.59,0c0-3.62,0-7,0-10.89
	C861.97,160.2,865.51,160.2,869.04,160.2z"/>
<path class="st0" d="M869.04,756.58c0,3.63,0,7.26,0,10.89c-3.45,0-6.89,0-10.59,0c0-3.62,0-7,0-10.89
	C861.97,756.58,865.51,756.58,869.04,756.58z"/>
<path class="st0" d="M869.04,714.14c0,3.63,0,7.26,0,10.89c-3.45,0-6.89,0-10.59,0c0-3.62,0-7,0-10.89
	C861.97,714.14,865.51,714.14,869.04,714.14z"/>
<path class="st0" d="M869.04,671.69c0,3.63,0,7.26,0,10.89c-3.45,0-6.89,0-10.59,0c0-3.62,0-7,0-10.89
	C861.97,671.69,865.51,671.69,869.04,671.69z"/>
<path class="st0" d="M869.04,202.65c0,3.63,0,7.26,0,10.89c-3.45,0-6.89,0-10.59,0c0-3.62,0-7,0-10.89
	C861.97,202.65,865.51,202.65,869.04,202.65z"/>
<path class="st0" d="M869.04,586.08c0,3.63,0,7.26,0,10.89c-3.45,0-6.89,0-10.59,0c0-3.62,0-7,0-10.89
	C861.97,586.08,865.51,586.08,869.04,586.08z"/>
<path class="st0" d="M869.04,245.09c0,3.63,0,7.26,0,10.89c-3.45,0-6.89,0-10.59,0c0-3.62,0-7,0-10.89
	C861.97,245.09,865.51,245.09,869.04,245.09z"/>
<path class="st0" d="M869.04,543.64c0,3.63,0,7.26,0,10.89c-3.45,0-6.89,0-10.59,0c0-3.62,0-7,0-10.89
	C861.97,543.64,865.51,543.64,869.04,543.64z"/>
<path class="st0" d="M869.04,266.67c0,3.63,0,7.26,0,10.89c-3.45,0-6.89,0-10.59,0c0-3.62,0-7,0-10.89
	C861.97,266.67,865.51,266.67,869.04,266.67z"/>
<path class="st0" d="M869.04,501.2c0,3.63,0,7.26,0,10.89c-3.45,0-6.89,0-10.59,0c0-3.62,0-7,0-10.89
	C861.97,501.2,865.51,501.2,869.04,501.2z"/>
<path class="st0" d="M869.04,330.7c0,3.63,0,7.26,0,10.89c-3.45,0-6.89,0-10.59,0c0-3.62,0-7,0-10.89
	C861.97,330.7,865.51,330.7,869.04,330.7z"/>
<path class="st0" d="M869.04,437.17c0,3.63,0,7.26,0,10.89c-3.45,0-6.89,0-10.59,0c0-3.62,0-7,0-10.89
	C861.97,437.17,865.51,437.17,869.04,437.17z"/>
<path class="st0" d="M869.04,373.14c0,3.63,0,7.26,0,10.89c-3.45,0-6.89,0-10.59,0c0-3.62,0-7,0-10.89
	C861.97,373.14,865.51,373.14,869.04,373.14z"/>
<path class="st0" d="M869.04,415.59c0,3.63,0,7.26,0,10.89c-3.45,0-6.89,0-10.59,0c0-3.62,0-7,0-10.89
	C861.97,415.59,865.51,415.59,869.04,415.59z"/>
<path class="st0" d="M869.04,352.28c0,3.39,0,6.78,0,10.17c-3.45,0-6.89,0-10.59,0c0-3.38,0-6.53,0-10.17
	C861.97,352.28,865.51,352.28,869.04,352.28z"/>
<path class="st0" d="M869.04,458.75c0,3.39,0,6.78,0,10.17c-3.45,0-6.89,0-10.59,0c0-3.38,0-6.53,0-10.17
	C861.97,458.75,865.51,458.75,869.04,458.75z"/>
<path class="st0" d="M869.04,288.25c0,3.39,0,6.78,0,10.17c-3.45,0-6.89,0-10.59,0c0-3.38,0-6.53,0-10.17
	C861.97,288.25,865.51,288.25,869.04,288.25z"/>
<path class="st0" d="M869.04,522.78c0,3.39,0,6.78,0,10.17c-3.45,0-6.89,0-10.59,0c0-3.38,0-6.53,0-10.17
	C861.97,522.78,865.51,522.78,869.04,522.78z"/>
<path class="st0" d="M869.04,629.25c0,3.39,0,6.78,0,10.17c-3.45,0-6.89,0-10.59,0c0-3.38,0-6.53,0-10.17
	C861.97,629.25,865.51,629.25,869.04,629.25z"/>
<path class="st0" d="M869.04,181.78c0,3.39,0,6.78,0,10.17c-3.45,0-6.89,0-10.59,0c0-3.38,0-6.53,0-10.17
	C861.97,181.78,865.51,181.78,869.04,181.78z"/>
<path class="st0" d="M869.04,117.76c0,3.39,0,6.78,0,10.17c-3.45,0-6.89,0-10.59,0c0-3.38,0-6.52,0-10.17
	C861.97,117.76,865.51,117.76,869.04,117.76z"/>
<path class="st0" d="M869.04,799.74c0,3.39,0,6.78,0,10.17c-3.45,0-6.89,0-10.59,0c0-3.38,0-6.53,0-10.17
	C861.97,799.74,865.51,799.74,869.04,799.74z"/>
<path class="st0" d="M537.99,330.69c7.05,0,14.11,0,21.56,0c0,3.69,0,7.09,0,10.75c3.7,0,7.01,0,10.72,0c0,3.65,0,7.06,0,10.85
	c3.78,0,7.19,0,10.85,0c0,3.46,0,6.53,0,10c3.41,0,6.58,0,10,0c0,3.7,0,7.01,0,10.72c3.65,0,7.05,0,11.01,0c0,7.53,0,14.67,0,21.81
	c-3.53,0-7.06,0-10.61,0c0,3.77,0,7.15,0,10.49c3.62,0,7.01,0,10.51,0c0-3.7,0-7.15,0-10.59c3.45,0,6.9,0,10.7,0
	c0,10.59,0,20.92,0,31.62c3.73,0,7.13,0,10.98,0c0,11.09,0,21.8,0,32.5c-3.53,0-7.06,0-10.61,0c0,3.53,0,6.68,0,9.78
	c3.62,0,7.01,0,10.51,0c0-3.46,0-6.67,0-9.88c3.46,0,6.92,0,10.6,0c0,10.65,0,20.99,0,31.61c-3.4,0-6.72,0-10.42,0
	c0,3.65,0,7.06,0,10.84c-3.78,0-7.19,0-10.75,0c0,3.7,0,7.01,0,10.72c3.39,0,6.79,0,10.4,0c0,3.7,0,7.01,0,10.71
	c-3.28,0-6.68,0-10.47,0c0,10.74,0,21.09,0,31.71c-3.7,0-7.01,0-10.72,0c0,3.65,0,7.05,0,10.84c-3.78,0-7.19,0-10.85,0
	c0,7.06,0,13.73,0,20.79c-7.01,0-13.77,0-20.92,0c0,7.38,0,14.38,0,21.63c-7.3,0-14.21,0-21.51,0c0,3.65,0,7.06,0,10.84
	c-7.38,0-14.38,0-21.64,0c0,3.7,0,7.01,0,10.72c-14.21,0-28.16,0-42.5,0c0,3.54,0,6.71,0,10.03c-10.66,0-20.92,0-31.58,0
	c0-3.15,0-6.32,0-9.68c-3.7,0-7.01,0-10.72,0c0,3.04,0,6.2,0,9.61c-3.78,0-7.18,0-10.84,0c0-3.1,0-6.18,0-9.64
	c-14.21,0-28.16,0-42.5,0c0-3.78,0-7.18,0-10.84c-7.3,0-14.21,0-21.51,0c0-3.65,0-7.05,0-10.84c-3.78,0-7.19,0-10.85,0
	c0-3.7,0-7.01,0-10.72c-3.42,0-6.58,0-10.13,0c0-3.78,0-7.19,0-10.84c-3.7,0-7.01,0-10.72,0c0-3.41,0-6.58,0-10.12
	c-3.78,0-7.19,0-10.85,0c0-3.7,0-7.01,0-10.72c-3.66,0-7.06,0-10.72,0c0-3.7,0-7.01,0-10.72c-3.65,0-7.05,0-10.85,0
	c0-10.74,0-21.09,0-31.7c-3.46,0-6.53,0-9.89,0c0-35.79,0-71.31,0-107.23c3.07,0,6.24,0,9.66,0c0-7.06,0-13.73,0-20.79
	c3.65,0,7.05,0,10.84,0c0-3.78,0-7.19,0-10.84c3.7,0,7.01,0,10.72,0c0-7.25,0-14.25,0-21.63c3.78,0,7.19,0,10.84,0
	c0-3.46,0-6.53,0-10c3.65,0,7.06,0,10.85,0c0-3.78,0-7.19,0-10.84c7.06,0,13.73,0,20.79,0c0-3.65,0-7.06,0-10.72
	c3.7,0,7.01,0,10.72,0c0-3.65,0-7.05,0-10.84c10.98,0,21.57,0,32.43,0c0-3.69,0-7.01,0-10.61c3.41,0,6.57,0,10.12,0
	c0,3.32,0,6.72,0,10.31c3.7,0,7.01,0,10.72,0c0-3.33,0-6.74,0-10.53c3.78,0,7.19,0,10.85,0c0-3.7,0-7.01,0-10.59
	c3.65,0,7.05,0,10.84,0c0,3.37,0,6.78,0,10.34c3.7,0,7.01,0,10.72,0c0-3.38,0-6.79,0-10.4c3.55,0,6.7,0,10.12,0
	c0,3.45,0,6.76,0,10.47c10.85,0,21.44,0,32.3,0c0,3.7,0,7.01,0,10.72c10.61,0,20.96,0,31.87,0c0,3.93,0,7.47,0,11.01
	c-3.53,0-7.06,0-10.61,0c0,3.77,0,7.15,0,10.49c3.62,0,7.01,0,10.51,0C537.99,337.58,537.99,334.13,537.99,330.69z M325.02,501.18
	c3.54,0,7.09,0,11.02,0c0,10.9,0,21.26,0,31.86c3.71,0,7.02,0,10.72,0c0,3.66,0,7.06,0,10.84c3.55,0,6.71,0,10.12,0
	c0,3.71,0,7.02,0,10.72c3.66,0,7.06,0,10.72,0c0,7.3,0,14.21,0,21.5c7.26,0,14.26,0,21.63,0c0,3.55,0,6.71,0,10.12
	c3.7,0,7.02,0,10.72,0c0,3.66,0,7.06,0,10.84c17.94,0,35.48,0,53.28,0c0,3.7,0,7.02,0,10.42c3.66,0,7.06,0,10.85,0
	c0-3.62,0-7.02,0-10.67c17.85,0,35.31,0,53.16,0c0-3.65,0-7.06,0-10.74c3.61,0,6.83,0,10.04,0c0,3.53,0,7.06,0,10.61
	c3.78,0,7.16,0,10.49,0c0-3.62,0-7.01,0-10.51c-3.7,0-7.15,0-10.6,0c0-3.3,0-6.6,0-10.26c7.52,0,14.51,0,21.86,0
	c0-7.36,0-14.35,0-21.57c3.68,0,6.99,0,10.68,0c0-3.65,0-7.05,0-10.71c3.84,0,7.29,0,10.74,0c0,3.53,0,7.06,0,10.61
	c3.78,0,7.16,0,10.49,0c0-3.62,0-7.01,0-10.51c-3.7,0-7.15,0-10.6,0c0-3.54,0-7.09,0-11.02c3.95,0,7.36,0,11.01,0
	c0-7.06,0-13.73,0-20.79c3.42,0,6.59,0,10,0c0-7.3,0-14.21,0-21.51c3.66,0,7.07,0,10.45,0c0-3.8,0-7.19,0-10.85
	c-3.58,0-6.89,0-10.3,0c0-10.62,0-20.97,0-31.71c3.63,0,7.03,0,10.37,0c0-3.71,0-7.02,0-10.72c-6.94,0-13.7,0-20.85,0
	c0-7.39,0-14.39,0-21.64c-3.71,0-7.02,0-10.72,0c0-7.02,0-13.78,0-20.92c-3.79,0-7.2,0-10.85,0c0-3.71,0-7.02,0-10.72
	c-3.66,0-7.07,0-10.72,0c0-3.71,0-7.02,0-10.72c-3.66,0-7.06,0-10.85,0c0-3.79,0-7.19,0-10.85c-3.71,0-7.02,0-10.72,0
	c0-3.42,0-6.59,0-10.13c-7.15,0-13.91,0-20.92,0c0-3.71,0-7.02,0-10.72c-3.66,0-7.06,0-10.85,0c0-3.79,0-7.2,0-10.49
	c-3.71,0-7.02,0-10.72,0c0,3.6,0,7,0,10.41c-10.66,0-20.93,0-31.58,0c0-3.56,0-6.97,0-10.36c-3.8,0-7.19,0-10.85,0
	c0,3.57,0,6.89,0,10.59c-7.26,0-14.26,0-21.64,0c0,3.79,0,7.19,0,10.85c-7.06,0-13.73,0-20.79,0c0,3.42,0,6.59,0,9.67
	c-3.8,0-7.2,0-10.85,0c0-3.36,0-6.43,0-9.54c-3.67,0-7.06,0-10.85,0c0,7,0,13.76,0,20.77c-7.31,0-14.22,0-21.51,0
	c0,7.26,0,14.26,0,21.51c-3.47,0-6.54,0-10,0c0,7.02,0,13.78,0,20.92c-3.79,0-7.19,0-10.85,0c0,10.9,0,21.41,0,32.3
	c-3.66,0-7.07,0-10.63,0c0,18,0,35.6,0,53.21c-3.53,0-7.06,0-10.61,0c0,3.77,0,7.16,0,10.49c3.62,0,7.01,0,10.51,0
	C325.02,508.07,325.02,504.63,325.02,501.18z M400.06,341.34c3.73,0,7.04,0,10.39,0c0-3.59,0-6.98,0-10.33c-3.63,0-7.01,0-10.39,0
	C400.06,334.58,400.06,337.88,400.06,341.34z M581.02,383.84c0-3.71,0-7.01,0-10.44c-3.57,0-6.96,0-10.37,0c0,3.6,0,6.99,0,10.44
	C574.19,383.84,577.5,383.84,581.02,383.84z M324.78,426.3c0-3.77,0-7.16,0-10.48c-3.59,0-6.9,0-10.29,0c0,3.58,0,6.97,0,10.48
	C318.02,426.3,321.32,426.3,324.78,426.3z M549.02,352.5c0,3.32,0,6.47,0,9.67c3.6,0,6.98,0,10.33,0c0-3.39,0-6.54,0-9.67
	C555.78,352.5,552.47,352.5,549.02,352.5z"/>
<path class="st0" d="M495.54,415.57c3.46,0,6.92,0,10.76,0c0,3.68,0,7.09,0,10.75c3.7,0,7.01,0,10.72,0c0,3.65,0,7.05,0,10.84
	c3.54,0,6.71,0,10.04,0c0,21.44,0,42.5,0,63.94c-3.14,0-6.31,0-9.86,0c0,7.38,0,14.38,0,21.64c-3.7,0-7.01,0-10.72,0
	c0,3.41,0,6.58,0,10c-10.89,0-21.4,0-32.3,0c0,3.65,0,7.05,0,10.69c-10.74,0-21.09,0-31.71,0c0-3.35,0-6.67,0-10.37
	c-7.25,0-14.25,0-21.64,0c0-3.54,0-6.7,0-10.12c-3.46,0-6.53,0-10,0c0-7.25,0-14.25,0-21.63c-3.78,0-7.18,0-10.84,0
	c0-3.7,0-7.01,0-10.72c-3.65,0-7.06,0-10.67,0c0-14.34,0-28.28,0-42.49c3.42,0,6.74,0,10.44,0c0-7.25,0-14.25,0-21.63
	c3.78,0,7.19,0,10.84,0c0-3.7,0-7.01,0-10.72c3.41,0,6.58,0,10,0c0-3.45,0-6.53,0-9.89c25,0,49.74,0,75.03,0c0,3.21,0,6.52,0,9.82
	c-3.53,0-7.06,0-10.61,0c0,3.78,0,7.16,0,10.49c3.63,0,7.01,0,10.51,0C495.54,422.47,495.54,419.02,495.54,415.57z M484.83,501.19
	c0,3.53,0,7.06,0,10.61c3.78,0,7.16,0,10.49,0c0-3.62,0-7.01,0-10.51c-3.7,0-7.15,0-10.6,0c0-3.54,0-7.09,0-11.01
	c3.95,0,7.35,0,10.66,0c0-10.65,0-20.91,0-31.56c-3.59,0-6.99,0-10.77,0c0-3.79,0-7.19,0-10.84c-3.7,0-7.02,0-10.71,0
	c0-3.66,0-7.06,0-10.38c-10.74,0-21.09,0-31.69,0c0,3.59,0,6.9,0,10.6c-3.66,0-7.06,0-10.84,0c0,3.79,0,7.19,0,10.84
	c-3.7,0-7.02,0-10.38,0c0,3.42,0,6.58,0,10.12c3.63,0,7.03,0,10.68,0c0,10.89,0,21.39,0,32.28c3.65,0,7.06,0,10.83,0
	c0,3.79,0,7.19,0,10.52c3.71,0,7.02,0,10.71,0c0-3.58,0-6.99,0-10.66C464.01,501.19,474.42,501.19,484.83,501.19z M442.58,415.8
	c0,3.65,0,7.03,0,10.35c3.64,0,7.03,0,10.37,0c0-3.58,0-6.89,0-10.35C449.47,415.8,446.17,415.8,442.58,415.8z M400.16,458.94
	c0,3.49,0,6.64,0,9.76c3.58,0,6.88,0,10.32,0c0-3.33,0-6.47,0-9.76C406.97,458.94,403.67,458.94,400.16,458.94z"/>
</svg>
