<?xml version="1.0" encoding="utf-8"?>
<!-- Generator: Adobe Illustrator 24.3.0, SVG Export Plug-In . SVG Version: 6.00 Build 0)  -->
<svg version="1.1" id="Layer_1" xmlns="http://www.w3.org/2000/svg" xmlns:xlink="http://www.w3.org/1999/xlink" x="0px" y="0px"
	 viewBox="0 0 11 11" style="enable-background:new 0 0 11 11;" xml:space="preserve">
<style type="text/css">
	.st0{fill:#65B042;stroke:#65B042;stroke-width:0.05;}
</style>
<path class="st0" d="M1.43,9.63L1.43,9.63c0.12,0.12,0.29,0.19,0.47,0.19L1.43,9.63z M1.43,9.63L1.43,9.63 M1.43,9.63L1.43,9.63
	 M1.43,9.63c-0.27-0.23-0.6-0.77-0.6-2.04V2.96C1.19,3.2,1.79,3.4,2.78,3.4c1.89,0,6.25-0.02,7.38-0.02l0,6.45 M1.43,9.63l8.74,0.19
	 M10.17,9.82l-8.26,0L10.17,9.82z M1.89,10.33L1.89,10.33L1.89,10.33c0.02,0,0.03,0,0.05,0h8.51c0.07,0,0.14-0.03,0.19-0.07
	c0.05-0.05,0.08-0.11,0.08-0.18V3.12c0-0.07-0.03-0.13-0.08-0.18l0,0l-0.01,0c-0.05-0.05-0.12-0.07-0.19-0.07l0,0.02V2.87
	c0,0-0.05,0-0.13,0c-0.21,0-0.67,0-1.25,0V0.92c0-0.07-0.03-0.13-0.08-0.18C8.92,0.7,8.85,0.67,8.78,0.67H1.95
	c-0.44-0.03-0.87,0.12-1.18,0.4C0.45,1.34,0.27,1.73,0.28,2.14v5.45c0,1.17,0.26,2,0.8,2.44C1.3,10.21,1.59,10.32,1.89,10.33z
	 M0.83,2.13L0.83,2.13c0-0.27,0.12-0.52,0.33-0.7c0.21-0.18,0.5-0.27,0.79-0.25l0,0l0.01,0H8.5v1.7C6.71,2.88,4.13,2.89,2.78,2.89
	c-0.94,0-1.43-0.19-1.68-0.37C0.85,2.33,0.83,2.14,0.83,2.13z"/>
</svg>
