<svg width="13" height="12" viewBox="0 0 13 12" fill="none" xmlns="http://www.w3.org/2000/svg">
<path fill-rule="evenodd" clip-rule="evenodd" d="M12.186 0.273438H0.733398V11.726H12.186V0.273438ZM9.9765 3.09626C10.0222 3.04512 10.0823 3.01247 10.1476 3.00261L10.1477 3.00278C10.2755 2.98306 10.4009 3.05393 10.457 3.17776C10.5131 3.30159 10.4871 3.45069 10.3928 3.54495C9.60814 4.38297 8.78499 5.29851 7.96027 6.21581C7.1322 7.13683 6.30253 8.05963 5.50857 8.90752C5.40045 9.02212 5.22874 9.03074 5.1108 8.92724L2.59465 6.71912C2.53395 6.66551 2.49521 6.5885 2.48769 6.5041C2.48018 6.4203 2.50388 6.33712 2.55418 6.27182C2.60507 6.20713 2.67733 6.16646 2.75654 6.15845C2.83518 6.15106 2.91323 6.17694 2.97393 6.23116L5.27724 8.2519C6.00406 7.4706 6.76009 6.63179 7.51753 5.79142C8.3477 4.87035 9.17957 3.9474 9.9765 3.09626Z" fill="white"/>
</svg>
