<?xml version="1.0" encoding="utf-8"?>
<!-- Generator: Adobe Illustrator 24.3.0, SVG Export Plug-In . SVG Version: 6.00 Build 0)  -->
<svg version="1.1" id="Layer_1" xmlns="http://www.w3.org/2000/svg" xmlns:xlink="http://www.w3.org/1999/xlink" x="0px" y="0px"
	 viewBox="0 0 10 10" style="enable-background:new 0 0 10 10;" xml:space="preserve">
<style type="text/css">
	.st0{fill:#65B042;}
	.st1{fill:none;}
</style>
<path class="st0" d="M5.41,8.5C3.58,8.89,1.75,7.9,1.06,6.16C0.4,4.51,0.96,2.65,2.39,1.63L2.25,2.55C2.23,2.7,2.33,2.84,2.48,2.87
	c0.01,0,0.03,0,0.04,0c0.13,0,0.25-0.1,0.27-0.23l0.21-1.42C3.02,1.14,3,1.07,2.96,1.01C2.91,0.95,2.85,0.91,2.78,0.9L1.36,0.69
	C1.21,0.67,1.07,0.78,1.05,0.93C1.02,1.08,1.13,1.22,1.28,1.24l0.6,0.09C0.39,2.52-0.17,4.55,0.55,6.37c0.67,1.7,2.3,2.77,4.07,2.77
	c0.3,0,0.6-0.03,0.9-0.09c0.15-0.03,0.24-0.18,0.21-0.33C5.7,8.57,5.56,8.47,5.41,8.5L5.41,8.5z M8.11,8.21l-0.66-0.1
	c1.44-1.2,1.97-3.2,1.26-4.98C7.92,1.14,5.83,0.01,3.74,0.45C3.59,0.48,3.49,0.63,3.53,0.78C3.56,0.92,3.7,1.02,3.85,0.99
	c1.83-0.38,3.66,0.6,4.35,2.34c0.63,1.6,0.13,3.39-1.19,4.43l0.13-0.87C7.16,6.74,7.05,6.6,6.9,6.58C6.75,6.56,6.61,6.66,6.59,6.81
	L6.38,8.23C6.37,8.3,6.39,8.37,6.43,8.43c0.04,0.06,0.11,0.1,0.18,0.11l1.42,0.21c0.01,0,0.03,0,0.04,0c0.13,0,0.25-0.1,0.27-0.23
	C8.37,8.37,8.26,8.23,8.11,8.21z"/>
<path class="st1" d="M5.41,8.5C3.58,8.89,1.75,7.9,1.06,6.16C0.4,4.51,0.96,2.65,2.39,1.63L2.25,2.55C2.23,2.7,2.33,2.84,2.48,2.87
	c0.01,0,0.03,0,0.04,0c0.13,0,0.25-0.1,0.27-0.23l0.21-1.42C3.02,1.14,3,1.07,2.96,1.01C2.91,0.95,2.85,0.91,2.78,0.9L1.36,0.69
	C1.21,0.67,1.07,0.78,1.05,0.93C1.02,1.08,1.13,1.22,1.28,1.24l0.6,0.09C0.39,2.52-0.17,4.55,0.55,6.37c0.67,1.7,2.3,2.77,4.07,2.77
	c0.3,0,0.6-0.03,0.9-0.09c0.15-0.03,0.24-0.18,0.21-0.33C5.7,8.57,5.56,8.47,5.41,8.5L5.41,8.5z M8.11,8.21l-0.66-0.1
	c1.44-1.2,1.97-3.2,1.26-4.98C7.92,1.14,5.83,0.01,3.74,0.45C3.59,0.48,3.49,0.63,3.53,0.78C3.56,0.92,3.7,1.02,3.85,0.99
	c1.83-0.38,3.66,0.6,4.35,2.34c0.63,1.6,0.13,3.39-1.19,4.43l0.13-0.87C7.16,6.74,7.05,6.6,6.9,6.58C6.75,6.56,6.61,6.66,6.59,6.81
	L6.38,8.23C6.37,8.3,6.39,8.37,6.43,8.43c0.04,0.06,0.11,0.1,0.18,0.11l1.42,0.21c0.01,0,0.03,0,0.04,0c0.13,0,0.25-0.1,0.27-0.23
	C8.37,8.37,8.26,8.23,8.11,8.21z"/>
</svg>
