<svg width="12" height="11" viewBox="0 0 12 11" fill="none" xmlns="http://www.w3.org/2000/svg">
    <rect x="0.663086" y="1.82019" width="8.57254" height="8.21432" fill="#DECFCC" stroke="white" stroke-width="0.5"/>
    <rect x="1.63574" y="0.876953" width="8.57254" height="8.21432" fill="white" stroke="white" stroke-width="0.5"/>
    <rect x="6.72471" y="5.69651" width="0.346606" height="0.284952" transform="rotate(-180 6.72471 5.69651)" fill="#EC5C3D" stroke="#EC5C3D" stroke-width="0.284952"/>
    <rect x="6.72471" y="5.12657" width="0.346606" height="0.284951" transform="rotate(-180 6.72471 5.12657)" fill="#EC5C3D" stroke="#EC5C3D" stroke-width="0.284951"/>
    <rect x="7.35655" y="4.55662" width="0.346608" height="0.284951" transform="rotate(-180 7.35655 4.55662)" fill="#EC5C3D" stroke="#EC5C3D" stroke-width="0.284951"/>
    <rect x="6.72471" y="4.55662" width="0.346606" height="0.284951" transform="rotate(-180 6.72471 4.55662)" fill="#EC5C3D" stroke="#EC5C3D" stroke-width="0.284951"/>
    <rect x="6.09385" y="5.12657" width="0.346606" height="0.284951" transform="rotate(-180 6.09385 5.12657)" fill="#EC5C3D" stroke="#EC5C3D" stroke-width="0.284951"/>
    <rect x="7.35655" y="3.98692" width="0.346607" height="0.284951" transform="rotate(-180 7.35655 3.98692)" fill="#EC5C3D" stroke="#EC5C3D" stroke-width="0.284951"/>
    <rect x="7.98838" y="3.98692" width="0.346606" height="0.284951" transform="rotate(-180 7.98838 3.98692)" fill="#EC5C3D" stroke="#EC5C3D" stroke-width="0.284951"/>
    <rect x="7.98838" y="3.41697" width="0.346606" height="0.284952" transform="rotate(-180 7.98838 3.41697)" fill="#EC5C3D" stroke="#EC5C3D" stroke-width="0.284952"/>
    <rect x="7.35655" y="5.69651" width="0.346607" height="0.284951" transform="rotate(-180 7.35655 5.69651)" fill="#EC5C3D" stroke="#EC5C3D" stroke-width="0.284951"/>
    <rect x="7.35655" y="6.26634" width="0.346607" height="0.284951" transform="rotate(-180 7.35655 6.26634)" fill="#EC5C3D" stroke="#EC5C3D" stroke-width="0.284951"/>
    <rect x="7.98838" y="6.26634" width="0.346607" height="0.284951" transform="rotate(-180 7.98838 6.26634)" fill="#EC5C3D" stroke="#EC5C3D" stroke-width="0.284951"/>
    <rect x="7.98838" y="6.83628" width="0.346607" height="0.284951" transform="rotate(-180 7.98838 6.83628)" fill="#EC5C3D" stroke="#EC5C3D" stroke-width="0.284951"/>
    <rect x="5.11708" y="4.27175" width="0.346606" height="0.284951" fill="#EC5C3D" stroke="#EC5C3D" stroke-width="0.284951"/>
    <rect x="5.11709" y="4.84169" width="0.346606" height="0.284952" fill="#EC5C3D" stroke="#EC5C3D" stroke-width="0.284952"/>
    <rect x="4.48525" y="5.41164" width="0.346607" height="0.284951" fill="#EC5C3D" stroke="#EC5C3D" stroke-width="0.284951"/>
    <rect x="5.11708" y="5.41164" width="0.346606" height="0.284951" fill="#EC5C3D" stroke="#EC5C3D" stroke-width="0.284951"/>
    <rect x="5.74794" y="4.84169" width="0.346605" height="0.284952" fill="#EC5C3D" stroke="#EC5C3D" stroke-width="0.284952"/>
    <rect x="4.48525" y="5.98134" width="0.346606" height="0.284951" fill="#EC5C3D" stroke="#EC5C3D" stroke-width="0.284951"/>
    <rect x="3.85341" y="5.98134" width="0.346607" height="0.284951" fill="#EC5C3D" stroke="#EC5C3D" stroke-width="0.284951"/>
    <rect x="3.85341" y="6.55129" width="0.346607" height="0.284951" fill="#EC5C3D" stroke="#EC5C3D" stroke-width="0.284951"/>
    <rect x="4.48525" y="4.27175" width="0.346606" height="0.284951" fill="#EC5C3D" stroke="#EC5C3D" stroke-width="0.284951"/>
    <rect x="4.48525" y="3.70192" width="0.346605" height="0.284952" fill="#EC5C3D" stroke="#EC5C3D" stroke-width="0.284952"/>
    <rect x="3.85341" y="3.70192" width="0.346606" height="0.284951" fill="#EC5C3D" stroke="#EC5C3D" stroke-width="0.284951"/>
    <rect x="3.85341" y="3.13198" width="0.346607" height="0.284951" fill="#EC5C3D" stroke="#EC5C3D" stroke-width="0.284951"/>
</svg>
