<svg width="9" height="11" viewBox="0 0 9 11" fill="none" xmlns="http://www.w3.org/2000/svg">
<path d="M8.42778 2.05858H7.53241V1.1632C7.53241 0.858918 7.29946 0.625977 6.99518 0.625977H1.26477C0.96048 0.625977 0.727539 0.858918 0.727539 1.1632V8.68437C0.727539 8.98866 0.96048 9.2216 1.26477 9.2216H2.16014V10.117C2.16014 10.4213 2.39308 10.6542 2.69737 10.6542H8.42778C8.73207 10.6542 8.96501 10.4213 8.96501 10.117V2.59581C8.96501 2.29152 8.73207 2.05858 8.42778 2.05858ZM1.26477 8.86345C1.15704 8.86345 1.08569 8.79209 1.08569 8.68437V1.1632C1.08569 1.05548 1.15704 0.984127 1.26477 0.984127H6.99518C7.1029 0.984127 7.17426 1.05548 7.17426 1.1632V2.05858H2.69737C2.39308 2.05858 2.16014 2.29152 2.16014 2.59581V8.86345H1.26477ZM8.60686 10.117C8.60686 10.2247 8.53551 10.296 8.42778 10.296H2.69737C2.58964 10.296 2.51829 10.2247 2.51829 10.117V2.59581C2.51829 2.48808 2.58964 2.41673 2.69737 2.41673H8.42778C8.53551 2.41673 8.60686 2.48808 8.60686 2.59581V10.117Z" fill="white"/>
</svg>
