<svg width="21" height="547" viewBox="0 0 21 547" fill="none" xmlns="http://www.w3.org/2000/svg">
    <path d="M5.74821 378.45L5.74821 383.469L1.0879 383.469C0.927199 383.469 0.766499 383.548 0.686149 383.548C0.686149 385.46 0.686149 387.292 0.766499 389.204C0.846849 389.204 0.846849 389.284 0.927199 389.284L5.74821 389.284L5.74821 394.303L0.766499 394.303C0.686149 394.382 0.525448 394.382 0.445098 394.382C0.445098 396.055 0.445098 397.648 0.445098 399.321C0.605798 399.401 0.686149 399.48 0.846849 399.56L5.66786 399.56L5.66786 404.499C3.98051 404.499 2.29315 404.499 0.686149 404.499C0.686149 406.172 0.686149 407.924 0.686149 409.757L5.74821 409.757L5.74821 415.492L0.605798 415.492C0.525448 415.492 0.525448 415.492 0.445098 415.492C0.445098 417.245 0.445098 418.997 0.445098 420.75C0.605798 420.75 0.846849 420.75 1.00755 420.829L5.66786 420.829L5.66786 425.768L0.846849 425.768C0.686148 425.768 0.605798 425.848 0.445098 425.848C0.445098 427.521 0.445098 429.273 0.445098 430.946C0.525448 430.946 0.605798 430.946 0.686148 431.026L5.66786 431.026L5.66786 436.682L0.686148 436.682L0.686148 436.522C0.605798 436.522 0.525448 436.522 0.445098 436.522C0.445098 438.275 0.445098 440.107 0.445098 441.86C0.525448 441.86 0.605798 441.86 0.686148 441.86L0.766498 441.86C0.846849 441.86 0.846848 441.86 0.927199 441.86C1.00755 441.86 1.00755 441.86 1.0879 441.86L5.74821 441.86L5.74821 446.719L1.0879 446.719C1.00755 446.719 0.927199 446.719 0.766498 446.719C0.686148 446.719 0.605798 446.719 0.605798 446.719C0.525448 446.719 0.525448 446.719 0.445097 446.719C0.445097 452.136 0.445097 457.553 0.445097 463.049C0.525447 463.049 0.605798 463.049 0.686148 463.049L5.66786 463.049L5.66786 467.988L0.686148 467.988C0.605798 467.988 0.525447 467.988 0.445097 467.988C0.445097 473.086 0.445097 478.264 0.445097 483.362C0.525447 483.362 0.605797 483.362 0.686148 483.362L5.66786 483.362L5.66786 489.018L1.00755 489.018C0.927198 489.018 0.846848 489.018 0.766498 489.018C0.605797 489.018 0.525447 489.018 0.364747 489.018C0.364747 494.037 0.364747 499.135 0.364747 504.313C0.445097 504.313 0.525447 504.313 0.605797 504.313C0.686147 504.313 0.766498 504.313 0.846848 504.313C1.00755 504.313 1.16825 504.313 1.32895 504.313L5.66786 504.313L5.66786 509.969L0.686147 509.969C0.605797 509.969 0.525447 509.969 0.445097 509.969C0.445097 521.519 0.445096 533.07 0.445096 544.621C0.364746 545.258 0.364746 545.895 0.364746 546.533L12.4523 546.533C16.8706 546.533 20.4523 542.951 20.4523 538.533L20.4523 409.757L15.9527 409.757L15.9527 415.412L10.8906 415.412L10.8906 409.677L15.8723 409.677L15.8723 404.499C17.399 404.499 18.9256 404.499 20.4523 404.499L20.4523 389.364C18.9256 389.364 17.5597 389.285 16.033 389.285C16.033 387.373 16.033 385.381 16.033 383.469L10.8103 383.548L10.8103 378.53C9.12292 378.45 7.43557 378.45 5.74821 378.45ZM15.8723 451.976L15.8723 456.915L10.8906 456.915L10.8906 451.976L15.8723 451.976ZM15.8723 430.866L15.8723 436.522L10.8906 436.522L10.8906 430.866L15.8723 430.866ZM15.8723 420.67L15.8723 425.609L10.8906 425.609L10.8906 420.67L15.8723 420.67ZM15.8723 399.56C15.8723 401.233 15.8723 402.826 15.8723 404.499L10.8906 404.499L10.8906 399.56L15.8723 399.56ZM16.033 394.303L10.8906 394.303L10.8906 389.284C12.4976 389.284 14.426 389.285 16.033 389.285C16.1937 390.878 15.9527 392.55 16.033 394.303Z" fill="white"/>
    <path d="M10.8103 378.45C10.8103 376.777 10.8103 375.104 10.8103 373.272C12.578 373.272 14.185 373.272 15.9527 373.272C15.9527 371.52 15.9527 369.927 15.9527 368.015C17.5597 368.015 19.006 368.015 20.4523 368.015C20.4523 373.113 20.4523 378.291 20.4523 383.389C18.9257 383.389 17.399 383.389 15.8724 383.389C15.8724 381.716 15.8724 380.043 15.8724 378.291C14.1047 378.45 12.4977 378.45 10.8103 378.45Z" fill="white"/>
    <path d="M10.8105 0.62304C10.8105 2.37556 10.8105 4.20775 10.8105 5.96027C9.20345 5.96027 7.51609 5.96027 5.58769 5.96027C5.74839 4.04843 5.50732 2.37556 5.58767 0.62304C7.27503 0.62304 9.20345 0.62304 10.8105 0.62304Z" fill="white"/>
    <path d="M20.4523 16.794C19.006 16.794 17.5597 16.794 15.8723 16.794C15.8723 14.7228 15.8723 12.811 15.8723 10.8992C17.399 10.8992 18.9256 10.8992 20.4523 10.8992C20.4523 12.8906 20.4523 14.8822 20.4523 16.794Z" fill="white"/>
    <path d="M15.8723 90.3999C15.8723 88.488 15.8723 86.5762 15.8723 84.505C17.5597 84.505 19.006 84.505 20.4523 84.505C20.4523 86.4169 20.4523 88.4083 20.4523 90.3202C18.9256 90.3202 17.399 90.3999 15.8723 90.3999Z" fill="white"/>
    <path d="M20.4523 142.657C19.006 142.657 17.5597 142.657 15.8723 142.657C15.8723 140.586 15.8723 138.674 15.8723 136.762C17.399 136.762 18.9256 136.762 20.4523 136.762C20.4523 138.753 20.4523 140.745 20.4523 142.657Z" fill="white"/>
    <path d="M15.8723 216.263C15.8723 214.351 15.8723 212.439 15.8723 210.368C17.5597 210.368 19.006 210.368 20.4523 210.368C20.4523 212.28 20.4523 214.271 20.4523 216.183C18.9256 216.183 17.399 216.263 15.8723 216.263Z" fill="white"/>
    <path d="M15.8723 237.213C15.8723 235.301 15.8723 233.469 15.8723 231.318C17.5597 231.318 19.006 231.318 20.4523 231.318C20.4523 233.23 20.4523 235.222 20.4523 237.133C18.9256 237.213 17.399 237.213 15.8723 237.213Z" fill="white"/>
    <path d="M15.8723 363.076C15.8723 361.164 15.8723 359.332 15.8723 357.181C17.5597 357.181 19.006 357.181 20.4523 357.181C20.4523 359.093 20.4523 361.084 20.4523 362.996C18.9256 363.076 17.399 363.076 15.8723 363.076Z" fill="white"/>
    <path d="M20.4524 163.607C19.0061 163.607 17.6402 163.607 16.1135 163.607C16.1135 161.775 16.1135 159.943 16.1135 158.031C17.5598 158.031 19.0061 158.031 20.4524 158.031C20.4524 159.943 20.4524 161.775 20.4524 163.607Z" fill="white"/>
    <path d="M20.4522 289.47C19.0059 289.47 17.5596 289.47 16.033 289.47C16.033 287.558 16.033 285.726 16.033 283.894C17.5596 283.894 19.0059 283.894 20.4522 283.894C20.4522 285.806 20.4522 287.638 20.4522 289.47Z" fill="white"/>
    <path d="M15.8723 5.96027C15.8723 4.68571 15.9527 3.33147 15.9527 2.05691C15.9527 1.57895 16.1134 1.101 16.1134 0.62304C17.5597 0.62304 19.006 0.62304 20.3719 0.62304C20.3719 2.37556 20.3719 4.12809 20.3719 5.96027C18.9256 5.88061 17.399 5.96027 15.8723 5.96027Z" fill="white"/>
    <path d="M20.4524 79.4864C19.0061 79.4864 17.6402 79.4864 16.1135 79.4864C16.1135 77.6542 16.1135 76.061 16.1135 74.1492C17.5598 74.1492 19.0061 74.1492 20.4524 74.1492C20.4524 75.9017 20.4524 77.6542 20.4524 79.4864Z" fill="white"/>
    <path d="M20.4524 205.349C19.0061 205.349 17.6402 205.349 16.1135 205.349C16.1135 203.517 16.1135 201.924 16.1135 200.012C17.5598 200.012 19.0061 200.012 20.4524 200.012C20.4524 201.764 20.4524 203.517 20.4524 205.349Z" fill="white"/>
    <path d="M20.4523 352.162C18.9256 352.162 17.399 352.162 15.8723 352.162L15.9527 352.242C15.9527 350.569 15.9527 348.817 15.9527 347.144L15.8723 347.223C17.399 347.223 18.9256 347.223 20.4523 347.223C20.4523 348.817 20.4523 350.49 20.4523 352.162Z" fill="white"/>
    <path d="M15.8723 26.9108C15.8723 25.3176 15.8723 23.6447 15.8723 21.8922C17.5597 21.8922 19.006 21.8922 20.4523 21.8922C20.4523 23.5651 20.4523 25.2379 20.4523 26.9108C18.9256 26.9108 17.399 26.9108 15.8723 26.9108Z" fill="white"/>
    <path d="M15.8723 48.1801C15.8723 46.5072 15.8723 44.8343 15.8723 43.0818C17.5597 43.0818 19.006 43.0818 20.4523 43.0818C20.4523 44.7547 20.4523 46.4275 20.4523 48.1004C18.9256 48.1004 17.399 48.1801 15.8723 48.1801Z" fill="white"/>
    <path d="M15.8723 53.119C17.399 53.119 18.9256 53.119 20.4523 53.119C20.4523 54.7919 20.4523 56.4648 20.4523 58.1376C19.006 58.1376 17.5597 58.1376 15.8723 58.1376C15.8723 56.4648 15.8723 54.7919 15.8723 53.119Z" fill="white"/>
    <path d="M15.8723 69.1306C15.8723 67.4577 15.8723 65.8645 15.8723 64.0323C17.5597 64.0323 19.006 64.0323 20.4523 64.0323C20.4523 65.7052 20.4523 67.378 20.4523 69.0509C18.9256 69.1305 17.399 69.1306 15.8723 69.1306Z" fill="white"/>
    <path d="M20.4523 342.046C18.9256 342.046 17.399 342.046 15.8723 342.046C15.8723 340.373 15.8723 338.7 15.8723 336.947C17.5597 336.947 19.006 336.947 20.4523 336.947C20.4523 338.7 20.4523 340.373 20.4523 342.046Z" fill="white"/>
    <path d="M15.8723 95.3387C17.399 95.3387 18.9256 95.3387 20.4523 95.3387C20.4523 97.0116 20.4523 98.6845 20.4523 100.357C19.006 100.357 17.5597 100.357 15.8723 100.357C15.8723 98.6845 15.8723 97.0116 15.8723 95.3387Z" fill="white"/>
    <path d="M15.8723 131.823C15.8723 130.15 15.8723 128.557 15.8723 126.725C17.5597 126.725 19.006 126.725 20.4523 126.725C20.4523 128.398 20.4523 130.071 20.4523 131.743C18.9256 131.743 17.399 131.823 15.8723 131.823Z" fill="white"/>
    <path d="M15.8723 278.636C15.8723 277.043 15.8723 275.37 15.8723 273.618C17.5597 273.618 19.006 273.618 20.4523 273.618C20.4523 275.29 20.4523 276.963 20.4523 278.636C18.9256 278.636 17.399 278.636 15.8723 278.636Z" fill="white"/>
    <path d="M15.8723 263.421C17.399 263.421 18.9256 263.421 20.4523 263.421C20.4523 265.094 20.4523 266.767 20.4523 268.44C19.006 268.44 17.5597 268.44 15.8723 268.44C15.8723 266.767 15.8723 265.094 15.8723 263.421Z" fill="white"/>
    <path d="M15.8723 299.906C15.8723 298.233 15.8723 296.56 15.8723 294.807C17.5597 294.807 19.006 294.807 20.4523 294.807C20.4523 296.48 20.4523 298.153 20.4523 299.826C18.9256 299.826 17.399 299.906 15.8723 299.906Z" fill="white"/>
    <path d="M20.4523 257.606C18.9256 257.606 17.399 257.606 15.8723 257.606C15.8723 255.933 15.8723 254.34 15.8723 252.508C17.5597 252.508 19.006 252.508 20.4523 252.508C20.4523 254.26 20.4523 255.933 20.4523 257.606Z" fill="white"/>
    <path d="M20.4523 226.3C19.006 226.3 17.5597 226.3 15.8723 226.3C15.8723 224.547 15.8723 222.874 15.8723 221.202C17.399 221.202 18.9256 221.202 20.4523 221.202C20.4523 222.954 20.4523 224.627 20.4523 226.3Z" fill="white"/>
    <path d="M15.8723 304.924C17.399 304.924 18.9256 304.924 20.4523 304.924C20.4523 306.597 20.4523 308.27 20.4523 309.943C18.9256 309.943 17.399 309.943 15.8723 309.943L15.9527 310.022C15.9527 308.27 15.9527 306.597 15.8723 304.924Z" fill="white"/>
    <path d="M15.8723 194.993C15.8723 193.4 15.8723 191.727 15.8723 189.895C17.5597 189.895 19.006 189.895 20.4523 189.895C20.4523 191.568 20.4523 193.241 20.4523 194.914C18.9256 194.993 17.399 194.993 15.8723 194.993Z" fill="white"/>
    <path d="M20.4523 184.08C19.006 184.08 17.5597 184.08 15.8723 184.08C15.8723 182.327 15.8723 180.655 15.8723 178.982C17.399 178.982 18.9256 178.982 20.4523 178.982C20.4523 180.734 20.4523 182.407 20.4523 184.08Z" fill="white"/>
    <path d="M20.4523 173.963C18.9256 173.963 17.399 173.963 15.8723 173.963C15.8723 172.29 15.8723 170.617 15.8723 168.865C17.5597 168.865 19.006 168.865 20.4523 168.865C20.4523 170.617 20.4523 172.29 20.4523 173.963Z" fill="white"/>
    <path d="M15.8723 315.837C17.399 315.837 18.9256 315.837 20.4523 315.837C20.4523 317.51 20.4523 319.183 20.4523 320.856C18.9256 320.856 17.399 320.856 15.8723 320.856L15.9527 320.936C15.9527 319.183 15.9527 317.431 15.8723 315.837Z" fill="white"/>
    <path d="M15.8723 152.774C15.8723 151.18 15.8723 149.507 15.8723 147.755C17.5597 147.755 19.006 147.755 20.4523 147.755C20.4523 149.428 20.4523 151.101 20.4523 152.774C18.9256 152.774 17.399 152.774 15.8723 152.774Z" fill="white"/>
    <path d="M15.8723 110.554C15.8723 108.961 15.8723 107.367 15.8723 105.535C17.5597 105.535 19.006 105.535 20.4523 105.535C20.4523 107.208 20.4523 108.881 20.4523 110.554C18.9256 110.554 17.399 110.554 15.8723 110.554Z" fill="white"/>
    <path d="M20.4522 121.388C19.0059 121.388 17.5596 121.388 16.033 121.388C16.033 119.715 16.033 118.201 16.033 116.369C17.5596 116.369 19.0059 116.369 20.4522 116.369C20.4522 118.042 20.4522 119.715 20.4522 121.388Z" fill="white"/>
    <path d="M20.4522 247.25C19.0059 247.25 17.5596 247.25 16.033 247.25C16.033 245.578 16.033 244.064 16.033 242.232C17.5596 242.232 19.0059 242.232 20.4522 242.232C20.4522 243.905 20.4522 245.578 20.4522 247.25Z" fill="white"/>
    <path d="M20.4524 37.2666C19.0061 37.2666 17.6402 37.2666 16.1135 37.2666C16.1135 35.5141 16.1135 33.8412 16.1135 32.248C17.5598 32.248 19.0061 32.248 20.4524 32.248C20.4524 33.8412 20.4524 35.5937 20.4524 37.2666Z" fill="white"/>
    <path d="M20.4524 331.212C19.0061 331.212 17.6402 331.212 16.1135 331.212C16.1135 329.459 16.1135 327.866 16.1135 326.193C17.5598 326.193 19.0061 326.193 20.4524 326.193C20.4524 327.786 20.4524 329.539 20.4524 331.212Z" fill="white"/>
    <path d="M10.8104 357.181C10.8104 359.093 10.8104 361.005 10.8104 362.996C12.5781 362.996 14.2655 362.996 15.9528 362.996C15.9528 364.589 15.9528 366.262 15.9528 368.094C14.3458 368.094 12.7388 368.094 10.8908 368.094C10.8908 369.847 10.8908 371.52 10.8908 373.193C9.12305 373.193 7.51605 373.193 5.82869 373.193C5.82869 371.599 5.82869 370.006 5.82869 368.094C3.98064 368.094 2.29328 368.094 0.686279 368.094C0.686279 366.422 0.686279 364.749 0.686279 363.076C2.37363 363.076 3.98064 363.076 5.74834 363.076C5.74834 361.005 5.74834 359.093 5.74834 357.181L5.66799 357.261C7.4357 357.261 9.12305 357.261 10.8104 357.181Z" fill="white"/>
    <path d="M15.9528 342.046C15.9528 343.718 15.9528 345.471 15.8725 347.144L15.9528 347.064C14.2655 347.064 12.6585 347.064 10.8104 347.064C10.8104 348.896 10.8104 350.49 10.8104 352.162C9.12308 352.162 7.35537 352.162 5.66802 352.162C5.66802 350.49 5.66802 348.817 5.66802 347.064C3.81996 347.064 2.21296 347.064 0.605957 347.064C0.605957 345.471 0.605957 343.798 0.605957 342.046C2.29331 342.046 3.90031 342.046 5.66802 342.046C5.66802 340.293 5.66802 338.7 5.66802 336.947C7.35537 336.947 8.96238 336.947 10.7301 336.947C10.7301 338.541 10.7301 340.134 10.7301 342.046C12.5781 342.046 14.2655 342.046 15.9528 342.046Z" fill="white"/>
    <path d="M0.445068 373.272C0.445068 375.025 0.445068 376.698 0.445068 378.45C0.525419 378.45 0.605769 378.45 0.605769 378.45C0.605769 378.45 0.605769 378.45 0.686119 378.45L5.66783 378.45L5.66783 373.272L1.48962 373.272C1.08787 373.272 0.766469 373.272 0.445068 373.272Z" fill="white"/>
    <path d="M5.66797 231.318C7.27497 231.318 8.96233 231.318 10.8104 231.318C10.8104 233.389 10.8104 235.301 10.8104 237.213C9.20338 237.213 7.51602 237.213 5.66797 237.213C5.66797 235.142 5.66797 233.23 5.66797 231.318Z" fill="white"/>
    <path d="M5.66797 210.368C7.35532 210.368 8.96233 210.368 10.8104 210.368C10.8104 212.439 10.8104 214.351 10.8104 216.263C9.20338 216.263 7.51602 216.263 5.66797 216.263C5.66797 214.191 5.66797 212.28 5.66797 210.368Z" fill="white"/>
    <path d="M10.8103 110.474C12.4977 110.474 14.2654 110.474 15.9527 110.474C15.9527 112.386 15.9527 114.298 15.9527 116.449C14.185 116.369 12.4173 116.289 10.73 116.21C10.73 114.377 10.73 112.386 10.8103 110.474Z" fill="white"/>
    <path d="M5.66799 43.1614C4.06099 43.0818 2.37363 43.0021 0.686279 42.9225C0.686279 41.0106 0.686279 39.1785 0.686279 37.1073C2.45398 37.187 4.14134 37.2666 5.82869 37.3463C5.74834 39.3378 5.66799 41.2496 5.66799 43.1614C5.58764 43.1614 5.66799 43.1614 5.66799 43.1614Z" fill="white"/>
    <path d="M5.74831 58.2172C5.74831 60.2087 5.74831 62.1205 5.74831 64.112C4.14131 64.112 2.45396 64.112 0.766602 64.112C0.766602 62.1205 0.766602 60.2883 0.766602 58.2172C2.37361 58.2172 4.06096 58.2172 5.74831 58.2172Z" fill="white"/>
    <path d="M10.8104 136.762C10.8104 138.674 10.8104 140.506 10.8104 142.657C9.04268 142.657 7.35532 142.657 5.66797 142.657C5.66797 140.745 5.66797 138.913 5.66797 136.762C7.51602 136.762 9.12303 136.762 10.8104 136.762Z" fill="white"/>
    <path d="M15.9527 257.606C15.9527 259.598 15.9527 261.509 15.9527 263.501C14.2654 263.501 12.4977 263.501 10.8103 263.501C10.8103 261.589 10.73 259.677 10.73 257.765C12.4173 257.686 14.185 257.686 15.9527 257.606Z" fill="white"/>
    <path d="M5.66797 84.505C7.35532 84.505 8.96233 84.505 10.8104 84.505C10.8104 86.5762 10.8104 88.488 10.8104 90.3999C9.20338 90.3999 7.51602 90.3999 5.66797 90.3999C5.66797 88.3287 5.66797 86.4169 5.66797 84.505Z" fill="white"/>
    <path d="M5.74831 184.08C5.74831 186.071 5.74831 187.983 5.74831 189.975C4.14131 189.975 2.45396 189.975 0.766602 189.975C0.766602 188.063 0.766602 186.151 0.766602 184.08C2.37361 184.08 4.06096 184.08 5.74831 184.08Z" fill="white"/>
    <path d="M10.8104 10.8992C10.8104 12.811 10.8104 14.6432 10.8104 16.794C9.04268 16.794 7.35532 16.794 5.66797 16.794C5.66797 14.8822 5.66797 13.05 5.66797 10.8992C7.51602 10.8992 9.12303 10.8992 10.8104 10.8992Z" fill="white"/>
    <path d="M0.605957 315.758C0.605957 313.846 0.605957 312.014 0.605957 309.943C2.37366 309.943 4.06101 309.943 5.66802 309.943C5.66802 311.934 5.66802 313.846 5.66802 315.837L5.66802 315.758C4.06101 315.758 2.37366 315.758 0.605957 315.758Z" fill="white"/>
    <path d="M5.58765 163.528C5.58765 161.775 5.58765 159.943 5.58765 158.031C7.4357 158.031 9.0427 158.031 10.7301 158.031C10.7301 159.863 10.7301 161.696 10.7301 163.767C9.0427 163.687 7.275 163.607 5.58765 163.528Z" fill="white"/>
    <path d="M10.6494 331.291C12.3368 331.212 14.0241 331.132 15.8722 331.052C15.8722 333.124 15.8722 334.956 15.8722 336.788C14.1848 336.788 12.6582 336.788 10.9708 336.788C10.8905 334.956 10.8101 333.124 10.6494 331.291C10.7298 331.291 10.6494 331.291 10.6494 331.291Z" fill="white"/>
    <path d="M5.82861 283.894C7.43562 283.894 9.04262 283.894 10.73 283.894C10.73 285.726 10.73 287.638 10.73 289.55C9.12297 289.55 7.51597 289.55 5.82861 289.55C5.82861 287.718 5.82861 285.806 5.82861 283.894Z" fill="white"/>
    <path d="M5.82869 331.291C5.82869 333.124 5.82869 334.876 5.82869 336.788C4.06099 336.788 2.45398 336.788 0.686279 336.788C0.686279 334.956 0.686279 333.124 0.686279 331.052C2.45398 331.132 4.14134 331.212 5.82869 331.291Z" fill="white"/>
    <path d="M5.58764 163.528C5.58764 165.36 5.58764 167.272 5.58764 169.104C3.98064 169.024 2.37363 168.945 0.686279 168.865C0.686279 167.192 0.686279 165.599 0.686279 163.926C2.37363 163.687 3.98064 163.607 5.58764 163.528Z" fill="white"/>
    <path d="M10.8104 74.1492C10.8104 75.8221 10.8104 77.5746 10.8104 79.4864C9.04268 79.4864 7.35532 79.4864 5.66797 79.4864C5.66797 77.8136 5.66797 76.061 5.66797 74.1492C7.51602 74.1492 9.20338 74.1492 10.8104 74.1492Z" fill="white"/>
    <path d="M10.8104 200.012C10.8104 201.685 10.8104 203.437 10.8104 205.349C9.04268 205.349 7.35532 205.349 5.66797 205.349C5.66797 203.676 5.66797 201.924 5.66797 200.012C7.51602 200.012 9.20338 200.012 10.8104 200.012Z" fill="white"/>
    <path d="M15.8724 320.776C15.8724 322.449 15.8724 324.122 15.8724 325.875C14.2654 325.875 12.6584 325.875 10.8103 325.875C10.8103 324.202 10.8103 322.529 10.8103 320.776C12.4977 320.856 14.185 320.856 15.8724 320.776Z" fill="white"/>
    <path d="M15.9527 299.826C15.9527 301.499 15.9527 303.251 15.8724 304.924L15.9527 304.844C14.2654 304.844 12.4977 304.844 10.8103 304.844C10.8103 303.172 10.73 301.499 10.73 299.905C12.4173 299.905 14.185 299.905 15.9527 299.826Z" fill="white"/>
    <path d="M10.8103 278.557C12.4977 278.557 14.2654 278.557 15.9527 278.557C15.9527 280.23 15.9527 281.902 15.9527 283.655C14.2654 283.655 12.6584 283.655 10.8103 283.655C10.8103 281.982 10.8103 280.309 10.8103 278.557Z" fill="white"/>
    <path d="M10.8103 237.133C12.4977 237.133 14.2654 237.133 15.9527 237.133C15.9527 238.806 15.9527 240.479 15.9527 242.311C14.185 242.232 12.4173 242.152 10.73 242.072C10.73 240.479 10.73 238.806 10.8103 237.133Z" fill="white"/>
    <path d="M15.9527 216.183C15.9527 217.856 15.9527 219.608 15.9527 221.281C14.2654 221.281 12.4977 221.281 10.8103 221.281C10.8103 219.608 10.8103 217.856 10.8103 216.183C12.4977 216.183 14.185 216.183 15.9527 216.183Z" fill="white"/>
    <path d="M10.8103 194.914C12.4977 194.914 14.2654 194.914 15.9527 194.914C15.9527 196.587 15.9527 198.259 15.9527 200.012C14.185 200.012 12.4977 200.012 10.8103 200.012C10.8103 198.339 10.8103 196.666 10.8103 194.914Z" fill="white"/>
    <path d="M15.9527 173.963C15.9527 175.636 15.9527 177.388 15.9527 179.061C14.2654 179.061 12.4977 179.061 10.8103 179.061C10.8103 177.388 10.73 175.795 10.73 174.122C12.4173 174.043 14.185 174.043 15.9527 173.963Z" fill="white"/>
    <path d="M10.8103 152.694C12.4977 152.694 14.2654 152.694 15.9527 152.694C15.9527 154.367 15.9527 156.04 15.9527 157.792C14.2654 157.792 12.6584 157.792 10.8103 157.792C10.8103 156.119 10.8103 154.446 10.8103 152.694Z" fill="white"/>
    <path d="M15.9527 131.743C15.9527 133.416 15.9527 135.169 15.9527 136.842C14.2654 136.842 12.4977 136.842 10.8103 136.842C10.8103 135.169 10.73 133.576 10.73 131.903C12.4173 131.823 14.185 131.823 15.9527 131.743Z" fill="white"/>
    <path d="M15.9527 90.3201C15.9527 91.9929 15.9527 93.7455 15.9527 95.4183C14.2654 95.4183 12.4977 95.4183 10.8103 95.4183C10.8103 93.7455 10.8103 91.9929 10.8103 90.3201C12.4977 90.3201 14.185 90.3201 15.9527 90.3201Z" fill="white"/>
    <path d="M10.8103 69.051C12.4977 69.051 14.2654 69.051 15.9527 69.051C15.9527 70.7238 15.9527 72.3967 15.9527 74.1492C14.185 74.1492 12.4977 74.1492 10.8103 74.1492C10.8103 72.4764 10.8103 70.8035 10.8103 69.051Z" fill="white"/>
    <path d="M15.9527 48.1003C15.9527 49.7732 15.9527 51.5257 15.9527 53.1986C14.2654 53.1986 12.4977 53.1986 10.8103 53.1986C10.8103 51.5257 10.73 49.9325 10.73 48.2597C12.4173 48.18 14.185 48.18 15.9527 48.1003Z" fill="white"/>
    <path d="M10.8103 26.8311C12.4977 26.8311 14.2654 26.8311 15.9527 26.8311C15.9527 28.504 15.9527 30.1769 15.9527 31.9294C14.2654 31.9294 12.6584 31.9294 10.8103 31.9294C10.8103 30.2565 10.8103 28.5836 10.8103 26.8311Z" fill="white"/>
    <path d="M15.9527 5.8805C15.9527 7.55336 15.9527 9.3059 15.9527 10.9788C14.2654 10.9788 12.4977 10.9788 10.8103 10.9788C10.8103 9.3059 10.8103 7.55336 10.8103 5.8805C12.4977 5.8805 14.185 5.8805 15.9527 5.8805Z" fill="white"/>
    <path d="M5.66797 126.805C7.35532 126.805 9.04268 126.805 10.73 126.805C10.73 128.477 10.73 130.15 10.73 131.903C9.12303 131.903 7.59637 131.903 5.66797 131.903C5.66797 130.071 5.66797 128.398 5.66797 126.805Z" fill="white"/>
    <path d="M5.74831 100.437C5.74831 102.11 5.74831 103.862 5.74831 105.535C4.14131 105.535 2.45396 105.535 0.766602 105.535C0.766602 103.862 0.766602 102.269 0.766602 100.437C2.37361 100.437 4.06096 100.437 5.74831 100.437Z" fill="white"/>
    <path d="M5.74831 79.4067C5.74831 81.0796 5.74831 82.8321 5.74831 84.505C4.14131 84.505 2.45396 84.505 0.766602 84.505C0.766602 82.7525 0.766602 81.1593 0.766602 79.4067C2.37361 79.4067 4.06096 79.4067 5.74831 79.4067Z" fill="white"/>
    <path d="M5.66797 147.675C7.27497 147.675 8.96233 147.675 10.8104 147.675C10.8104 149.428 10.8104 151.101 10.8104 152.774C9.20338 152.774 7.51602 152.774 5.66797 152.774C5.66797 151.021 5.66797 149.348 5.66797 147.675Z" fill="white"/>
    <path d="M5.74831 16.794C5.74831 18.4669 5.74831 20.2194 5.74831 21.8923C4.14131 21.8923 2.45396 21.8923 0.766602 21.8923C0.766602 20.2194 0.766602 18.6262 0.766602 16.794C2.37361 16.794 4.06096 16.794 5.74831 16.794Z" fill="white"/>
    <path d="M5.58765 169.024C7.275 168.945 8.882 168.865 10.6497 168.785C10.6497 170.617 10.6497 172.37 10.6497 174.122C9.0427 174.043 7.4357 173.963 5.58765 173.884C5.668 172.29 5.668 170.617 5.58765 169.024C5.668 169.024 5.58765 169.024 5.58765 169.024Z" fill="white"/>
    <path d="M10.8104 178.982C10.8104 180.575 10.8104 182.248 10.8104 184.08C9.04268 184.08 7.35532 184.08 5.66797 184.08C5.66797 182.487 5.66797 180.814 5.66797 178.982C7.51602 178.982 9.12303 178.982 10.8104 178.982Z" fill="white"/>
    <path d="M5.66797 189.895C7.27497 189.895 8.96233 189.895 10.8104 189.895C10.8104 191.648 10.8104 193.32 10.8104 194.993C9.20338 194.993 7.51602 194.993 5.66797 194.993C5.66797 193.241 5.66797 191.568 5.66797 189.895Z" fill="white"/>
    <path d="M5.82861 331.292C5.82861 329.619 5.82861 327.866 5.82861 326.034C7.43562 326.034 9.04262 326.034 10.6496 326.034C10.6496 327.787 10.6496 329.539 10.6496 331.212C9.04262 331.292 7.43562 331.292 5.82861 331.292Z" fill="white"/>
    <path d="M5.66797 320.856C5.66797 319.183 5.66797 317.431 5.66797 315.758L5.66797 315.837C7.35532 315.837 9.12303 315.837 10.8104 315.837C10.8104 317.51 10.8104 319.263 10.8104 320.936C9.12303 320.856 7.43567 320.856 5.66797 320.856Z" fill="white"/>
    <path d="M10.8104 263.421C10.8104 265.014 10.8104 266.687 10.8104 268.52C9.04268 268.52 7.35532 268.52 5.66797 268.52C5.66797 266.926 5.66797 265.253 5.66797 263.421C7.51602 263.421 9.12303 263.421 10.8104 263.421Z" fill="white"/>
    <path d="M10.73 257.686C9.12303 257.686 7.59637 257.686 5.66797 257.686C5.66797 255.933 5.66797 254.26 5.66797 252.587C7.35532 252.587 9.04268 252.587 10.73 252.587C10.73 254.34 10.73 256.013 10.73 257.686C10.6497 257.765 10.73 257.686 10.73 257.686Z" fill="white"/>
    <path d="M10.73 242.072C10.73 243.745 10.73 245.498 10.73 247.25C9.12297 247.25 7.51597 247.25 5.82861 247.25C5.82861 245.578 5.82861 243.984 5.82861 242.311C7.51597 242.311 9.12297 242.232 10.73 242.072C10.73 242.152 10.73 242.072 10.73 242.072Z" fill="white"/>
    <path d="M5.74829 309.943C5.74829 308.349 5.74829 306.677 5.74829 304.924C7.516 304.924 9.20335 304.924 10.8104 304.924C10.8104 306.597 10.8104 308.349 10.8104 310.022C9.123 309.943 7.43564 309.943 5.74829 309.943Z" fill="white"/>
    <path d="M5.66797 273.538C7.27497 273.538 8.96233 273.538 10.8104 273.538C10.8104 275.29 10.8104 276.963 10.8104 278.636C9.20338 278.636 7.51602 278.636 5.66797 278.636C5.66797 276.884 5.66797 275.211 5.66797 273.538Z" fill="white"/>
    <path d="M10.73 299.906C9.12303 299.906 7.51602 299.906 5.66797 299.906C5.66797 298.073 5.66797 296.48 5.66797 294.887C7.35532 294.807 9.04268 294.728 10.73 294.648C10.73 296.56 10.73 298.312 10.73 299.906C10.6497 299.985 10.73 299.906 10.73 299.906Z" fill="white"/>
    <path d="M10.8104 221.202C10.8104 222.795 10.8104 224.468 10.8104 226.3C9.04268 226.3 7.35532 226.3 5.66797 226.3C5.66797 224.707 5.66797 223.034 5.66797 221.202C7.51602 221.202 9.12303 221.202 10.8104 221.202Z" fill="white"/>
    <path d="M0.605957 352.163C2.29331 352.163 3.98067 352.163 5.66802 352.163C5.66802 353.835 5.66802 355.588 5.66802 357.261L5.74837 357.181C4.06101 357.181 2.37366 357.181 0.605957 357.181C0.605957 355.508 0.605957 353.835 0.605957 352.163Z" fill="white"/>
    <path d="M0.686279 320.856C2.37363 320.856 4.06099 320.776 5.74834 320.776C5.74834 322.449 5.74834 324.122 5.74834 325.875C3.98064 325.875 2.37363 325.875 0.686279 325.875C0.686279 324.202 0.686279 322.529 0.686279 320.856Z" fill="white"/>
    <path d="M5.66796 294.887C4.06096 294.807 2.45396 294.728 0.766602 294.568C0.766602 292.895 0.766602 291.302 0.766602 289.629C2.45396 289.629 3.98061 289.629 5.66796 289.629C5.58761 291.461 5.58761 293.214 5.66796 294.887C5.58761 294.966 5.66796 294.887 5.66796 294.887Z" fill="white"/>
    <path d="M5.74831 268.52C5.74831 270.192 5.74831 271.945 5.74831 273.618C4.14131 273.618 2.45396 273.618 0.766602 273.618C0.766602 271.945 0.766602 270.352 0.766602 268.52C2.37361 268.52 4.06096 268.52 5.74831 268.52Z" fill="white"/>
    <path d="M5.66797 21.8125C7.27497 21.8125 8.96233 21.8125 10.8104 21.8125C10.8104 23.565 10.8104 25.2379 10.8104 26.9108C9.20338 26.9108 7.51602 26.9108 5.66797 26.9108C5.66797 25.1582 5.66797 23.4854 5.66797 21.8125Z" fill="white"/>
    <path d="M5.82861 37.3463C5.82861 35.6734 5.82861 33.9209 5.82861 32.1684C7.43562 32.1684 9.04262 32.1684 10.73 32.1684C10.73 33.8412 10.73 35.3548 10.73 37.0277C9.12297 37.187 7.43562 37.2666 5.82861 37.3463Z" fill="white"/>
    <path d="M5.58765 43.1615C7.275 43.0818 8.882 43.0022 10.6497 42.9225C10.6497 44.7547 10.6497 46.5072 10.6497 48.2597C9.0427 48.1801 7.4357 48.1004 5.58765 48.0208C5.668 46.4276 5.668 44.7547 5.58765 43.1615C5.668 43.1615 5.58765 43.1615 5.58765 43.1615Z" fill="white"/>
    <path d="M10.8104 53.119C10.8104 54.7122 10.8104 56.3851 10.8104 58.2173C9.04268 58.2173 7.35532 58.2173 5.66797 58.2173C5.66797 56.6241 5.66797 54.9512 5.66797 53.119C7.51602 53.119 9.12303 53.119 10.8104 53.119Z" fill="white"/>
    <path d="M5.66799 252.667C4.06099 252.667 2.37363 252.667 0.686279 252.667C0.686279 250.835 0.686279 249.242 0.686279 247.489C2.37363 247.489 3.98064 247.489 5.58764 247.489C5.66799 249.242 5.66799 250.994 5.66799 252.667Z" fill="white"/>
    <path d="M5.66797 64.0323C7.35532 64.0323 8.96233 64.0323 10.8104 64.0323C10.8104 65.7848 10.8104 67.4577 10.8104 69.1306C9.20338 69.1306 7.51602 69.1306 5.66797 69.1306C5.66797 67.378 5.66797 65.7052 5.66797 64.0323Z" fill="white"/>
    <path d="M5.74831 226.3C5.74831 227.973 5.74831 229.725 5.74831 231.398C4.14131 231.398 2.45396 231.398 0.766602 231.398C0.766602 229.725 0.766602 228.132 0.766602 226.3C2.37361 226.3 4.06096 226.3 5.74831 226.3Z" fill="white"/>
    <path d="M5.74831 205.27C5.74831 206.942 5.74831 208.695 5.74831 210.368C4.14131 210.368 2.45396 210.368 0.766602 210.368C0.766602 208.615 0.766602 207.022 0.766602 205.27C2.37361 205.27 4.06096 205.27 5.74831 205.27Z" fill="white"/>
    <path d="M5.74831 142.657C5.74831 144.33 5.74831 146.082 5.74831 147.755C4.14131 147.755 2.45396 147.755 0.766602 147.755C0.766602 146.082 0.766602 144.489 0.766602 142.657C2.37361 142.657 4.06096 142.657 5.74831 142.657Z" fill="white"/>
    <path d="M10.8104 95.3388C10.8104 96.932 10.8104 98.6049 10.8104 100.437C9.04268 100.437 7.35532 100.437 5.66797 100.437C5.66797 98.8439 5.66797 97.171 5.66797 95.3388C7.51602 95.3388 9.12303 95.3388 10.8104 95.3388Z" fill="white"/>
    <path d="M5.66799 126.804C4.06099 126.804 2.37363 126.804 0.686279 126.804C0.686279 124.972 0.686279 123.379 0.686279 121.627C2.37363 121.627 3.98064 121.627 5.58764 121.627C5.66799 123.379 5.66799 125.132 5.66799 126.804Z" fill="white"/>
    <path d="M5.66797 105.456C7.27497 105.456 8.96233 105.456 10.8104 105.456C10.8104 107.208 10.8104 108.881 10.8104 110.554C9.20338 110.554 7.51602 110.554 5.66797 110.554C5.66797 108.801 5.66797 107.128 5.66797 105.456Z" fill="white"/>
    <path d="M10.73 116.21C10.73 117.883 10.73 119.635 10.73 121.388C9.12297 121.388 7.51597 121.388 5.82861 121.388C5.82861 119.715 5.82861 118.122 5.82861 116.449C7.51597 116.449 9.12297 116.369 10.73 116.21C10.73 116.289 10.73 116.21 10.73 116.21Z" fill="white"/>
    <path d="M15.8724 352.163C15.8724 353.756 15.8724 355.429 15.8724 357.181C14.185 357.181 12.4977 357.181 10.8103 357.181L10.8907 357.261C10.8907 355.588 10.8907 353.835 10.8907 352.163C12.4977 352.163 14.185 352.163 15.8724 352.163Z" fill="white"/>
    <path d="M15.8724 309.943C15.8724 311.934 15.8724 313.846 15.8724 315.837L15.9527 315.837C14.2654 315.837 12.4977 315.837 10.8103 315.837C10.8103 313.846 10.8103 311.934 10.8103 309.943C12.4977 309.943 14.185 309.943 15.8724 309.943Z" fill="white"/>
</svg>
