<svg width="18" height="18" viewBox="0 0 18 18" fill="none" xmlns="http://www.w3.org/2000/svg">
<path fill-rule="evenodd" clip-rule="evenodd" d="M7 5.59926L7.24954 5H10.7505L11 5.59926L9.48541 7.17985L11 8.76045L10.9996 9.2532L9.48627 10.8267L10.9996 12.4003L10.7505 13H7.24954L7.00044 12.4003L8.51373 10.8267L7.00044 9.2532L7 8.76045L8.51459 7.17985L7 5.59926ZM9 6.67329L9.92668 5.70623H8.07332L9 6.67329ZM9 7.68642L7.73538 9.00615L9 10.3211L10.2646 9.00615L9 7.68642ZM9 11.3324L8.0754 12.2938H9.9246L9 11.3324Z" fill="#000000"/>
<path d="M1.58077 4.71651L9 0.433013L16.4192 4.71651V13.2835L9 17.567L1.58077 13.2835V4.71651Z" stroke="#000000" stroke-width="0.75"/>
</svg>
