<svg width="1200" height="301" viewBox="0 0 1200 301" fill="none" xmlns="http://www.w3.org/2000/svg">
<path d="M240.333 197.372H219.799C204.508 197.372 191.401 187.297 186.595 173.193L198.173 169.163C201.231 178.342 209.75 185.059 219.799 185.059H240.333C247.542 185.059 253.659 178.79 253.659 171.178C253.659 162.447 244.702 160.208 235.309 158.865L216.304 155.954C203.415 154.163 185.721 149.909 185.721 131.327C185.721 116.999 197.08 105.133 211.061 105.133H231.595C246.887 105.133 259.994 115.208 264.581 129.312L253.222 133.342C249.945 124.163 241.644 117.671 231.595 117.671H211.061C203.852 117.671 197.736 123.715 197.736 131.327C197.736 140.954 209.313 142.745 218.488 144.089L236.62 146.551C250.819 148.566 265.673 154.387 265.673 171.178C265.673 185.73 254.532 197.372 240.333 197.372Z" fill="black"/>
<path d="M370.309 156.403C370.309 179.015 352.396 197.373 330.333 197.373C319.848 197.373 309.799 193.343 302.372 185.731V235.432H290.357V105.358H302.372V117C309.799 109.612 319.848 105.358 330.333 105.358C352.396 105.358 370.309 123.94 370.309 146.552V156.403ZM358.294 146.552C358.294 130.656 345.624 117.895 330.333 117.895C315.042 117.895 302.372 130.656 302.372 146.552V156.403C302.372 172.074 315.042 185.059 330.333 185.059C345.624 185.059 358.294 172.074 358.294 156.403V146.552Z" fill="black"/>
<path d="M455.725 197.369V188.637C449.39 194.234 441.089 197.369 432.788 197.369H413.346C399.365 197.369 388.006 185.503 388.006 171.399C388.006 157.07 399.584 145.205 413.346 145.205H442.618C448.735 145.205 455.943 144.309 455.943 136.697C455.943 123.04 444.366 117.891 433.006 117.891H423.395C413.564 117.891 404.826 124.16 401.55 133.563L390.19 129.533C395.215 115.205 408.54 105.578 423.395 105.578H433.006C451.356 105.578 467.958 115.876 467.958 136.697V197.593H455.725V197.369ZM442.4 157.518H413.127C405.919 157.518 399.802 163.787 399.802 171.399C399.802 178.787 405.919 185.055 413.127 185.055H432.569C445.239 185.055 455.507 174.309 455.507 161.324V155.279C451.356 157.07 446.987 157.518 442.4 157.518Z" fill="black"/>
<path d="M554.681 134.239C550.093 124.388 540.263 117.895 529.559 117.895C514.268 117.895 501.598 130.88 501.598 146.552V156.403C501.598 172.074 514.268 185.059 529.559 185.059C540.263 185.059 550.093 178.791 554.681 168.492L565.603 173.865C559.05 188.194 545.069 197.149 529.341 197.149C507.277 197.149 489.365 178.791 489.365 156.179V146.328C489.365 123.716 507.277 105.358 529.341 105.358C544.851 105.358 558.831 114.313 565.603 128.642L554.681 134.239Z" fill="black"/>
<path d="M661.283 157.522H593.564C594.22 172.97 606.453 185.059 621.307 185.059C632.011 185.059 641.842 178.791 646.429 168.492L657.351 173.865C650.798 188.194 636.817 197.149 621.089 197.149C599.026 197.149 581.113 178.791 581.113 156.179V146.328C581.113 123.716 599.026 105.358 621.089 105.358C643.152 105.358 661.065 123.716 661.065 146.328V157.522H661.283ZM621.307 117.895C606.453 117.895 594.001 129.985 593.564 145.209H649.269C648.395 130.209 636.162 117.895 621.307 117.895Z" fill="black"/>
<path d="M775.314 197.369V134.235C775.314 123.937 767.45 117.892 758.057 117.892C749.537 117.892 742.328 125.28 742.328 134.235V197.593H730.095V134.235C730.095 123.937 722.231 117.892 712.838 117.892C704.1 117.892 696.891 125.28 696.891 134.235V197.593H684.876V105.802H696.891V110.952C702.352 106.922 707.595 105.802 714.149 105.802C722.45 105.802 730.751 109.832 735.993 116.549C741.892 108.713 749.974 105.802 759.149 105.802C774.659 105.802 787.111 118.564 787.111 134.459V197.817H775.314V197.369Z" fill="black"/>
<path d="M889.344 157.522H821.625C822.28 172.97 834.513 185.059 849.368 185.059C860.072 185.059 869.902 178.791 874.489 168.492L885.412 173.865C878.858 188.194 864.878 197.149 849.149 197.149C827.086 197.149 809.173 178.791 809.173 156.179V146.328C809.173 123.716 827.086 105.358 849.149 105.358C871.213 105.358 889.126 123.716 889.126 146.328V157.522H889.344ZM849.368 117.895C834.513 117.895 822.062 129.985 821.625 145.209H877.329C876.456 130.209 864.222 117.895 849.368 117.895Z" fill="black"/>
<path d="M962.962 197.372H942.428C927.136 197.372 914.03 187.297 909.224 173.193L920.801 169.163C923.86 178.342 932.379 185.059 942.428 185.059H962.962C970.171 185.059 976.287 178.79 976.287 171.178C976.287 162.447 967.331 160.208 957.938 158.865L938.933 155.954C926.044 154.163 908.35 149.909 908.35 131.327C908.35 116.999 919.709 105.133 933.69 105.133H954.224C969.515 105.133 982.622 115.208 987.21 129.312L975.85 133.342C972.574 124.163 964.273 117.671 954.224 117.671H933.69C926.481 117.671 920.365 123.715 920.365 131.327C920.365 140.954 931.942 142.745 941.117 144.089L959.248 146.551C973.229 148.342 988.302 154.163 988.302 170.954C988.302 185.73 977.161 197.372 962.962 197.372Z" fill="black"/>
<path d="M1080.92 197.371V146.55C1080.92 130.654 1068.25 117.893 1052.96 117.893C1037.67 117.893 1025 130.654 1025 146.55V197.371H1012.99V65.7292H1025V117.222C1032.43 109.834 1042.48 105.58 1052.96 105.58C1075.03 105.58 1092.94 123.938 1092.94 146.55V197.371H1080.92Z" fill="black"/>
<path d="M147.298 192.237L107.062 151.001L147.298 109.615H107.062L147.298 151.001L107.062 192.237H147.298Z" stroke="black" stroke-width="8" stroke-miterlimit="10" stroke-linejoin="bevel"/>
</svg>
