<svg width="18" height="18" viewBox="0 0 18 18" fill="none" xmlns="http://www.w3.org/2000/svg">
    <rect x="0.0981445" y="17.4398" width="17.2826" height="17.2826" rx="8.64128" transform="rotate(-90 0.0981445 17.4398)" fill="#EC5C3D"/>
    <path d="M8.6423 3.8421C6.4635 3.8421 4.60437 5.21671 3.91313 7.14121L3.37619 6.18609C3.31166 6.0667 3.18065 5.99894 3.04577 6.01572C2.93477 6.02798 2.83732 6.09575 2.78763 6.19577C2.73729 6.29644 2.74116 6.41454 2.79795 6.51136L3.70662 8.13249C3.79309 8.28802 3.98734 8.3474 4.14545 8.26673L5.76142 7.44067C5.84337 7.40324 5.90662 7.33354 5.93566 7.24899C5.96535 7.1638 5.9589 7.07023 5.91824 6.9902C5.87758 6.91018 5.80595 6.85016 5.71947 6.8237C5.63364 6.79789 5.54071 6.80757 5.46197 6.8521L4.55331 7.31676C5.16575 5.67884 6.76103 4.50304 8.64229 4.50304C11.0552 4.50304 12.9997 6.42495 12.9997 8.79854C12.9997 11.1528 11.0843 13.063 8.69912 13.094C8.61136 13.0953 8.5281 13.1308 8.4668 13.1941C8.4055 13.2567 8.37194 13.3418 8.37323 13.4296C8.37452 13.5174 8.41066 13.6006 8.4739 13.6619C8.53715 13.7226 8.62169 13.7562 8.70946 13.7549C11.4445 13.7194 13.6607 11.5123 13.6607 8.79853C13.6607 6.0628 11.4077 3.84219 8.64239 3.84219L8.6423 3.8421ZM8.66812 5.81952C8.49775 5.83823 8.37061 5.98344 8.37384 6.15509V8.79847C8.37384 8.8985 8.41966 8.99337 8.49775 9.05662L10.1499 10.3783C10.2925 10.4919 10.5003 10.4693 10.6145 10.3267C10.7287 10.1841 10.7055 9.97561 10.5629 9.86202L9.03469 8.63843V6.15514C9.03662 6.05963 8.9979 5.96864 8.92756 5.9041C8.85721 5.83957 8.76299 5.80924 8.66813 5.81956L8.66812 5.81952Z" fill="white"/>
</svg>
