<svg width="12" height="12" viewBox="0 0 12 12" fill="none" xmlns="http://www.w3.org/2000/svg">
    <rect x="0.995605" y="0.796875" width="10.5816" height="10.5034" rx="5.25171" fill="white"/>
    <rect x="5.16854" y="5.05776" width="0.481881" height="0.396164" fill="white" stroke="#EC5C3D" stroke-width="0.396164"/>
    <rect x="5.16854" y="5.85064" width="0.481881" height="0.396164" fill="white" stroke="#EC5C3D" stroke-width="0.396164"/>
    <rect x="4.29012" y="6.64217" width="0.481884" height="0.396163" fill="white" stroke="#EC5C3D" stroke-width="0.396163"/>
    <rect x="5.16854" y="6.64217" width="0.481881" height="0.396163" fill="white" stroke="#EC5C3D" stroke-width="0.396163"/>
    <rect x="6.04647" y="5.85064" width="0.481882" height="0.396164" fill="white" stroke="#EC5C3D" stroke-width="0.396164"/>
    <rect x="4.29012" y="7.43508" width="0.481883" height="0.396164" fill="white" stroke="#EC5C3D" stroke-width="0.396164"/>
    <rect x="3.41244" y="7.43508" width="0.481881" height="0.396164" fill="white" stroke="#EC5C3D" stroke-width="0.396164"/>
    <rect x="3.41244" y="8.22662" width="0.481881" height="0.396164" fill="white" stroke="#EC5C3D" stroke-width="0.396164"/>
    <rect x="4.29012" y="5.05776" width="0.481882" height="0.396164" fill="white" stroke="#EC5C3D" stroke-width="0.396164"/>
    <rect x="4.29012" y="4.2662" width="0.481882" height="0.396164" fill="white" stroke="#EC5C3D" stroke-width="0.396164"/>
    <rect x="3.41244" y="4.2662" width="0.481882" height="0.396164" fill="white" stroke="#EC5C3D" stroke-width="0.396164"/>
    <rect x="3.41268" y="3.47347" width="0.481883" height="0.396164" fill="white" stroke="#EC5C3D" stroke-width="0.396164"/>
    <rect x="7.4047" y="7.03892" width="0.481882" height="0.396163" transform="rotate(-180 7.4047 7.03892)" fill="white" stroke="#EC5C3D" stroke-width="0.396163"/>
    <rect x="7.4047" y="6.24601" width="0.481882" height="0.396164" transform="rotate(-180 7.4047 6.24601)" fill="white" stroke="#EC5C3D" stroke-width="0.396164"/>
    <rect x="8.28312" y="5.45448" width="0.481882" height="0.396164" transform="rotate(-180 8.28312 5.45448)" fill="white" stroke="#EC5C3D" stroke-width="0.396164"/>
    <rect x="7.4047" y="5.45448" width="0.481882" height="0.396163" transform="rotate(-180 7.4047 5.45448)" fill="white" stroke="#EC5C3D" stroke-width="0.396163"/>
    <rect x="6.52677" y="6.24601" width="0.48188" height="0.396164" transform="rotate(-180 6.52677 6.24601)" fill="white" stroke="#EC5C3D" stroke-width="0.396164"/>
    <rect x="8.28312" y="4.6616" width="0.481881" height="0.396164" transform="rotate(-180 8.28312 4.6616)" fill="white" stroke="#EC5C3D" stroke-width="0.396164"/>
    <rect x="9.1608" y="4.6616" width="0.481883" height="0.396164" transform="rotate(-180 9.1608 4.6616)" fill="white" stroke="#EC5C3D" stroke-width="0.396164"/>
    <rect x="9.1608" y="3.87003" width="0.481883" height="0.396164" transform="rotate(-180 9.1608 3.87003)" fill="white" stroke="#EC5C3D" stroke-width="0.396164"/>
    <rect x="8.28312" y="7.03892" width="0.481881" height="0.396163" transform="rotate(-180 8.28312 7.03892)" fill="white" stroke="#EC5C3D" stroke-width="0.396163"/>
    <rect x="8.28312" y="7.83045" width="0.481881" height="0.396164" transform="rotate(-180 8.28312 7.83045)" fill="white" stroke="#EC5C3D" stroke-width="0.396164"/>
    <rect x="9.1608" y="7.83045" width="0.481881" height="0.396164" transform="rotate(-180 9.1608 7.83045)" fill="white" stroke="#EC5C3D" stroke-width="0.396164"/>
    <rect x="9.16056" y="8.62321" width="0.481883" height="0.396164" transform="rotate(-180 9.16056 8.62321)" fill="white" stroke="#EC5C3D" stroke-width="0.396164"/>
</svg>
