<svg width="11" height="11" viewBox="0 0 11 11" fill="none" xmlns="http://www.w3.org/2000/svg">
    <path fill-rule="evenodd" clip-rule="evenodd" d="M10.8325 5.83301C10.8325 3.07158 8.59394 0.833008 5.83252 0.833008C3.0711 0.833008 0.83252 3.07158 0.83252 5.83301C0.83252 8.59443 3.0711 10.833 5.83252 10.833C8.59394 10.833 10.8325 8.59443 10.8325 5.83301ZM5.57086 6.64262C5.53327 6.81631 5.40207 6.97701 5.22436 6.97701C5.08133 6.97701 4.95439 6.87299 4.95971 6.73005C4.97819 6.23285 5.32485 5.90546 5.65056 5.59787C5.94619 5.31867 6.22456 5.05578 6.22456 4.69701C6.22456 4.25701 5.92856 3.92101 5.34456 3.92101C5.02432 3.92101 4.74351 4.02943 4.49826 4.21534C4.38346 4.30236 4.22087 4.30815 4.11476 4.21071C4.00378 4.10878 3.99722 3.93402 4.11364 3.83834C4.44955 3.56226 4.87619 3.37701 5.38456 3.37701C6.27256 3.37701 6.87256 3.86501 6.87256 4.62501C6.87256 5.15867 6.52226 5.48447 6.1823 5.80064C5.9103 6.05361 5.64493 6.30043 5.57086 6.64262ZM5.91256 8.30501C5.91256 8.68901 5.64856 8.92901 5.32856 8.92901C5.00856 8.92901 4.74456 8.68901 4.74456 8.30501C4.74456 7.92901 5.00856 7.69701 5.32856 7.69701C5.64856 7.69701 5.91256 7.92901 5.91256 8.30501Z" fill="#828282"/>
</svg>
