<svg width="15" height="14" viewBox="0 0 15 14" fill="none" xmlns="http://www.w3.org/2000/svg">
<path d="M2.44701 13.7914H12.156C13.3131 13.7914 14.2548 12.8503 14.2548 11.6926V11.1213C14.2548 9.9642 13.3137 9.02256 12.156 9.02256H2.44701C1.28989 9.02256 0.348242 9.96362 0.348242 11.1213V11.6926C0.348242 12.8498 1.2893 13.7914 2.44701 13.7914ZM1.11846 11.1219C1.11846 10.39 1.7146 9.79387 2.44646 9.79387H12.1555C12.8873 9.79387 13.4835 10.39 13.4835 11.1219V11.6932C13.4835 12.425 12.8873 13.0212 12.1555 13.0212H2.44646C1.7146 13.0212 1.11846 12.425 1.11846 11.6932V11.1219Z" fill="#AA58B1" stroke="#AA58B1" stroke-width="0.2"/>
<path d="M11.7278 12.1642C11.3108 12.1642 10.9711 11.8245 10.9711 11.4075C10.9711 10.9905 11.3108 10.6508 11.7278 10.6508C12.1448 10.6508 12.4845 10.9905 12.4845 11.4075C12.4845 11.8245 12.1448 12.1642 11.7278 12.1642ZM11.7278 11.0216C11.5157 11.0216 11.3424 11.1948 11.3424 11.4069C11.3424 11.619 11.5157 11.7923 11.7278 11.7923C11.9399 11.7923 12.1132 11.619 12.1132 11.4069C12.1132 11.1948 11.9399 11.0216 11.7278 11.0216Z" fill="#AA58B1" stroke="#AA58B1" stroke-width="0.2"/>
<path d="M0.587827 10.2057C0.565619 10.377 0.658737 10.5376 0.807515 10.607L0.783804 10.6427H0.970131C1.16002 10.6427 1.32586 10.5033 1.35194 10.3087C1.35195 10.3087 1.35195 10.3086 1.35196 10.3086L2.32001 3.12206L2.32001 3.12205C2.42149 2.36793 3.07263 1.79784 3.83368 1.79784H10.7648C11.5286 1.79784 12.1795 2.36888 12.279 3.12491L12.279 3.12498L13.2246 10.2698L13.2246 10.2699C13.2526 10.4808 13.4425 10.6298 13.6569 10.6016L13.6439 10.5025L13.6567 10.6016C13.8694 10.5741 14.0168 10.3795 13.9894 10.1693L13.9893 10.1691L13.0432 3.02379C12.8927 1.88549 11.9138 1.02695 10.7649 1.02695H3.8338C2.68765 1.02695 1.70881 1.88258 1.55596 3.01862C1.55596 3.01862 1.55595 3.01863 1.55595 3.01863L0.587891 10.2052L0.587827 10.2057Z" fill="#AA58B1" stroke="#AA58B1" stroke-width="0.2"/>
<path d="M7.72599 3.31394L7.72593 3.31402L8.11144 3.61661C8.18233 3.6704 8.20177 3.75423 8.18902 3.82444C8.17635 3.89421 8.13037 3.96313 8.05434 3.99573M7.72599 3.31394L8.05044 3.69586C8.12184 3.74936 8.09809 3.86825 8.01482 3.90387C7.79492 3.99903 7.40851 4.21306 6.86739 4.65902M7.72599 3.31394L7.72234 3.31133C7.64632 3.25699 7.54671 3.2567 7.47045 3.31049M7.72599 3.31394L7.47045 3.31049M8.05434 3.99573C8.05428 3.99576 8.05421 3.99579 8.05415 3.99581L8.01482 3.90387L8.05454 3.99565C8.05447 3.99567 8.05441 3.9957 8.05434 3.99573ZM8.05434 3.99573C7.85187 4.08337 7.4919 4.28094 6.98517 4.6919M6.98517 4.6919L6.93578 4.6456L6.89619 4.68783L6.86739 4.65902M6.98517 4.6919L9.11777 6.69112L9.11862 6.69191L9.11861 6.69192C9.31028 6.87582 9.30159 7.18249 9.09634 7.35738L9.09552 7.35808L9.09551 7.35808C8.90839 7.51405 8.63433 7.47984 8.47654 7.30758M6.98517 4.6919C6.96729 4.70639 6.94923 4.72116 6.93099 4.73619L6.89428 4.69166L6.86739 4.71855M6.86739 4.65902L6.8935 4.6907L6.86739 4.71855M6.86739 4.65902C6.8495 4.67692 6.8495 4.70066 6.86739 4.71855M7.47045 3.31049C7.09886 3.56209 6.75042 3.87195 6.43028 4.19822C6.30295 4.13957 6.14818 4.16602 6.04539 4.27555L6.04534 4.27549L6.04275 4.27848C5.95012 4.38534 5.9461 4.53668 6.00478 4.652C5.55275 5.18624 5.16865 5.7437 4.86864 6.22259C4.79566 6.3358 4.84625 6.45328 4.92359 6.51002C5.00041 6.56639 5.12808 6.58037 5.21411 6.47707L5.13727 6.41307M7.47045 3.31049L6.11831 4.34398C6.04106 4.4331 6.05293 4.5759 6.13018 4.65901C5.66064 5.20612 5.26219 5.78269 4.953 6.27629C4.87575 6.39518 5.04815 6.52009 5.13727 6.41307M5.13727 6.41307C5.62488 5.83634 6.05877 5.39038 6.43333 5.03975M5.13727 6.41307L5.21363 6.47763C5.67956 5.92655 6.09577 5.49596 6.45732 5.15445M6.43333 5.03975L6.45385 5.07068L6.4139 5.10815L6.45732 5.15445M6.43333 5.03975L6.45834 5.06647L6.48684 5.03975C6.47497 5.02787 6.45122 5.02787 6.43333 5.03975ZM6.45732 5.15445L8.47654 7.30758M6.45732 5.15445L8.47654 7.30758M8.47654 7.30758L9.04938 6.76407L6.86739 4.71855M6.9381 4.72974L6.89715 4.68879L6.9381 4.64784C6.94514 4.65488 6.95397 4.669 6.95397 4.68879C6.95397 4.70858 6.94514 4.7227 6.9381 4.72974Z" fill="#AA58B1" stroke="#AA58B1" stroke-width="0.2"/>
</svg>
