<svg width="11" height="10" viewBox="0 0 11 10" fill="none" xmlns="http://www.w3.org/2000/svg">
<path d="M1.31035 9.28277H9.00415C9.67275 9.28277 10.2167 8.73877 10.2167 8.07017V3.51705C10.2167 2.84844 9.67274 2.30445 9.00415 2.30445H5.18524C5.0807 2.30445 4.97826 2.26849 4.89672 2.20284L3.40474 1.00191C3.19024 0.82922 2.92012 0.733887 2.64456 0.733887L1.31025 0.734305C0.641644 0.734305 0.0976562 1.2783 0.0976562 1.9469V8.07058C0.0976562 8.73877 0.641655 9.28274 1.31025 9.28274L1.31035 9.28277ZM9.00415 8.53012H1.31035C1.05654 8.53012 0.850391 8.32397 0.850391 8.07016V5.31045H9.46413V8.07016C9.46413 8.32397 9.25798 8.53012 9.00417 8.53012H9.00415ZM1.31035 1.48693H2.64465C2.74919 1.48693 2.85163 1.52289 2.93317 1.58854L4.42515 2.78947C4.63966 2.96216 4.90977 3.0575 5.18534 3.0575L9.00424 3.05708C9.25805 3.05708 9.4642 3.26323 9.4642 3.51704V4.5578H0.850466V1.94688C0.850466 1.69307 1.05661 1.48692 1.31042 1.48692L1.31035 1.48693Z" fill="#252429"/>
</svg>
