<svg width="10" height="12" viewBox="0 0 10 12" fill="none" xmlns="http://www.w3.org/2000/svg">
<path d="M7.65707 5.67875V5.21616C7.65707 5.12729 7.65183 5.03951 7.64167 4.9531M7.65707 5.67875L7.71896 5.68224C7.71882 5.5259 7.7082 5.36995 7.68746 5.21616C7.67552 5.12765 7.66024 5.03985 7.64167 4.9531M7.65707 5.67875L7.4535 5.68175L7.65707 5.67875ZM7.64167 4.9531C7.57625 4.39628 7.30712 3.89632 6.92549 3.52889C7.2808 3.90792 7.52546 4.41 7.64167 4.9531ZM5.54634 2.47515V2.60543H5.34277H4.63919H4.43562V2.47515V2.40186V2.05007C4.43562 1.63138 4.72991 1.37744 4.99098 1.37744C5.25205 1.37744 5.54634 1.63138 5.54634 2.05007V2.40186V2.47515ZM7.4535 5.68521H7.65707H7.4535ZM5.52837 2.60748C5.52798 2.60752 5.52828 2.60749 5.52906 2.60742L5.52837 2.60748ZM6.86715 6.64698C6.82504 6.64715 6.79546 6.63471 6.77666 6.6224C6.79559 6.60993 6.82518 6.59746 6.86715 6.59746C6.86739 6.59746 6.86763 6.59746 6.86788 6.59746L6.86836 6.64697C6.86795 6.64697 6.86755 6.64697 6.86715 6.64698ZM6.86843 6.64697L6.86794 6.59746C6.90656 6.59761 6.93463 6.60832 6.9535 6.61978V6.6245C6.93457 6.63596 6.90667 6.64659 6.86843 6.64697ZM6.78087 10.0239H9.09517L6.04634 2.05007C6.04634 1.41062 5.58049 0.877441 4.99098 0.877441C4.40147 0.877441 3.93562 1.41062 3.93562 2.05007V2.47515C2.77582 2.77243 1.82489 3.89051 1.82489 5.21616V6.74057C1.7974 7.77532 1.06268 8.9369 0.622947 9.43762C0.53271 9.53839 0.50889 9.69321 0.564315 9.81643C0.619741 9.93965 0.751666 10.0244 0.886788 10.0239H3.20109H3.70109V10.2181C3.70109 10.9006 4.29793 11.4311 4.99098 11.4311C5.68356 11.4311 6.28087 10.9007 6.28087 10.2181V10.0239H6.78087Z" fill="black" stroke="#65B042"/>
</svg>
