<svg width="11" height="11" viewBox="0 0 11 11" fill="none" xmlns="http://www.w3.org/2000/svg">
    <path fill-rule="evenodd" clip-rule="evenodd" d="M0.689265 7.30251L1.36484 2.28727C1.4818 1.4181 2.23018 0.763916 3.10706 0.763916H8.01892C8.89789 0.763916 9.64635 1.42034 9.76149 2.29122L10.4202 7.26618C10.5483 7.49763 10.6212 7.76365 10.6212 8.04639V8.45126C10.6212 9.34303 9.89604 10.0677 9.00473 10.0677H2.12427C1.2325 10.0677 0.507812 9.34258 0.507812 8.45126V8.04639C0.507812 7.77828 0.573361 7.52527 0.689265 7.30251ZM1.40825 7.66371C1.3468 7.77793 1.31191 7.9084 1.31191 8.04678V8.45165C1.31191 8.89898 1.67656 9.26363 2.12389 9.26363H9.00434C9.45167 9.26363 9.81632 8.89898 9.81632 8.45165V8.04678C9.81632 7.90491 9.77964 7.77136 9.71528 7.65511C9.69837 7.63334 9.68361 7.60972 9.67134 7.58453C9.52448 7.3734 9.28012 7.2348 9.00434 7.2348H2.12389C1.83656 7.2348 1.58335 7.38525 1.43897 7.61141C1.43001 7.62973 1.41972 7.6472 1.40825 7.66371ZM1.60733 6.51464C1.76971 6.45972 1.94358 6.42993 2.12427 6.42993H9.00473C9.18048 6.42993 9.34974 6.4581 9.50825 6.51015L8.96385 2.39665C8.90183 1.92517 8.49534 1.56848 8.01884 1.56848H3.10697C2.63238 1.56848 2.22556 1.92461 2.16226 2.39502L1.60733 6.51464ZM6.21728 2.62611L5.94482 2.41225L5.93764 2.40688C5.83946 2.33669 5.70951 2.33606 5.61076 2.405C5.35989 2.57497 5.12514 2.77988 4.90945 2.99485C4.79232 2.97506 4.66792 3.01294 4.57987 3.10676L4.5747 3.11273C4.49304 3.20693 4.47353 3.32773 4.49923 3.43534C4.19464 3.80214 3.93539 4.17994 3.7312 4.50583C3.63528 4.65545 3.70569 4.81162 3.80277 4.88285C3.89868 4.95322 4.06916 4.97546 4.18368 4.83873C4.47095 4.49898 4.73088 4.22497 4.96112 4.00159L6.30236 5.43177C6.45667 5.5996 6.72835 5.63731 6.91836 5.47893L6.92001 5.47752C7.12322 5.30436 7.13283 4.99808 6.94145 4.81445L5.53786 3.49864C5.82766 3.27593 6.03312 3.1657 6.14886 3.11556C6.24714 3.07336 6.30457 2.9854 6.32033 2.89862C6.33624 2.81098 6.31273 2.69912 6.21728 2.62611ZM8.70127 8.85639C8.3666 8.85639 8.09416 8.58395 8.09416 8.24928C8.09416 7.91461 8.3666 7.64217 8.70127 7.64217C9.03594 7.64217 9.30838 7.91461 9.30838 8.24928C9.30838 8.58395 9.03594 8.85639 8.70127 8.85639ZM8.70127 8.04666C8.5901 8.04666 8.49903 8.13773 8.49903 8.2489C8.49903 8.36008 8.5901 8.45114 8.70127 8.45114C8.81244 8.45114 8.90351 8.36008 8.90351 8.2489C8.90351 8.13773 8.81244 8.04666 8.70127 8.04666Z" fill="black"/>
</svg>
