<svg width="18" height="18" viewBox="0 0 18 18" fill="none" xmlns="http://www.w3.org/2000/svg">
<path fill-rule="evenodd" clip-rule="evenodd" d="M0.208984 0.373047H17.209V17.373H0.208984V0.373047ZM13.6289 7.86109C13.5888 7.63117 13.3585 7.46456 13.1282 7.50121C12.8979 7.5412 12.731 7.77112 12.7677 8.00105C12.8078 8.23097 12.8311 8.47422 12.8311 8.71748C12.8311 10.9967 10.9854 12.8361 8.70565 12.8361C6.42594 12.8361 4.58015 10.9967 4.58015 8.72081C4.58015 6.4449 6.42594 4.59884 8.70898 4.59884C9.29977 4.59884 9.88722 4.72546 10.4246 4.96872L10.221 5.26195C10.0942 5.42856 10.1943 5.67182 10.4146 5.69514L12.1436 5.9384C12.3605 5.96505 12.5274 5.74513 12.4239 5.54186L11.6562 3.96905C11.5661 3.77578 11.3091 3.76245 11.1823 3.92906L10.9386 4.26228C10.2577 3.90907 9.49003 3.72913 8.70898 3.72913C7.37721 3.72913 6.11886 4.25562 5.17093 5.18864C4.23302 6.135 3.70898 7.38792 3.70898 8.72081C3.70898 10.0537 4.23635 11.3066 5.17093 12.253C6.11886 13.186 7.37721 13.7125 8.70898 13.7125C10.0408 13.7125 11.2991 13.186 12.247 12.253C13.1816 11.3066 13.709 10.0504 13.709 8.72081C13.7056 8.42424 13.6823 8.14433 13.6289 7.86109ZM7.72234 6.30636C7.72234 6.06644 7.91259 5.87317 8.15625 5.87317C8.39657 5.87317 8.59016 6.07977 8.5935 6.31635L8.58015 8.47897L10.4927 10.3383C10.6729 10.505 10.6863 10.7715 10.5194 10.9515C10.4293 11.0414 10.3125 11.0914 10.199 11.0914C10.0988 11.0914 9.99537 11.0548 9.90525 10.9781L7.81579 9.04545L7.78909 9.01879L7.77574 9.00546C7.76239 9.00546 7.76239 8.99213 7.76239 8.99213C7.74904 8.99213 7.74904 8.9788 7.74904 8.9788C7.73569 8.9788 7.73569 8.96547 7.73569 8.96547C7.72234 8.96547 7.72234 8.95214 7.72234 8.95214C7.70898 8.95214 7.70898 8.93881 7.70898 8.93881V8.92549V8.91216V8.89883V8.8855V8.87217V8.85884V8.84551V8.83218V8.81885V8.80553V8.7922V8.77887V8.76554V8.75221V8.73888V8.72555V8.71222V8.69889V8.68556V8.67224V8.65891L7.72234 6.30636Z" fill="#FFFFFF"/>
</svg>
