<svg width="26" height="21" viewBox="0 0 26 21" fill="none" xmlns="http://www.w3.org/2000/svg">
<path d="M20.2842 15.6201H16.0624C15.8158 15.6201 15.6524 15.4568 15.6524 15.2101C15.6524 14.9635 15.8158 14.8001 16.0624 14.8001H20.244C22.4173 14.8001 24.1806 13.0368 24.1806 10.8635C24.1806 8.69015 22.4173 6.92682 20.244 6.92682H20.2023H19.7923L19.7507 6.55846C19.3407 3.2368 16.5124 0.776638 13.1907 0.776638C10.5674 0.776638 8.18912 2.33497 7.1223 4.75331L6.99898 4.99995H6.7123H6.54894C3.84228 4.99995 1.67076 7.17328 1.67076 9.87813C1.67076 12.5864 3.8841 14.7998 6.59076 14.7998H9.95243C10.1991 14.7998 10.3624 14.9631 10.3624 15.2098C10.3624 15.4564 10.1991 15.6198 9.95243 15.6198H6.59076C3.43409 15.6198 0.892578 13.0781 0.892578 9.92159C0.892578 6.80493 3.43425 4.26318 6.55099 4.22341C7.78099 1.64008 10.3643 0 13.2344 0C16.8427 0 19.9178 2.62334 20.5328 6.15C23.0345 6.27332 25.0428 8.36334 25.0428 10.9068C25.0412 13.4885 22.9095 15.6202 20.2848 15.6202L20.2842 15.6201Z" fill="black"/>
<path d="M16.3901 12.1774L12.9467 8.69238L9.50338 12.1357C9.34002 12.2991 9.34002 12.5457 9.50338 12.7091C9.66674 12.8724 9.91338 12.8724 10.0767 12.7091L12.5367 10.2491V20.2125C12.5367 20.4591 12.7001 20.6225 12.9467 20.6225C13.1934 20.6225 13.3567 20.4591 13.3567 20.2125V10.2491L15.8167 12.7091C15.8984 12.7908 15.9801 12.8324 16.1034 12.8324C16.2267 12.8324 16.3084 12.7908 16.3901 12.7091C16.555 12.5874 16.555 12.3407 16.3901 12.1773L16.3901 12.1774Z" fill="black"/>
</svg>
